<svg width="389" height="409" fill="none" xmlns="http://www.w3.org/2000/svg"><g clip-path="url(#clip0)"><path d="M65.08 285.17c.8-.7 1.9-1.4 2.8-.9.9.5 1.2 1.8 1.8 2.8a3.002 3.002 0 002 1.5c.5.2 1.1.2 1.4.7.3.5 0 1.1-.3 1.5l-5.8 9.4-.8 1c-1.1 1.1-2.9 1.2-4.5 1.1h-5.4c-1.3-.1-2.8-.2-3.5-1.3a2.8 2.8 0 010-2.5 5.903 5.903 0 011.5-2 15.398 15.398 0 003.3-4.4 7.502 7.502 0 012.5-3.3c1.9-1.3 3.3-2.3 5-3.6zM272.08 123.37a17.298 17.298 0 01.8 9.8 2.994 2.994 0 01-1.4 2.4 2.503 2.503 0 01-1.5.3c-1.7 0-3.6-.1-4.9-1.1a5.902 5.902 0 01-1.7-2.4 70.215 70.215 0 01-4.7-10.5c-.5-1.6-.9-3.3-1.5-4.8a8.015 8.015 0 01-.7-2 3.997 3.997 0 01.5-2.4 1.595 1.595 0 011.126-.871c.242-.048.492-.04.73.025.239.064.459.182.644.346a30.411 30.411 0 016.9 4.8l3.2 2.9a9.807 9.807 0 012.5 3.5zM279.18 227.87l-86.2-1.8 31.8-58h1.5l4.4-.3 6.4-.5a19.701 19.701 0 003.3-.4 17.102 17.102 0 013.1-.6 85.766 85.766 0 018.7-.9h2.6a24.82 24.82 0 002.7-.4l5.9-.7a37.581 37.581 0 016.7-.1c.89.163 1.795.23 2.7.2l3.6-.3h2.1l.7 63.8zM158.98 227.37c1.2 2.1 2 4.3 3.3 6.2 1.3 1.9 2.9 3.4 4 5.2a16.492 16.492 0 011.4 4.8c.5 2.5 0 5.1.6 7.4a49.836 49.836 0 011.7 12.7 23.4 23.4 0 01-3.6 12.1c-1.9 2.8-5 4.6-8.4 4-3.4-.6-5.1-2.3-7.5-3.9-2.4-1.6-4.4-2.2-6.6-3.5a83.793 83.793 0 01-32.5-33.3 4.796 4.796 0 00-2.1-2.5c-1.7-.8-3 1.2-4 2.2-1 1-3.2 3-4.9 4.4a41.166 41.166 0 01-4.1 3.2 23.5 23.5 0 01-3.7 2.4c-1.3.9-2.5 1.9-3.7 2.9-1.2 1-5.4 4.2-8.1 6.1-2.7 1.9-5.8 4-8.6 6.1-2.8 2.1-6.6 5.7-10.5 7.7-3.9 2-8.6 2.6-12.4.5a9.498 9.498 0 01-4.4-9.5 19.202 19.202 0 012.2-5.6c1-1 1.6-3.1 2.3-4.3l2.4-4.5 4.7-9 4.8-9c1.5-2.7 2.7-5.6 4.3-8.3l5.6-9.4c.7-1.2 1.3-2.4 1.9-3.6.6-1.2 2.3-2.3 1.5-4a4.602 4.602 0 00-1.7-1.7 65.305 65.305 0 01-15.8-14.8c-3.1-4.1-5.5-9.5-5.2-14.7a7.699 7.699 0 012.7-5.9 23.395 23.395 0 012.7-1.5c1.6-.9 3-2.3 4.7-3.2 1.7-.9 3.3-.1 4.9-.8a6.7 6.7 0 002.2-1.9c5-5.7 9.1-12.2 13.7-18.2s10.1-11.8 17-15c9.1-4.2 19.6-3.7 29.6-2.7 3.3.3 6.6.7 9.8 1.2 3.2.5 7.1 1.4 8.7 4.3.609 1.29.982 2.679 1.1 4.1 1.8 13.976 1.8 28.124 0 42.1-.5 3.3-1.5 6.6-1.6 9.9a31.909 31.909 0 01-2.7 12.2c-1 2.2.6 4.6 1.7 6.3a48.354 48.354 0 013.8 7.1c2.7 5.4 5.9 10.5 8.8 15.7zM123.18 26.57a15.995 15.995 0 01-4.4-2.9 32.091 32.091 0 01-4.2-4.8c-1-1.6-1.5-3.4-2.6-5l-.3-.4c-1.1-.4-2.9 2.8-3.2 3.5a6.396 6.396 0 00.4 4.3 20.209 20.209 0 003.6 6.2c2.9 3.2 6.7 4.1 10.8 4.5a2.602 2.602 0 002.8-2.3c.2-1.6-.6-2.2-2-2.7l-.9-.4z" fill="#fff"/><path d="M96.18 101.87c-.8-7.3-2-14.5-3.3-21.7-.8-4.1-1.7-8.1-2.7-12.1-1-4-1.3-7.2-2.4-10.7a7.2 7.2 0 00-1.2-2.5c-1.5-1.9-3.6-2-5.8-2.5l-7.8-1.7c-1.9-.448-3.865-.55-5.8-.3-2.7.5-5 2.2-7.2 3.9-4.2 3.3-8.3 6.7-12.4 10.1-2.3 2-4.7 4.7-7.4 6.1a21.003 21.003 0 00-6.2 4.9l-13.5 13.5a152.627 152.627 0 00-13.9 15.1c-3.1 4-5.3 8-4.5 13.2.8 5.2 4.4 8.9 7.3 12.8 2.9 3.9 7 7.5 11.1 10.7l5.9 4.5 2.9 2.3c3.7 2.6 7.6 4.8 11.5 7 1.5.9 5.6 1.8 5.6 4a5.098 5.098 0 01-.6 2 9.5 9.5 0 00.9 8.8c3.7 5 12.7 4.9 18.1 4.4a32.583 32.583 0 0010.3-2.1 18.588 18.588 0 004.4-2.9 36.75 36.75 0 003.5-3.3 11.398 11.398 0 011.8-2.5c.5-.6 1.2-1 1.8-1.6a14.263 14.263 0 001.5-2.2c4-8 5.6-16.1 7.3-24.7a95.696 95.696 0 001.4-26.7l-.6-5.8zm-20.9 9.9l-1.2.9c-1.5.8-2.6 2.4-3.9 3.6-3 2.8-6.2 5.3-9.2 8-3 2.7-4 4.3-6.5 5.7a4.588 4.588 0 01-3.7.8c-1.5-.6-2.3-2.2-2.9-3.5a117.663 117.663 0 01-4.4-12.6 12.898 12.898 0 01-.8-3.8c.1-1.5.9-2.4 1.6-3.6a23.622 23.622 0 012.6-3.6c2-2.2 4.3-4.2 6.4-6.3a74.9 74.9 0 017-6.8 37.92 37.92 0 014-3c1.1-.8 1.8-2 3.4-1.3a7.6 7.6 0 012 2 67.703 67.703 0 016.1 11.6c.5 1.2.9 2.4 1.4 3.5a6.1 6.1 0 01.9 4.1 2.1 2.1 0 01-.4 1.1 9.3 9.3 0 01-2.4 3.2zM172.48 167.07c-.2-1.1-2.5-7.9-1-8.2l1 .2a18.594 18.594 0 0010.2.6c3.2-.7 6.4-1.4 8.8-3.9a17.394 17.394 0 003.8-7.7 77.928 77.928 0 001.5-9.3c.3-4.2.3-8.4.3-12.6v-21.7c0-3.3-.2-6.5-.3-9.7a2.79 2.79 0 01.1-.9c.1-2.8.7-5.8-.5-8.6s-4.9-4.8-8.3-4.7a23.205 23.205 0 00-4.5.6c-4.6.9-8.4 3-8.4 8.3 0 1.5.4 3.1.4 4.6.4 4.2.5 8.4.5 12.6 0 4.2.7 8-1.1 10.7l-.6.7-.8.2c-1.7.3-3.2-1-4.5-2.3-3-3-5-6.7-7.4-10.2l-8.3-12.1c-1.1-1.6-2.2-3.2-3.4-4.7a70.24 70.24 0 00-5.2-5.7 49.198 49.198 0 00-16.2-11.1l-3.9-1.8a.703.703 0 00-.6-.1c-.6.1-.6.9-.4 1.4.8 2.1 2.3 4 3.4 6s2.3 4.1 3.4 6.3a71.88 71.88 0 015.2 13.3c2.7 10.5 1.1 21-.9 31.4a2.899 2.899 0 004.2 3.2c1.6-.8 5.8-3.6 7.8-2.5s1.3 3.9 1.6 4.7c.7 2.7 1.3 5.3 1.8 8 .383 2.783.516 5.594.4 8.4a149.4 149.4 0 01-.6 17.7c-.1 1.1-.4 3.1.2 4.1.6 1 3 1.8 4.1 2.3a29.549 29.549 0 007.1 1.8 13.4 13.4 0 007.4-1.2 7.497 7.497 0 003.7-8.1zM239.68 122.07a8.72 8.72 0 01-1.5 1.2l-4.6 3.2-4.7 3c-.7.5-1.3 1.3-2 1.9l-2.2 1.8a7.027 7.027 0 00-1.6 1.3 2.902 2.902 0 00-.8 1.9c.074.45.208.887.4 1.3a2.4 2.4 0 00.9 1.1c.7.4 1.5 0 2.2-.4 2.9-1.7 5.6-3.6 8.3-5.4l4.3-2.9c1.4-.9 2.8-2.2 4.2-2.9 1.4-.7.8-1 1.2-1.6.4-.6 1-1 1-1.8a3.699 3.699 0 00-.6-2.1 3.405 3.405 0 00-.8-.9 1.8 1.8 0 00-1.6 0 5.708 5.708 0 00-2.1 1.3zM219.48 180.77c1.8-3.2 3.5-6.4 5.1-9.7.346-.46.523-1.025.5-1.6a1.088 1.088 0 00-.3-.8 1.7 1.7 0 00-1.4-.1l-1.7.5-3 .8a26.163 26.163 0 00-5.3 2.6 6.302 6.302 0 00-2 1.3 3.105 3.105 0 00-1.1 2c.007.912.324 1.794.9 2.5 1.4 1.9 6.5 6 8.3 2.5zM288.28 253.37c.5-7.8 1-15.5 1.4-23.3.1-1.1 0-2.4-1-3a2.899 2.899 0 00-2.4.1 17.999 17.999 0 00-7.6 5.8 54.956 54.956 0 01-8.3 9.1c-2.6 2.2-6.6 5.1-10.2 4.6-1.4-.2-2.5-1.1-3.8-1.4l-5.8-1.4c-9.1-2.1-18.2-4.4-27.4-6.3l-13.8-2.6-7.1-1.1c-1.6-.2-4 .1-4.6-1.9-.1-.5-.1-1.1-.2-1.7a9.898 9.898 0 00-1.4-4.4 2.199 2.199 0 00-.9-1 2.606 2.606 0 00-1.5 0 88.175 88.175 0 01-10.2 1.1c-3 .2-6.1.6-8.6 2.1s-4 3.6-5.8 5.5c-1.8 1.9-3.6 3.3-5.2 5.1a17.506 17.506 0 00-4.6 14.5c.7 5.7-.1 11.1-.2 16.8-.1 5.7.7 9 .7 13.4s-.2 9.7-.2 14.6c.1 7.5.3 15 .8 22.5.1 2.8 1.1 6.2.5 8.9-.6 2.7-1.7 7.2-2 10.9-.3 2.036-.023 4.114.8 6a5 5 0 004.4 2.8c2.376.419 4.789.587 7.2.5l4.7-.3c.574-.038 1.15.03 1.7.2 1.2.5.8 2.1 1 3.1a7.902 7.902 0 001.7 3.7c.8 1 1.3 1.1 1.7 2.4.372 1.344.64 2.715.8 4.1.6 5.6.1 11.3.7 16.9.2 1.3.5 2.8 1.5 3.6a3.684 3.684 0 002.9.5 5.493 5.493 0 002.4-1.2 15.3 15.3 0 011.8-1.8l2.6-2c.9-.8 2.2-.9 3-1.9a6.003 6.003 0 001.1-3c2.1-12.7 4.8-25.3 6.9-38 1.6-9.8 3-19.6 4.4-29.4a6.203 6.203 0 012.2-4 9.672 9.672 0 011.8-.7l10.2-3.2c.442.296.97.437 1.5.4 4.776-.013 9.549.22 14.3.7 4 .4 8 1.6 12 2.1h3.4c1.411.32 2.853.488 4.3.5l2.7-.6a37.583 37.583 0 0011-5.4 29 29 0 009.8-12.6 43.609 43.609 0 003.1-12.3c.4-4.1 1-8.2 1.3-12.2.2-1.9.3-3.9.5-5.8z" fill="#fff"/><path d="M126.58 345.67c.2 2.1 21.9 4.1 28.9 4.1s16.5-5.6 19.7-15.7a41.9 41.9 0 01-14.2-4.2s-34.6 13.6-34.4 15.8z" fill="#F45D48"/><path d="M176.48 320.87s-10.6.7-15.7-2.7c-.3-.2.2 11.7.2 11.7a41.9 41.9 0 0014.2 4.2 17.4 17.4 0 001-6.1l.3-7.1zM195.28 369.17a65.251 65.251 0 002.5-13.3c-7.9.4-19.8-3.7-19.8-3.7l.5 12-.4.7c4.3 2.1 10.9 4.5 17.2 4.3z" fill="#DBAFAB"/><path d="M178.08 364.87l-22.2 34.3c-2.5 3.7-2.6 7.5-1.2 8 1.4.5 16-10.1 28.9-19.3 6.2-4.5 9.7-12.1 11.7-18.7-6.3.2-12.9-2.2-17.2-4.3z" fill="#F45D48"/><path d="M184.08 238.97c.7-3.4 3.7-4.8 6.8-5.2a2.808 2.808 0 011.3.1 3.999 3.999 0 001.5-2.4c1-6-7.9-5.9-11.5-5.7-3.6.2-11.7.8-10.4 5.7l-1.7 2.9a5.193 5.193 0 01-3 1.3c-2.8.8-1.8 5 .9 4.7a6.496 6.496 0 001.1 4.9 2.398 2.398 0 002.3.6 3.494 3.494 0 001.4-.6c.369.501.848.912 1.4 1.2a2.297 2.297 0 002.8-.3l.4-.4a6.191 6.191 0 002 1.5 1.598 1.598 0 001.5-.2c1.2 1.3 3.8.3 4.2-1.6a11.495 11.495 0 01-1-6.5zM240.98 158.07l-2.2 7.9 13.1-1 3.5-.3h1.6c.9-.5.2-2.3 0-3a16.938 16.938 0 01-.7-4.5 12.909 12.909 0 013.8-8.5 19.31 19.31 0 018.3-4.5c1.6-.4 3.2-.8 4.2-2.1s1.9-2.4 1.3-3.5c-.6-1.1-4.1-2.3-4.1-2.3l-4.1.2a9.498 9.498 0 01-6.2-1.9 11.846 11.846 0 01-1.8-1.3 62.663 62.663 0 00-8.6-6.8l-3.4-2.6-1.4-.9s-7.3 4.9-10.4 7.5c-3.1 2.6-10.1 7.5-10.1 7.5.56.673 1.198 1.277 1.9 1.8a4.501 4.501 0 001.9 1.1c.8.1 1.5-.5 2.2.1.7.6.5 1.4.4 2.2-.347 2.89.066 5.82 1.2 8.5a12.206 12.206 0 003.3 5.1 4.598 4.598 0 002.6 1c.4 0 3.6.6 3.7.3z" fill="#DBAFAB"/><path d="M262.78 115.97a21.206 21.206 0 00-11.2-5.5c-2-.3-4 .1-5.9.1a15.81 15.81 0 00-6.8 1.6c-5.3 2.6-10.9 7.9-11.7 14-.3 1.9 1.7 4.3 3.5 2.9a56.036 56.036 0 005.5-4.1c1.1-1 3.3-3.1 4.8-3.1l2.8-1.4c.028.34.095.676.2 1 2.2 4.6 4.3 9.6 8.6 12.7l1.8 1c2.9 2.6 7.5 3.6 10.7 1.3l.3-.3a1.908 1.908 0 002.258-.868c.143-.255.226-.54.242-.832 1.2-6.6-.2-13.6-5.1-18.5zM274.08 145.57a3.498 3.498 0 00-1-1.8c-1.1-1.1-2.4-.5-3.7-.3a14.194 14.194 0 00-9.2 5.9 18.112 18.112 0 00-2.6 5.2 19.402 19.402 0 00-1.2 5.9 4.194 4.194 0 00.8 3.3 5.7 5.7 0 003.6.9l3.6-.2a4.595 4.595 0 002.6-1.5 29 29 0 006.6-10.9 10.7 10.7 0 00.5-6.4v-.1z" fill="#A34942"/><path d="M208.58 175.67l-.2.3a91.588 91.588 0 00-7.5 10.9c-3.1 5.6-6.5 11.2-9.1 17.1-2.6 5.9-4.5 12.2-7.9 17.8-1.5 2.4 1.9 4.7 3.7 2.9l1.1.2 10.5-1.2c1.7-.2 4.2 0 5.6-1.1 1.4-1.1 1.7-3.4 2.1-5 .4-1.6 1.3-5.9 2.2-8.9 1.9-6.2 4.7-12.2 7-18.3a39.801 39.801 0 002.6-7.4 1.5 1.5 0 00.6-.9c2.2-5.9-6.7-10.8-10.7-6.4z" fill="#F5DDAC"/><path d="M291.68 204.57c0-2.8 0-5.5-.1-8.2l-.2-11.2c0-1.837-.1-3.673-.3-5.5a30.619 30.619 0 00-2.2-9.5c-3.1-6.6-10.2-7.3-15-2.2-4.8 5.1-8.5 16.1-10.9 24.1-2.4 8-3.8 17.6-6 26.3a35.605 35.605 0 01-4.6 1.6 1.898 1.898 0 00-1.3 0c-6.1 1.6-12.5-.4-18.7 1.1a1.707 1.707 0 00-1.5 1.2h-3.9c-9.5.6-18.9 1.1-28.4 2.4-.299.08-.578.22-.821.411a2.3 2.3 0 00-.779 2.489c1.5 4.3 2 6.4 6.7 6.8 4.7.4 11.2 2.1 17 2.6 11.9 1.1 23.8 4.8 35.2 8.5a2.306 2.306 0 001.5 1.4c19.4 5.9 32.7-10.4 33.4-28.6.1-3.6.7-7.3.9-10.9v-2.8z" fill="#E9B446"/><path d="M128.88 80.17c9.9 17.2 13.6 50.2 4.7 53.1-13.8 4.4-28.4 0-36.6-2.7v-1c.2-2.8.3-5.7.4-8.6.1-2.9.7-9.3-.1-13.5-.8-4.2-.8-9-1.5-13.5s-1.6-9.6-2.5-14.3c-.9-4.7-1.6-10.3-3.1-15.1-.6-1.8-1.5-3.4-2.1-5.1-.6-1.7-.8-2.8.2-2.8s2.7 2.6 3.2 3a27.603 27.603 0 003.9 2.8c4.3 2.4 9.6 2.1 14.4 1.8a9.299 9.299 0 012.4.2c.522.139 1.026.34 1.5.6 1.8.9 3.8 1.3 5.6 2.1 1.8.8 1.7 1.9 2.5 3.1 2.3 3.3 5 6.4 7.1 9.9z" fill="#81D1D1"/><path d="M66.18 264.17c-3.4-.4-5.3-2.8-7.2-5.3a2.303 2.303 0 00-1.9-1l-.5-.5c-5.7-4-12.4 2.2-13.3 7.8v.4c-2.5 3.9-2.1 7.2-.4 12.3a51.094 51.094 0 009.2 16.2 2.097 2.097 0 001.4.8c.247.133.519.213.798.235a2.01 2.01 0 001.533-.548c.203-.193.362-.427.469-.687.5-1.1 1-2.2 1.6-3.3a4.501 4.501 0 012-2.1c1.9-1.3 3.8-2.8 5.6-4.2a1.996 1.996 0 001.586-1.928 2.002 2.002 0 00-.186-.872 65.473 65.473 0 01-1.9-6.3c-.8-3.2.4-5 2.9-6.9 2.5-1.9.1-3.9-1.7-4.1zM82.18 293.77c-1.2 0-2-1-3.2-1.1a2.307 2.307 0 00-.7-.7 2.107 2.107 0 00-1.7-1c-.8-1.3-2.4-1.9-3.5-.5l-3.4 4.3c-1.6 2.2 1.4 4.2 3.4 3.2.4.305.9.448 1.4.4a11.683 11.683 0 002.7-.4c.1-.1 1.7-.5 1.1-.6-.6-.1 1.2.7 1.6.8a8.483 8.483 0 002.3.4c3 .2 3-4.6 0-4.8zM68.08 133.37a11.9 11.9 0 00-7.1-4.9 9.4 9.4 0 00-4.7 0c-1.5.4-3.3 1.9-5 2.5a9.422 9.422 0 00-1.2-2.2 2.195 2.195 0 00-2.3-.6 14.102 14.102 0 00-8.1 7.3 2.203 2.203 0 00-2 1.6 19 19 0 00.3 11.8c1.4 3.6 5 7.8 9.2 8a6.097 6.097 0 003.9-1.3c1.2-.7 2.6-1.3 3.9-2.1 2.9-1.7 5.7-3.7 8.8-5.2 3.1-1.5 5.5-2.6 6.4-5.7.9-3.1-.3-6.7-2.1-9.2zM206.48 67.77c-.7-1.6-2.2-2.8-3.2-4.3s-1-1.9-2.1-2.4c-3.4-1.5-5.1 2.4-6.5 4.6-1.4 2.2-8.3 12.4-10.3 9.6a2.4 2.4 0 00-1.5-1c.449-.912.849-1.846 1.2-2.8.9-2.9-3.7-4.1-4.6-1.2-2.5 7.5-7.8 17 3.1 20.1 8.5 2.4 17.9-4.5 21.8-11.5 1.8-3.3 3.7-7.3 2.1-11.1zM125.68 30.07s0 3.9-6.6 3.6c.2 0-2.3 6.4-2.5 6.8a16.396 16.396 0 01-4.1 5 11.09 11.09 0 01-3 1.7c-.7.3-3.4.5-3.6 1-.2.5-.1.5-.1.7.1 4.193.982 8.33 2.6 12.2.8 1.9-.2 2.1-1.8 2.5a16.2 16.2 0 01-4.4.7c-4.3.1-7.6-1.8-11-4.5a14.6 14.6 0 01-5.5-11.4v-5.4c0-4.5 2.4-10.5 7.1-12.2l3.1-1a12.3 12.3 0 004.2-2.6 37.24 37.24 0 004.6-5.1 47.228 47.228 0 014.1-4.8c2.5 2.9 4.4 6.2 7.5 8.6a26.92 26.92 0 004.6 2.8c.4.1 4.8 1.5 4.8 1.4z" fill="#BD7B77"/><path d="M388.58 302.57c-.2-.4-.7-.4-1.2-.6-.5-.2-.5.1-.8-.1h-1.4a3.302 3.302 0 00-2.4 0c-1 .2-2.3-.3-3.2.2a2.201 2.201 0 00-1.4-.2 17.712 17.712 0 00-4.6-.1 1.705 1.705 0 00-1.4 0c-.4-.1-.6.3-.9 0-.3-.3-1.4.2-2 .2h-1.4a3.302 3.302 0 00-2.4 0c-1 .2-2.3-.3-3.2.2a2.201 2.201 0 00-1.4-.2 17.712 17.712 0 00-4.6-.1 1.705 1.705 0 00-1.4 0c-.4-.1-.6.3-.9 0-.3-.3-1.4.2-2.1.2h-1.3a3.302 3.302 0 00-2.4 0c-1 .2-2.3-.3-3.2.2a2.201 2.201 0 00-1.4-.2 17.712 17.712 0 00-4.6-.1 1.705 1.705 0 00-1.4 0c-.4-.1-.6.3-.9 0-.3-.3-1.4.2-2.1.2h-1.3a3.302 3.302 0 00-2.4 0c-1.1.2-2.3-.3-3.2.2a2.201 2.201 0 00-1.4-.2 17.712 17.712 0 00-4.6-.1 1.705 1.705 0 00-1.4 0c-.4-.1-.6.3-.9 0-.3-.3-1.4.2-2.1.2h-1.3a3.302 3.302 0 00-2.4 0c-1.1.2-2.3-.3-3.2.2a2.201 2.201 0 00-1.4-.2 17.712 17.712 0 00-4.6-.1 1.705 1.705 0 00-1.4 0c-.4-.1-.6.3-.9 0-.3-.3-1.4.2-2.1.2h-1.4a3.1 3.1 0 00-2.3 0c-1.1.2-2.3-.3-3.2.2a2.603 2.603 0 00-1.5-.2 17.038 17.038 0 00-4.5-.1 1.705 1.705 0 00-1.4 0c-.5-.1-.7.3-.9 0-.2-.3-1.4.2-2.1.2h-1.4a3.302 3.302 0 00-2.4 0c-1 .2-2.2-.3-3.1.2a2.603 2.603 0 00-1.5-.2 17.625 17.625 0 00-4.6-.1 1.705 1.705 0 00-1.4 0c-.4-.1-.6.3-.9 0-.3-.3-1.3.2-2 .2h-.4a24.202 24.202 0 0010.1-5.1c.3-.7 1.2-.9 1.6-1.6.4-.7 1.1-1 1.8-1.4.7-.4.5-.8.8-1.1a23.097 23.097 0 005.1-9c.5-.4.4-1.1.5-1.6.256-.466.425-.974.5-1.5a7.595 7.595 0 00.8-2.1c.3-.3.2-.7.2-1.2a36.117 36.117 0 001.6-10.2 2.495 2.495 0 000-1.7c.172-.515.24-1.058.2-1.6.4-.6.2-1.4.4-2.1.2-.7 0-.9 0-1.4.548-3.306.848-6.649.9-10 .3-.6 0-1.1 0-1.7 0-.6.1-.7.2-1.1.5-4.5 1-9.2 1.1-13.7-.2-.4.1-.9 0-1.3s.2-1.5 0-2.3a4.695 4.695 0 00.3-1.7c.3-3.7.7-8.3.6-11.9.3-.5 0-1.1-.1-1.6a4.709 4.709 0 00.2-1.6c.7-4.2.4-8.6.8-12.9-.3-.8 0-1.1-.1-1.7a2.802 2.802 0 010-1.8c-.2-.7.3-1.3.2-2.2a5.384 5.384 0 000-1.8c0-1.9.4-3.8.1-5.7a32.483 32.483 0 00-.2-5.4 2.896 2.896 0 01-.3-1.6c-.3-4.5-1.8-10-5.1-13.4-.4-.2-.5-.7-1-.9a3.497 3.497 0 01-1.5-1.2c-.9-.2-1.1-.9-2.2-1.1-4.1-1.5-8.8-.9-13.1-.7a2.697 2.697 0 01-1.8.1c-.3.1-.5.2-.8 0-3.1 0-6.3.2-9.4.5.5-.5 0-1.3 0-1.9h.1c-.2-.4 0-.8-.2-1.2-.2-.4-.2-.8-.2-1.3s-.1-.4-.1-.7c.214-.469.284-.991.2-1.5.4-.9.1-1.8.6-2.6a16.911 16.911 0 014-6.5c.5-.1.7-.7 1-1 .3-.3.9-.4 1.2-.8.3-.4 1.1-.5 2-.7.9-.2 4.7-.2 6.4-2 0 .3-.1.6.2.8.3.2.1.2 0 .5h.1a3.9 3.9 0 00.4.9c-.1.7 0 .6.3 1.4.3.8.3 1.5.5 2.2.2.7.3.3.1.4-.146.387-.247.79-.3 1.2 0 .2-.2.3-.3.5-.1.2-.2 1.1-.6 1.5-.4.4-.1.4-.2.6-.1.2-.4.2-.4.4s0 .4-.1.5c-.1.1-.1.5-.5.4-.4-.1-.4 1-.8 1.3h-.1c0 .2.1.2-.2.4-.3.2-.8 1.6 0 1.6s.9-.7 1.3-.8h.1c.2-.4.6-.4.7-.9.1-.5.1-.4.3-.5.2-.1.7-.6.8-1 .1-.4.7-.5.8-1l.3-.5c.4-.3.2-.8.4-1.2a9.897 9.897 0 00-1-8.2h-.1l-.6-.8c-.2-.1-.2-.3-.4-.3a4.991 4.991 0 001.238-2.029c.244-.765.3-1.579.162-2.371-.5-.7-.5-1.8-1.3-2.2-.8-.4 0-.3.1-.4.1-.1.2-.9.4-1.2h.1c-.1-.5.2-.9.1-1.4-.1-.5-.1-.5-.1-.7a3.294 3.294 0 00.1-1.7 8.59 8.59 0 00.2-2.3c.1-.5-.3-.9-.3-1.4a15.003 15.003 0 00-4.8-9.6c-.3-.6-.9-.7-1.4-1-.5-.3-.7-.9-1.2-1.1-.5-.2-1.1-1-1.7-1.6-.6-.6-.9-.4-1.3-.7a20.804 20.804 0 00-11-3.5 4.49 4.49 0 01-1.6.1c-.257-.1-.543-.1-.8 0a3.898 3.898 0 00-1.5-.2h-.8c-3.8.4-8 .9-11.3 3.2-.3.3-.8.3-1.1.7a3 3 0 01-1.5 1.2c-.2.276-.479.485-.8.6-.5.2-.8.9-1.4 1.2-.6.3-1.1 1.7-2 2.3-.1.3-.5.2-.6.5-.1.3 0 .4-.2.4s-.6.2-.7.5a1.31 1.31 0 00-1 .4.7.7 0 00-.8.4 3.846 3.846 0 00-1 .3 17.668 17.668 0 01-4.6.1c-.4.2-.9.4-.8 1 .1.6.4.4.6.6h.8a1.09 1.09 0 00.8.3c.4.2.7-.3 1.1-.2h1.5c.1-.2.1-.4.3-.2.2.2.7-.1 1.1-.1h.5c.3-.2.7-.2 1-.5-.3 1.3-1.3 3.4-1.2 4.7h.1c.1.6-.2 2.5.9 2.1 1.1-.4.3-.3.4-.6.1-.3 0-1 .4-1.4h-.1c0-.7.2-.6.2-1.2a4.002 4.002 0 00.7-1.8c-.1-1 .8-1.8 1.1-2.8.3-1 0-.5.2-.5s1-1.3 1.7-1.7a24.18 24.18 0 012.1-2.4c.6-.3.6-.4.9-.9.3-.5.3-.6.8-.5.5.1 1-1.1 1.6-1.3l.8-.3c.4-.3 1.3-.3 2.1-.8s1.8-.6 2.6-.9c.8-.3.4-.3.6-.3 1.941.016 3.88-.117 5.8-.4.465.121.957.085 1.4-.1h.6c.6.6 1.5 0 2.2.1.7.1.7.3 1.3.3.6 0 1.8.4 2.8.7 1 .3 1.6.8 2.4.7.8-.1.7.5 1.2.8.5.3 2.3 1.7 3.6 2.5.278.372.661.651 1.1.8.2.3.6.1.6.6s1.7 1 2.1 2c.4 1 .3.5.4.8.505.57.972 1.171 1.4 1.8.4.7.6 1.7 1.2 2.1.6.4.1.9.2 1.4.1.5.4 2.3.3 3.4-.1 1.1.2.6.1.9-.113.466-.078.955.1 1.4-.1.4.2.6-.1.8-.3.2.1 1.4-.1 2h-.1c.4.4 0 .6.1 1-2.2-1-4.8-.2-7 .5a.9.9 0 01-1.1-.2 13.895 13.895 0 01-2.1-1.1c-.6-.1-.8-.6-1.3-.8-.5-.2-.6-.1-.7-.5-.1-.4-.3-.3-.5-.5s-.5-1.1-1.2-1.6a31.403 31.403 0 01-4-9.4h-.1a3.307 3.307 0 01-.4-1.3c-.7-1.1-1.3-.1-1.3.8s.3.5.1.8h.1c-.03.443.038.887.2 1.3a2.597 2.597 0 00.6 2.1c.5.9.4 2.1 1.3 2.7.9.6.4 1.1.6 1.7.2.6 1 1.7 1.4 2.6l.7.7c.2.2.2.5.5.6.277.143.517.348.7.6.3 0 .3.2.3.4s1.3.6 1.7 1l.8.6c.4.1.5.4.7.6a5.403 5.403 0 004.1.6l.6-.3c.1-.2.2-.4.4-.3.2.1 1.3-.3 2.1-.1h1a.899.899 0 01.7.3h.7c.2.1.2.3.3.4h.4c.1.2.4.3.2.5s.5.8.3 1.4a7.775 7.775 0 01-.4.9c-.2.2-.5.4-.6.7a1.206 1.206 0 00-.5.7c-.4.6-1.2.8-1.8 1.1-.6.3-.2.5-.6.3-.4-.2-.6.2-1 .1a6.209 6.209 0 00-3 .3c-.5 0-.9.4-1.3.6-.4.2-.9.7-1.4 1-.5.3-.2.3-.5.2-.3-.1-.8 1.1-1.3 1.4-.5.3-.7.5-1 .9a2.406 2.406 0 00-1.4 1.8c-.2.5-.7.8-.8 1.3l-.4.8c-.2.2 0 .5-.1.7-.1.2-.5 1.1-.9 1.6a10.314 10.314 0 00-.6 3.9c-.1.6-.2.8.1 1.3.3.5.3.6 0 .9-.3.3.4 1.3.5 1.9h-.1c.4.2.3.4.4.7.081.34.254.652.5.9l-4.1.4a2.1 2.1 0 01-1.5.3l-5.8.3-3.2.3a8.288 8.288 0 01-2.7.3c-.1-.1 0-.2 0-.4a17.494 17.494 0 001.2-3.2c.2-.6.3-2 .8-2.4a4.61 4.61 0 012-.3c1.398.02 2.788-.217 4.1-.7.8 0 1.1-.4 1.8-.7.7-.3.3-.2.5-.1s1.2-.7 1.8-1h.1l.4-.4c.4 0 .6-.3.8-.6.2-.3.5-1-.1-1s-1 .3-1.3.4h-.5c-.3.4-.8.2-1.2.6l-.6.4-1.5.4c-1.6 0-3 .8-4.6.8a15.099 15.099 0 01-7-.9c-.3-.1-.5-.4-.8-.4-.3 0-.6-.5-1-.7-.4-.2-.9-.7-1.1-1.2-.2-.5-.4-1.1-.8-1.6s-.2-1-.5-1.4c-.8-2.2-.7-4.6-.9-6.8-.2-2.2 0-1.6.1-2.3a1.5 1.5 0 00-.5-1.9c-.7-.7-1.4-.3-2.2-.2a3.77 3.77 0 01-1-.3c-.6.1-1-.6-1.6-.7-.6-.1-.8-.6-1.3-.7-.5-.1-1-.9-1.4-1.3-.4-.4-.3-.5-.1-.6a62.48 62.48 0 004.9-4.1c.6-.2.8-.7 1.2-1.2 4.1-2.6 7.9-6.1 12.2-8.4.31-.236.646-.437 1-.6 0-.1.1 0 .2 0s.5-.4.5-.6c.082.224.116.462.1.7h.1c.6 1.5.7 3.2 1.9 4.3 1.2 1.1 1.2 2.6 2.3 3.3a13.907 13.907 0 002.8 4.3 9.103 9.103 0 003.4 2.8c.3.4.8.3.9.7.1.4 1.8.7 2.6 1h-.1c.7-.2 1.3.4 2.1.1.8-.3 1.1-.5.5-.9-.6-.4-.5-.2-.7-.3l-.8-.2a.496.496 0 00-.5-.3c-.5 0-.9-.4-1.4-.5-.5-.1-.6-.1-.8-.3-.2-.2-1-.8-1.6-1.1a44.588 44.588 0 01-9.1-13.5h-.1c-.5-.6-.6-1.5-1.1-2-.5-.5-.4-.2-.7 0-.3.2-.1 1 0 1.6a2 2 0 00-1.3-.2 1.005 1.005 0 01-.9.2h.1a5.29 5.29 0 00-1.3.6 3 3 0 00-2.1 1.3c-.8.7-2.1 1-2.5 2a3.303 3.303 0 00-1.3.7 19.535 19.535 0 00-3.7 2.7 1.902 1.902 0 00-1 1c-.4.2-.3.5-.8.5s-.8 1-1.4 1.4l-.9.6c-.2.3-.5.3-.8.4a12.933 12.933 0 00-1.7 1.6c-.8.6-2.2 1.2-1.9 2.4.3 1.2.3 1.7.7 2.3.4.6 3 2.2 4.6 2.8 1.6.6.8.1 1.4 0a1.102 1.102 0 001.1.3c.1-.2.3-.3.4-.1.1.2 0 .2-.1.2s0 .7-.3 1.2a4.1 4.1 0 00.1 1.9c.2 1-.2 2.3.4 3.2.6.9.4 3.5.9 5.2.5 1.7.7 1.6 1.4 2.1s.7.4.6.8c-.1.4 1.3.9 1.9 1.3.6.4.4.2.5.3.1.1.2.3.4.3a1.8 1.8 0 01.9.6 6.492 6.492 0 002 .4c.7 0 1.8-.1 1.4.8l-1.2 3.2c-.2.6-1 2.1-.7 2.7l-.9.3c-.6-.2-1.1.2-1.7.3a7.664 7.664 0 00-1.5.2c-4.3.1-8.6 1.3-12.9 2.1-.5.4-1 .3-1.6.6a3.196 3.196 0 01-1.7.6c-.6.3-1.3.1-1.9.5l-.7.2c-.5 0-.8.5-1.3.6-3.3 1.3-5.8 4.1-7.7 6.9-.6.3-.7 1-.9 1.5a3.808 3.808 0 00-1 1.2c-.501.37-.911.848-1.2 1.4a76.807 76.807 0 00-6 9.9c0 .5-.5.7-.6 1.2a2.697 2.697 0 01-.8 1.6.897.897 0 01-.4.8c-.5.4-.5 1-.9 1.4-1.6 3.3-3.2 6.5-4.7 9.8 0 .8-.4 1-.6 1.6-.2.6-.6 1.4-.7 2.1a9.325 9.325 0 00-1.1 1.9c-1.3 3.5-3 6.9-4.1 10.4h.1c0 .8-.6 1.5-.2 2a5.498 5.498 0 01-1.8.2c-.3.2-.8.2-1.2.4-.4.2-1.6.3-2.3.4l-1.5.3a4.006 4.006 0 00-2.1.9c-.5.9-1.5 1.6-2.1 2.5-.6.9 0 .7-.4.8-.4.1-1.9 2.5-3.1 3.5-1.2 1-.3.5-.6.7a1.802 1.802 0 00-.9.8c-.4 0-.4.4-.8.2s-1 .5-1.5.5a4.085 4.085 0 01-.5-.9h.1c-.3-.3-.3-.8-.7-1.1l-.5-.5a4.1 4.1 0 00-.7-1.5 16.576 16.576 0 00-.8-2c-.1-.5-.6-.8-.8-1.2a54.566 54.566 0 00-4.9-8.9c-.2-.9-1-1.2-1.2-2.2-.2-1-.6-.6-.5-1.1a4.497 4.497 0 00-.6-1.2c-1.7-3.4-3.6-6.6-5.3-10-.7-.5-.5-.9-1-1.4-.5-.5-.6-1.4-1.2-2a3.51 3.51 0 00-.5-1.3c.112-.182.18-.387.2-.6h.1c0-.4.4-.8.3-1.3a1.59 1.59 0 010-.7c.272-.452.411-.972.4-1.5.2-.5.6-.9.6-1.4.021-.244.089-.482.2-.7.86-3.662 1.528-7.367 2-11.1-.1-.5.3-.8.2-1.3-.1-.5.3-1.5.2-2.3-.1-.8.5-4 .9-6l.9.6c.4 0 .7.5 1.2.5s1.3.7 2.1.8a7.304 7.304 0 002.8 1c3.4.8 7.2 1.2 10.5-.1.7 0 1.1-.5 1.6-.9.53-.184.986-.535 1.3-1 2.3-1.3 3-4.5 2.7-7-.3-2.5-.7-4.1-1.3-6-.6-1.9-.7-1.4-.6-2.4.1-1 .6.1.8.6h.1l1.1.5a2.698 2.698 0 002.3.6c.9 0 2.1.6 3 .1.9-.5 1.5.1 2.3.2a19.744 19.744 0 002.4-.3l.9-.3h.8c.4-.5.6-.4 1-.7.4-.3.4.2.6 0a14.781 14.781 0 012.5-1.6c.8-.1.9-.3 1.6-.9.7-.6 2-1.5 2.1-2.7.1-1.2.7-.6 1-1 .3-.4.4-.6.6-.9l.2-.3a12.79 12.79 0 001.3-4.5.402.402 0 01.1-.5c.4-.5 0-1.3.1-1.9.1-.6.1-.4.3-.9.2-.5.2-.5.3-.8.1-.73.1-1.47 0-2.2a11.31 11.31 0 00.3-1.8c0-.2-.2-.4-.2-.6 0-.2.2-.8.3-1.2.1-.4.2-2.2.5-3.3.3-1.1-.1-.6-.1-.9 0-.3.2-.5.2-.7a1.505 1.505 0 01-.2-.9c-.1-.2 0-.3.1-.5s-.3-1.5-.1-2.4c.089-.222.123-.462.1-.7.1-.4.3-.7.2-1.1-.1-.4-.3-1.1-.2-1.6.1-.663.1-1.337 0-2-.1-.2-.2-.4 0-.6.2-.2 0-1.4.2-2 .087-.461.121-.931.1-1.4a5.613 5.613 0 00-.1-1.8c.3-.7 0-1-.1-1.6a.402.402 0 01.1-.5c.2-.6-.3-1.2-.2-1.9.05-.398.05-.801 0-1.2a2.391 2.391 0 000-2.2c-.1-.7.1-1.6 0-2.3-.1-.7-.4-.4-.2-.7.2-.3.1-1.5.3-2.1-.05-.766-.05-1.534 0-2.3 0-.3-.1-.6-.1-.9 0-.3.1-.5.1-.7a2.594 2.594 0 01-.3-1.1c.5-.7-.3-1.6-.1-2.3a3.287 3.287 0 000-1 1.298 1.298 0 00.2-1.2c.2-.6-.3-1-.2-1.6.1-.6.2-1.8-.2-2.3-.4-.5.2-.8.3-1.3.1-.5 0-.6.1-.9a.4.4 0 00.1-.3c.2-.6 0-1.3.3-1.8s0-.5.1-.8c.1-.3.3-.3.3-.5s.2-.6.3-1c.1-.4.7-1 1.3-1.4l.4-.2.4-.2c.1-.3.5-.3.7-.5.2-.2 1-1.1 1.5-1.7.5-.6 1.4-1.2 1.5-1.9.1-.7.6-.5 1-.9a14 14 0 002.6-3.3c.315-.331.524-.75.6-1.2.2-.2.1-.6.5-.6s.4-1.3.7-1.8h.1c-.1-.3-.2-.3 0-.6s.2-.6.2-.9c0-.3-.4-.9-.8-.6-.4.3-.6 1.1-.9 1.4h-.1c0 .5-.4.6-.5 1.1.015.205-.02.41-.1.6-.334.351-.604.757-.8 1.2-.7.5-.8 1-1.3 1.5s-2.8 3.3-4 5c-1.2 1.7-2.8 2.3-3.7 3.4a5.299 5.299 0 01-1.1 1.5c-.1.7-.8 1.1-.8 1.9a26.92 26.92 0 00-.5 5.7c-.5-.3-1.3-.2-1.8-.4-.5.1-.9-.3-1.4-.2h-.7a5.302 5.302 0 00-1.7-.4l-1.4-.5c-.7-.1-1.2-.5-1.9-.4a27.004 27.004 0 01-9.1-4.6 2.701 2.701 0 01-1.1-1 2.603 2.603 0 01.1-1.5c-.2-.7 0-.7-.1-1.2s.1-1.5.4-2.3l.4-1.2a4 4 0 00.7-1.8c-.1-1.1.8-2 1-3 .2-1-.1-.5.1-.6.2-.1.8-1.4 1.4-1.9.6-.5 1.3-1.8 1.8-2.7a1.401 1.401 0 00.8-1c.4-.2.3-.6.7-.5.4.1.7-.9.9-.9v.2h.1a.1.1 0 110 .2c.2.1-.1.2-.2.2a6.837 6.837 0 00-.2 1.5c-.1 1-1.1 2-.9 3-.349.36-.592.81-.7 1.3-.5.9-1.3 2.5-.9 3.5s.7 1.2 1.4 1a4.996 4.996 0 002.2-1.3c.2-.3.6-.5.8-.9.2-.4 1-1.1 1.6-1.6.375-.25.712-.553 1-.9 1.1-.4 1.5-1.4 2.1-2.2.6-.8.9-1 1.4-1.5.5-.5.1-.4.2-.6a17.596 17.596 0 004.1-4.5c.383-.334.632-.796.7-1.3.3-.3.1-.6.6-.7.5-.1.5-1.3.9-1.9h.1a.597.597 0 01.1-.7c.3-.2.2-.6.3-.9.1-.3-.3-1.1-.8-.7-.5.4-.3.3-.4.5-.1.2-.2.4-.7.9-.1.4-.6.7-.7 1.1a.795.795 0 01-.2.7 5.99 5.99 0 00-.9 1.3c-.501.37-.911.849-1.2 1.4-2.7 3.3-5.7 6.6-8.7 9.7-.1.7-1.1.9-1.4 1.4-.3.5-.2-.2-.3-.1-.1.1 0 .1-.1.1s5.1-9.9 1.2-10l-.2.6.2-.6a4.901 4.901 0 00-1.7.6c-.4.2-.5.6-.7.8a5.01 5.01 0 00-1.3 1.2 6.698 6.698 0 00-2.2 2.5 25.508 25.508 0 00-4 10.3c-.4.6-.2 1.2-.2 1.8a2.896 2.896 0 00-.3 1.6c-.4.7-.2 1.5-.4 2.2-.1.495-.1 1.005 0 1.5a51.822 51.822 0 00.4 10.4c-.2.6.1 1.1.2 1.7v1.1c.2.8-.2 1.5 0 2.3.1 3.9.3 8-.5 11.8-.5.7-.1 1.4-1 1.8-.9.4-.2.3-.4.4a3.194 3.194 0 01-1.4-.3c-3.1-1.9-4.9-5.5-7.2-8.2-.4-.2-.4-.8-.8-1-.4-.2-.8-1-1.1-1.5-.3-.5-.6-1.4-1.2-2-2.2-3.3-4.3-7-6.8-10a1.995 1.995 0 00-.6-.9c.4-.2.6-1.1.9-1.5h.1c0-.4.4-.7.4-1.2a1.702 1.702 0 01.1-.7.4.4 0 01.1-.3l.3-.7a.798.798 0 01.3-.8c.3-.5.2-1.1.5-1.6.6-3.7 1.3-7.7 0-11.2.1-.7-.3-1.1-.6-1.6a4.403 4.403 0 00-.5-1.5 2.5 2.5 0 00-.6-1.6c-1.5-3.7-5.4-5.6-9.2-6.1-.6.2-1-.1-1.6 0a3.7 3.7 0 01-1.8.1c-.5.2-1.3-.1-1.6 0h-.1c.1-.1-.1-.1-.1-.2.7-3.2 1.2-7.1-.3-10.1a2.799 2.799 0 00-1-1.4 2.799 2.799 0 00-1-1.4 2.8 2.8 0 00-1.4-1.2 1.704 1.704 0 00-1.2-.6 10.399 10.399 0 00-2.2-.6c-3-.7-6.4.5-8.9 1.9 0 .1-.2.3-.3.1-.1-.2-.1-.2 0-.3-.6-4.5-3.6-8.9-8.7-8.2l.6-1c.2-.3.3-.7.5-.8.2-.1.7-.2.8.1h.1c.22.054.425.156.6.3.3-.1.4.1.6.3.2.2 1.1-.1 1.7 0 .6.1.7.1 1.1.2h1.9l.7.2h1.7a2 2 0 011.1-.2c2 3.7 8.2 1.4 7.2-2.6a2.401 2.401 0 00-1.1-2 2.705 2.705 0 00-1.8-1.1c-2.5-1.2-5 1.4-4.9 3.8h-1.7c-.4.2-.9-.1-1.4 0-.5.1-2.2-.1-3.2-.3a7.98 7.98 0 00-1.5-.3h-.4c-.2 0-.3.2-.5.1s.1-.8.2-1a3.39 3.39 0 00.6-1.2 5.794 5.794 0 00.7-2.1 8.4 8.4 0 004.9-.8c1.8-1.3 4.4-4.6 1.9-6.5-.4-.7-1.2-.7-1.9-.9a7.479 7.479 0 00-1.5-.9 6.893 6.893 0 00-1.3-1.1l.6-1.4h.1c0-.5.4-.9.4-1.5a2.11 2.11 0 010-.8 5.77 5.77 0 00.4-1.8c1.5-5.4-3-11-8.4-12a13.4 13.4 0 00-2-.1c-.3-.6-.9-1.1-1.2-1.6-.3-.5-.4-.9-.8-1.2a3.601 3.601 0 00-1.5-1.7c-1.2-.3-2.1-1.2-3.3-1.4-1.2-.2-.4.2-.6 0a10.599 10.599 0 00-6.1-1.1 1.7 1.7 0 00-1.4.3l-.7.2c-.8-.4-1.5.5-2.3.5l-1.4.3a3.6 3.6 0 00-2.4.7c-.9.6-2.3.5-2.9 1.4a10.2 10.2 0 00-3.9 1.5c-.8.4-1.1.3-1.8 1a2.5 2.5 0 00-1.2.8 1.2 1.2 0 00-.5.5c-.9-.1-1.2 1-1.9 1.4l-.9.6c-.2.3-.5.3-.8.5-.3.2-1.1 1.2-1.7 1.8a6.7 6.7 0 00-1.4 1.5c-.3.1-.2.4-.3.6-.1.2-1 .9-1.5 1.3a13.602 13.602 0 00-2.4 3.5 2.4 2.4 0 00-.7 1.3c-.3.3-.1.7-.5.8-.4.1-.3 1.4-.6 2.1-.3.7-.5.6-.7 1.2a3.5 3.5 0 00-.8 2.4c0 1.1-1 2.1-.5 3.2a2.4 2.4 0 00-.5 1.4c-.5 1.514-.704 3.11-.6 4.7-.3.7 0 1.2 0 1.9s.1.2-.1.3c-.2.1-.1.8-.6 1-.298.05-.602.05-.9 0a2.1 2.1 0 00-1.1-.7c-.5-.3-1.2-.1-1.7-.4a6.5 6.5 0 00-2.7-.5 11.499 11.499 0 00-6.1-1.1 1.6 1.6 0 00-1.5.1c-.4-.1-.6.3-.9 0-.3-.3-1.5.4-2.1.5a6.6 6.6 0 00-1.5.3 2.9 2.9 0 00-2.3.9 18.3 18.3 0 00-2.4 1.3c-.3.1-.2.7-.6.6a12.1 12.1 0 00-4.4 4.3 2.8 2.8 0 00-.7 1.3c-.3.4-.1.7-.5.8-.4.1-.4 1.5-.7 2.1a3.4 3.4 0 00-.6 1.2 2.1 2.1 0 00-.7 1.2c-.4.8.1 1.6-.7 2.1-.8.5-.5.2-.7.3-.2.1-.4.3-.5.1a2.9 2.9 0 00-1.3-.1h-1.5a9.3 9.3 0 00-3.3.7c-.9 0-1.2.4-2 .8s-1.5.8-2.2 1.1a3.7 3.7 0 00-1.2.7 3.4 3.4 0 00-1.8 1.1c-.6 1.1-1.7 1.6-2.2 2.7-.5 1.1 0 .5-.3.5s-1 1.6-1.6 2.1a36.112 36.112 0 00-1.6 4.1c.1.6 0 .8.1 1.3s-.4.4-.3.7c.215.95.283 1.929.2 2.9.2.6-.1 1.1.2 1.7.3.6.6 1.1.7 1.7.1.6.7 2 1.5 2.4.8.4.9 1.5 1.3 2.3.4.8 1.4 1.2 2 2 .6.8.6.2.9.4.3.2.5.5.8.6a1.9 1.9 0 011 .3c.2-.1.4.1.5.3.1.2 1.5.1 2.2.3.3-.2.3-.2.7-.1a3.3 3.3 0 00-1.7 1.6c-.5.7-1.5 1.3-2 2s0 .3-.1.4c-.1.1-.8.6-1.2.9a7.7 7.7 0 00-1.9 1.7c-.8.7-1.3 1.4-2.1 2a1.6 1.6 0 01-.5.9c0 .2-.2.3-.4.3s-.7 1.2-1.2 1.7l-.8.6c-.1.4-.4.5-.7.6a5.299 5.299 0 00-1.1 1.5c-.5.8-1.4 1.4-1.8 2.2-.4.8 0 .3-.1.4a13.294 13.294 0 00-2.8 3c-.8.9-.9 1.4-1.7 2.3-.091.317-.226.62-.4.9 0 .2-.1.4-.3.4-.2 0-.5 1.4-.9 2a4.5 4.5 0 00-.6 1.2 2.898 2.898 0 00-.8 2.6c0 1-.4 2-.1 3 .3 1 .3.4.2.6a10.899 10.899 0 001.7 5.8c.1.7.7 1 1.1 1.6.4.6.2.2.2.4s1 1.1 1.4 1.6c.196.443.466.849.8 1.2a1.7 1.7 0 00.6 1.1c.3.6 1 .7 1.4 1.2l1.3 1.5c.2.2.7.1.7.5s.8.8 1.1 1.3a7.106 7.106 0 001.5 1.5c.65.717 1.352 1.385 2.1 2 .317.069.6.246.8.5.2 0 .3.1.4.4.1.3 1.2.6 1.7 1.1.258.208.493.442.7.7.4.1.5.5.7.7a7.59 7.59 0 002 1.3c.7.5 1.4 1.4 2.2 1.4.8 0 1.3 1.1 1.8 1.8.374.378.815.683 1.3.9.7.7 1.5 1.1 2.2 1.7.33.052.64.19.9.4.3 0 .4.1.4.3 0 .2 1.3.6 1.8 1l1.1.9c.22.37.53.679.9.9.4.5 1.1.4 1.5.8.551.498 1.155.934 1.8 1.3.3 0 .5 0 .6.3.1.3.6.5.9.8l1 .9a14.093 14.093 0 002.7 1.8c.5.6 1.1.5 1.7.9.6.4.4.1.4.3 0 .2 1.6 0 1.7.6.1.6-.1.3-.1.5a15.685 15.685 0 01-1.2 3 5.7 5.7 0 000 2.6 7.502 7.502 0 00.2 2.1c0 .3.3.4.4.6.1 2.6 2.5 4.4 4.6 5.6.483-.007.962.096 1.4.3-.2.3 0 1.2-.1 1.7h-.1c.2.4 0 .9.2 1.4a1.208 1.208 0 01.3 1c0 .6.3 1.1.3 1.7 0 .6.3 1.1.3 1.8a33.895 33.895 0 005.4 10.1c.4.3.5.8.9 1.1.4.3.9.8 1.2 1.3a53.165 53.165 0 0010.1 9.4c.7.2.8.6 1.4.9.6.3 1.2.9 2 1.2.406.506.918.916 1.5 1.2-.4.3-.3.7-.8.9h.1l-.6.8c-.1.4-.4.5-.6.7a5.8 5.8 0 00-1 2.1c-.369.51-.703 1.045-1 1.6-.2.2-.1.5-.1.7 0 .2-.6.6-.9 1-.3.4-1.3 2-2 2.9-.7.9-.2.7-.4.9-.2.2-.4.4-.5.7a1.599 1.599 0 01-.3.9c0 .2-.1.3-.3.4-.2.1-.5 1.6-1 2.2a1.202 1.202 0 00-.5.7 2.71 2.71 0 00-.8 1c-.4.4-.2 1.1-.6 1.5l-1.1 1.9c.1.2.1.5-.2.5-.3 0-.8 1.3-1.2 1.8a17.846 17.846 0 00-1.7 3c-.6.5-.5 1-.8 1.6a.299.299 0 01-.3.3c-.5.5-.4 1.3-.8 1.9a3.28 3.28 0 01-.6.8c0 .3-.3.5-.6.7a18.924 18.924 0 00-.9 2.1c-.339.546-.64 1.114-.9 1.7-.2.2 0 .4-.1.6-.1.2-.6.7-.9 1.1a16.404 16.404 0 00-2.2 3.9 1.402 1.402 0 00-.6 1.2c-.3.3-.1.6-.5.7-.4.1-.4 1.3-.7 1.9-.3.6-.2.4-.6.8-.4.4-.3.5-.6.7-.3.2-.5 1.5-.9 2.2-.4.7-1 1.6-.9 2.3.1.7-1 1.5-1.6 2.1-.6.6-1.2 2.4-1.9 3.6.03.314-.04.629-.2.9 0 .3-.1.4-.3.4-.2 0-.3 1.4-.6 2l-.5.8c-.082.311-.257.59-.5.8a4.201 4.201 0 00-.4 2.7 3.5 3.5 0 00.7 2.5c-.2.9.4 1.8.3 2.7.34 1.023.74 2.025 1.2 3a1.502 1.502 0 00.5 1.3c.1.4.5.5.3.8-.2.3.8 1.2 1 1.8.085.305.185.605.3.9.16.272.23.587.2.9a8.793 8.793 0 001.2 2.1l.8 1.7c.1.3.4.3.5.4a15.298 15.298 0 002.8 5.2 1.594 1.594 0 001 1.1c.1.4.5.3.5.8s1.1.8 1.5 1.3h.4l-.6 1.5h-.1a1 1 0 01-.2.7 1.403 1.403 0 00-.3 1.1l-.6-.5c-.3-.1-.5-.2-.6-.5-.1-.3-.8-.7-1-1.2-.2-.5-.7-.6-.9-.9a10.097 10.097 0 00-.9-1.3c-1.4-2.2-2.6-4.5-4.1-6.7a1.1 1.1 0 00-.3-.8 2.5 2.5 0 01-.8-1.5c-.5-.6-.3-1.3-.9-2-1.4-3.2-2.9-6.8-4.5-10a8.272 8.272 0 01-.8-1.2.498.498 0 00-.672-.377.498.498 0 00-.228.177c-.3.4-.1.9-.1 1.3s.4.4.2.8h.1c.1.4.2.5.3.9.16.272.23.587.2.9.2.9.8 1.2 1.1 1.9l.7 1.7c.1.3.4.3.5.4.1.1.2.9.3 1.3a15.496 15.496 0 001.7 4 1.5 1.5 0 00.6 1.1c.1.4.5.4.3.8s.9 1 1.1 1.6c.13.414.298.816.5 1.2.1.2 0 .4.1.6.24.527.58 1.002 1 1.4.6.7.8 2 1.7 2.4.9.4.6 1.1.8 1.6.2.5 1.3 1.5 1.8 2.5s.6.3.8.6c.174.224.376.426.6.6.7.2.5.3 1.1.5a1.103 1.103 0 00.9.7 1.507 1.507 0 00-1.3 0h-.6c-.6-.5-1.4.2-2.1.1h-1.3a2.81 2.81 0 00-2.2 0c-.9.2-2.1-.3-2.9.2a2.201 2.201 0 00-1.4-.2 9.346 9.346 0 00-2.4-.2 5.612 5.612 0 00-1.8.1 1.507 1.507 0 00-1.3 0c-.4-.1-.5.3-.8 0-.3-.3-1.3.2-1.9.2h-1.3a2.81 2.81 0 00-2.2 0c-.9.2-2.1-.3-2.9.2-.8.5-.8-.2-1.3-.2a9.72 9.72 0 00-2.4-.2 5.612 5.612 0 00-1.8.1 1.507 1.507 0 00-1.3 0c-.4-.1-.6.3-.9 0-.3-.3-1.2.2-1.9.2-.2.2-.1.2-.5.2s-.6.1-.9.2c-.3.1-.8.7-.3 1 .5.3 1.3.1 1.7.2.4-.1.8.2 1.3 0s1.1-.1 1.7-.1c.6 0 .5-.1.8.1.3.2 1.1-.1 1.6.1 2.5-.1 5.1.1 7.6 0 1.1.069 2.206.035 3.3-.1a2.896 2.896 0 001.6-.2h1c.3 0 .6-.1.9.1.3.2 1.1-.1 1.6.1 2.7-.2 4.9.1 7.5 0h4.3a1.702 1.702 0 011.4-.1c.4.1.8-.2 1.1.1.3.3 1.1-.1 1.7.1 3.5-.2 7.3.3 10.8-.1a2.896 2.896 0 001.6-.2h.8c.3.1.7-.2 1.1.1 4.1.1 8.4.3 12.5 0 .298.051.602.051.9 0 .7-.4 1.4.1 2.1-.1a4.911 4.911 0 001.7.1c3.5.1 7.5.2 10.9 0 .4-.1.8.2 1.2 0a2 2 0 011.5-.1c.3.1.7-.2 1.1.1.4.3 1.1-.1 1.6.1 3.6-.2 7.3.3 10.9-.1.5.2 1-.1 1.5-.2.489.13.998.164 1.5.1.454.134.932.168 1.4.1 3.8 0 7.7.3 11.5 0 .298.051.602.051.9 0a2.505 2.505 0 011.7-.1c.8-.1 1.4.3 2.2.1.8-.2 1.1 0 1.6 0 1.797.133 3.6.167 5.4.1 1.401.071 2.805.037 4.2-.1.6.3 1.2-.3 1.8-.2.386.131.798.165 1.2.1 3.7.5 8.3.1 12.2.2.114.288.182.591.2.9.1.2.1.3-.1.5s.4 1.2.3 1.9c.06.303.025.618-.1.9.2.3 0 .6-.1.9.044.74.144 1.476.3 2.2v1.8c0 .3.3.4.3.6a16.05 16.05 0 00-.3 2.3c-.013.502.02 1.004.1 1.5a5.61 5.61 0 00.1 1.8c-.121.432-.086.892.1 1.3 0 .2.1.4.1.6a1.104 1.104 0 00-.2.6c.334.894.471 1.849.4 2.8a1.7 1.7 0 00-.2 1.2c-.1.6.3 1 .3 1.6-.05.599-.05 1.201 0 1.8 0 .3.3.4.3.6 0 .2-.3.3-.4.3l-1.1.2c-.958.339-1.893.74-2.8 1.2a1.306 1.306 0 00-1.2.5c-.4.1-.4.4-.8.2s-1.1.8-1.7.9l-1 .3c-.2.2-.5.1-.8.1-.3 0-1.3.8-2 1.1l-1.7.6c-.3 0-.3.3-.5.5s-.8.1-1.3.2l-1.3.4c-.923.306-1.825.674-2.7 1.1a1.703 1.703 0 00-1.2.6c-.4.1-.4.5-.8.3s-1 .7-1.6.9a4.315 4.315 0 00-1.2.5 3.006 3.006 0 00-2.1.8c-.8.6-2.1.7-2.6 1.5s-3 1.2-4.4 1.7c-1.4.5-.5.5-.8.6-.3.1-.5.2-.9.6a2.804 2.804 0 00-.9 1.7c-.2 1.2 1.6 1.3 2.4 1.5l.9.4a.993.993 0 01.8.4c.764.081 1.532.115 2.3.1.591.149 1.193.249 1.8.3.3.1.4-.2.6-.2.2 0 .9.3 1.3.4 1.399.396 2.846.598 4.3.6a1.494 1.494 0 001.3 0c.4.1.6-.2.8.1.2.3 1.3-.2 2-.1l.9.2c.283-.039.569.032.8.2a8.69 8.69 0 002.3-.1l1.8.2.6-.2c.413.162.857.23 1.3.2.3.2.7.1 1 .2h.3c.994.132 1.999.165 3 .1a1.508 1.508 0 001.3-.1c.4.1.6-.2.9.1.3.3 1.2-.3 1.9-.2.7.1.8.2 1.2.1a3.1 3.1 0 002.3 0c.9-.2 2.1.3 2.9-.3.432.219.924.289 1.4.2a9.695 9.695 0 002.4.1 24.587 24.587 0 012.7-.1c.2-.2.5-.2.8-.3.3-.1.4-.1.5.1.1.2 1.3-.4 1.9-.5.4-.4.8 0 1.3-.5a18.928 18.928 0 00.1 4.1c-.2.7.1 1 .1 1.7s.1.3 0 .5.4 1.6.3 2.5c-.1.257-.1.543 0 .8a3.302 3.302 0 000 2.4c.2.8 0 1.9.2 2.7a.5.5 0 010 .7 7.049 7.049 0 01-1.2 1.3c-.5 1-1.3 1.7-1.7 2.7a1.703 1.703 0 00-.7 1.2c-.3.3-.1.6-.6.7-.5.1-.5 1.3-.9 1.8s-.1.3-.6.8-.4.4-.7.6a10.61 10.61 0 00-1.1 2.1 4.399 4.399 0 00-1.2 2.2c-.5.2-.7.7-1 1a18.488 18.488 0 00-2.5 3.7 2.101 2.101 0 00-.7 1.2 1.41 1.41 0 00-.2.6c-.8.2-.7 1.3-1.2 1.9-.299.342-.567.71-.8 1.1a3.2 3.2 0 00-1.2 2c-.3.7-1 1.4-1.3 2.1-.3.7 0 .7-.4.8-.4.1-.6.9-1 1.3s-.4.4-.6.9a23.692 23.692 0 00-1.5 2.5l-.5.6c-.1.7-.2.6-.3 1.2-.1.6-.7 1.4-1.1 2-.255.387-.489.788-.7 1.2-.319.264-.561.61-.7 1-.4.5-.2 1.2-.5 1.7s-.9 2.2-.3 2.9c.6.7.5.1.6.4.1.3 2.1-.3 2.9-.4a11.661 11.661 0 003.1-1.7 1.603 1.603 0 001.2-.7l.5-.4c.2 0 .4.1.6-.1a8.815 8.815 0 012.5-1.8c1.1-.1 1.6-1 2.4-1.6.8-.6 1.8-.9 2-1.5a19.4 19.4 0 005.1-3.1 1.3 1.3 0 001-.8c.4-.2.4-.6.8-.4.4.2.9-1.1 1.5-1.4l.9-.5c.2-.3.5-.3.8-.4.3-.1 1.2-1.1 1.8-1.5l1.5-1.1c.3-.1.2-.4.4-.6.2-.2.8-.4 1.2-.7a13.699 13.699 0 003.7-2.6 1.797 1.797 0 001-.9c.4-.2.3-.5.7-.5.4 0 .9-1 1.4-1.3a.705.705 0 00.5-.4.996.996 0 00.6-.5 3.198 3.198 0 001.9-1.5c.5-.6 1.3-1 1.8-1.6.5-.6.1-.7.6-.7a13.974 13.974 0 003.6-3.3c.3-.4.2-.8.3-1.1.1-.3.3-1.1.5-1.8a.4.4 0 01.2-.5c.3-.6.1-1.4.3-2 .054-.345.155-.682.3-1-.1-.3.2-.5.3-.8a9.863 9.863 0 00.3-2.4 4.8 4.8 0 00.3-2.5c.8-1.4.9-3.2 1.4-4.7a3.42 3.42 0 000-1c.16-.24.262-.514.3-.8a1.4 1.4 0 010-.9.402.402 0 01.1-.5c.4-.6 0-1.4.2-2 .055-.313.156-.616.3-.9-.1-.4.1-.6.3-.9.2-.3.1-.9.2-1.4.1-.5.3-1.9.3-2.8 0-.9-.3-.6 0-.9.3-.3.4-1.6.8-2.3a30.58 30.58 0 00.5-3.2c.3-.6.1-1.1.2-1.7a.402.402 0 01.1-.5c.3-.6 0-1.4.1-2 .1-.6.1-.6.3-1 .2-.4.2-.5.3-.8a9.717 9.717 0 00.2-2.4 11.31 11.31 0 00.3-1.8c.2-.3-.1-.5-.1-.7 0-.2.3-.8.5-1.3.42-1.435.688-2.909.8-4.4a1.701 1.701 0 00.2-1.4c.1-.4-.2-.6.2-.8a5.384 5.384 0 000-1.8c.168-.23.24-.517.2-.8a6.28 6.28 0 00.2-.7c.378-.703.518-1.51.4-2.3-.1-1 .6-2.2.2-3.1.226-.443.394-.914.5-1.4.429-1.432.697-2.908.8-4.4a1.5 1.5 0 00.1-1.3c.2-.4-.1-.6.2-.9.3-.3 0-1.3.1-2s.1-.5.2-.9h1.5c.5-.1.9.2 1.4 0h.5a10.88 10.88 0 003.6.1c3.4.1 6.8.2 10.1.1 1.1.2 1.9-.3 3 0s1.3-.4 1.9-.2h.4c.6 0 1.1.3 1.7.1a1.003 1.003 0 00.9.1c.435.066.88.032 1.3-.1 2.5.2 5 .1 7.4.1h4.5a5.839 5.839 0 011.4-.3c.6.4 1.4.1 2.1.1 3.7.2 7.6 0 11.4.1.8-.3 1 0 1.7-.1a4.1 4.1 0 011.9-.1c.3 0 .6-.1.9.1 4.2.3 8.5 0 12.8.1.8-.3 1 0 1.7-.1a4.1 4.1 0 011.9-.1c.6-.2 1.3.3 1.9.1.6-.2 1.1.3 1.7.1 3.4-.1 7.7.2 10.9-.1.6.2 1.1-.1 1.7-.2.6-.1 1.3 0 2 .2.461.1.939.1 1.4 0 4 .1 8.2.3 12.2 0 .6.2 1.1-.1 1.7-.2.6-.1 1.4 0 2 .2 4.5.1 9 .3 13.6 0 .7.3 1.3-.3 2-.2.7.1 1.2 0 1.7.2 4.3.1 9.5.3 13.6 0 .6.2 1.1-.1 1.7-.2a4.29 4.29 0 001.6.1c.7.2 1.5 0 2.2.2 3.8-.1 7.7.2 11.5-.1.4-.1.8.2 1.3 0s1.6.1 2.3-.1c.7-.2 3.3 0 4.9.2 1.6.2 5.9.1 8.8-.1.6.1 2.4.5 2-.6zM13.38 68.67v.9a1.4 1.4 0 010-.9zm0 2.1v.2-.2zm262.7 95.9a12.418 12.418 0 012.8-1.1l1.2-.4c.92.193 1.823.461 2.7.8.2.2.3.4.6.5h.5c.3.3.6.1.6.5s1.2.6 1.5 1.1c.3.5.4.7.8 1a2.905 2.905 0 001.1 1.9c.408.781.775 1.582 1.1 2.4.2.1.4.2.3.5-.1.3.5 1.5.4 2.3-.1.8.4 2.1.7 3.1-.06.456.046.917.3 1.3-.1.4.3.5 0 .8-.3.3.3 3 .3 3.3 0 .3-.1 3.2-.1 4.8v1.2c.017.868-.017 1.736-.1 2.6 0 2.4.5 5.5-.1 7.8.1.4-.1.6-.2.9-.1.3.2 1.6.1 2.4a6.616 6.616 0 00.1 2.5c-.3.4-.2.9-.3 1.4a21.691 21.691 0 00-.3 4.4 1.708 1.708 0 000 1.4c-.1.4.2.6-.1.9-.3.3.2 1.3.1 2a29.867 29.867 0 00-.4 4.2 19.36 19.36 0 01-.3 4.8 19.988 19.988 0 01-.2 3.5 1.708 1.708 0 000 1.4c-.2.4.2.6-.2.9-.4.3.2 1.3.1 2-.028.34-.095.676-.2 1 .1.3-.1.6-.2.9a8.906 8.906 0 00.1 2.3 11.126 11.126 0 00-.2 1.9c-.1.3.2.4.2.6 0 .2-.2.9-.3 1.4a21.995 21.995 0 00-.5 4.4 1.708 1.708 0 000 1.4c-.1.4.2.6-.2.9-.4.3.2 1.3.1 2a8.284 8.284 0 00-.2 1.3 3.705 3.705 0 00-.2 2.3c.1.8-.5 2.2-.2 2.9.3.7-.2 0-.3-.2a1.602 1.602 0 01-.9-.5c-.5 0-.7-.5-1.2-.5a2.696 2.696 0 01-1.7-.6c-.7-.1-1.2-.8-2-.9a1.602 1.602 0 00-1.1-.5c-1.9-.6-3.7-1.8-5.6-2.3a34.627 34.627 0 00-5.7-1.9 8.36 8.36 0 00-1.4-.6 9.895 9.895 0 00-2.8-1.2 81.598 81.598 0 00-9.8-3.5c-.5-.4-1-.3-1.6-.4a3.407 3.407 0 00-1.4-.5c-3.8-1.9-8.1-2.8-12.1-4-.6.1-1.1-.3-1.7-.3-.6 0-1.4-.5-2.2-.4a3.096 3.096 0 00-1.6-.6 86.879 86.879 0 00-11.5-2.4c-.5-.3-1-.1-1.6-.1a2.71 2.71 0 00-1.5-.3 3.403 3.403 0 00-1.7-.5 87.178 87.178 0 00-12.5-1.6c-.8.4-1.5-.2-2.3 0-.8.2-1.4-.2-2.1-.4-.7-.2-1.1.1-1.6 0h.1c-.2-.2 0-.4-.2-.6l-.3-.2c0-.3.1-.6-.1-.7-.2-.1.1-.5-.1-.7-.2-.2 0-.3 0-.4 0-.1-.5-.5-.4-1.1.1-.6-.3-1.5-.8-1.9-.5-.4-.5-1.2-.7-1.7a18.58 18.58 0 012.2-.1c.6.2 1.2-.1 1.8 0 .6.1.9-.2 1.4-.2 3.8-.2 7.7-.6 11.4-1.1.7-.5 1.6 0 2.3-.3.7-.3 3.5-.4 5-.3a81.889 81.889 0 0011.1-1.2c4.9-.1 9.8-.8 14.7-1.2.7-.4 1-.1 1.7-.4.7-.3 2.2-.3 3.1-.4.9-.1 4.4-.1 5.7-1.3 1.3-1.2 1.4-3.1 1.7-4.5.379-1.197.581-2.444.6-3.7.5-.9 0-1.8.6-2.8.6-1 .5-1.4.5-2.3.9-3.8 1.8-7.7 2.6-11.5 0-.5.4-.8.3-1.4-.1-.6.5-1.4.5-2.2 0-.8.5-1.4.9-2.1.9-3.8 2.6-7.5 3.6-11.2.5-.5.2-1.4.7-1.9.072-.263.209-.504.4-.7 1.7-3.4 3.3-6.2 6.4-8.1zm-68.6 53c.27-.495.44-1.039.5-1.6.9-1.5 1.1-4 1.9-5.9.4-.1.5-.2.8 0 .4.1.4 0 .9 0 .303-.067.619-.032.9.1a7.07 7.07 0 002.1-.4h1.7c.3 0 .4-.3.6-.3.42.135.865.17 1.3.1 1.1.2 2.3-.1 3.2 0l.9-.2h.7l.9-.2c.2-.2.3-.1.5 0s1.2-.4 1.8-.4h.9c.3-.2.5 0 .8.1a16.943 16.943 0 002.2-.4h1.7c.3 0 .4-.2.6-.3.2-.1 1.1 0 2.4.3 1.3.3 1.8 0 3-.3s.9-.1 1.6-.1c.7 0 .3-.1.4 0 .1.1 1.2-.3 1.8-.3h1c.3-.2.5 0 .8.1.3.1 1.4-.3 2.2-.3h1.7c.2.1.4-.2.6-.2.2 0 .8.1 1.2.2 1.363.15 2.738.15 4.1 0 .432.121.892.086 1.3-.1.4.1.5-.3.8.1.3.4 1.2-.3 1.8-.3.3-.4.6 0 1-.2a9.662 9.662 0 01-.1 1.7 5.045 5.045 0 00-.3 1.3 3.6 3.6 0 00-.6 2.3c0 1-.8 2-.6 3l-.4.2c-.1.2 0 .2-.3.2h-1.4c-1 .2-2.1.2-3.1.5s-1.1.2-1.8.3c-.7.1-.3.2-.5 0s-1.3.5-2 .5h-1c-.335.075-.686.04-1-.1-.809.119-1.611.286-2.4.5-.9.1-2 0-2.6.5-.6.5-1.8.1-2.7-.2l-4.2.4-.9.3c-.2.1-.4.1-.5-.1-.1-.2-1.4.4-2.1.5h-1c-.3.2-.6 0-1-.1s-1.5.4-2.4.5h-1.9c-.3 0-.4.3-.6.3a10.515 10.515 0 00-2.5-.1c-.9-.1-1.8.2-2.6.1s-1.6 0-2.4.4c-.8.4-.6.3-.9 0-.3-.3-1.4.4-2.1.4h-1.3a3.602 3.602 0 00-2.5.2c-.5.2-1.1 0-1.6.1l.3-1.1h.1c0-.4.4-.8.3-1.3a2.221 2.221 0 010-.7zm12-35.4c.6-.6.7-1.4 1.1-2 .4-.6.3-1.2.6-1.7s.9.4 1.2.2c.3-.2.3 0 .6.1h.8c.3-.2.5 0 .8 0 .3 0 1.3-.4 1.9-.5l1.6-.2a.59.59 0 00.5-.3c.7.3 1.6-.1 2.3.1.908-.077 1.809-.21 2.7-.4a1.3 1.3 0 001.2-.2c.4 0 .4-.3.7 0 .3.3 1.1-.4 1.7-.4h1.1a2.699 2.699 0 002-.1 14.94 14.94 0 012.1-.2c.3 0 .4-.5.7-.2.702-.014 1.403.019 2.1.1.63-.08 1.265-.114 1.9-.1h1.5l.8-.2c.3-.3.4.2.8.1a5.313 5.313 0 012.5-.4 2.296 2.296 0 002 0c.4-.2.9 0 1.3-.1h1c.2-.1.3-.3.5-.1.2.2 1.4 0 2 .3.935.021 1.869-.013 2.8-.1.2 0 .5.2.7.1l.5-.2h.5c.5.5 1.3-.2 1.9-.1.3-.4.5 0 .9-.2s-.2.9-.8 1.4a16.811 16.811 0 00-.6 2.4 12.794 12.794 0 00-.6 1.8c-.2.3 0 .5 0 .7-.349.36-.592.81-.7 1.3a17.322 17.322 0 00-1.4 4.4 1.811 1.811 0 00-.3 1.4.696.696 0 00-.1.6h-1.4c-.4.2-.7-.1-1.2 0a2 2 0 01-1.5.1c-.7.2-1.3-.2-2 0a2.507 2.507 0 00-1.2-.1c-1.1.2-2.5 0-3.7.1-1.2.1-4.3.2-6.4.5-.6.4-1.4 0-2 .2a2.9 2.9 0 00-1.6 0c-3.2 0-6.5.4-9.8.6-.6.3-.9.1-1.5.2a.796.796 0 01-.8.3c-.4 0-.8-.1-1.1.1-.3.2-1.3 0-1.9-.1-.6-.1-.8.2-1.3.2a81.527 81.527 0 00-8.5.8h-.4c1-2.5 1.9-5.1 2.8-7.6-.1-1.2.7-1.8.7-2.6zm-2.9 11.4h.8c.3-.2.6 0 .8 0a6.469 6.469 0 002.1-.4h1.6c.3 0 .4-.2.6-.3.2-.1.8.1 1.2.1.73.1 1.47.1 2.2 0 .8-.1.9.1 1.7-.2.8-.3.8.1 1.2-.2.4-.3.5-.3.8 0 .3.3 1.1-.4 1.7-.4h.9c.3-.2.5 0 .8.1a5.878 5.878 0 002-.4c1.2 0 1.8.1 2.2-.3.42.135.865.17 1.3.1.73.1 1.47.1 2.2 0a4.886 4.886 0 001.7-.1 1.3 1.3 0 001.2-.2c.4.1.5-.3.8 0 .3.3 1.1-.3 1.7-.3h.9c.3-.2.5 0 .8.1.3.1 1.4-.3 2-.3h1.7c.2.1.3-.2.5-.2s1.6.1 2.3.3c.968.017 1.936-.017 2.9-.1.399.114.826.079 1.2-.1.4.1.5-.3.8.1.3.4 1.1-.3 1.7-.3.1 0 .1-.2.2-.2s.5.1.7 0c.1 1.4-.7 2.3-1 3.6-.3 1.3 0 1.1-.2 1.7a17.457 17.457 0 00-.5 2.2c.1.2.2.5 0 .6-.2.1-.4 1.7-.9 2.4s-.5 2.1-.6 3.3a2.3 2.3 0 00-.2 1.4h-1.3c-.4.2-.7-.1-1.2 0a2.201 2.201 0 01-1.4.2c-.3-.2-.7.1-1.1-.1a2.507 2.507 0 00-1.2-.1c-3.5 0-7.1.1-10.6.4-.4.2-.8 0-1.2.1a1.497 1.497 0 01-.7.3 2.206 2.206 0 00-1.4 0c-3.7-.3-8.2.5-11.9.6-.6.3-1 0-1.6.2a1.782 1.782 0 01-.776.289c-.278.035-.56.005-.824-.089-.7.2-1.4-.2-2.1.1-3.5.2-7.1.5-10.6 1v.1c.6-2.7 1.8-5.3 2.2-8 .243-.482.444-.984.6-1.5 1.1-1.7 1.3-3.7 2.2-5.5.3.1.8-.3 1.1 0zm8.5-24.3c.1-.8.6-1.3.5-2-.1-.7 1.3-.2 1.7-.6.4-.4 3.4-.3 4.9-.3l.9-.3c1 .1 1-.2 2-.5s1.5-.3 2.2-.3h1a1.007 1.007 0 01.9 0c.78-.098 1.55-.265 2.3-.5h1.9c.3 0 .4-.3.6-.3 1.9.4 4.7-.2 6.6-.2 1.9 0 .7-.2 1.2-.4s1.6-.4 2.4-.2h1.1c.784.27 1.641.234 2.4-.1.9-.3 2.2.1 3-.5.8-.6 1.5 0 2.6.3s2.2 0 3.3-.2c.265.049.536.049.8 0l.9-.2c.2-.1.4-.1.5.1.1.2 1.5-.5 2.2-.3.27-.069.556-.033.8.1.3-.2.6 0 .9.1h1.3a3.01 3.01 0 011.6-.2c-.6.1-.8.8-1.3 1.1-.5.3-1.8 1.1-2 1.9-.2.8-.7.6-1.1 1a8.702 8.702 0 00-1.7 2.2c-.5.8-.9 1.7-1.4 2.6a2.895 2.895 0 01-.2.9.5.5 0 01-.3.5 2.107 2.107 0 00-.4 1.1h-1.3c-.3.1-.7-.2-1.1 0a1.896 1.896 0 01-1.5 0c-.7.2-1.2-.2-1.9 0a2.507 2.507 0 00-1.2-.1c-1.198.1-2.402.1-3.6 0-2.1.1-4.2.2-6.3.5-.5.4-1.3 0-1.9.2a2.606 2.606 0 00-1.5 0 1.405 1.405 0 00-1.1 0l-8.5.7-.6.2h-.8c-.231.168-.517.24-.8.2a.802.802 0 01-.7 0c-.6.3-1.2-.1-1.9.2-.7.3-1 .1-1.5.2-2.793.19-5.568.591-8.3 1.2a3.846 3.846 0 00-1 .3c1-2.2 1.9-4.3 2.8-6.5.1-.6.6-1.1.7-1.7l-.1-.2zm-41.5 53.2c.2-.2.5-.4.5-.8s.2-.3.4-.5h-.1c.11-.31.244-.611.4-.9 0-.3.3-.5.5-.8a18.62 18.62 0 00.7-2.2l.7-1.8c.2-.2-.1-.4 0-.6.1-.2.5-1.1 1.4-2.3.9-1.2.4-.7.4-1.2s.6-1.4 1.2-2.5a1.509 1.509 0 01.2-.9c-.1-.4.4-.4.4-.7 0-.3.2-1.3.5-1.7.238-.345.439-.713.6-1.1 1-1 .8-2.2 1.6-3.5.207-.347.375-.716.5-1.1 0-.2-.1-.3 0-.4.1-.1.8-1.4 1.3-2 .5-.6.7-1.5 1.2-2.2.5-.7.9-1.2.9-2.1 0-.9.1-.6.5-.8.4-.2.4-1.2.7-1.7a.704.704 0 00.3-.6c.5-.4.4-.7.9-1a3.293 3.293 0 00.7-1.6c.2-.5.6-.9.8-1.4.2-.5.6-.8.6-1 0-.2-.1-.5.2-.5.3 0 1.9-2.7 2.8-3.7a6.509 6.509 0 011-1.5c.1-.4.4-.7.5-1.1.1-.4.8-1.2 1.3-1.7l.7-.6c.1-.3.4-.4.7-.6.528-.55.997-1.153 1.4-1.8.6-.6 1.5-1 1.7-1.8.2-.8 1.4-.8 2.3-.9.9-.1 2.1-.7 2.9-1.2a1.796 1.796 0 001.2-.5l.6-.2c.7.3 1.4-.6 2.1-.7a4.376 4.376 0 001.3-.2 3.1 3.1 0 002.1-.4c-.3.3-.2.8-.6 1h.1a2.784 2.784 0 01-.6.9c0 .4-.3.6-.5.9a10.522 10.522 0 00-.8 2.3c-.5 1.1-1 1.9-.9 2.6a22.317 22.317 0 00-2.7 5.6 2.507 2.507 0 00-.4 1.4c-.3.3 0 .7-.4.8-.4.1-.3 1.5-.6 2.1l-.5.9c0 .4-.3.6-.5.9a21.747 21.747 0 00-.7 2.4c-.3.7-.9 1.8-.7 2.6a20.628 20.628 0 00-2.5 5.7 2.507 2.507 0 00-.4 1.4c-.2.4.1.7-.4.9-.5.2-.2 1.4-.4 2.1a9.143 9.143 0 00-.5 1c0 .3-.2.5-.4.8a11.377 11.377 0 00-.6 2.5 4.506 4.506 0 00-.6 2.6c-.9 1.2-1.4 3.6-1.9 4.9-.5 1.3-.6 1.5-.5 2.4.1.9.1.7-.3.9-.4.2 0 1.5-.2 2.1h-.1a.802.802 0 010 .7 1.2 1.2 0 000 1c-.2.2-.4.3-.6.1a22.595 22.595 0 00-5.8.3 2.201 2.201 0 00-1.4.2l-.7.2c-.7-.5-1.5.3-2.3.3h-.5a2.11 2.11 0 00-.8 0 1.898 1.898 0 00-1.3 0c-.7-.1-1.1.4-1.7.3l-2.3.2c-.2.2-.3.3-.5.1a20.606 20.606 0 00-4.3.1l.2-.4zm-49.4-148.9c.2.2.6-.1.8.3.2.4 2.7 1.7 3.8 2.7l.8.5c.2.2.3.5.6.6.3.1.6.3 1.1.5.5.2 0 .5.3.6a5.497 5.497 0 012.5 2.5c.4.7 1.2 1.1 1.7 1.6s1.1 1.7 1.8 1.9c.133.451.373.863.7 1.2.407.793.91 1.532 1.5 2.2.6 1.1.9 1.2 1.6 2.3.7 1.1.5.4.7.6a.399.399 0 01.2.5c.2.7 1 1 1.4 1.5.151.443.389.851.7 1.2.2 1.2 1 1.6 1.7 2.5.365.623.766 1.224 1.2 1.8.2.1.4.1.4.4 0 .3.4.7.6 1.1a44.894 44.894 0 002.8 4.7c.3.1.5.4.7.6.2.2.2.3.2.5s1 1 1.4 1.6c.152.292.286.592.4.9a.9.9 0 01.4.8c.5.9 1.2 1.2 1.7 1.9s1.1 1.7 1.8 1.9c.7.2 1 1.3 1.5 2.1s4.4 2.8 5.9.5a.805.805 0 01.5-.5c.6-.5.5-1.5.7-2.2a3.29 3.29 0 00.4-1.4 2.888 2.888 0 00.4-2.4c-.1-.9.1-1.7 0-2.6-.1-.9-.4-.6-.1-.9a8.76 8.76 0 00.2-1.7c.05-.699.05-1.401 0-2.1 0-1.5-.2-1.5-.1-2.9a1.599 1.599 0 01-.3-.9c-.1-.2-.1-.4.1-.5.2-.1-.4-1.4-.4-2a6.424 6.424 0 000-1.4c.5-1.4-.3-2.5-.1-4 .2-1.5 0-1-.1-1.2-.1-.2-.2-.2-.2-.3 0-.1.1-1.9.4-2.7.3-.8 0-.4 0-.6.1.1 0 .3.1.3h.1c.287.439.662.813 1.1 1.1a3.094 3.094 0 002.1 1.4c1.1.4 2.1 1.4 3.2 1.3a13.106 13.106 0 006.1 2.1 2 2 0 001.5.3c.4.1.6-.2.9.2.3.4 1.5 0 2.2.1.2-.2.3-.2.6-.1s.9-.1 1.4-.2c.2 2 0 3.9.2 5.8s-.1 1.4.2 2.1a3.3 3.3 0 00-.2 1.7c.1 3.6-.1 7.4.3 11-.2.5.1 1 .2 1.5s-.1.7-.2 1c-.1.3-.2 1.3 0 2.1-.2 3.9-.2 8-.2 11.9a2.495 2.495 0 010 1.7c.2.7-.4 1.2-.2 2-.3 3.6-.8 7.3-1.1 10.9-.1.4-.3.8-.1 1.2.2.4-.4 1.1-.3 1.7.1.6-.9 3.2-2.1 4.5a16.794 16.794 0 01-4.1 3.9c-.3.1-.6.2-.7.5-.1.3-.8.2-1.1.5-.3.3-.7.5-1.1.6l-.6-1.5h.1c-.3-.3-.2-.9-.5-1.3h-.1l-.6-1a1.903 1.903 0 00-.2-.7c-.5-.6-.4-1.5-.9-2.2-.5-.7-2.2-4.3-3.1-6.4-.9-2.1-2.3-4.1-3.7-5.9-1.4-1.8-.8-1.5-1.4-2.1a5.612 5.612 0 00-.9-1.7c-1.5-2.6-3.2-5.2-4.9-7.6l-2.9-4c-.4-.2-.7-.4-.8-.8a115.71 115.71 0 00-9.4-12.7h-.1c-.6-.4-1-1.4-1.8-1.4a59.912 59.912 0 00-4.2-7.9c-.1-.8-.9-.9-1-1.6a.905.905 0 01-.3-.7.997.997 0 01-.4-.8c-1.4-2.7-3-5.4-4.7-8.1a28.235 28.235 0 00-2.4-3.6 2.305 2.305 0 01-.8-1.1c-.1-.3-.3-.4-.5-.6a2.891 2.891 0 00-.5-1.3c-.4-.5-.5-1.1-1.1-1.5a61.153 61.153 0 00-4.6-6.7l1.2.4zm-9.7-4.4c.6.5 1.1.3 1.7.6.6.3.4.1.4.3 0 .2 1.4.3 2 .7l.9.5c.3 0 .5.2.7.5.2.3.5.6.5 1.1h.1l.4.9c.3.2.3.5.4.8.1.3 1.1 1.1 1.5 1.7.4.6.7 1 1 1.5.3.5.4.2.5.3.1.1.9 1.5 1.1 2.3.2.8 1 1.7 1.8 2.6a1.304 1.304 0 00.8 1c0 .2.2.3.3.5.1.2.9 1.1 1.3 1.8.113.277.247.544.4.8.9 2.5 3 5 4.4 7.4l4.9 8.9c1.8 3.3 3.4 6.6 5 10l2 3.8 1.5 3.3c.246.686.446 1.388.6 2.1.1.8.7 1.5.8 2.3.1.8.3.5.4.8.1.3.1.6.2.8.1.2.4.5.7.9.3.4.7 1.3.9 2 .2.7.4 1.1.3 1.8.273.696.607 1.365 1 2 .189.682.423 1.35.7 2 .2.1.4.2.3.5-.1.3.4 1.3.4 2 .4 2.7 1.9 5.4 2.6 8.1.7 2.7 1.4 4.3 1.8 6.4a6.698 6.698 0 00.4 2.4 7.03 7.03 0 00.5 1.8 2.11 2.11 0 000 .8c.533 1.414.87 2.895 1 4.4.2 1.4.7 2.5 1 3.8v.7c.2 1.5-.1 3.4-1.2 4.3-1.1.9-.2.5-.4.7l-.6.4c-.1.5-.3.4-.6.8s-1 .7-1.7.8l-1.2.2a1.699 1.699 0 00-1.2 0c-.5-.1-.9.4-1.5.3h-2c-.2.1-.3.2-.5 0l-1.5-.4c-.3.1-.5-.2-.8-.2-.3 0-1.9-.6-2.8-.7-.9-.1-.9-.3-1.5-.5s-.3 0-.4-.3c-.1-.3-1.8-.8-2.5-1.3s-.2-5.7-.2-7.2a3.098 3.098 0 010-1.9 1.008 1.008 0 01.1-.9c.2-.5 0-1.1.2-1.7 0-4.6.3-7.8-.2-12.7-.4-.5-.2-1.2-.2-1.8a1.4 1.4 0 010-.9c.2-.6-.2-1.1 0-1.7-.4-3.8-.6-7.6-1.3-11.3-.3-.4-.1-.8-.3-1.3a2.701 2.701 0 01-.4-1.8c-.3-.5 0-1.3-.3-1.9a60.222 60.222 0 00-3-12c.1-.6-.4-1-.6-1.6a4.406 4.406 0 00-.5-1.5 3.9 3.9 0 00-.4-1.8 66.688 66.688 0 00-4.4-11.2c0-.6-.5-1-.8-1.4l-.3-.8c0-.5-.4-.7-.4-1.2s-.5-1-.6-1.6c-1.6-3.3-3.3-6.5-5.2-9.7-.5-.4-.5-.9-1-1.4a3.304 3.304 0 01-1-1.5 63.903 63.903 0 00-7.4-10.7c.451.208.92.375 1.4.5zm-7.6 7.1c.3-.7.2-1.7.5-2.4a19.434 19.434 0 00-.2-3.4c.2-.7-.2-1-.3-1.7-.1-.7-.1-.3 0-.5s-.5-1.3-.6-2h.1c-.4-.3-.1-.6-.4-1-.3-.4 2.1 1.2 3.2 1.1 1.1-.1.7.5 1.2.8.005.355.109.701.3 1 .3.3.5.4.5.7l.6.8c.3.2.3.5.4.8a9.3 9.3 0 001.6 1.8c.344.63.782 1.203 1.3 1.7.2.1.4.2.4.4s.9 1.4 1.1 2.2c.2.8 1.5 2.2 2.2 3.4.7 1.2.5.4.6.7.1.3.1.5.3.8a8.8 8.8 0 011.8 2.5c0 1.2.8 1.6 1.4 2.5.3.827.778 1.578 1.4 2.2-.1.5.2.8.4 1.3a16.905 16.905 0 001.9 4.1c.056.457.268.881.6 1.2.1.4.5.4.3.8s.9 1.5 1 1.8c.1.3.7 2 1.1 3 .4 1 1.1 2.2 1.5 3.3.4 1.1.3 1.2.5 1.9s.8 2.7 1.3 4.1a29.945 29.945 0 011.5 4.2c.059.639.159 1.274.3 1.9.2.6.6 1.3.8 1.9.027.619.163 1.228.4 1.8l.2.3v.3c.1 1.2.3 2.4.5 3.6.2 1.2 0 1.1.3 1.5a9.515 9.515 0 00-1 .5h-.1c.1.2-2.9 1.7-3.3 1.8-4.1 1.4-8.1 2.6-12.3 3.6l-1.5.4h-3.1c-3.6.1-7.2-.1-10.8-.2-1.9-.1-3.9 0-5.7-.8a92.977 92.977 0 01-10.4-2.6l-1.5-.3a6.696 6.696 0 00.1-2c-.1-.9.3-1.9.1-2.7a.6.6 0 01-.1-.4v-.3c.385-2.278.52-4.592.4-6.9 0-2.4.1-4.9-.1-7.3-.2-2.4-.1-4.1-.1-6.2 0-2.1-.8-4.9-.9-7.3a17.704 17.704 0 00-.1-2.3c-.1-.6-.3-1.2-.4-1.9a18.286 18.286 0 00-.6-2.5c-.05-.966-.05-1.934 0-2.9a24.089 24.089 0 00-.7-3.7c-.4-2-.8-4-1.3-6a34.806 34.806 0 01-1.2-5.5 22.597 22.597 0 00-1-4.5 1.501 1.501 0 00-.5-1.3c0-.5-.4-.5-.1-.9.3-.4-.2-.6-.2-.8 0-.2.6.6.7.8.358.308.693.642 1 1 .4 1.6 1.7 2.8 2.5 4.2a5.501 5.501 0 001.8 1.9l.2.3v.2c.1.5.7.8 1.1 1.1.4.3 1.6 2.2 2.8 3.1l1.6 1.6.3.3h.3c.4.2.7.8 1 1.1.417.484.887.92 1.4 1.3a33.696 33.696 0 003.2 1.9l1.1.2c-2.5 2.9-2.3 7.6-.3 10.7 2 3.1 2.2 3.8 4.3 4.1 5.4 1.5 7.8-5.2 6.5-9.4-.2-.5-.1-1.1-.5-1.6a2.998 2.998 0 01-.6-1.1 8.098 8.098 0 00-3.4-3.9 12.006 12.006 0 001.3-3.6c0-.2-.1-.4.1-.6zm-2.1-9.7h-.1c.3.4 0 .9.3 1.3s.3.4.3.6a3.688 3.688 0 00.1 1.5c-.1 2.9.2 5.8-.9 8.5a3.1 3.1 0 01-1.6 1.6 1.4 1.4 0 00-1.1.2c-.5-.2-.9.1-1.3 0s-1.4-.4-1.7-.8c-.3-.4-1-.4-1.3-.9-.3-.5-1.6-.7-2.1-1.4-2.2-1.9-4.8-4.6-6.8-6.7-.6-.2-.8-.8-1.1-1.3-2.6-3.5-5.2-7.4-7.6-11.2a4.701 4.701 0 01-.9-1.2c.1-.2.2.1.3.2a.4.4 0 01.4.4c.5.7 1.4.8 2.1 1.6.7.8 1.2 1.3 1.6 1.4.4.1 1.2.4 1.7.7a6.101 6.101 0 001.8.9c.2.2.5 0 .7.1a6.702 6.702 0 002.3 1c1.535.386 3.122.52 4.7.4l1-.2c.1-.2.3-.2.5 0s1.4-.6 2-.7c.1 0 .1 0 .1-.1l.3-.2c.2-.1.5-.1.7-.3.2-.2.6.1.8.3l.7.2c.1.2.2.5.4.5.928.201 1.81.574 2.6 1.1.5 0 .6.5 1 .6.4.1.2 1.4.1 1.9zm2.9 19.2a4.79 4.79 0 01.8 1.6c.1.6.1 1 .2 1.5a7.79 7.79 0 00-.4 2.1c.3 1.1-.6 2.1-1.1 3-.5.9-.1.5-.4.4-.3-.1-1.1.7-1.9.4a3.102 3.102 0 01-2.2-.9l-.8-.6c-.2-.6-.4-.7-.9-1.1-.5-.4-.5-.5-.4-.9.1-.4-.8-1.2-.9-2-.1-.8 0-.9-.1-1.4.22-.848.288-1.728.2-2.6a5.999 5.999 0 011.3-2.5c0-.3 0-.5.3-.5s.9-.5 1.5-.4a3.9 3.9 0 011.8.4 5.498 5.498 0 012.1 1.9c.5.3.5.5.8.9.3.4 0 .5.1.7zm-26.5-55.8c.4-.1.5-.2.9 0a4.6 4.6 0 001.4-.2 4.1 4.1 0 002.1-.5c.8-.8 2.1-.9 2.9-1.7.8-.8.2-.5.5-.4.3.1 1-.6 1.6-.9a7.004 7.004 0 001.7-1.3 5.405 5.405 0 001.5-1.5c.431-.236.754-.63.9-1.1.4-.3.2-.6.7-.7.5-.1.6-1.3 1.1-1.8l.7-.8c.154-.301.399-.546.7-.7.406-.713.774-1.447 1.1-2.2a5.304 5.304 0 001.1-2.3l.2-.3c.5-.4.7-1.1 1.1-1.6l.2.4c.1.3.4.6.3 1.1h.1c.139.49.34.961.6 1.4a4.502 4.502 0 001.4 2.4c.577.875 1.212 1.71 1.9 2.5.3.1.5.2.5.5a25.221 25.221 0 002.1 2.5 9.004 9.004 0 002.8 2c.6.8 1.2.7 2.1 1.1.9.4 1.4.4 1.9 1s.2.3.1.7c-.1.4-.1.3-.3.5a8.778 8.778 0 01-1.2 1.9c-.6.6-1.5.7-2.1 1.2a14.297 14.297 0 00-2.9-.1c-.9.1-1.4 1.1-1.5 2a6.829 6.829 0 00-.7 2c-.36.38-.573.877-.6 1.4-.111.182-.18.388-.2.6-.8.4-.8 1.5-1.3 2.1-.329.342-.63.71-.9 1.1-.764.4-1.417.985-1.9 1.7-.6.8-1.6 1.1-2.4 1.7-.8.6-.2.5-.5.4-.818.258-1.654.458-2.5.6-1.1.4-2.3.3-3.4.6a2 2 0 00-1.5.1c-.2-.1-.5 0-.7 0-.2 0-1-.2-1.5-.2h-1.6a1.2 1.2 0 00-1 0 .8.8 0 00-.7.2c-.3.5.2.8.6.9l1.6.4c.5.1.9.4 1.4.3a1.2 1.2 0 01.8-.1 4.101 4.101 0 001.9.1c.1-.1.5.1.7.1h.8c.298-.05.602-.05.9 0 .6.1.1.6.3 1.1.2.5 0 .3-.1.6h.1c.001.441.069.88.2 1.3-.153.42-.153.88 0 1.3 0 .7.5 1.1.5 1.7.093.759.295 1.5.6 2.2.1.2.3.3.2.5a11.82 11.82 0 001 3.8c.3.6.3 1.2.8 1.6l-.6.2c-.4.3-.9.1-1.3.3-.4.2-1.4.2-2.1.5a4.998 4.998 0 00-1.7-.2 20.6 20.6 0 01-10.2-4.3c-.4-.1-.5-.6-1-.8-.5-.2-1-.8-1.4-1.3-.4-.5-1.7-2.5-2.9-3.1.3-.5-.1-1.2 0-1.8.1-.6-.4-1.9-.2-2.8-.2-2.9-.3-5.9-.7-8.8h-.1a6.6 6.6 0 01-.3-1.5c-.4-.8-.8-.6-1-.1a2.802 2.802 0 01-.1-.9 45.094 45.094 0 00-.9-5.3 30.697 30.697 0 007.4-1.3zm-10-23h.3l-.5.4.2-.4zm-47.8 45.5c0 .1.1.1.1.2h-.1v-.2zm-.9 21.4c0 .1-.1.3-.1.4l-.5.2.6-.6zm-7.6 7h-.1c.1.1.1.1.1 0zm26.8 88.7a8.38 8.38 0 00-1.4-.6c-1-1-2.5-1.6-3.2-3-.7-1.4-1-5.2-.3-7.6h-.1a2.601 2.601 0 01.4-1.5c.5-.7.7-.2 1.4-.3a3.603 3.603 0 001.9-.8 21.206 21.206 0 002.5-1.6c.1-.3.1-.5.4-.5.3 0 1.3-1 2.1-1.3.8-.3 1.7-1.3 2.5-2a1.5 1.5 0 001.1-.6c.3-.1.5-.5.8-.2.3.3 1.2-.6 1.8-.7.4-.4 1-.1 1.5-.5s.4-.1.5-.4c.1-.3.1-.5-.3-.7a5.995 5.995 0 00-1.9 0c-.5.2-1 0-1.4.3-.4.3-.4.4-.7.4-.3 0-1.3.6-2.1.7-.8.1-2.8 2-4.1 3.1-1.3 1.1-3.8 3.3-6.2 2.8h-.6a1.403 1.403 0 00-.9-.3c-.6.1-1.1-.4-1.5-.7-3.4-2.2-6.7-4.9-10.1-7.2.3-.6.4-1.3.7-1.8h.1c0-.6.5-1 .5-1.6a2.804 2.804 0 01.1-.9c2.7-5.5 6.2-10.9 11.1-14.8h-.1c.5-.6 1.3-.9 1.7-1.4.14.397.342.768.6 1.1.078.463.248.905.5 1.3.3.6.4 1.3 1.1 1.6.7.3 3.1-.4 4.6-1.3a32.041 32.041 0 014.8-2.6 2.6 2.6 0 01.9-.5l.3-.2c1-.8-.2-1.2-1-1.1-.8.1-.5.4-.9.2h.1a4.32 4.32 0 00-1.2.5 1.803 1.803 0 00-1.2.3c-.6.2-.8.8-1.3 1l-1.6.9c-.3.1-.2.7-.6.6-.4-.1-1.3.9-1.6.6h-.1c-.2-.1-.3-.1-.3-.4a4.11 4.11 0 00-.7-1.1c-.1-.8-.6-.8-.9-1.5-.3-.7-.2-.2-.1-.4s-.8-1-1.1-1.6a9.408 9.408 0 01-.3-.9 1.099 1.099 0 01-.2-.8c-.2-.8-.8-1.2-1.1-1.9-.3-.7-.5-1.7-1.1-2.1-.6-.4-.9-3-1.1-4.4l-.4-.9c0-.2.1-.5 0-.7a1.997 1.997 0 01-.4-.8.3.3 0 010-.4c.2-.6-.4-1.2-.3-1.7.119-.327.219-.661.3-1a2.507 2.507 0 001.1-1.7c.4-.8 1.6-1.4 1.7-2.3.1-.9 3-2.7 4-3.7a77.374 77.374 0 015.6-5.8l1.3-1.3c.3-.2.1-.7.5-.7s3.1-2.4 4.5-3.6c1.4-1.2 2-3 3.5-3.2a2.4 2.4 0 001.2-.7c0-.1.1-.4.2-.2.335.49.703.958 1.1 1.4.2.1.4.1.4.4 0 .3.8 1.3.9 2 .1.7.9 1.8 1.6 2.6.7.8.1.5.2.7.1.2.4.5.8.9s-.1.4.1.6a7.2 7.2 0 011.4 2.4c.1 1.4 1.1 1.8 1.5 3.3.4 1.5.4.9.5 1 .1.1.3.1.3.2s.4 1.4.5 2.2c.1.8.6 1.5.5 2.2-.1.7.3.5.3.8 0 .3-.1.5 0 .6v.3c0 .1-.1.2-.1.3 0 .1 0 .2-.2.2s-.4 1.1-.9 1.5l-.7.5c-.1.4-.4.4-.7.5a11.002 11.002 0 00-1.5 1.6c-.9.6-1.5 1-1.7 1.6-.2.6-.8.4-1.2.6a21.204 21.204 0 00-3.5 2.3c-.412.15-.763.431-1 .8-.4.2-.3.5-.8.4-.5-.1-.9 1-1.4 1.3h-.1c0 .3 0 .3-.3.5s-.5.4-.6.6c-.1.2-.2 1.1.3 1 .5-.1 1.1-.6 1.6-.7.3-.3.8-.3 1-.7l.4-.5a2.901 2.901 0 001.3-.8 10.404 10.404 0 001.8-1c.5-.1.7-.6 1.1-.8.4-.2 3.1-1.9 4.3-3.3 1.2-1.4 3.3-2.5 4-4.4a2.097 2.097 0 00.6-1.8c.3-1.7-.7-3.1-1-4.7a41.603 41.603 0 00-3.5-7.8c-.1-.6-.6-.9-.9-1.3a5.896 5.896 0 00-.6-1.4 9.099 9.099 0 00-1.3-2.6c-.5-.5-.6-1.3-1.1-1.8-.5-.5-1.7-3.9-4.1-3.4-2.4.5-4.2 3.4-5.9 4.8a69.996 69.996 0 00-8.9 8.3c-.5.2-.7.8-1 1.2l-.8.7c-.4.6-1.2.7-1.6 1.4a43.04 43.04 0 00-5.3 6 6.007 6.007 0 00-1.3 4.6c.5.7.2 1.6.5 2.2a6.5 6.5 0 00.4 2.1c.148.944.452 1.856.9 2.7.4 1 .7 1.9 1.1 2.8.4.9 2.7 4.8 2.3 5.2-.4.4-1 1.1-1.6 1.1-.6 0 0 0 0 .1l-2.1 1.3a15.728 15.728 0 00-2.1 2.4 8.6 8.6 0 00-2 2.7 18.312 18.312 0 00-4.2 6.4 3.303 3.303 0 00-.7 1.7 1.1 1.1 0 00-.2.8c-.8.6-.6 1.9-1 2.8h-.1c.3.6-.2 1-.2 1.6 0 .6-.8-.6-1.5-.9-.7-.3-1-.5-1.5-1s-1.1-1.1-1.8-1.3l-10.5-7.9c-.8-.1-1.2-1.1-1.9-1.4-1.7-2.1-4.1-3.7-5.8-6a37.947 37.947 0 01-4.2-4.9 1.896 1.896 0 01-.9-1.2c0-.3-.3-.4-.4-.6a11.911 11.911 0 00-.8-2c-.1-.5-.5-.8-.6-1.2-.1-.4-.2-1.1-.4-1.6a11.4 11.4 0 010-4.5 30.121 30.121 0 011.1-3.2c.5-.4.5-1 .7-1.5a6.01 6.01 0 00.9-1.3c.45-.395.822-.87 1.1-1.4 2.4-3.1 5-6.1 7.5-9 .2-.5.7-.6.9-1.1.2-.5.7-.9 1.2-1.3s.3-.6.6-.7c.3-.1.8-.9 1.4-1.1 2.5-3 5.7-5.5 8.2-8.4.7-.3.8-1.2 1.4-1.5.6-.3.8-.8 1.3-1.1 3.7-3.1 7.3-6.4 10.8-9.7a4.4 4.4 0 011.4-1.3c.4-.6 1.3-.8 1.8-1.4 3-2.6 6.4-5.1 9.3-7.8.6-.2.8-.8 1.2-1.2.4-.4 1.1-1 1.7-1.2.6-.2 2.8-2.2 4.4-3.2 3.1-1.9 5.8-4.8 9.6-4.6 1.5.5 3.1.1 4.7.6s2.9.8 4.4.9l5.3 1.4c.8-.2 1.5.4 2.3.7.9 4.3 2.7 8.5 3.8 12.7a4.7 4.7 0 00.3 1.7c1 3.9 1.7 8 2.7 11.8-.1.6.3 1.1.5 1.6s.1.8.1 1.2c.133.245.17.53.1.8.06 1.08.228 2.153.5 3.2.4 3.4.8 6.9 1.4 10.1-.2.7.2 1.1.4 1.7a2.9 2.9 0 00.1 1.6c-.3 2.8.4 5.6.2 8.4-.2 2.8-.1 3.7.4 5.4a2.5 2.5 0 00.1 1.7 4.5 4.5 0 00-.1 1.6c-.3.7-.1 1.5-.3 2.2.1 3.6-.5 7.7-.7 11.3.1.4-.2.8-.1 1.3s-.3 1.5-.2 2.3a3.303 3.303 0 00-.4 1.7c-.7 3.8-1.8 7.6-2.8 11.3.1.5-.4.8-.4 1.3s-.3 1.1-.6 1.7a70.003 70.003 0 01-6.9 11.8c-.2.5-.7.6-.8 1.1-.1.5-.7 1-1.2 1.3a1.102 1.102 0 01-.6.7c-.5.2-.8.8-1.3 1-1.6 1.8-3.8 2.7-5.7 3.9-1.9 1.2-2.8.8-4.1 1.4-1.3.6-1.2.5-1.9.4h-1.3c-4.2-.3-8.6-.1-12.8-1.1-.6.1-1-.3-1.6-.3h-.7zm-.1 77.1c.3-.1.2-.4.3-.6.1-.2.8-1.2 1.3-1.8 1.6-3.3 4-6.8 5.4-10 .4-.4.4-1 .6-1.6l.5-.6c.3-.3.2-.8.6-1 .4-.2.5-1 1-1.4.5-.4.3-.9.6-1.3 1.7-2.6 3-5.4 4.7-8 .1-.8.5-.9.7-1.5.2-.6.3-.6.3-1 .2-.3.6-.5.6-.9s.7.9 1.3 1c.6.1.3.1.5.3h.1l1 .5c.3 0 .6.3.8.5.808.294 1.647.495 2.5.6 1.1.5 1.9 1 2.7.9a47.949 47.949 0 005.4 3.2c.35.364.804.609 1.3.7.4.3.7.1.8.6.1.5 1.3.6 1.8 1.1.317.212.589.484.8.8.3.1.4.4.6.7.2.3 1.4 1 2 1.6.6.6 1.2 1.7 1.9 1.9 1 2.1 2.8 4 3.8 6.1l.7.8c.2.1.2.3.2.5s.9 1.2 1.2 1.8h-.1c.5.1.4.8.8 1.1-2.1 1.6-4.4 3.3-6.4 5.1-.4.8-1.3.9-1.8 1.5-4 2.4-7.6 5.5-11.3 8.3-.2.4-.8.5-1.1.9-.3.4-1.3.9-1.8 1.6-2.2 1-3.8 2.9-5.9 4.1-.5-.4-1.3-.6-1.9-1-.5-.1-.9-.6-1.4-.7l-.9-.2a9.156 9.156 0 00-1.6-1.1c-4.4-3.2-8.5-6.9-11.3-11.6h-.1a17.58 17.58 0 01-1.2-1.7v-.2zm1.5 45.6c-.6-.2-.9-.8-1.2-1.3a.988.988 0 01-.4-.7c-.2-.6-.7-.9-.9-1.4-2.2-3.1-3.5-6.7-5.3-9.9 0-.7-.5-1-.8-1.5a3.398 3.398 0 00-.5-1.4c-.5-2.7-1.8-5.1-2-7.8-.1-.4-.4-.7-.3-1.1.1-.4 1-2.3 1.3-3.4.3-1.1.3-1 .5-1.6.329-.375.568-.819.7-1.3 1.1-1.2 1.4-2.8 2.3-4.1.9-1.3 2.5-4.9 3.8-7.2a3.81 3.81 0 01.6-1.3c.2.4.5.7.4 1.1h.1c.8 1.4 1.2 3.1 2.6 4 1.4.9 1.6 2.3 2.8 2.8 1.6 2.4 4.2 4.1 6.6 5.7l1.1.4a.694.694 0 01.5.4c.7.6 1.7.6 2.4 1 .5-.2.9.3 1.5.3-1.7 1.8-4.3 2.7-5.3 4.9a4.8 4.8 0 00.4 2.9 5.8 5.8 0 00.4 1.8c.9 2.5 1.6 5.1 2.6 7.5h-1c-.3.2-.6.5-.9.4-.7.3-1.2.9-1.9 1.1-.7.2-1.3 1.2-2 1.9a7.106 7.106 0 00-1.5 1.5c-.3.1-.2.4-.3.6a16.501 16.501 0 00-4.5 5c-.2.2-.5.4-.6.7-.1.3-.1.6-.3.8-.4-.1-.5-.6-.9-.8zm14.6 3.3c-.4.3-.4.4-.4.9s-.1.3-.1.5-.4 1-.6 1.5h-.1c.2.4-.2.5-.1.9-2.7-.2-4.6-.1-7.3-.2s-3.4.1-5-.7a1.697 1.697 0 01-1.1-.4l.9-1.4h.1c.1-.6.8-1 .8-1.6 0-.6.4-.3.3-.6-.1-.3.6-.8.8-1.2.2-.4 1-1.3 1.6-1.8a36.122 36.122 0 018.5-8.5c.3-.5.9-.7 1.4-1.1a13.297 13.297 0 001.8 4.2c.4.4.9.3 1.4.4.5.1 1.2.5 2.1 1.3l-.6.5c0 .3-.3.3-.5.4-.2.1-.4 1.1-.8 1.6l-.7 1.1c-.2.2 0 .4-.1.5-.1.1-.7 1.1-1.3 1.4-.6.3-.4.6-.4.9 0 .3-.3.4-.4.6-.1.2-.1.6-.2.8zm6.2-6.8v-.2c3.6 1.7 7.6 3.6 10.6 6.3.4 0 .2.4-.1.3-4.6.5-9.5.1-14.1.3h-.6a20.625 20.625 0 012.3-3.7c.4-1.1 1.4-2 1.9-3zm85.4 6.6a33.16 33.16 0 00-.2 4.5h-.7a3.1 3.1 0 00-2.3 0c-.9.2-2.1-.3-2.9.2-.8.5-.8-.2-1.3-.2a14.815 14.815 0 00-4.2-.1 1.508 1.508 0 00-1.3 0c-.4-.1-.6.3-.8 0-.2-.3-1.3.2-1.9.2h-1.3a2.811 2.811 0 00-2.2 0c-.9.2-2.1-.3-2.9.2a2 2 0 00-1.3-.2 9.717 9.717 0 00-2.4-.2 6.122 6.122 0 00-1.9.1 1.508 1.508 0 00-1.3 0c-.4-.1-.5.3-.8 0-.3-.3-1.3.2-1.9.2h-1.2a3.1 3.1 0 00-2.3 0c-.9.2-2.1-.3-2.9.2-.8.5-.8-.2-1.3-.2a9.717 9.717 0 00-2.4-.2 5.613 5.613 0 00-1.8.1 1.508 1.508 0 00-1.3 0c-.4-.1-.6.3-.9 0-.3-.3-1.2.2-1.8.2h-1.3a2.811 2.811 0 00-2.2 0c-.9.2-2.1-.3-2.9.2a2 2 0 00-1.3-.2 10.123 10.123 0 00-2.4-.2 6.121 6.121 0 00-1.9.1 1.507 1.507 0 00-1.3 0c-.4-.1-.5.3-.8 0-.3-.3-1.3.2-1.9.2-.8-.1-.7-.2-1.2-.1a3.1 3.1 0 00-2.3 0c-.9.2-2.1-.3-2.9.2-.8.5-1.5-.1-2.2-.3-.7-.2-1.3-.2-1.8-.3-.4.1-.8-.1-1.2 0l-.7.2a3.825 3.825 0 00-1.5 0c-.6-.3-1.3-.1-2-.3a5.3 5.3 0 00-1.3.1 61.171 61.171 0 00-9.6.1 1.5 1.5 0 00-1.3.1.498.498 0 01.2-.4h.1c-.1-.3.3-.5.3-.8 0-.3-.1-.4 0-.5.221-.266.39-.571.5-.9.6.4 1-.1 1.5.3h1c.4-.1.6.1 1 .2.806.084 1.62.016 2.4-.2.9.206 1.84.136 2.7-.2.8.4 1.7.1 2.5.3 1.27.133 2.552.065 3.8-.2a2.996 2.996 0 002.7-1.4c.7-1.3-1.1-2.3-1.9-3.1a2 2 0 00-.7-.6c-.7-1.3-2.3-1.3-3.5-2.2a4.496 4.496 0 00-1.2-.6c-.1 0-.2.1-.4 0a13.814 13.814 0 00-3.5-2.2 8.447 8.447 0 00-1.9-.8 2.004 2.004 0 00-1.3-.6l-.7-.2c-.2-.5-.7-.5-1.2-.6l-.2-.3h.1c-.3-.8-.2-.9-.4-1.3a1.9 1.9 0 00-.3-1.3c-.1-.7-.7-1-.8-1.6a8.306 8.306 0 00-.8-2.2c-.1-.1-.4-.3-.2-.5-.4-2.4-1.4-4.4-2-6.6a.988.988 0 01-.4-.7c-.2-.1-.1-.2 0-.3.1-.1 0-.9.5-1.3l.9-.5c.2-.3.5-.3.8-.4.3-.1 1.2-1.2 1.9-1.7s1.7-1.1 2-1.8a19.31 19.31 0 005.1-3.5 1.707 1.707 0 001.1-.9l.5-.5c.8 0 1.1-1 1.8-1.5.276-.234.578-.435.9-.6.2-.3.6-.3.9-.4a14.469 14.469 0 001.8-1.7c.7-.5 1.8-1.1 2-1.8.2-.7.9-.4 1.3-.7a17.36 17.36 0 003.8-2.7 1.997 1.997 0 001.1-.9c.4-.2.4-.6.8-.5.4.1 1-1.1 1.5-1.5l1-.5a1.4 1.4 0 01.8-.5c.8-.4 1.2-1.1 1.9-1.6s1.7-1.1 2-1.8a21.602 21.602 0 005.1-3.4 2.096 2.096 0 001.1-1l.5-.4c.9 0 1.2-1.1 1.8-1.5h.1c.1-.3 0-.3.4-.5s.6-.7.8-1c.2-.3.4 1.2.8 1.7 1.3 2.3 2.4 4.8 4.1 6.8a36.496 36.496 0 003.2 4.5c.6.2.9.8 1.2 1.4.3.6.5.4.5.7 0 .3.8.9 1 1.5 2.4 2.6 5.1 6 7.8 8.2.4.2.6.7 1 .9l.7.3c.299.464.712.843 1.2 1.1.26.544.679.997 1.2 1.3a86.507 86.507 0 009.2 6.7c.8.2.9.6 1.5.8.6.2.7.1.9.4a71.22 71.22 0 0013 7.1h.1c.6 0 1.2.6 1.9.4.1.2.3.4.1.6-.2.2 0 .7-.1 1.1-.2 1.393-.2 2.807 0 4.2-.2.7.1 1.1.1 1.7 0 .6.1.3 0 .5s.2 1.1.2 1.6.1.5.1.8a.798.798 0 00-.1.4c.1.4-.1.6-.2.9-.1.3.1.9.1 1.3s.1 1.9.2 2.7c.1.8.5.1.2.4zm17.7 50.2v.4a8.57 8.57 0 01-1.6.1c-.4.2-.8 0-1.2.2a3.198 3.198 0 01-1.7.2c-.3.1-.5.2-.8 0-2.5 0-4.9.3-7.4.1-2.5-.2-4.1 0-6.1.2s-1.4-.1-2.1.1c-2.6-.5-5.2-.2-7.9-.6-2.7-.4-4-.2-6-.2-.4.3-.9.1-1.4.1-.5 0-.8.1-1.1-.2-.3-.3-1.1-.1-1.6-.3a98.17 98.17 0 01-10.7-1.5c-.1-.1 0-.1-.2-.1s-.4.1-.4 0a.504.504 0 01.4-.2c1.2-.3 2.7-1.6 3.9-1.9l4.6-2.2a27.426 27.426 0 003-1.4c.6 0 .9-.5 1.4-.8a5.803 5.803 0 001.4-.5c1.8-.3 3.8-1.6 5.8-2.1v.2c-.1.1 0 .1.1.2a.298.298 0 00.1.2h.3c.02.213.089.418.2.6h.3a.105.105 0 00-.071.029.105.105 0 00-.029.071c-.1.1.1.2 0 .3-.1.1.1.2 0 .4s0 .3.2.4c.2.1 0 .2 0 .3 0 .1.2.1.2.2s-.1.2 0 .3c.1.1.2 0 .2.1a.1.1 0 00.008.038.093.093 0 00.054.055.099.099 0 00.038.007c-.4.4.2.4.3.7h-.1c.1 0 .3 0 .2.1-.1.1.2.2.3.2.1 0 1 .1 1.1-.3 0-.1-.1-.2 0-.3h.1c-.2-.1.1-.2-.2-.4-.3-.2-.2-.2-.2-.5s.1-.4-.1-.6a.21.21 0 01-.05-.068.196.196 0 010-.164.21.21 0 01.05-.068c0-.1-.2-.2-.3-.3-.1-.1-.1-.3-.1-.5s-.1-.5-.3-1c-.2-.5-.2-.2-.3-.3-.1-.1-.1-.4-.2-.6-.1-.2 3-1.1 4.3-1.8 1.3-.7 0 .1-.1.2h.1c0 .1.1.1.1.2s-.1.1 0 .2-.1.2-.1.3h.1c.133.2.233.3.3.3.2 0 .2.3.4.6s.4 0 .2.2 0 .2 0 .4.1.1 0 .4c-.1.3 0 .3.1.4.1.1.1.1.1.3 0 .2.2.1.2.2s-.1.2-.1.3h.4c-.4.3.2.4.3.6h-.1s.3-.1.2.1c-.1.2.1.1.3.2.2.1 1.2 0 1.1-.4-.1-.4-.1-.2 0-.4s-.1-.3-.3-.4c0-.2-.1-.2 0-.4s-.2 0-.1-.2-.2-.4-.1-.6c.1-.2-.2-.2-.2-.4s-.1-.2-.1-.4-.2-.1-.1-.3a1.6 1.6 0 00-.5-1 2.002 2.002 0 00-.5-.9.394.394 0 00-.1-.3h-.2a2.903 2.903 0 011.4-.5 1.105 1.105 0 01.8-.3c.6 0 1-.4 1.6-.4l1.2-.6c.7-.3 1.5-.3 2.1-.9.6-.6.7.2.9.7l.5.2c.1.2.3.2.5.3a2.603 2.603 0 001.9.6c.8.1 1.7.9 2.5.6.8-.3 1.4.5 2 1 .889.224 1.79.391 2.7.5a.898.898 0 001.1.1c.4.2.5-.2.7.2.2.4 1.2-.1 1.7 0v.1h.1c-.12.465-.085.957.1 1.4-.3.8.1 1.1.1 1.8s.1.3 0 .5.3 1.3.3 2c-.087.428-.12.864-.1 1.3a3.102 3.102 0 00.1 2.3c.1.8 0 1.7.1 2.5s.3.2 0 .5zm-1.7-26c.2.1.5-.1.7-.2.1.2 0 .3-.1.4-.1.1.3 1.4.3 2 0 .6 0 .3-.1 1a1.004 1.004 0 01-.2.9c.051.806.151 1.607.3 2.4.1.8-.1 1.9.3 2.5a5.903 5.903 0 00-.2 1.3 9.36 9.36 0 01-.1 1.4c-.3.1-.6-.2-.9 0h-.6a3.509 3.509 0 00-1.2-.3l-1.1-.4c-.5 0-.9-.4-1.5-.3l-7.7-2.4c-.3.1-.6-.1-.9-.1a58.511 58.511 0 00-.5-7.4c.2-.5-.1-1-.2-1.5s.1-.8.1-1.2c0-.4.4 0 .6.4h.1c.257.215.569.353.9.4a2.098 2.098 0 001.7.5c.8-.1 1.6.6 2.3.2.7-.4 1.3.3 1.9.7a8.76 8.76 0 011.7.2h.8l.6.2a.504.504 0 01.4-.2c.4.1.4-.3.7.1.3.4 1-.4 1.5-.3.1-.2.1-.3.4-.3zm23.5 47.7a2.305 2.305 0 00-.1 1.4c-.4.5-.2 1-.3 1.6a3.705 3.705 0 00-.4 1.5 4.219 4.219 0 00-.7 1.3c-2.5 3-5.8 5.2-8.5 7.9-.7.2-.8 1-1.4 1.3-.6.3-.8.4-1 .8-.2.4-1.2.8-1.9 1.1-.7.3-.6.6-1 .9-2.7 1.7-5 3.8-7.6 5.5-.5.6-.8.5-1.3 1.1-.5.6-1.3.8-1.8 1.4-3.7 1.9-7.1 4.8-10.8 6.9-.4.5-.9.6-1.4 1-.5.4-1.3.7-1.8 1.2l-1.6.7a2.907 2.907 0 00-1.4.8c-.5.3-1.1.3-1.6.6.4-2 1.7-3.8 2.5-5.6.8-1.8.8-1.3.9-2.1.1-.8.8-1.2 1.3-1.7 1.2-2.3 2.9-4.5 4.2-6.8l2.3-3.8c0-.8.8-1.2 1.1-2 .3-.8.8-1.1 1.3-1.6s.5-1.2 1-1.6v.2h.2c0 .2 0 .2.1.2s0 .2 0 .3c0 .1.1 0 .2.1s.2.1.3.1c.1 0 .2.2.5.4s.3-.1.3 0c-.1.2.1.2.1.3 0 .1 0 .1.1.1s0 .2 0 .3c0 .1.1.2.3.2.2 0 .1.1.1.2h.3c0 .1 0 .3.1.3 0-.026.011-.052.029-.071a.105.105 0 01.071-.029c.027 0 .052.011.071.029a.1.1 0 01.029.071c.1.1.3-.1.1.2-.2.3.4.1.5.2.1 0 .1-.1.2 0s.2.1.3.1c.1 0 .9-.4.9-.7 0-.3-.1-.1 0-.1l-.2-.3h.1c-.3 0 0-.2-.3-.3-.3-.1-.3.1-.4-.3h-.1c0-.1 0-.4-.2-.4s-.1-.1-.1-.2-.2-.2-.3-.2c-.1 0-.2-.2-.2-.3a4.982 4.982 0 01-.7-.8c-.2-.1-.4 0-.5-.3-.1-.3-.3-.2-.5-.4s0-.2-.2-.1h-.4c1.1-1.3 1.8-2.8 2.8-4.2 1-1.4.1.2.1.3 0 .1.1.1.2.2s.4 0 .5.2l.6.5c.1-.1.2-.2.2 0s.1.2.1.4.2.1.2.4c0 .3.2.3.3.3.1 0 .1.2.2.3h.3c.1.1 0 .3.1.3h.5c-.3.5.4.3.6.5h-.1c0 .1.1 0 .1 0h.2c.3.3 1.2-.2 1.2-.7h-.1a.5.5 0 01-.2-.4h-.1c0-.1 0-.2-.2-.2h-.3c0-.1-.1-.1-.1-.2s-.1-.1-.2-.2 0-.4-.2-.5c-.2-.1-.1-.1-.2-.2s-.2-.2-.3-.2l-.3-.4-.3-.3a1.802 1.802 0 00-.9-.8c-.4-.5-.7-.5-.9-.9.327-.337.567-.749.7-1.2a3.1 3.1 0 00.8-1.5c.356-.392.659-.829.9-1.3.7-.4.9-1.1 1.4-1.6l1.8-2.8c.3.5.9.4 1.1.9h.1l.9.5a1.2 1.2 0 01.8.6c.808.294 1.647.495 2.5.6a5.096 5.096 0 002.7.6c.6.5 1.7.5 2.4.8.7.3 1.9.1 2.8.4h1a1.898 1.898 0 001.5-.2c.5.1.6-.3 1 0s1.4-.5 2.1-.6v.2c.2-.5.7-.2 1.1-.6a6.483 6.483 0 01-.2.4zm2.9-13.5a4.506 4.506 0 01-.3 1.1c0 .8-.5 1.4-.5 2.2-.6 2.7-1.2 5.5-1.7 8.2-.6-.1-1.1.4-1.7.3-.4.3-.9.1-1.3.3a1.497 1.497 0 01-.7.3 4.312 4.312 0 00-1.6.1 3.402 3.402 0 00-1.4-.2 6.713 6.713 0 00-2-.1 47.047 47.047 0 01-9.7-2.9h-.1l-1.3-.5a61.674 61.674 0 00-.5-7.5 1.197 1.197 0 000-1c-.3-.5-.1-1.2-.1-1.8a1.4 1.4 0 010-.9c.2-.4 0-.9 0-1.4 0-.5.7.7 1.1.8a.91.91 0 01.6.4h.1a4.1 4.1 0 001.5.7 4.198 4.198 0 002.7.9c1.2.1 2.5 1 3.7.6a15.2 15.2 0 007 1.1 2.5 2.5 0 001.7-.1c.4.1.7-.2 1.1.1.4.3 1.6-.5 2.4-.5.4-.4.6-.2 1-.3v.1zm8.4-52.5a3.42 3.42 0 000 1c-.3.5-.1 1.1-.1 1.7a7.989 7.989 0 00-.3 1.5 16.65 16.65 0 00-.6 2.1c-.4 3.8-1.5 7.5-1.6 11.3-.4.6-.1 1.1-.1 1.7a2.896 2.896 0 00-.3 1.6c-.8 1.7-.7 3.7-1.2 5.6-.5 1.9-1 5.8-1.4 8.7.3.8-.3 1.5-.2 2.3.1.8-.6 3.1-1 4.6-.6 3-1.2 6-1.5 8.9a5.724 5.724 0 00-1.3.1c-.5.2-1-.1-1.5.2l-.8.2h-1.8c-.6 0-1.1-.3-1.7-.2-3.1 0-6-.8-9-1.4l-4.2-1.4a.506.506 0 00-.283-.152.505.505 0 00-.317.052c-.9-.1-1.4-.6-2-.4-.4-3.6 0-7.4-.6-10.9.2-.6-.1-1.1-.2-1.7.05-.532.05-1.068 0-1.6a85.514 85.514 0 00-.1-10.1c0-1.5-.2-3-.3-4.4-.1-1.4-.1-1-.1-1.5.2-4.5-.2-9.2-.2-13.8.1-.2-.1-.4-.2-.6.1-.326.1-.674 0-1-.4-.7.1-1.5-.2-2.2a2.799 2.799 0 00.1-1.8c.101-3.969.001-7.941-.3-11.9.3-.5-.1-1-.2-1.6-.1-.6.1-.7.2-1.1.1-4.4 0-9 .1-13.5.052-.097.07-.208.052-.317a.503.503 0 00-.152-.283c.3-.5 0-1-.1-1.6a12.99 12.99 0 01.4-1.9c.3-.5.1-1.1.4-1.5.3-.4.1-.9.3-1.3a7.702 7.702 0 013.3-3.6c.1 0 .5 1.8.6 2 .1.2.4.3.5.6.075.526.244 1.034.5 1.5 0 .8.5 1.3.7 2.1.2.8.5.8.7 1.2a37.873 37.873 0 005.4 8.6c.2.6.7.9 1.1 1.3.4.4.9 1.1 1.1 1.7a79.527 79.527 0 008.3 10.1c.3.2.4.7.7.9l.7.4c.247.465.587.874 1 1.2.7 1.5 2.1 2.3 3.1 3.6a58.558 58.558 0 004.2 4.4c.2.1.6.3.4.6zm4.8-24.1h.3l.5.4-.8-.4zm-3.2 22.8v-.2l.3.2h-.3zm51.2-1.4a15.776 15.776 0 01-5.7.9 2.698 2.698 0 01-1.2-.3 22.6 22.6 0 01-6.3-2.9c-1.1-.9-2.5-1.4-3.6-2.2a4.209 4.209 0 01-1.2-.4c-.3-.8-1.4-.6-2-1a4.4 4.4 0 00-1.1-.8 30.117 30.117 0 01-2.8-1.7c-1.4-.7-2.7-1.7-4.1-2.5l-2.4-1.5-2.2-1.4-4.2-2.6c-1-.5-2.3-1.7-3.4-1.7a1.8 1.8 0 00-1-.9 18.488 18.488 0 00-3.7-2.5 2.101 2.101 0 00-1.2-.7c-.3-.3-.7-.1-.7-.5s-1.2-.6-1.8-.9c-.6-.3-1.6-1.1-2.4-1.6l-5.3-3.3-5-3.3c-1.4-.8-3.1-2.5-4.7-2.8a11.983 11.983 0 01-2.1-1.3c-.3-.2-.7.1-.8-.3a20.21 20.21 0 00-4.8-3c-.3-.2-.5-.5-.9-.5a1.62 1.62 0 00-.7 0h-.6c-.6-.6-1.6-.1-2.3-.2h-1.1a1.697 1.697 0 01-1-.1 5.506 5.506 0 00-2.5 1c-.8.4-1.9.9-2 1.8-2.3 1-2.8 4.9-2.9 7-.1 2.1-.2 5.9-.2 8.9s-.2 5.3 0 8 0 4.6.1 6.8.3 2.5.3 3.8a17.806 17.806 0 01-.2 2.2c0 1 0 2 .1 3.1-.05.733-.05 1.468 0 2.2.295.868.398 1.789.3 2.7.1.5-.3.9-.1 1.5.2.6.3 1.1.2 1.7-.05.633-.05 1.268 0 1.9 0 .4.5.5.2.8-.3.3 0 1.2-.2 1.7s-.1.6 0 .9c.1.3.1 2.5 0 3.8h-.9c-.3.2-.6-.1-1 .1l-.5.2a3.7 3.7 0 00-1.1-.1 1.6 1.6 0 00-1-.2c-.5 0-.9-.3-1.4-.1-2.3-.4-4.7-.9-6.9-1.5h-.1c-.3.1-.5-.1-.8-.1h-.2c-.1-3.7-.3-7.5-.4-11.3a.694.694 0 00-.2-.7c.2-.5-.1-1-.2-1.5a6.713 6.713 0 01.1-2c.05-.799.05-1.601 0-2.4-.1-1.1-.1-2.1-.1-3.2-.1-3.8-1-8.2-.4-12 .6-3.8.1-7.5-.4-10.9a2.896 2.896 0 00-.2-1.6c.1-.4 0-.7.1-1.1-.1-.257-.1-.543 0-.8a2.8 2.8 0 000-1.3c.131-.386.165-.798.1-1.2-.5-1.4-.1-3.9-.1-5.4 0-1.5 0-3.5-.1-5.3-.1-1.8.6-4.2 0-5.7s.3-6.6.5-9.3h-.1a2.8 2.8 0 010-1.3c-.2-1.3-1.2-.5-1.4.3-.2.8 0 .6-.3.8h.1c-.1.3-.1.6-.2.9-.1.3-.1.6-.2.9a8.69 8.69 0 00.1 2.3 16.945 16.945 0 00-.1 3.2 18.294 18.294 0 00-.3 4.7c0 .4.5 3.5.2 3.8a.596.596 0 000 .6c.1.3-.1.6 0 1a2.811 2.811 0 000 2.2c.2.9-.3 2.2.3 3 .6.8-.2 1.5-.4 2.2a19.312 19.312 0 00.1 3.4c-.113.433-.077.89.1 1.3-.1.3.3.5-.1.8-.4.3.3 1.3.3 1.9.008.336-.026.672-.1 1 .069.27.034.556-.1.8a3.198 3.198 0 00.2 1.7c.05.499.05 1.001 0 1.5-.3-.5-.9-.3-1.1-.8h-.1a4.497 4.497 0 00-1.2-.6 3.3 3.3 0 00-2.1-1.1 22.34 22.34 0 01-2.2-1.1c-.2-.2-.6.1-.8-.3a29.273 29.273 0 00-4.8-2.9c-.6-.7-.9-.5-1.6-.8-.7-.3-.3-.2-.3-.4s-1.3-.4-1.9-.8a4.587 4.587 0 01-.7-.7c-.4 0-.5-.4-.7-.6-.2-.2-1-.8-1.6-.8a21.108 21.108 0 01-3.5-2.6l-2.1-1.7c-2.7-2.2-5.2-4.5-7.7-6.9a8.623 8.623 0 00-1.3-1.4c-.2-.5-.8-.9-1.2-1.4a15.735 15.735 0 00-2-2.5l-2.8-3.5c-1.1-1.5-2.3-3-3.3-4.5s-2.4-2.8-2.4-4.1c0-1.3 0-.3-.2-.4-.2-.1-1.1-2-1.5-2.7-.4-.7-1.2-2.2-1.9-3.3a6.659 6.659 0 01-.6-1.2 7.647 7.647 0 01-.4-1.1 6.372 6.372 0 00-.8-1.4c-1.2-2-2.1-4.4-3.6-6.3a3.099 3.099 0 00-1.3-1.5c-.2-.8-.7-.9-1.3-1.3-.6-.4-.3-.2-.3-.4s-2.7-2.1-3.6-2.7c-.9-.6-3.1-2-4.7-3s-6-3.8-9.1-5.3a3.2 3.2 0 00-2-1.2 24.009 24.009 0 01-2.1-1.3c-.3-.2-.7.1-.8-.3-.1-.4-3.6-2.6-5.2-3.9a1.795 1.795 0 01-.9-.4c-.4 0-.3-.4-.6-.6a6.699 6.699 0 01-2.5-1.6c-.5-1-1.5-1.2-2.3-1.8l-1.7-1.4c-.2 0-.4 0-.4-.3s-1.1-1-1.4-1.6c-.3-.6-1.3-1.1-1.7-1.9-.4-.8-.6-.3-.8-.6a1.398 1.398 0 00-.9-.9c-.2-.4-.6-.3-.5-.8.1-.5-1.1-.8-1.4-1.4a3.503 3.503 0 01-.5-.8c-.3-.2-.3-.5-.4-.8-.1-.3-1.1-1.3-1.4-1.9a12.88 12.88 0 00-.9-1.6c0-.3-.3-.3-.5-.5s-.2-.9-.3-1.3c-.1-.4-.8-2.2-.9-3.3-.1-1.1-.4-.6-.4-.9a2.198 2.198 0 00-.4-1.3c0-.4-.4-.5-.1-.8.3-.3-.5-1.3-.5-1.9h.1c-.4-.4 0-.7-.3-1.1h1l1.4.4c.36.234.772.372 1.2.4.6.2 1.2-.2 1.8 0l2.2.2c.2-.1.4-.3.6-.1.724.182 1.459.315 2.2.4 1.499.1 3.002.1 4.5 0a1.706 1.706 0 011-.3c.2-.1.3-.1.5.1s1.4-.6 2.1-.6a6.103 6.103 0 001.3-.3 3.497 3.497 0 002.4-.8c.9-.6 2.3-.7 2.8-1.7a9.597 9.597 0 003.5-2.1c.8-.7 1.4-1.4 2.2-2 .128-.32.296-.622.5-.9 0-.2.2-.3.4-.3s.7-1.3 1.2-1.8c.353-.281.657-.619.9-1a3.699 3.699 0 001.4-2c.4-.8 1.1-1.6 1.4-2.4.3-.8 0-.5.3-.5a13.085 13.085 0 002.1-3.6c.3.3.6.8 1 .9.238.115.445.287.6.5h.1l1.1.6c.428.028.841.166 1.2.4 1.5.3 3-.5 4.3-1.3a2.409 2.409 0 001.2-1.6c2.2-1.8 2.6-4.9 3.3-7.5a6.552 6.552 0 010-1.4c.1-.3.3-.4.3-.7a14.069 14.069 0 01-.1-2h.1c-.3-.5.1-1.2-.2-1.8-.3-.6-.7-1.1-1-.4-.3.7-.2 1.4-.4 2.1h-.1c.1.6-.2 1-.1 1.6.1.6.1.5.1.8l-.9 3.3c-.9 3.9-3.5 8.7-8.1 6.5h-.1c-.7-.1-1.3-.7-1.7-.7a2.8 2.8 0 01.6-1.5 1.601 1.601 0 01.1-1c0-.2.1-.4.3-.4.2 0 .2-1.4.5-2.1.092-.317.226-.62.4-.9.028-.336.17-.653.4-.9.253-.78.42-1.584.5-2.4a4.9 4.9 0 00.4-2.5c.5-.7.5-1.7 1-2.5s.4-2.8.7-4.2a1.7 1.7 0 010-1c-.1-.2 0-.3.1-.5s-.1-1.4 0-2c.1-.6.1-.5.2-.7a.999.999 0 00.7.4.694.694 0 01.5.4h.1l.9.4c.3 0 .5.2.8.4a8.59 8.59 0 002.3.5l1.7.5c.3.1.5-.1.7-.1.377.287.828.46 1.3.5 1.38.533 2.827.87 4.3 1 .41.178.868.213 1.3.1.4.1.6-.2.9.2.3.4 1.3-.2 2 0 1.954.283 3.926.416 5.9.4h5.7l3.3-.5a37.23 37.23 0 005.8-1.2c1.1-.2 1.9-.3 2.3-.8.476.032.953-.036 1.4-.2a14.981 14.981 0 004.2-1.5 1.895 1.895 0 001.2-.7.902.902 0 00.5-.3c.8.1 1.3-.8 1.9-1.2h.1c.1-.3.1-.3.5-.5s.1.5.2.7c.1.2.2.4 0 .5-.2.1.6 1.3.6 2s.1.5.1 1c.067.303.032.62-.1.9.119.777.286 1.545.5 2.3-.008.859.162 1.71.5 2.5-.7 4.9.5 10.3.6 15.3 0 3.1-.1 6.2-.2 9.3-.1 1.6-.2 3.2-.4 4.8-.2 1.6.2 2.8-.2 3.8s.1.5.1.7a22.027 22.027 0 00-1 5.8 1.205 1.205 0 00-.1 1.3c-.2.5.1.6-.2.9-.3.3.1 1.6-.2 2.6a1 1 0 00-.2.7c-.223.364-.36.775-.4 1.2-.3.6.1 1.2-.1 1.7a5.995 5.995 0 00-.3 2.5c-.5.7-.4 1.8-.9 2.5s-.5 2.7-.9 4c-.4 1.3-.1.6-.1 1.2a1.61 1.61 0 00-.4 1.2 83.74 83.74 0 00-6.1-11 138.035 138.035 0 00-6.6-12.6h-.1c-.5-.4-1-2.2-1.8-1.4-.8.8 0 .9 0 1.4a.799.799 0 01.3.8h.1c.139.428.341.832.6 1.2a3.3 3.3 0 001.1 2.1c.7.8.8 2.1 1.7 2.7.344 1.276.884 2.49 1.6 3.6l3 5.5c.9 1.6 2 5 3.6 5.9-.023.467.119.927.4 1.3a19.055 19.055 0 002.1 4 1.603 1.603 0 00.7 1.2c.1.4.5.4.4.8-.1.4.9 1.1 1.1 1.7.159.419.36.821.6 1.2.2 1.8 2.1 3.8 2.9 5.4l.7 1.4a11.617 11.617 0 001.8 3.3 1.394 1.394 0 00.7 1.2c.1.4.5.4.3.8s.9 1.1 1.2 1.7c.3.6.2.8.6 1.2a3.3 3.3 0 001.1 2.1c.7.8.8 2.1 1.7 2.7a18.28 18.28 0 002.5 5.3 1.603 1.603 0 00.7 1.2c.2.4.5.4.4.8-.1.4.9 1.1 1.2 1.7h-.1c.1.1.3.1.4.3.1.2-.5 0-.7.3-.2.3-.3.5 0 .7.3.2 1.5.3 2 .5.5-.2 1 0 1.5-.3l.8-.4a3.293 3.293 0 001.6-.7c1.8-.7 2.9-2.7 3.9-4.1 1-1.4 2.5-3.8 4.8-4.5a2.496 2.496 0 001.2-.4h1a2.8 2.8 0 011.8-.3c.281-.132.597-.167.9-.1a87.702 87.702 0 0013.5-1.1c.2.2 0 .2 0 .3h.1c-.1.1 0 .2.1.2s0 .2.1.4-.2.3 0 .6a8.598 8.598 0 001 1.6c0 1.1.8 2.2.9 3.1.1.9.1.2.2.3.1.1-.1.4.1.6a33.826 33.826 0 00-7.8.3c-.6.3-2.3.1-1.8 1.2.5 1.1.8.3 1.2.4.4.1.5-.2.8 0h1c.283-.039.569.032.8.2a18.466 18.466 0 002.3-.4c.8.203 1.645.133 2.4-.2 1.5.6 3.3.4 4.8.7h.9c.957.166 1.929.233 2.9.2a8.278 8.278 0 002.2.1c.317.039.623.141.9.3.764.081 1.532.115 2.3.1l1.8.2c.3.1.4-.1.7-.1.3 0 5.1 1.1 7.1 1.5l8.7 1.6c3.333.667 6.633 1.467 9.9 2.4l4.9 1.3a25.708 25.708 0 003.9 1.4c.979.393 1.981.727 3 1 .6.4 1 .2 1.7.4s.3.1.4.3c.1.2 1.3.1 1.9.4l1.2.5c.62.511 1.397.794 2.2.8.749.223 1.483.49 2.2.8.3.2.7-.2.9.2.2.4 4 1.8 5 2.2 1.566.394 3.103.896 4.6 1.5.511.338 1.046.639 1.6.9.5.2 1.2.1 1.7.4l1.7.7c.2.2.4 0 .6 0 .927.346 1.802.817 2.6 1.4a20.4 20.4 0 012.6 1.1 1.6 1.6 0 001.3.4c.4.3.6 0 .8.4.2.4 1.3.3 1.9.6h-.1c.3-.1.3-.2.6 0s.8.1 1.1.2c.3.1-.4 1.6-.3 1.8a16.67 16.67 0 00-.2 3.1 1.708 1.708 0 000 1.4c-.2.4.2.6-.2.8-.4.2.2 1.4 0 2-.2.6 0 .6-.2 1s-.1.6-.3.9a8.943 8.943 0 000 2.3c-.2 1-.5 1.9-.2 2.5a2.1 2.1 0 00-.5 1.3 29.034 29.034 0 00-1.2 4.2 1.605 1.605 0 00-.3 1.3c-.2.4 0 .7-.4.8-.4.1-.1 1.4-.5 1.9-.191.389-.358.79-.5 1.2a2.804 2.804 0 00-1 2c-.3.9-1.4 1.9-1.4 2.8a23.353 23.353 0 00-2.6 2.8 7.993 7.993 0 00-1.3 1.3 2.199 2.199 0 00-.9 1l-.4.4c-.8.1-1 1-1.7 1.4a2.19 2.19 0 01-.8.5c-.2.2-.6.2-.9.3l-1.1.6c-.6.9-1.9 1-2.7 1.5a4.792 4.792 0 01-1.8.4l-1.1.4-1.7.4z" fill="#000"/><path d="M173.58 233.97c-.1.3 0 .4-.3.5h.1c-.1.1-.1.3-.2.4a.804.804 0 00-.2.5 1.302 1.302 0 00-.6 1.5c0 .6-.8 1.5-.5 2.2.3.7-.4 1.2-.8 1.7a5.297 5.297 0 01-.4 1.6c-.1.2.1.5 0 .7-.1.2-.2.4-.2.6 0 .2.2.2.2.4s.2.4-.2.6c-.4.2.2 1 .2 1.4h-.1c.1.2.2.2.1.5s.1.4.2.6c.1.2.8.6 1 .2.2-.4.1-.9.3-1.2h.1c-.2-.3.2-.5 0-.9s-.1-.6 0-1 0-.3 0-.5c.215-.257.353-.569.4-.9 0-.5.3-.6.2-1.3-.1-.7 1.3-4.4 2-6.4h-.1c.1-.5.2-.6.2-.8 0-.2.2-.3-.1-.7-.3-.4-.9-.1-1.3.3zM179.78 234.87a1.91 1.91 0 01.1-.8c-.1-.1 0-.2 0-.3a.604.604 0 00-.21-.464.6.6 0 00-.49-.136c-.4.1-.5.4-.7.7-.2.3 0 .5-.3.7h.1c-.1.3 0 .3-.3.7-.3.4-.1.5-.3.7-.2.2.1 1.3 0 1.9-.158.487-.259.99-.3 1.5 0 .2.2.3.2.5s-.2 1.4-.5 2c-.3.6-.2.7 0 1.1.2.4-.1.5-.1.7 0 .2.1.6.1.8a1.402 1.402 0 00.1 1.1c0 .4.3.4 0 .7-.3.3.4 1.1.5 1.6h-.1c.2.2.2.1.2.4a.987.987 0 00.4.7c.2.4.9.4 1 0 .1-.4-.1-1 0-1.4h.1c-.2-.3 0-.6-.2-.9-.2-.3-.3-.3-.3-.5a2.391 2.391 0 000-1.2c.1-.4.3-.7.2-1.1-.1-.4.2-.8-.1-1.4.3-2.6.7-5.1 1-7.6h-.1zM185.68 245.57h.1c-.2-.2-.1-.6-.3-.8-.2-.2-.3-.7-.3-1.1 0-.4-.2-.3-.1-.5s-.1-.8 0-1.1a13.513 13.513 0 01.1-4c-.067-.867-.033-1.74.1-2.6a.785.785 0 00.1-.7c-.3-.4 0-.9-.2-1.2-.2-.3-1.1-.1-1.3.4-.2.5 0 .3-.1.5h-.1c0 .6-.2.4-.1.9a1.305 1.305 0 00-.2 1.6c.1.6-.4 1.5.1 2.1.5.6-.2 1.2-.4 1.8-.2.6-.1.6 0 .9.1.3 0 .4 0 .7 0 .3.2.4.2.7 0 .3-.1.4 0 .5l.3.4c-.1.3.3.3 0 .6s.6.9.7 1.3h-.1c.2.1.2 0 .3.3.1.3.3.4.4.5.1.1 1.3-.3 1-.7-.3-.4-.2-.2-.2-.5zM266.88 154.37c-.3 0-.3.3-.6.5s-.3.2-.5.3c-.2.1-.9.7-1.3.7l-.6.4a.494.494 0 00-.264-.018.494.494 0 00-.236.118c-.1 0-.1.2-.2.3l-.4.2c-.5-.5-.9.4-1.4.4h-.1c-.1.1 0 .2-.3.2l-.6.3c-.3.2-.5.8-.1 1 .4.2 1 0 1.3.1h.1c.2-.2.6 0 .9-.3l.4-.3c.424.054.852-.053 1.2-.3.346.031.693-.038 1-.2.5-.3 1-.3 1.3-.8a7.3 7.3 0 003.3-6.5v-.3h-.1c-.2-.4-.1-1.1-.4-1.3a.603.603 0 00-.624-.111.596.596 0 00-.376.511.696.696 0 00-.1.6c.1.3 0 .2-.1.4h.1c-.1.1 0 .2 0 .3a.904.904 0 00-.1.5c-.2.3-.3.4-.3.7a.8.8 0 000 .7c.1.4-.6 1.2-.7 1.6-.1.4.1.3-.2.3zM250.58 148.87c.8-.5.9-1.8-.2-1.6h-.2l-.6.3c-.1.3-.5.1-.7.4-.2.3-.1.3-.2.4-.1.1-.6 0-.9.4-.3.4-.6-.1-.9.1-.3.2-.6-.1-1.1.3a13.281 13.281 0 01-4-.1 6.103 6.103 0 00-1.3-.3c-.2-.1-.3-.3-.6-.2l-.6-.2c-.1.1-.2 0-.3 0-.1 0-.6.2-.7.5-.1.3.3.6.5.9.2.3.4 0 .5.3l.4.2.5.2c.2.4.8.5 1.2.5.4 0 1.5.3 2.3.1.8-.2.2-.3.4-.1.2.2.5 0 .8.1h1.1c.5 0 .9-.3 1.4-.3.5 0 .4-.2.6-.3h.6c.1-.1.1-.3.2-.4.1-.1.3-.3.6-.2.3.1.7-.7 1.1-.9v.2s0-.3.1-.3zM241.08 135.37c-.1.2 0 .3 0 .4a.894.894 0 00.1.5 1.304 1.304 0 00.6 1.4c.4.5.7 1.6 1.5 1.6s.7.7 1.2.9c.5.2.4.2.9.2s.9-.2 1.4-.2c.5 0 .4-.2.7-.3a.9.9 0 00.8-.7c.3-.1.1-.4.5-.3.4.1.8-2 .9-2.3.1-.3-1-.8-1.1-.3-.1.5-.2.4-.4.5-.2.1-.4.8-.5.9-.1.1-.5.1-.6.3-.1.2-.1.3-.3.2-.2-.1-.5.3-.8.1-.3-.2-.4.2-.7.2l-.6-.2a3.899 3.899 0 01-1.4-1.7c-.2-.3-.3-.8-.5-1.1a4.512 4.512 0 00-.6-1.2c-.5-.7-1.2-.1-1.2.6s.1.2.1.4v.1zM65.68 144.07c.4-.1.8 0 1.1-.2.3-.2.5.1.8.1.3 0 .6-.2.9-.1a1.4 1.4 0 001.1-.1c.4.1.5-.3.8.1.3.4 1.1-.2 1.7-.1.2-.2.2-.2.5-.1.27.069.556.034.8-.1.2-.1.4 0 .5-.3.1-.3.1-.7-.3-.8h-.4l-.9-.2c-.4.1-.8-.2-1.2-.1l-.6.2c-.5-.1-1-.3-1.4-.1a2.103 2.103 0 00-1.3-.2 3.71 3.71 0 00-1.8.1 23.515 23.515 0 00-8.7 2c-.4.4-1.2.5-1.4 1-.2.5.3.9.7.8.4-.1 1.6-.7 2.3-.6a2.799 2.799 0 002-.5c.5-.4 2-.2 2.5-.8.5-.6 1.5-.3 2.3 0zM56.38 134.77l1.6-.3c.5-.1 1.3-.1 1.7-.6.4-.5 1.5-.3 1.8-.9.3-.6.5-.1 1.2-.1h.5c.2-.1.5 0 .8-.2.3-.2.4 0 .6 0 .2 0 .3-.3.5-.3h.6l.3-.2h1c.6 0 1.1-.4 1.7-.5.6-.1.6-.7.2-1a3.9 3.9 0 00-2.1-.3c-.2.1-.3.3-.5.3a1.21 1.21 0 00-1 .1 1.198 1.198 0 00-1 0c-.5.1-.7-.1-1.2.3s-1.6.3-2.1.5l-2 .6c-1 .4-2.6.9-3.1 1.8s.2.8.5.8zM194.48 71.37h.1l-.5.7-.2.2a.7.7 0 00.2.9c.4.1.7-.1 1.1-.2.4-.1.2-.4.5-.4.3-.4.6-.5.7-.7a1.898 1.898 0 001.3-1.3c.4-.7 1.5-1.1 1.5-1.9 0-.8.9-1 1.6-1.3a5.693 5.693 0 011.1-1.4c.2-.2.2-.5.3-.7l.5-.5a1.104 1.104 0 01.1-.5c.2-.2 0-.5.4-.5s.3-1.1.6-1.5h.1c-.1-.3-.2-.3 0-.5a.794.794 0 00.1-.8c.2-.3-.4-.8-.8-.6-.4.2-.5.9-.8 1.1l.6.3-.7-.4c0 .4-.4.5-.4.9s-.3.7-.5 1c-.2.3-.2.3-.3.5-.1.2-.6.8-1.1 1.2-.5.4-.3.6-.6.9l-4.9 5.5zM203.68 68.67c-.3.5-.7.5-.8 1.2-.1.7-3.4 3.7-5 5.5l.3.4-.3-.3-.5.6-.2.2a.593.593 0 00-.11.236.589.589 0 00.11.497c.054.07.122.127.2.167a1.103 1.103 0 001.1-.2c.2-.2.2-.3.6-.3h-.1a2.89 2.89 0 00.8-.7 1.801 1.801 0 001.3-1.2c.3-.7 1.4-1.2 1.4-2s1-1 1.6-1.3c.6-.3.6-1 1.2-1.4.6-.4.1-.5.3-.7.2-.2.4-.2.4-.4s0-.4.1-.5c.1-.1 0-.5.5-.6.5-.1.2-1 .5-1.4h.1c0-.2-.1-.2.1-.5s.1-.5.1-.7c0-.2-.4-.9-.8-.6-.4.3-.5.8-.8 1l.4.3-.5-.3c0 .3-.4.5-.5.8-.1.3.1.4 0 .6-.319.264-.561.61-.7 1-.3.1-.7.3-.8.6zM67.88 136.07a43.9 43.9 0 00-5.1.3c-1.709.301-3.383.77-5 1.4-.4.4-1.1.4-1.4.9-.3.5.2.9.6.8.4-.1.6.1.8-.1h.5l1-.2a2.191 2.191 0 001.9-.5c.7-.3 2 0 2.5-.7s.7.1 1.1.1a4.989 4.989 0 002.1 0c.3-.1.5.1.8.1l.8-.2.7.2.4-.2c.4.1.5-.3.8.1.3.4 1.1-.2 1.6-.1l.2-.2h.5c.5-.1 1.2-.1 1.2-.8 0-.7-.5-.4-.7-.5l-1-.2c-.4.1-.7-.2-1.1-.1l-.6.2a2.306 2.306 0 00-1.4-.1 1.705 1.705 0 00-1.2-.2zM99.38 39.57a.5.5 0 00.4.3 1.403 1.403 0 001.5.7c.7.1 1.4.8 2.1.4.7-.4 1.2.4 1.7.8.733.05 1.468.05 2.2 0a.9.9 0 001-.2c.3.1.3-.3.6 0s1.2-.5 1.7-.7c.5-.2 1-1 .3-1.4-.7-.4-.6.1-.9.1-.3 0-.8-.1-1 .1-.2.2-.2.3-.4.3a2.697 2.697 0 00-.9 0c-.3 0-.6-.2-.9-.1-.3.1-.7-.2-1.2 0a19.01 19.01 0 01-3.9-1.1l-1.2-.5-.5-.2h-.2c-.2 0-.4-.3-.5-.2l-.3-.2a.8.8 0 00-.7.5c-.1.3.1.6.3.9.2.3.6.3.8.5z" fill="#000"/><path d="M92.08 28.27c0-.4-.3-.7-.3-1.1a6.7 6.7 0 00-2.4-4.3 30.701 30.701 0 00-2.5-2.6 4.698 4.698 0 00-.9-.6 5.896 5.896 0 00-1.7-.4l-1.3-.4h-.1a12.91 12.91 0 00-.4-2.5c-.2-.99-.2-2.01 0-3 .1-.5.3-.9.4-1.4.1-.5 0-1.4.2-2.1.2-.7.3-.7.4-1.1.09-.256.124-.53.1-.8.2-.8.8-2.3-.1-2.9a.9.9 0 00-1.4 0c-.2.3-.4.7-.7.8a4.7 4.7 0 00-.3 1.7 3.1 3.1 0 01-.5 1c-1.1 2.1-.7 4.5-1.2 6.7a1.1 1.1 0 00.2.8c.1.2 0 .5 0 .8.01.375.077.746.2 1.1 0 .2.1.4.1.6v.6l-1.1.6-1 .9c-.41.244-.78.547-1.1.9a5.2 5.2 0 00-1.6 3c-1 4.8-.9 10.2 3.1 13.8.997.876 2.15 1.554 3.4 2a5.5 5.5 0 003.8-.1 9.102 9.102 0 003.3-1.5 8.8 8.8 0 003-4.5c.253-.814.42-1.651.5-2.5.198-.75.299-1.523.3-2.3a6.5 6.5 0 00-.4-1.2z" fill="#fff"/><path d="M105.58 29.77c.3 1.5 2.7 1.7 3.6.5.9-1.2.6-.9.3-1.4-.3-.5-.3-.7-.7-.8a1.1 1.1 0 00-.9-.6c-.5-.4-.9-.1-1.5 0s-.4.5-.6.8a1.595 1.595 0 00-.2 1.5z" fill="#000"/></g><defs><clipPath id="clip0"><path fill="#fff" transform="translate(.28 .37)" d="M0 0h388.4v407.9H0z"/></clipPath></defs></svg>