<?xml version="1.0" standalone="no"?><!DOCTYPE svg PUBLIC "-//W3C//DTD SVG 1.1//EN" "http://www.w3.org/Graphics/SVG/1.1/DTD/svg11.dtd"><svg height="1100" node-id="1" sillyvg="true" template-height="1100" template-width="1100" version="1.1" viewBox="0 0 1100 1100" width="1100" xmlns="http://www.w3.org/2000/svg" xmlns:xlink="http://www.w3.org/1999/xlink"><defs node-id="90"><linearGradient gradientTransform="matrix(0.9998 0.0198 -0.0198 0.9998 4.0734 -30.7686)" gradientUnits="userSpaceOnUse" id="SVGID_1_" node-id="35" spreadMethod="pad" x1="850.7995" x2="952.7122" y1="515.4534" y2="658.131"><stop offset="0" stop-color="#3c7e8b"></stop><stop offset="0.9737" stop-color="#325157"></stop></linearGradient><clipPath id="SVGID_2_" node-id="50"><path d="M 854.99 677.06 C 846.50 663.55 828.11 643.84 799.81 618.60 C 733.68 559.61 616.04 519.34 616.04 519.34 C 606.13 559.62 625.30 591.68 690.81 629.76 C 730.12 652.61 819.72 692.29 835.65 696.16 C 836.20 696.30 836.71 696.40 837.25 696.52 C 839.36 705.13 850.60 719.71 864.88 730.46 C 902.49 758.77 955.04 777.51 955.04 777.51 L 961.31 763.65 C 961.32 763.64 882.57 683.50 854.99 677.06 Z" fill="#000000" fill-rule="nonzero" node-id="99" stroke="none" target-height="258.16998" target-width="355.19" target-x="606.13" target-y="519.34"></path></clipPath><clipPath id="SVGID_3_" node-id="59"><path d="M 622.27 515.45 C 622.27 515.45 583.54 535.07 592.50 585.91 C 599.02 622.89 592.62 720.28 598.12 776.18 C 596.09 775.43 593.96 774.70 591.75 773.97 C 556.03 762.27 483.83 773.16 483.83 773.16 L 485.19 792.09 C 485.19 792.09 610.03 830.67 624.78 815.34 C 627.73 812.27 665.84 734.52 673.85 669.03 C 685.39 574.69 664.48 495.17 622.27 515.45 Z" fill="#000000" fill-rule="nonzero" node-id="103" stroke="none" target-height="335.49997" target-width="201.56003" target-x="483.83" target-y="495.17"></path></clipPath></defs><path d="M 431.64 886.90 L 431.64 886.86 C 430.06 871.80 429.26 856.68 429.17 841.56 C 433.28 841.37 437.16 840.17 440.73 838.70 C 444.95 836.90 448.79 834.61 452.31 832.00 C 455.84 829.39 459.12 826.55 462.10 823.44 C 463.67 821.97 464.91 820.16 465.48 817.80 C 466.04 815.42 466.20 812.70 464.93 808.84 C 464.52 807.59 463.47 806.73 462.25 806.51 L 462.11 806.49 C 458.17 805.79 455.58 806.16 453.37 806.84 C 451.17 807.54 449.59 808.76 448.30 810.28 C 445.58 813.16 442.98 816.14 440.42 819.14 C 437.87 822.15 435.45 825.28 433.02 828.40 C 431.75 830.06 430.50 831.73 429.22 833.45 C 429.34 823.26 429.80 813.08 430.61 802.92 C 436.43 802.83 442.14 801.59 447.56 799.79 C 453.77 797.63 459.59 794.68 465.07 791.29 C 470.50 787.85 475.63 784.03 480.35 779.76 C 482.81 777.74 485.00 775.41 486.28 772.19 C 487.50 768.93 488.30 765.25 487.11 759.90 C 486.82 758.60 485.78 757.67 484.55 757.46 L 484.39 757.43 C 479.09 756.53 475.62 757.19 472.51 758.18 C 469.46 759.22 467.24 761.06 465.20 763.12 C 460.92 767.02 456.79 771.06 452.60 775.02 L 440.04 787.05 L 431.21 795.32 C 431.21 795.30 431.21 795.28 431.22 795.26 C 431.53 791.45 431.92 787.65 432.44 783.86 L 433.80 772.48 C 434.73 766.25 435.64 760.01 436.71 753.80 C 442.90 753.73 448.88 752.40 454.57 750.57 C 461.06 748.39 467.11 745.40 472.83 741.99 C 478.53 738.55 483.87 734.66 488.83 730.35 C 491.31 728.21 494.00 726.25 495.15 722.71 C 496.38 719.26 496.87 715.03 494.80 708.51 C 494.41 707.28 493.46 706.38 492.31 706.02 L 492.15 705.97 C 485.68 703.95 481.68 704.12 478.33 704.99 C 476.66 705.42 475.29 706.16 474.09 707.07 C 472.93 708.03 471.89 709.12 470.76 710.12 C 466.32 714.18 462.04 718.41 457.81 722.70 C 453.56 726.96 449.43 731.37 445.29 735.95 C 443.06 738.41 440.83 740.87 438.57 743.45 C 440.99 730.55 443.86 717.74 447.17 705.03 C 447.88 702.16 448.68 699.32 449.47 696.47 C 456.03 697.02 462.53 696.01 468.71 694.55 C 475.87 692.84 482.57 690.18 489.00 687.10 C 495.43 684.01 501.53 680.44 507.30 676.43 C 510.23 674.49 513.17 672.53 514.96 669.08 C 516.78 665.67 518.08 661.59 517.30 655.10 C 517.14 653.78 516.25 652.73 515.09 652.29 L 514.98 652.25 C 508.92 650.02 504.82 650.07 501.20 650.74 C 499.40 651.09 497.84 651.72 496.40 652.54 C 494.98 653.37 493.73 654.45 492.39 655.39 C 487.07 659.22 481.90 663.25 476.74 667.26 C 471.59 671.27 466.53 675.46 461.43 679.62 C 458.32 682.17 455.22 684.75 452.01 687.38 C 455.59 674.60 459.56 661.93 463.88 649.37 C 470.15 649.62 476.34 648.79 482.32 647.38 C 489.14 645.69 495.66 643.18 501.88 640.16 C 508.11 637.14 514.00 633.55 519.56 629.49 C 520.95 628.48 522.35 627.46 523.69 626.37 C 524.98 625.22 526.11 623.83 526.97 622.17 C 528.65 618.79 529.80 614.62 528.39 608.08 C 528.15 606.99 527.35 606.16 526.35 605.85 L 525.65 605.63 C 519.67 603.77 515.79 603.78 512.47 604.61 C 509.07 605.31 506.91 607.51 504.45 609.39 C 499.55 613.16 494.71 617.06 489.84 620.94 C 484.97 624.82 480.12 628.78 475.21 632.88 C 472.60 635.04 469.96 637.22 467.29 639.47 C 469.89 632.17 472.55 624.90 475.35 617.67 C 479.26 607.58 483.49 597.61 487.85 587.70 C 493.01 588.30 497.90 588.02 502.67 587.35 C 508.01 586.56 513.15 585.19 518.10 583.35 C 523.04 581.50 527.86 579.32 532.38 576.58 C 534.74 575.39 536.87 573.76 538.21 570.99 C 538.88 569.62 539.39 568.00 539.66 566.08 C 539.87 564.07 540.03 562.02 539.53 559.09 L 539.53 559.07 C 539.30 557.77 538.49 556.70 537.43 556.09 C 532.40 553.25 529.19 552.72 526.24 552.58 C 523.36 552.54 521.26 553.62 519.31 555.00 C 515.25 557.49 511.32 560.24 507.38 563.08 C 503.46 565.96 499.60 569.04 495.81 572.46 C 495.11 573.10 494.42 573.75 493.73 574.40 C 498.41 564.05 503.38 553.80 508.62 543.74 C 513.52 541.14 517.76 537.68 521.53 533.87 C 525.71 529.55 529.24 524.73 532.28 519.68 C 535.32 514.63 537.81 509.32 539.79 503.82 C 540.29 502.45 540.80 501.07 541.21 499.66 C 541.55 498.23 541.63 496.70 541.33 495.09 C 540.68 491.85 539.15 488.25 534.22 484.14 C 533.42 483.47 532.39 483.25 531.45 483.46 L 530.59 483.65 C 524.69 484.96 521.63 486.65 519.49 488.70 C 517.22 490.69 516.82 493.23 516.01 495.68 C 514.41 500.57 512.96 505.55 511.53 510.55 C 510.09 515.55 508.77 520.62 507.52 525.87 C 506.24 531.11 504.98 536.42 503.94 542.45 L 503.93 542.52 C 503.87 542.85 503.92 543.17 504.02 543.47 C 499.39 551.56 495.02 559.78 490.83 568.09 C 491.10 566.57 491.41 565.06 491.64 563.54 C 491.99 560.87 492.39 558.19 492.62 555.50 C 492.92 552.82 493.13 550.12 492.83 547.37 C 492.57 544.62 491.99 541.83 490.88 538.96 C 489.81 536.09 488.32 533.16 485.73 530.05 L 485.69 530.00 C 484.79 528.92 483.20 528.75 482.09 529.59 C 475.74 534.39 473.03 539.79 471.32 545.31 C 470.54 548.08 470.19 550.89 470.10 553.74 C 469.90 556.57 469.88 559.42 469.94 562.28 C 470.08 567.99 470.73 573.74 472.10 579.46 C 473.37 584.68 475.13 589.86 478.15 594.89 C 475.12 601.64 472.10 608.40 469.26 615.24 C 467.86 618.64 466.57 622.08 465.24 625.51 C 465.28 624.66 465.32 623.78 465.36 622.94 C 465.56 617.46 465.78 612.17 465.80 606.95 C 465.85 601.72 465.92 596.54 465.85 591.34 C 465.91 588.74 465.61 586.14 463.77 583.45 C 462.00 580.74 459.53 577.95 454.12 574.73 L 454.05 574.69 C 452.93 574.02 451.58 573.98 450.46 574.46 C 444.77 576.93 441.93 579.83 439.96 582.80 C 438.13 585.80 437.58 588.91 437.87 592.00 C 438.06 598.19 439.01 604.38 440.58 610.44 C 442.22 616.50 444.63 622.40 447.94 627.89 C 450.99 632.73 454.50 637.34 459.43 640.95 C 454.87 653.46 450.67 666.11 446.85 678.88 C 446.37 675.78 445.89 672.76 445.52 669.74 C 444.70 663.56 443.81 657.61 443.23 651.66 C 442.65 645.72 441.97 639.87 441.62 634.02 C 441.48 632.56 441.37 631.11 441.31 629.66 C 441.19 628.20 441.34 626.76 440.75 625.34 C 439.56 622.45 436.97 619.80 430.03 616.28 L 429.59 616.06 C 428.56 615.53 427.38 615.52 426.38 615.90 C 418.91 618.81 416.36 622.61 415.35 626.16 C 414.88 627.96 415.16 629.73 415.30 631.49 C 415.43 633.26 415.63 635.01 415.85 636.75 C 416.86 643.72 418.45 650.59 420.92 657.17 C 423.31 663.76 426.60 670.05 430.55 675.83 C 434.13 681.12 438.55 685.87 443.63 689.86 C 442.37 694.29 441.09 698.73 439.93 703.19 C 437.78 711.63 435.89 720.14 434.14 728.68 C 430.94 718.48 427.73 708.97 424.82 699.54 C 422.96 693.42 421.08 687.42 419.42 681.38 C 417.90 675.17 416.79 669.60 403.81 664.96 L 403.69 664.92 C 402.45 664.48 401.13 664.76 400.19 665.55 C 389.65 674.39 391.31 682.28 393.96 689.14 C 396.17 696.25 399.30 703.05 403.04 709.43 C 406.75 715.83 411.23 721.78 416.39 727.09 C 420.99 731.78 426.08 736.00 432.04 739.25 C 431.46 742.38 430.87 745.50 430.34 748.64 C 428.81 757.54 427.54 766.50 426.50 775.47 C 424.80 772.31 423.10 769.26 421.54 766.16 C 418.77 760.94 416.07 755.86 413.47 750.74 L 405.78 735.46 C 404.58 732.88 403.48 730.29 401.02 728.26 C 398.59 726.20 395.58 724.40 390.13 723.22 L 389.86 723.16 C 388.61 722.89 387.36 723.40 386.64 724.36 C 383.18 728.95 382.48 732.81 382.48 736.36 C 382.50 738.13 382.86 739.77 383.41 741.32 C 384.00 742.85 384.82 744.27 385.55 745.73 C 388.54 751.54 392.20 757.00 396.31 762.09 C 400.40 767.20 405.11 771.86 410.36 775.86 C 414.92 779.44 420.07 782.34 425.55 784.47 C 425.21 787.89 424.86 791.31 424.63 794.74 C 423.95 803.22 423.66 811.71 423.54 820.22 C 422.54 818.28 421.54 816.40 420.55 814.53 C 418.24 810.28 415.87 806.25 413.51 802.24 C 411.12 798.26 408.60 794.41 406.11 790.53 C 404.81 788.62 402.99 787.06 400.63 785.74 C 398.16 784.48 395.29 783.42 390.84 783.00 L 390.59 782.98 C 389.30 782.86 388.12 783.53 387.53 784.59 C 385.29 788.61 384.81 791.89 384.83 794.92 C 384.95 797.90 385.75 800.54 387.13 802.81 C 390.02 807.26 393.31 811.46 397.07 815.26 C 400.81 819.06 405.06 822.45 409.71 825.26 C 413.85 827.81 418.51 829.73 423.47 830.84 C 423.49 834.29 423.49 837.74 423.58 841.19 C 424.09 856.67 425.68 872.11 428.00 887.39 C 428.15 888.39 429.09 889.08 430.09 888.93 C 431.06 888.75 431.73 887.86 431.64 886.90 Z" fill="#7bc49b" fill-rule="nonzero" node-id="109" stroke="none" target-height="405.83002" target-width="159.15" target-x="382.48" target-y="483.25"></path><g node-id="279"><path d="M 96.59 277.99 C 100.00 281.86 104.49 277.80 106.72 287.19 C 109.74 299.92 115.77 307.38 120.81 306.44 C 128.96 304.93 140.18 303.35 147.27 318.44 C 154.31 333.53 161.02 345.03 161.02 345.03 L 203.07 322.59 L 193.88 316.63 C 186.78 307.87 173.67 277.04 173.67 277.04 C 179.15 271.85 185.46 264.86 185.71 256.83 C 185.88 251.13 182.37 247.40 178.60 243.69 C 177.72 242.83 176.57 242.23 175.47 241.64 C 171.50 239.51 168.43 237.68 163.92 239.19 C 158.43 241.03 153.85 245.50 147.84 245.48 C 144.22 245.47 140.88 243.98 137.82 242.16 C 134.78 240.35 133.42 238.28 131.38 235.51 C 128.91 232.17 127.35 228.13 124.61 224.98 C 121.22 221.08 116.70 219.71 111.63 219.03 C 108.93 218.67 106.15 219.43 104.14 221.31 C 102.93 222.45 94.55 231.73 100.94 255.74 C 104.11 267.66 93.48 274.46 96.59 277.99 Z" fill="#f7c3ab" fill-rule="nonzero" group-id="1" node-id="113" stroke="none" target-height="126.36" target-width="109.590004" target-x="93.48" target-y="218.67"></path><path d="M 231.47 552.86 C 231.47 552.86 295.76 532.69 332.05 632.06 C 362.81 716.27 392.06 774.56 370.07 788.63 C 348.08 802.69 335.43 810.42 297.01 751.27 C 258.59 692.12 188.63 601.52 199.99 579.33 C 211.35 557.12 231.47 552.86 231.47 552.86 Z" fill="#f7c3ab" fill-rule="nonzero" group-id="1" node-id="115" stroke="none" target-height="277.72998" target-width="203.43" target-x="188.63" target-y="532.69"></path><path d="M 289.05 544.77 C 289.05 544.77 327.31 609.79 339.25 648.71 C 339.87 650.73 262.69 698.83 260.08 697.64 C 257.47 696.45 201.92 605.36 201.92 605.36 L 233.57 530.48 L 289.05 544.77 Z" fill="#9b9ece" fill-rule="nonzero" group-id="1" node-id="117" stroke="none" target-height="168.35004" target-width="137.95" target-x="201.92" target-y="530.48"></path><g node-id="285"><path d="M 303.09 559.81 C 303.09 559.81 337.44 617.64 246.68 672.00 C 169.77 718.06 118.03 757.77 100.07 738.82 C 82.12 719.87 72.14 708.90 123.01 660.03 C 173.87 611.16 249.67 525.39 273.61 532.37 C 297.55 539.35 303.09 559.81 303.09 559.81 Z" fill="#f7c3ab" fill-rule="nonzero" group-id="1,7" node-id="121" stroke="none" target-height="232.38" target-width="265.3" target-x="72.14" target-y="525.39"></path><path d="M 84.10 726.04 C 85.83 750.57 160.44 754.63 191.95 760.25 C 202.19 762.09 218.32 764.98 235.58 767.45 C 258.61 770.79 283.67 773.45 299.47 771.91 C 308.25 771.05 314.18 768.91 315.26 764.86 C 316.27 761.11 312.60 756.83 305.73 752.29 C 293.24 744.00 270.24 734.81 245.82 726.56 C 225.49 719.66 204.18 713.39 187.07 708.74 L 187.03 708.74 C 185.53 708.33 184.07 707.91 182.60 707.54 C 134.39 694.71 93.69 700.37 93.69 700.37 C 93.69 700.37 89.56 700.78 86.67 706.48 C 84.78 710.24 83.43 716.28 84.10 726.04 Z" fill="#f7c3ab" fill-rule="nonzero" group-id="1,7" node-id="123" stroke="none" target-height="78.73999" target-width="232.84" target-x="83.43" target-y="694.71"></path></g><path d="M 235.59 767.45 C 258.62 770.79 283.68 773.45 299.48 771.91 L 307.85 764.52 L 305.75 752.29 C 293.26 744.00 270.26 734.81 245.84 726.56 L 235.59 767.45 Z" fill="#acacd5" fill-rule="nonzero" group-id="1" node-id="126" stroke="none" target-height="46.890015" target-width="72.26001" target-x="235.59" target-y="726.56"></path><path d="M 292.32 541.71 C 292.32 541.71 327.50 575.34 312.49 616.34 C 297.49 657.34 235.85 682.23 226.00 686.01 C 216.15 689.79 168.74 613.11 168.74 613.11 L 198.00 583.38 L 245.58 521.56 L 292.32 541.71 Z" fill="#acacd5" fill-rule="nonzero" group-id="1" node-id="128" stroke="none" target-height="168.22998" target-width="158.76" target-x="168.74" target-y="521.56"></path><path d="M 381.82 861.05 C 389.29 870.50 401.78 886.33 415.17 901.87 C 437.34 927.49 462.03 952.29 470.99 946.32 C 479.58 940.66 466.00 910.04 447.81 877.41 C 435.43 855.28 420.95 832.20 409.81 815.40 C 382.27 773.83 348.02 751.06 348.02 751.06 C 348.02 751.06 338.83 744.38 323.82 763.89 C 308.81 783.40 361.97 835.92 381.82 861.05 Z" fill="#f7c3ab" fill-rule="nonzero" group-id="1" node-id="130" stroke="none" target-height="207.90997" target-width="170.76999" target-x="308.81" target-y="744.38"></path><path d="M 415.17 901.87 C 437.34 927.49 462.03 952.29 470.99 946.32 C 479.58 940.66 466.00 910.04 447.81 877.41 L 415.17 901.87 Z" fill="#acacd5" fill-rule="nonzero" group-id="1" node-id="132" stroke="none" target-height="74.880005" target-width="64.40997" target-x="415.17" target-y="877.41"></path><path d="M 171.63 487.35 C 171.63 487.35 112.09 479.59 91.93 475.09 C 71.77 470.59 64.89 469.74 55.35 470.86 C 45.81 471.98 36.07 467.10 37.26 457.28 C 38.45 447.46 42.19 446.79 40.71 443.13 C 39.23 439.46 37.63 436.36 39.29 434.53 C 40.95 432.70 63.53 435.73 67.72 441.17 C 71.91 446.61 72.92 452.84 78.05 453.47 C 83.18 454.09 169.51 447.54 175.06 451.47 C 180.61 455.39 198.33 474.53 171.63 487.35 Z" fill="#f7c3ab" fill-rule="nonzero" group-id="1" node-id="134" stroke="none" target-height="54.649994" target-width="162.26001" target-x="36.07" target-y="432.7"></path><path d="M 107.73 210.25 C 107.65 210.32 107.57 210.39 107.49 210.46 C 103.67 213.73 97.83 216.96 100.77 222.91 C 103.08 227.58 106.91 227.20 111.46 227.09 C 115.03 227.01 118.79 227.11 122.18 228.35 C 126.81 230.04 129.55 234.20 131.30 238.60 C 132.88 242.58 134.40 248.11 138.23 250.55 C 141.45 252.60 144.19 252.91 146.45 256.21 C 147.39 257.58 148.57 260.91 150.21 261.30 C 152.13 259.11 152.24 254.40 153.15 251.59 C 154.17 248.45 156.25 245.04 159.89 244.47 C 164.79 243.70 168.80 249.44 170.52 253.19 C 172.78 258.12 170.81 261.24 169.96 266.12 C 169.11 270.94 171.72 276.27 173.72 280.54 C 174.61 282.44 175.73 285.24 178.22 284.07 C 179.92 283.27 181.32 281.70 182.53 280.30 C 185.64 276.73 186.75 271.71 187.63 267.16 C 188.10 264.75 188.46 262.32 188.88 259.89 C 189.30 257.48 190.04 255.08 190.38 252.68 C 191.08 247.72 191.80 242.74 191.80 237.70 C 191.85 235.90 191.37 235.96 193.15 235.06 C 194.46 234.40 196.37 234.23 197.79 233.97 C 204.92 232.62 211.11 232.56 217.39 236.67 C 222.81 240.22 226.71 246.28 226.74 252.86 C 226.83 269.94 222.89 292.68 234.02 307.63 C 241.45 317.61 251.11 318.35 262.25 317.43 C 271.57 316.67 276.32 316.84 277.83 326.13 C 279.29 335.38 278.97 346.15 285.46 353.55 C 292.02 361.07 308.88 368.33 318.79 367.43 C 330.94 366.39 339.92 355.15 344.07 344.99 C 349.22 332.30 339.25 328.16 335.05 318.04 C 330.10 306.24 343.04 299.55 343.06 287.84 C 343.08 278.46 340.39 268.40 333.86 261.42 C 330.59 257.93 326.46 255.44 321.83 254.23 C 316.14 252.74 309.66 254.38 304.30 251.69 C 301.53 250.30 299.48 247.82 297.11 245.82 C 291.22 240.86 284.05 239.55 276.58 240.23 C 269.46 240.88 261.78 242.70 255.66 237.81 C 245.70 229.85 242.27 215.66 229.82 210.91 C 219.00 206.79 206.34 209.93 195.86 213.62 C 192.38 214.84 188.86 215.97 185.44 217.22 C 184.51 217.50 177.72 206.10 176.57 204.88 C 170.91 198.86 162.75 195.59 154.64 194.75 C 137.97 193.00 120.40 199.53 107.73 210.25 Z" fill="#535185" fill-rule="nonzero" group-id="1" node-id="136" stroke="none" target-height="175.32999" target-width="251.39" target-x="97.83" target-y="193"></path><path d="M 129.61 407.43 C 129.61 419.29 139.66 427.61 144.80 433.99 C 148.36 438.49 154.93 455.00 162.28 475.48 C 168.41 492.57 174.18 509.80 179.84 527.05 C 181.11 530.91 181.93 535.55 183.78 539.16 C 185.25 542.03 187.43 544.35 188.70 547.44 C 191.32 553.86 192.34 560.94 193.02 567.81 C 193.55 573.15 194.09 580.77 195.87 585.55 C 195.73 585.16 207.23 578.01 208.40 577.24 C 222.67 567.84 237.60 559.80 253.89 554.39 C 261.48 551.87 269.34 550.05 277.33 549.41 C 281.28 549.09 285.33 548.98 289.27 549.38 C 293.26 549.78 297.18 550.74 301.22 550.46 C 299.69 550.57 291.22 539.11 290.02 537.47 C 288.25 535.05 286.84 532.37 285.36 529.77 C 281.56 523.12 277.83 516.44 274.19 509.71 C 265.67 493.99 257.32 478.03 250.67 461.42 C 248.39 455.72 246.17 449.85 245.05 443.79 C 242.01 427.66 245.09 413.10 247.60 395.13 C 248.24 390.55 248.88 385.79 249.29 380.69 C 249.55 377.91 249.78 375.06 249.85 372.10 C 250.08 368.12 250.15 363.92 250.08 359.50 C 250.04 357.25 249.97 354.85 249.82 352.33 C 247.49 310.58 195.42 308.03 195.42 308.03 C 176.89 311.97 168.48 312.42 153.97 339.54 C 150.18 346.63 145.94 355.52 142.08 364.67 C 135.27 380.83 129.61 397.82 129.61 407.43 Z" fill="#bd2828" fill-rule="nonzero" group-id="1" node-id="138" stroke="none" target-height="277.52" target-width="171.61" target-x="129.61" target-y="308.03"></path><path d="M 203.58 366.93 L 247.58 395.11 C 248.22 390.55 248.85 385.77 249.28 380.67 C 249.55 377.91 249.76 375.04 249.86 372.07 L 203.58 366.93 Z" fill="#8f1718" fill-rule="nonzero" group-id="1" node-id="140" stroke="none" target-height="28.179993" target-width="46.28" target-x="203.58" target-y="366.93"></path><path d="M 218.62 313.20 C 218.62 313.20 180.58 303.81 172.17 326.93 C 169.71 333.68 174.94 340.56 190.79 351.27 C 229.20 377.22 302.45 406.73 318.82 400.78 C 341.94 392.37 318.12 367.85 287.99 349.63 C 257.85 331.42 218.62 313.20 218.62 313.20 Z" fill="#f7c3ab" fill-rule="nonzero" group-id="1" node-id="142" stroke="none" target-height="102.92001" target-width="172.23" target-x="169.71" target-y="303.81"></path><path d="M 325.03 403.23 C 325.03 403.23 279.50 442.37 262.69 454.38 C 245.88 466.39 240.65 470.94 235.12 478.78 C 229.58 486.63 219.45 490.62 212.94 483.18 C 206.43 475.74 208.42 472.51 204.70 471.16 C 200.98 469.81 197.61 468.93 197.35 466.47 C 197.10 464.01 214.43 449.23 221.28 449.74 C 228.13 450.26 233.44 453.66 237.33 450.26 C 241.22 446.86 293.98 378.21 300.61 376.71 C 307.23 375.21 333.31 374.80 325.03 403.23 Z" fill="#f7c3ab" fill-rule="nonzero" group-id="1" node-id="144" stroke="none" target-height="115.82001" target-width="136.20999" target-x="197.1" target-y="374.8"></path><path d="M 181.57 313.44 L 184.88 312.14 C 186.30 309.64 189.58 308.13 195.40 308.02 C 232.80 307.31 294.15 347.05 294.15 347.05 C 293.49 347.49 270.93 396.15 270.93 396.15 L 248.15 387.75 C 248.15 387.75 221.71 375.82 203.60 366.94 C 195.73 363.08 189.43 359.81 187.56 358.33 C 181.37 353.46 167.21 328.70 167.21 328.70 L 181.57 313.44 Z" fill="#bd2828" fill-rule="nonzero" group-id="1" node-id="146" stroke="none" target-height="88.84" target-width="126.93999" target-x="167.21" target-y="307.31"></path><path d="M 288.40 769.32 C 288.40 769.32 293.69 822.02 299.94 828.13 C 300.20 828.38 300.46 828.56 300.71 828.64 C 310.43 832.06 328.56 779.71 326.97 764.31 C 326.57 760.38 324.33 757.41 321.26 755.19 C 312.32 748.72 296.10 748.45 296.10 748.45 L 288.40 769.32 Z" fill="#535185" fill-rule="nonzero" group-id="1,8,15" node-id="152" stroke="none" target-height="83.609985" target-width="40.160004" target-x="288.4" target-y="748.45"></path><path d="M 299.94 828.12 C 300.20 828.37 300.46 828.55 300.71 828.63 C 310.43 832.05 328.56 779.70 326.97 764.30 C 326.57 760.37 324.33 757.40 321.26 755.18 C 320.94 761.73 319.50 776.36 313.47 793.51 C 308.00 809.06 302.80 821.54 299.94 828.12 Z" fill="#acacd5" fill-rule="nonzero" group-id="1,8,15" node-id="154" stroke="none" target-height="76.869995" target-width="28.619995" target-x="299.94" target-y="755.18"></path><path d="M 452.83 936.92 C 452.83 936.92 434.26 986.52 437.17 994.77 C 437.29 995.11 437.44 995.39 437.63 995.57 C 444.84 1002.94 484.25 964.00 489.64 949.50 C 491.03 945.80 490.33 942.15 488.55 938.79 C 483.40 929.03 468.97 921.61 468.97 921.61 L 452.83 936.92 Z" fill="#535185" fill-rule="nonzero" group-id="1,9,16" node-id="162" stroke="none" target-height="81.33002" target-width="56.76999" target-x="434.26" target-y="921.61"></path><path d="M 437.17 994.76 C 437.29 995.10 437.44 995.38 437.63 995.56 C 444.84 1002.93 484.25 963.99 489.64 949.49 C 491.03 945.79 490.33 942.14 488.55 938.78 C 485.37 944.51 477.60 956.99 464.61 969.71 C 452.83 981.23 442.65 990.12 437.17 994.76 Z" fill="#acacd5" fill-rule="nonzero" group-id="1,9,16" node-id="164" stroke="none" target-height="64.14996" target-width="53.859985" target-x="437.17" target-y="938.78"></path><path d="M 184.80 216.37 L 191.79 238.36 L 200.16 234.40 L 191.47 213.59 Z" fill="#e07d79" fill-rule="nonzero" group-id="1" node-id="168" stroke="none" target-height="24.770004" target-width="15.360001" target-x="184.8" target-y="213.59"></path><path d="M 129.61 407.43 C 129.61 419.29 139.66 427.61 144.80 433.99 C 148.36 438.49 154.93 455.00 162.28 475.48 L 175.82 472.52 C 175.82 472.52 173.53 462.28 168.73 447.72 C 163.97 433.20 151.40 414.71 149.41 403.15 C 147.42 391.60 156.99 359.90 156.99 359.90 C 156.99 359.90 148.44 362.60 142.06 364.66 C 135.27 380.83 129.61 397.82 129.61 407.43 Z" fill="#acacd5" fill-rule="nonzero" group-id="1" node-id="170" stroke="none" target-height="115.58002" target-width="46.210007" target-x="129.61" target-y="359.9"></path></g><g node-id="280"><path d="M 884.91 504.74 C 884.91 504.74 883.42 440.55 926.14 441.77 C 968.86 443.00 931.54 500.20 930.51 514.47 C 929.48 528.74 963.29 523.87 969.09 541.53 C 974.89 559.19 925.09 582.08 922.28 598.35 C 919.47 614.63 951.74 615.53 957.48 632.25 C 963.22 648.96 921.13 705.50 861.25 702.47 C 821.14 697.30 813.72 620.99 819.47 606.43 C 825.23 591.87 843.85 606.30 851.56 592.57 C 859.26 578.84 824.72 536.00 841.92 522.64 C 859.12 509.28 882.61 529.55 884.91 504.74 Z" fill="url(#SVGID_1_)" fill-rule="nonzero" group-id="2" node-id="175" stroke="none" target-height="264.95" target-width="161.17004" target-x="813.72" target-y="440.55"></path><path d="M 968.58 540.25 L 890.28 569.63 C 895.43 547.20 901.71 523.68 909.23 501.14 L 939.93 487.96 C 940.42 486.68 940.89 485.38 941.36 484.08 L 910.52 497.32 C 914.74 484.96 919.35 472.94 924.36 461.60 C 924.69 460.84 924.35 459.95 923.59 459.62 C 922.83 459.28 921.95 459.63 921.61 460.39 C 916.16 472.73 911.19 485.86 906.67 499.36 C 906.60 499.50 906.54 499.65 906.52 499.81 C 901.94 513.51 897.81 527.58 894.12 541.54 L 872.03 518.02 C 870.70 518.06 869.29 518.02 867.84 517.95 L 893.23 544.98 C 890.91 553.90 888.78 562.77 886.80 571.46 C 886.73 571.63 886.68 571.81 886.68 572.00 C 885.53 577.09 884.43 582.12 883.39 587.06 L 838.83 544.93 C 839.37 546.86 840.00 548.83 840.70 550.83 L 882.68 590.52 C 879.90 603.94 877.54 616.68 875.57 628.21 C 873.02 643.09 870.93 656.95 869.25 669.16 L 818.37 632.48 C 818.50 633.80 818.65 635.14 818.82 636.51 L 868.79 672.53 C 867.17 684.54 865.96 694.79 865.10 702.60 C 866.11 702.61 867.12 702.60 868.12 702.58 C 869.38 691.15 871.39 674.59 874.32 654.96 L 955.67 628.66 C 955.09 627.77 954.42 626.94 953.69 626.14 L 874.82 651.64 C 875.93 644.35 877.16 636.66 878.53 628.69 C 881.36 612.15 884.99 593.14 889.50 573.17 L 969.47 543.16 C 969.39 542.62 969.27 542.09 969.10 541.56 C 968.94 541.09 968.76 540.67 968.58 540.25 Z" fill="#5eaf81" fill-rule="nonzero" group-id="2" node-id="177" stroke="none" target-height="243.32999" target-width="151.09998" target-x="818.37" target-y="459.28"></path></g><g node-id="281"><g node-id="288"><path d="M 839.56 118.26 C 814.18 88.76 773.42 82.10 748.74 103.36 C 724.06 124.62 724.78 165.78 750.04 195.38 C 778.51 228.74 856.61 239.14 868.95 249.12 C 872.15 251.71 892.34 276.87 900.55 287.15 C 902.45 289.53 905.93 289.84 908.23 287.86 L 908.23 287.86 C 910.48 285.92 910.72 282.52 908.77 280.28 C 900.02 270.24 878.03 244.92 876.89 242.96 C 868.56 228.60 869.52 153.08 839.56 118.26 Z M 753.63 109.03 C 775.18 90.46 811.19 96.79 833.89 123.14 C 856.59 149.49 857.53 186.04 835.97 204.61 C 814.42 223.18 778.41 216.85 755.71 190.49 C 733.01 164.14 732.07 127.60 753.63 109.03 Z M 858.77 185.40 L 864.13 237.30 L 813.59 224.32 C 823.40 221.91 834.03 218.57 842.13 211.59 C 850.24 204.61 854.94 194.74 858.77 185.40 Z" fill="#3c7796" fill-rule="nonzero" group-id="3,10" node-id="184" stroke="none" target-height="207.73999" target-width="186.65997" target-x="724.06" target-y="82.1"></path><path d="M 890.80 274.71 L 891.69 274.36 L 874.87 255.36 L 883.38 275.43 L 884.98 286.12 L 839.70 362.29 L 735.83 350.70 L 716.69 393.29 L 856.39 395.78 L 897.60 285.22 L 899.29 280.95 Z" fill="#f7c3ab" fill-rule="nonzero" group-id="3,10" node-id="186" stroke="none" target-height="140.42" target-width="182.59998" target-x="716.69" target-y="255.36"></path><path d="M 891.68 257.72 L 883.36 266.04 L 900.30 278.50 L 903.94 271.11 Z" fill="#f7c3ab" fill-rule="nonzero" group-id="3,10" node-id="188" stroke="none" target-height="20.779999" target-width="20.580017" target-x="883.36" target-y="257.72"></path></g><path d="M 854.99 677.06 C 846.50 663.55 828.11 643.84 799.81 618.60 C 733.68 559.61 616.04 519.34 616.04 519.34 C 606.13 559.62 625.30 591.68 690.81 629.76 C 730.12 652.61 819.72 692.29 835.65 696.16 C 836.20 696.30 836.71 696.40 837.25 696.52 C 839.36 705.13 843.62 708.63 855.93 721.59 C 881.82 748.84 952.60 776.50 952.60 776.50 L 961.32 763.65 C 961.32 763.64 882.57 683.50 854.99 677.06 Z" fill="#f7c3ab" fill-rule="nonzero" group-id="3" node-id="191" stroke="none" target-height="257.15997" target-width="355.19" target-x="606.13" target-y="519.34"></path><path d="M 952.87 775.10 L 970.16 789.56 L 997.43 737.15 L 964.52 760.13 Z" fill="#070102" fill-rule="nonzero" group-id="3" node-id="193" stroke="none" target-height="52.409973" target-width="44.559998" target-x="952.87" target-y="737.15"></path><g clip-path="url(#SVGID_2_)" group-id="3,11,17" node-id="197"><path d="M 721.97 660.63 C 721.97 660.63 770.52 619.11 773.50 583.23 C 776.48 547.35 649.57 535.03 649.57 535.03 C 649.57 535.03 619.95 564.10 635.33 590.74 C 650.71 617.38 721.97 660.63 721.97 660.63 Z" fill="#dae2e2" fill-rule="nonzero" group-id="3,11,17" node-id="199" stroke="none" target-height="125.599976" target-width="156.52997" target-x="619.95" target-y="535.03"></path></g><g clip-path="url(#SVGID_2_)" group-id="3,11,18" node-id="202"><path d="M 925.94 769.48 L 946.97 739.44 L 967.72 763.52 L 957.92 784.43 Z" fill="#dae2e2" fill-rule="nonzero" group-id="3,11,18" node-id="204" stroke="none" target-height="44.98999" target-width="41.77997" target-x="925.94" target-y="739.44"></path></g><path d="M 622.27 515.45 C 622.27 515.45 583.54 535.07 592.50 585.91 C 599.02 622.89 592.62 720.28 598.12 776.18 C 596.09 775.43 593.96 774.70 591.75 773.97 C 556.03 762.27 483.83 773.16 483.83 773.16 L 485.19 792.09 C 485.19 792.09 610.03 830.67 624.78 815.34 C 627.73 812.27 665.84 734.52 673.85 669.03 C 685.39 574.69 664.48 495.17 622.27 515.45 Z" fill="#f7c3ab" fill-rule="nonzero" group-id="3" node-id="208" stroke="none" target-height="335.49997" target-width="201.56003" target-x="483.83" target-y="495.17"></path><path d="M 484.54 772.26 L 462.00 772.83 L 476.17 830.19 L 485.69 791.20 Z" fill="#070102" fill-rule="nonzero" group-id="3" node-id="210" stroke="none" target-height="57.929993" target-width="23.690002" target-x="462" target-y="772.26"></path><g clip-path="url(#SVGID_3_)" group-id="3,12,19" node-id="214"><path d="M 584.08 672.09 C 584.08 672.09 610.53 688.26 640.41 683.91 C 670.29 679.57 692.29 666.72 692.29 666.72 C 692.29 666.72 684.04 529.39 665.79 518.02 C 647.54 506.64 626.39 510.79 613.40 511.65 C 579.10 513.92 584.08 672.09 584.08 672.09 Z" fill="#fbfcfc" fill-rule="nonzero" group-id="3,12,19" node-id="216" stroke="none" target-height="181.62" target-width="113.19" target-x="579.1" target-y="506.64"></path></g><g clip-path="url(#SVGID_3_)" group-id="3,12,20" node-id="219"><path d="M 524.35 756.62 L 513.16 807.95 L 477.04 801.62 L 473.87 765.58 Z" fill="#fbfcfc" fill-rule="nonzero" group-id="3,12,20" node-id="221" stroke="none" target-height="51.330017" target-width="50.47998" target-x="473.87" target-y="756.62"></path></g><path d="M 640.65 357.43 L 735.83 350.70 C 735.83 350.70 740.22 390.02 727.20 434.76 C 720.08 459.23 678.04 495.16 670.10 533.96 C 668.93 539.67 680.09 541.18 681.68 546.21 C 683.34 551.49 681.82 559.28 672.22 563.53 C 646.33 575.00 604.81 579.00 593.98 550.11 C 592.18 545.31 609.44 523.96 608.33 518.35 C 601.70 484.94 606.10 389.62 640.65 357.43 Z" fill="#3c7796" fill-rule="nonzero" group-id="3" node-id="225" stroke="none" target-height="228.29999" target-width="148.03998" target-x="592.18" target-y="350.7"></path><path d="M 640.65 357.43 L 735.83 350.70 C 735.83 350.70 740.22 390.02 727.20 434.76 C 720.08 459.23 678.04 495.16 670.10 533.96 C 668.93 539.67 680.09 541.18 681.68 546.21 C 683.34 551.49 681.82 559.28 672.22 563.53 C 646.33 575.00 604.81 579.00 593.98 550.11 C 592.18 545.31 609.44 523.96 608.33 518.35 C 601.70 484.94 606.10 389.62 640.65 357.43 Z" fill="#006d95" fill-rule="nonzero" group-id="3" node-id="227" stroke="none" target-height="228.29999" target-width="148.03998" target-x="592.18" target-y="350.7"></path><path d="M 666.52 356.45 L 676.78 317.10 L 706.75 331.60 L 704.77 353.74 C 704.77 353.74 700.23 383.18 688.34 379.84 C 676.44 376.48 666.52 356.45 666.52 356.45 Z" fill="#f7c3ab" fill-rule="nonzero" group-id="3" node-id="229" stroke="none" target-height="66.07999" target-width="40.22998" target-x="666.52" target-y="317.1"></path><path d="M 687.08 289.35 C 652.86 306.17 682.07 332.45 702.67 340.45 C 711.44 343.86 715.04 341.36 715.40 334.67 C 715.52 332.50 715.51 328.57 716.28 326.59 C 717.00 324.74 720.89 324.56 720.81 322.19 C 720.77 321.04 716.42 315.67 716.34 314.52 C 716.16 311.52 716.74 308.88 716.21 306.15 C 713.33 291.09 704.05 281.00 687.08 289.35 Z" fill="#f7c3ab" fill-rule="nonzero" group-id="3,13" node-id="233" stroke="none" target-height="62.859985" target-width="68.03003" target-x="652.86" target-y="281"></path><path d="M 679.13 310.25 C 679.13 310.25 689.53 319.52 690.15 315.92 C 690.48 314.00 682.73 302.60 685.72 299.16 C 688.43 296.03 711.67 294.07 711.67 294.07 L 714.39 282.73 C 715.93 276.30 709.25 271.02 703.35 274.00 C 694.59 278.43 684.28 283.10 679.06 283.48 C 668.96 284.20 664.46 298.84 664.46 298.84 C 664.46 298.84 665.49 310.52 670.73 315.47 C 676.18 320.62 682.64 327.08 682.64 327.08 L 679.13 310.25 Z" fill="#070102" fill-rule="nonzero" group-id="3,13" node-id="235" stroke="none" target-height="56.059998" target-width="51.46997" target-x="664.46" target-y="271.02"></path><path d="M 684.88 314.28 C 685.15 318.08 686.87 321.41 684.02 321.61 C 681.17 321.81 674.82 318.82 674.55 315.02 C 674.28 311.22 676.37 307.97 679.22 307.76 C 682.08 307.56 684.61 310.47 684.88 314.28 Z" fill="#f7c3ab" fill-rule="nonzero" group-id="3,13" node-id="237" stroke="none" target-height="14.25" target-width="12.589966" target-x="674.28" target-y="307.56"></path><path d="M 634.30 357.97 C 602.66 358.66 539.34 382.21 507.23 398.77 L 451.74 484.20 C 451.74 484.20 425.76 511.62 428.68 510.82 C 431.59 510.02 440.30 507.02 440.30 507.02 L 431.35 531.44 L 446.81 514.88 L 446.09 538.12 L 457.45 514.12 L 459.61 535.96 L 467.04 506.89 L 475.91 514.58 L 466.24 490.49 L 524.56 430.25 C 524.56 430.25 607.33 405.07 630.81 397.86 C 654.30 390.63 665.94 357.27 634.30 357.97 Z" fill="#f7c3ab" fill-rule="nonzero" group-id="3,14" node-id="242" stroke="none" target-height="180.85" target-width="240.18" target-x="425.76" target-y="357.27"></path><path d="M 524.56 430.24 C 524.56 430.24 526.78 422.55 525.26 412.36" fill="#f7c3ab" fill-rule="nonzero" group-id="3,14" node-id="244" stroke="none" target-height="17.880005" target-width="2.2200317" target-x="524.56" target-y="412.36"></path></g><g node-id="282"><path d="M 444.88 969.74 C 536.54 981.22 505.88 995.92 497.44 998.90 C 467.28 1009.55 282.98 1010.10 237.03 1008.26 C 208.34 1007.11 88.77 998.63 62.19 982.48 C 47.71 973.68 48.18 920.06 444.88 969.74 Z" fill="#3b5a80" fill-opacity="0.16" fill-rule="nonzero" group-id="4" node-id="250" stroke="none" target-height="90.03998" target-width="488.83" target-x="47.71" target-y="920.06"></path></g><g node-id="283"><path d="M 920.24 812.80 C 886.40 821.85 897.62 832.67 900.72 834.86 C 911.78 842.66 979.71 842.12 996.66 840.50 C 1007.24 839.49 1051.36 832.54 1061.24 820.34 C 1066.61 813.68 1066.71 773.64 920.24 812.80 Z" fill="#3b5a80" fill-opacity="0.16" fill-rule="nonzero" group-id="5" node-id="255" stroke="none" target-height="69.01996" target-width="180.30994" target-x="886.4" target-y="773.64"></path></g><g node-id="284"><path d="M 496.60 833.49 C 440.18 838.52 457.90 851.44 462.84 854.15 C 480.51 863.85 592.47 872.33 620.51 872.89 C 638.02 873.24 711.21 871.78 728.36 860.23 C 737.72 853.93 740.77 811.70 496.60 833.49 Z" fill="#3b5a80" fill-opacity="0.16" fill-rule="nonzero" group-id="6" node-id="260" stroke="none" target-height="61.539978" target-width="300.59003" target-x="440.18" target-y="811.7"></path></g><path d="M 103.35 252.77 C 102.64 250.76 106.53 248.86 111.74 248.14 C 116.95 247.42 119.24 247.53 125.83 249.08 C 123.01 249.09 114.67 249.79 110.92 250.59 C 107.18 251.40 104.06 254.78 103.35 252.77 Z" fill="#535185" fill-rule="nonzero" node-id="263" stroke="none" target-height="7.3600006" target-width="23.190002" target-x="102.64" target-y="247.42"></path><path d="M 111.96 260.85 C 114.86 261.28 116.02 257.67 114.99 256.72 C 114.44 256.21 113.33 258.03 112.79 257.74 C 112.33 257.49 112.59 256.30 111.98 256.21 C 110.65 256.02 108.93 260.40 111.96 260.85 Z" fill="#535185" fill-rule="nonzero" node-id="265" stroke="none" target-height="5.26001" target-width="7.0899963" target-x="108.93" target-y="256.02"></path><path d="M 108.89 256.21 C 110.81 255.13 116.59 253.97 118.31 254.64 C 120.40 255.46 122.05 256.98 118.65 256.16 C 115.25 255.34 106.55 259.58 106.89 258.55 C 107.22 257.52 108.27 256.56 108.89 256.21 Z" fill="#535185" fill-rule="nonzero" node-id="267" stroke="none" target-height="5.6099854" target-width="15.5" target-x="106.55" target-y="253.97"></path><path d="M 106.72 287.19 C 106.72 287.19 106.74 288.37 107.85 290.98 C 108.96 293.59 112.27 292.93 111.93 291.04 C 111.11 286.37 108.64 285.28 106.72 287.19 Z" fill="#e8a891" fill-rule="nonzero" node-id="269" stroke="none" target-height="8.309998" target-width="5.5499954" target-x="106.72" target-y="285.28"></path><path d="M 701.82 309.46 C 701.95 308.38 706.59 307.89 710.22 308.03 C 713.59 308.17 715.00 308.27 714.91 309.82 C 714.88 310.35 713.74 309.94 711.86 309.62 C 706.74 308.76 701.70 310.55 701.82 309.46 Z" fill="#070102" fill-rule="nonzero" node-id="271" stroke="none" target-height="2.6599731" target-width="13.299988" target-x="701.7" target-y="307.89"></path><path d="M 707.17 312.33 C 707.17 312.33 705.31 313.43 706.29 313.14 C 707.27 312.86 710.37 311.98 711.30 312.18 C 712.23 312.38 713.88 312.90 713.05 312.05 C 711.85 310.83 708.38 311.86 707.17 312.33 Z" fill="#070102" fill-rule="nonzero" node-id="273" stroke="none" target-height="2.600006" target-width="8.570007" target-x="705.31" target-y="310.83"></path><path d="M 709.43 314.28 C 709.72 314.48 710.55 314.58 710.98 314.13 C 711.33 313.77 711.65 313.05 711.24 312.50 C 710.69 311.76 709.99 311.28 709.97 312.45 C 709.94 313.62 708.80 312.49 708.75 312.98 C 708.71 313.51 709.15 314.08 709.43 314.28 Z" fill="#070102" fill-rule="nonzero" node-id="275" stroke="none" target-height="3.2999878" target-width="2.9400024" target-x="708.71" target-y="311.28"></path><path d="M 715.62 329.30 C 715.73 330.23 715.25 331.16 714.44 332.61 C 713.17 334.89 711.90 332.98 712.16 331.70 C 712.36 330.71 712.46 329.52 712.93 329.11 C 713.91 328.24 715.55 328.67 715.62 329.30 Z" fill="#e8a891" fill-rule="nonzero" node-id="277" stroke="none" target-height="6.6500244" target-width="3.829956" target-x="711.9" target-y="328.24"></path></svg>