<?xml version="1.0" standalone="no"?><!DOCTYPE svg PUBLIC "-//W3C//DTD SVG 1.1//EN" "http://www.w3.org/Graphics/SVG/1.1/DTD/svg11.dtd"><svg height="1100" node-id="1" sillyvg="true" template-height="1100" template-width="1100" version="1.1" viewBox="0 0 1100 1100" width="1100" xmlns="http://www.w3.org/2000/svg" xmlns:xlink="http://www.w3.org/1999/xlink"><defs node-id="238"><linearGradient gradientUnits="userSpaceOnUse" id="SVGID_1_" node-id="41" spreadMethod="pad" x1="652.8273" x2="740.0134" y1="490.1249" y2="490.1249"><stop offset="0.0030649" stop-color="#f7b313"></stop><stop offset="0.9991" stop-color="#f08d08"></stop></linearGradient><linearGradient gradientUnits="userSpaceOnUse" id="SVGID_3_" node-id="150" spreadMethod="pad" x1="242.8022" x2="239.0634" y1="664.6099" y2="551.6999"><stop offset="0.00012019" stop-color="#f4c846"></stop><stop offset="0.9974" stop-color="#f3ab44"></stop></linearGradient><linearGradient gradientTransform="matrix(-0.359 0.9333 -0.9333 -0.359 297.0696 1147.0383)" gradientUnits="userSpaceOnUse" id="SVGID_4_" node-id="154" spreadMethod="pad" x1="-445.5695" x2="-448.6864" y1="346.1433" y2="252.0114"><stop offset="0.00012019" stop-color="#f4c846"></stop><stop offset="0.9974" stop-color="#f3ab44"></stop></linearGradient><linearGradient gradientUnits="userSpaceOnUse" id="SVGID_5_" node-id="159" spreadMethod="pad" x1="302.5817" x2="267.2689" y1="638.6127" y2="535.959"><stop offset="0.2227" stop-color="#f4c846"></stop><stop offset="0.8426" stop-color="#f3ab44"></stop></linearGradient><linearGradient gradientTransform="matrix(-0.3287 0.9444 -0.9444 -0.3287 401.0703 1041.1656)" gradientUnits="userSpaceOnUse" id="SVGID_6_" node-id="166" spreadMethod="pad" x1="-322.2378" x2="-349.1032" y1="296.0541" y2="217.957"><stop offset="0.2227" stop-color="#f4c846"></stop><stop offset="0.8426" stop-color="#f3ab44"></stop></linearGradient><linearGradient gradientUnits="userSpaceOnUse" id="SVGID_7_" node-id="171" spreadMethod="pad" x1="282.3239" x2="268.8885" y1="442.5205" y2="479.5423"><stop offset="0.00012019" stop-color="#f4c846"></stop><stop offset="0.9974" stop-color="#f3ab44"></stop></linearGradient></defs><g node-id="776"><path d="M 907.08 788.05 C 869.44 794.43 881.01 827.28 884.52 828.70 C 897.10 833.77 971.34 828.11 989.77 825.58 C 1001.28 824.00 1049.10 815.31 1059.15 805.27 C 1064.64 799.80 1063.75 761.47 907.08 788.05 Z" fill="#3b5a80" fill-opacity="0.16" fill-rule="nonzero" group-id="1" node-id="281" stroke="none" target-height="72.30005" target-width="195.20001" target-x="869.44" target-y="761.47"></path></g><g node-id="777"><g node-id="781"><g node-id="785"><g node-id="796"><path d="M 787.39 741.63 C 787.91 744.60 788.24 748.15 786.00 750.17 C 783.46 752.46 779.13 751.03 777.08 748.29 C 775.03 745.55 775.62 741.54 773.77 738.66 C 763.79 723.05 752.91 704.16 747.74 684.82 C 747.07 682.31 746.60 679.63 747.33 677.14 C 748.06 674.65 750.32 672.43 752.92 672.55 C 754.91 672.64 756.59 673.99 758.03 675.36 C 776.81 693.11 783.11 717.02 787.39 741.63 Z" fill="#f6bea9" fill-rule="nonzero" group-id="2,6,10,21" node-id="292" stroke="none" target-height="80.03003" target-width="41.640015" target-x="746.6" target-y="672.43"></path><g node-id="818"><path d="M 776.56 747.21 C 774.28 750.70 776.25 755.26 777.74 759.15 C 779.62 764.06 780.66 769.30 780.79 774.56 C 780.86 777.37 780.68 780.21 781.27 782.96 C 781.87 785.71 783.41 788.43 785.96 789.59 C 787.23 790.17 788.66 790.32 790.05 790.43 C 793.18 790.66 796.48 790.65 799.23 789.14 C 803.97 786.53 805.47 780.13 804.12 774.89 C 802.77 769.65 799.24 765.30 795.87 761.07 C 794.13 758.89 792.38 756.69 790.96 754.28 C 789.70 752.16 789.23 748.99 787.77 747.11 C 785.22 743.83 778.93 743.59 776.56 747.21 Z" fill="#f7c7b3" fill-rule="nonzero" group-id="2,6,10,21,43" node-id="296" stroke="none" target-height="47.069946" target-width="31.189941" target-x="774.28" target-y="743.59"></path><g node-id="838"><path d="M 796.72 795.57 C 797.50 796.89 797.90 798.76 796.80 799.82 C 795.62 800.96 793.54 800.27 792.50 799.00 C 791.46 797.73 791.04 796.07 790.22 794.65 C 789.38 793.19 788.12 792.02 787.07 790.70 C 786.67 790.20 786.29 789.64 786.23 789.00 C 785.88 785.49 790.94 786.42 792.41 787.96 C 794.08 789.71 795.46 793.45 796.72 795.57 Z" fill="#f7c3b0" fill-rule="nonzero" group-id="2,6,10,21,43,63" node-id="300" stroke="none" target-height="15.470032" target-width="12.02002" target-x="785.88" target-y="785.49"></path><path d="M 799.92 795.29 C 800.46 796.29 801.36 797.46 802.46 797.16 C 803.57 796.85 803.72 795.35 803.64 794.20 C 804.72 794.11 805.53 792.83 805.14 791.81 C 805.04 791.55 804.87 791.30 804.84 791.02 C 804.78 790.47 805.22 790.01 805.46 789.52 C 805.99 788.41 805.46 787.12 805.40 785.90 C 805.35 784.90 805.62 783.92 805.74 782.93 C 806.01 780.71 805.52 778.40 804.36 776.49 C 804.03 776.48 803.85 776.86 803.77 777.18 C 803.43 778.59 803.35 780.04 803.05 781.46 C 802.75 782.87 802.18 784.30 801.07 785.23 C 799.88 786.23 796.55 786.88 796.57 788.78 C 796.58 789.77 797.64 791.06 798.09 791.90 C 798.70 793.02 799.31 794.15 799.92 795.29 Z" fill="#f7c3b0" fill-rule="nonzero" group-id="2,6,10,21,43,63" node-id="302" stroke="none" target-height="20.980042" target-width="9.460022" target-x="796.55" target-y="776.48"></path></g></g><path d="M 778.76 743.98 C 781.95 742.84 785.76 744.04 787.93 746.65 C 789.68 748.76 790.37 751.53 791.57 754.00 C 793.60 758.15 797.09 761.38 799.80 765.12 C 804.83 772.06 807.14 780.93 806.13 789.45 C 805.82 792.02 805.21 794.60 803.80 796.78 C 802.40 798.95 800.11 800.66 797.53 800.87 C 793.41 801.21 790.01 797.89 787.23 794.84 C 783.80 791.07 780.25 787.06 779.16 782.09 C 778.36 778.40 779.01 774.56 778.91 770.78 C 778.75 764.85 776.60 759.55 774.70 754.04 C 773.31 750.04 774.24 745.60 778.76 743.98 Z" fill="#f7b52c" fill-rule="nonzero" group-id="2,6,10,21" node-id="306" stroke="none" target-height="58.369995" target-width="33.830017" target-x="773.31" target-y="742.84"></path></g><g node-id="797"><path d="M 580.95 743.20 C 579.84 746.01 578.80 749.41 580.58 751.84 C 582.61 754.60 587.14 754.08 589.70 751.81 C 592.26 749.54 592.50 745.50 594.89 743.05 C 607.83 729.78 622.31 713.49 631.28 695.60 C 632.45 693.28 633.45 690.75 633.24 688.16 C 633.03 685.57 631.26 682.95 628.70 682.53 C 626.74 682.21 624.81 683.20 623.12 684.24 C 601.14 697.83 590.12 719.97 580.95 743.20 Z" fill="#f7c8b5" fill-rule="nonzero" group-id="2,6,10,22" node-id="311" stroke="none" target-height="72.38995" target-width="54.650024" target-x="578.8" target-y="682.21"></path><g node-id="819"><path d="M 588.12 752.30 C 589.60 756.20 586.70 760.23 584.41 763.71 C 581.52 768.11 579.39 773.00 578.14 778.11 C 577.47 780.84 577.04 783.66 575.87 786.21 C 574.70 788.77 572.61 791.10 569.86 791.69 C 568.49 791.98 567.07 791.83 565.69 791.63 C 562.59 791.19 559.36 790.47 557.00 788.41 C 552.93 784.85 552.84 778.27 555.27 773.45 C 557.71 768.62 562.08 765.12 566.29 761.72 C 568.46 759.97 570.63 758.18 572.54 756.14 C 574.22 754.34 575.36 751.34 577.19 749.82 C 580.38 747.15 586.58 748.26 588.12 752.30 Z" fill="#f7c7b3" fill-rule="nonzero" group-id="2,6,10,22,44" node-id="315" stroke="none" target-height="44.829956" target-width="36.75995" target-x="552.84" target-y="747.15"></path><g node-id="839"><path d="M 558.09 795.23 C 557.04 796.35 556.25 798.09 557.11 799.36 C 558.02 800.72 560.20 800.49 561.49 799.48 C 562.78 798.46 563.54 796.93 564.65 795.72 C 565.79 794.48 567.26 793.60 568.57 792.54 C 569.07 792.13 569.56 791.67 569.76 791.06 C 570.85 787.70 565.71 787.53 563.94 788.72 C 561.92 790.07 559.77 793.42 558.09 795.23 Z" fill="#f7c3b0" fill-rule="nonzero" group-id="2,6,10,22,44,64" node-id="319" stroke="none" target-height="13.189941" target-width="14.599976" target-x="556.25" target-y="787.53"></path><path d="M 555.02 794.26 C 554.28 795.12 553.15 796.08 552.14 795.54 C 551.12 795.00 551.30 793.51 551.62 792.40 C 550.58 792.08 550.07 790.66 550.67 789.75 C 550.82 789.51 551.04 789.31 551.13 789.05 C 551.31 788.53 550.97 787.99 550.84 787.45 C 550.56 786.26 551.35 785.11 551.68 783.93 C 551.94 782.97 551.89 781.95 551.98 780.95 C 552.19 778.72 553.16 776.57 554.70 774.95 C 555.02 775.01 555.12 775.42 555.13 775.75 C 555.16 777.20 554.93 778.64 554.92 780.08 C 554.91 781.53 555.17 783.04 556.05 784.19 C 557.00 785.42 560.12 786.77 559.69 788.62 C 559.47 789.59 558.16 790.62 557.54 791.34 C 556.70 792.31 555.86 793.29 555.02 794.26 Z" fill="#f7c3b0" fill-rule="nonzero" group-id="2,6,10,22,44,64" node-id="321" stroke="none" target-height="21.130005" target-width="10.049988" target-x="550.07" target-y="774.95"></path></g></g><path d="M 586.26 749.34 C 588.22 750.62 589.57 752.93 589.35 755.26 C 589.21 756.66 588.54 757.95 587.84 759.18 C 584.58 764.92 580.45 770.29 578.55 776.62 C 577.37 780.55 577.10 784.74 575.61 788.55 C 573.00 795.20 566.52 800.16 559.42 800.93 C 555.50 801.36 551.11 800.36 548.77 797.19 C 546.31 793.85 546.82 789.19 548.06 785.23 C 550.29 778.12 554.54 771.66 560.18 766.81 C 564.43 763.15 569.56 760.26 572.51 755.49 C 573.48 753.92 574.19 752.18 575.26 750.67 C 577.80 747.09 582.71 747.01 586.26 749.34 Z" fill="#f29600" fill-rule="nonzero" group-id="2,6,10,22" node-id="325" stroke="none" target-height="54.349976" target-width="43.26001" target-x="546.31" target-y="747.01"></path></g><g node-id="798"><path d="M 732.88 539.95 L 763.79 661.22 C 763.79 661.22 737.54 671.22 733.23 661.19 C 728.94 651.16 679.82 584.99 685.32 561.36 C 690.82 537.72 732.88 539.95 732.88 539.95 Z" fill="#00354e" fill-rule="nonzero" group-id="2,6,10,23" node-id="330" stroke="none" target-height="133.5" target-width="83.96997" target-x="679.82" target-y="537.72"></path><path d="M 716.25 558.07 L 657.71 668.68 C 657.71 668.68 631.54 658.46 635.09 648.13 C 638.64 637.82 646.70 555.80 666.64 541.99 C 686.59 528.17 716.25 558.07 716.25 558.07 Z" fill="#00354e" fill-rule="nonzero" group-id="2,6,10,23" node-id="332" stroke="none" target-height="140.51001" target-width="84.71002" target-x="631.54" target-y="528.17"></path><path d="M 763.79 661.22 L 782.81 715.91 L 761.41 723.04 L 732.88 661.22 Z" fill="#00293c" fill-rule="nonzero" group-id="2,6,10,23" node-id="334" stroke="none" target-height="61.820007" target-width="49.929993" target-x="732.88" target-y="661.22"></path><path d="M 657.58 668.35 L 606.86 730.18 L 590.21 720.66 L 635.39 646.95 Z" fill="#00293c" fill-rule="nonzero" group-id="2,6,10,23" node-id="336" stroke="none" target-height="83.22998" target-width="67.369995" target-x="590.21" target-y="646.95"></path></g></g><g node-id="786"><g node-id="799"><g node-id="820"><path d="M 663.73 286.32 L 650.85 288.50 L 650.06 351.31 L 651.74 352.85 C 655.77 356.55 662.23 355.38 664.70 350.50 L 668.29 346.56 L 663.73 286.32 Z" fill="#f6bea9" fill-rule="nonzero" group-id="2,6,11,24,45" node-id="346" stroke="none" target-height="70.22998" target-width="18.22998" target-x="650.06" target-y="286.32"></path><g node-id="840"><path d="M 668.08 271.46 C 668.08 271.46 667.29 277.80 666.30 281.37 C 665.31 284.94 663.72 286.32 663.72 286.32 L 650.84 288.50 C 650.84 288.50 648.86 279.78 648.86 276.41 C 648.86 273.04 648.86 272.45 650.05 271.46 C 651.24 270.47 663.52 269.28 665.31 269.48 C 667.09 269.67 668.08 271.46 668.08 271.46 Z" fill="#f6bea9" fill-rule="nonzero" group-id="2,6,11,24,45,65" node-id="350" stroke="none" target-height="19.220001" target-width="19.220032" target-x="648.86" target-y="269.28"></path><path d="M 663.08 271.58 L 667.90 272.35 L 669.25 263.90 C 669.46 262.57 668.56 261.32 667.22 261.11 L 667.22 261.11 C 665.89 260.90 664.64 261.80 664.43 263.14 L 663.08 271.58 Z" fill="#f6bea9" fill-rule="nonzero" group-id="2,6,11,24,45,65" node-id="352" stroke="none" target-height="11.450012" target-width="6.380005" target-x="663.08" target-y="260.9"></path><path d="M 648.76 276.22 L 653.05 276.53 L 653.65 268.30 C 653.74 267.11 652.85 266.08 651.66 266.00 L 651.66 266.00 C 650.47 265.91 649.44 266.80 649.36 267.99 L 648.76 276.22 Z" fill="#f6bea9" fill-rule="nonzero" group-id="2,6,11,24,45,65" node-id="354" stroke="none" target-height="10.619995" target-width="4.9799805" target-x="648.76" target-y="265.91"></path><path d="M 658.21 273.05 L 663.65 273.48 L 664.25 265.83 C 664.37 264.33 663.25 263.02 661.74 262.90 L 661.74 262.90 C 660.24 262.78 658.93 263.90 658.81 265.41 L 658.21 273.05 Z" fill="#f6bea9" fill-rule="nonzero" group-id="2,6,11,24,45,65" node-id="356" stroke="none" target-height="10.700012" target-width="6.159973" target-x="658.21" target-y="262.78"></path><path d="M 653.15 274.34 L 658.04 274.80 L 658.78 266.88 C 658.91 265.53 657.92 264.33 656.57 264.21 L 656.57 264.21 C 655.22 264.08 654.02 265.07 653.90 266.42 L 653.15 274.34 Z" fill="#f6bea9" fill-rule="nonzero" group-id="2,6,11,24,45,65" node-id="358" stroke="none" target-height="10.720001" target-width="5.7599487" target-x="653.15" target-y="264.08"></path></g></g><path d="M 674.20 427.47 L 669.71 347.70 L 669.89 343.08 L 647.08 343.52 C 647.08 343.52 651.28 405.11 652.16 408.12 C 653.03 411.12 654.34 436.94 653.83 441.54 C 653.32 446.13 653.41 469.26 668.67 467.54 C 683.94 465.83 674.20 427.47 674.20 427.47 Z" fill="#f7b313" fill-rule="nonzero" group-id="2,6,11,24" node-id="362" stroke="none" target-height="126.18002" target-width="36.859985" target-x="647.08" target-y="343.08"></path></g><path d="M 689.13 416.52 C 689.13 416.52 716.32 417.36 722.85 419.79 C 729.38 422.21 729.01 452.60 725.63 475.17 C 722.24 497.74 724.92 522.74 731.37 536.62 C 737.82 550.50 740.02 563.73 740.02 563.73 L 652.83 562.14 C 652.83 562.14 667.81 522.46 667.09 500.91 C 666.37 479.35 658.74 430.30 659.04 425.45 C 659.33 420.60 683.14 416.72 689.13 416.52 Z" fill="url(#SVGID_1_)" fill-rule="nonzero" group-id="2,6,11" node-id="365" stroke="none" target-height="147.20999" target-width="87.19" target-x="652.83" target-y="416.52"></path><path d="M 742.56 595.74 L 753.07 591.15 L 758.90 534.85 L 757.34 533.20 C 753.58 529.22 747.05 529.94 744.24 534.64 L 740.38 538.32 L 742.56 595.74 Z" fill="#f6bea9" fill-rule="nonzero" group-id="2,6,11,25,46,66" node-id="373" stroke="none" target-height="66.52002" target-width="18.52002" target-x="740.38" target-y="529.22"></path><path d="M 736.78 619.81 C 736.81 620.38 736.93 621.08 737.46 621.29 C 738.26 621.62 738.90 620.58 739.15 619.76 C 739.82 617.52 739.94 613.94 740.61 611.69 C 739.74 616.15 740.37 622.13 741.38 626.56 C 744.15 629.50 745.19 619.31 745.60 615.27 C 745.07 619.47 744.61 624.03 746.76 627.68 C 749.18 630.73 750.52 617.30 750.59 610.14 C 750.78 614.01 750.86 622.50 752.45 622.48 C 756.91 623.79 755.28 608.54 755.09 601.97 C 755.45 603.62 756.74 607.12 757.37 607.78 C 759.67 610.23 760.12 606.47 759.80 604.45 C 758.92 598.78 757.81 595.74 756.31 590.20 C 756.16 589.66 754.94 587.82 754.54 587.42 C 754.07 586.95 753.38 586.80 752.72 586.72 C 736.63 584.84 736.20 608.74 736.78 619.81 Z" fill="#f6bea9" fill-rule="nonzero" group-id="2,6,11,25,46" node-id="376" stroke="none" target-height="45.889954" target-width="23.919983" target-x="736.2" target-y="584.84"></path><path d="M 726.00 468.71 L 738.22 547.67 L 738.49 552.29 L 761.15 549.63 C 761.15 549.63 750.98 488.74 749.81 485.83 C 748.65 482.92 744.84 457.36 744.90 452.73 C 744.96 448.11 742.62 425.10 727.60 428.29 C 712.58 431.48 726.00 468.71 726.00 468.71 Z" fill="#f7b313" fill-rule="nonzero" group-id="2,6,11,25" node-id="379" stroke="none" target-height="127.18997" target-width="48.570007" target-x="712.58" target-y="425.1"></path></g><path d="M 726.84 382.32 C 726.10 387.06 724.56 391.90 725.68 396.57 C 726.77 401.14 730.20 404.70 732.94 408.52 C 739.55 417.75 742.42 429.93 739.21 440.82 C 736.00 451.71 726.22 460.74 714.92 461.75 C 715.17 471.54 713.59 481.78 707.91 489.77 C 702.23 497.75 691.73 502.83 682.36 499.96 C 673.00 497.08 667.14 484.77 672.55 476.60 C 667.36 481.76 659.08 484.51 652.53 481.26 C 645.97 478.01 643.68 467.57 649.51 463.15 C 640.94 464.67 631.65 459.62 628.28 451.59 C 624.91 443.57 627.80 433.39 634.89 428.34 C 641.02 423.97 649.75 423.08 654.13 416.96 C 661.62 406.49 650.15 390.77 656.15 379.38 C 659.51 373.00 667.76 369.53 669.18 362.46 C 669.70 359.88 669.18 357.21 669.38 354.59 C 670.80 335.95 695.82 337.84 707.96 343.23 C 723.08 349.92 729.46 365.61 726.84 382.32 Z" fill="#00293c" fill-rule="nonzero" group-id="2,6,12" node-id="385" stroke="none" target-height="166.87997" target-width="117.51001" target-x="624.91" target-y="335.95"></path></g><g node-id="782"><path d="M 542.44 614.77 C 542.49 614.82 542.54 614.87 542.59 614.92" fill="#f7c7b3" fill-rule="nonzero" group-id="2,7" node-id="391" stroke="none" target-height="0.14996338" target-width="0.15002441" target-x="542.44" target-y="614.77"></path><g node-id="788"><g node-id="801"><g node-id="822"><g node-id="842"><path d="M 353.35 747.19 C 354.26 747.58 357.70 748.14 358.61 747.74 C 359.49 747.35 358.73 746.46 358.66 745.50 C 358.59 744.54 358.14 743.65 357.68 742.81 C 355.13 738.12 352.02 733.50 347.46 730.76 C 344.71 729.11 341.36 728.29 338.17 728.70 C 336.89 728.87 333.64 730.01 333.01 731.27 C 332.59 732.10 334.11 733.89 335.36 735.08 C 340.99 740.40 345.81 743.94 353.35 747.19 Z" fill="#007dc5" fill-rule="nonzero" group-id="2,7,13,26,47,67" node-id="401" stroke="none" target-height="19.850037" target-width="26.899994" target-x="332.59" target-y="728.29"></path><g node-id="851"><path d="M 324.71 757.66 C 323.34 760.44 321.97 763.84 323.60 766.49 C 325.44 769.49 330.13 769.34 332.95 767.23 C 335.77 765.12 336.36 760.99 339.01 758.68 C 353.40 746.17 369.63 730.69 380.35 713.10 C 381.74 710.82 382.99 708.31 382.99 705.63 C 382.99 702.96 381.41 700.12 378.81 699.47 C 376.82 698.98 374.77 699.83 372.95 700.76 C 349.26 712.84 336.09 734.61 324.71 757.66 Z" fill="#f3a88a" fill-rule="nonzero" group-id="2,7,13,26,47,67,76" node-id="405" stroke="none" target-height="70.51001" target-width="61.01999" target-x="321.97" target-y="698.98"></path><g node-id="853"><path d="M 333.78 766.32 C 334.49 770.22 331.75 774.35 329.14 777.76 C 325.86 782.06 323.31 786.93 321.65 792.08 C 320.76 794.83 320.12 797.69 318.73 800.23 C 317.34 802.77 315.03 805.01 312.17 805.41 C 310.74 805.61 309.30 805.35 307.89 805.05 C 304.74 804.37 301.48 803.40 299.21 801.11 C 295.29 797.16 294.54 789.51 298.53 785.62 C 302.52 781.73 307.03 778.14 311.59 774.96 C 313.94 773.32 315.41 771.07 317.51 769.11 C 319.37 767.38 320.76 764.39 322.74 762.96 C 326.21 760.47 332.98 761.94 333.78 766.32 Z" fill="#f7c7b3" fill-rule="nonzero" group-id="2,7,13,26,47,67,76,78" node-id="409" stroke="none" target-height="45.140015" target-width="39.94998" target-x="294.54" target-y="760.47"></path><g node-id="855"><path d="M 299.82 808.20 C 298.67 809.27 297.73 811.00 298.51 812.37 C 299.35 813.84 301.60 813.76 302.99 812.81 C 304.39 811.86 305.28 810.34 306.50 809.18 C 307.76 807.99 309.34 807.19 310.75 806.20 C 311.29 805.82 311.83 805.38 312.08 804.77 C 313.45 801.40 308.18 800.85 306.28 801.95 C 304.13 803.18 301.68 806.47 299.82 808.20 Z" fill="#f7c3b0" fill-rule="nonzero" group-id="2,7,13,26,47,67,76,78,80" node-id="413" stroke="none" target-height="12.990051" target-width="15.720001" target-x="297.73" target-y="800.85"></path><path d="M 296.74 806.99 C 295.91 807.82 294.69 808.72 293.69 808.09 C 292.68 807.46 292.97 805.94 293.39 804.83 C 292.35 804.43 291.92 802.93 292.60 802.04 C 292.78 801.81 293.01 801.62 293.12 801.35 C 293.34 800.83 293.03 800.25 292.94 799.68 C 292.74 798.44 293.64 797.31 294.05 796.12 C 294.39 795.15 294.41 794.10 294.58 793.09 C 294.96 790.82 296.11 788.68 297.81 787.13 C 298.14 787.21 298.21 787.65 298.19 787.98 C 298.12 789.47 297.77 790.93 297.66 792.41 C 297.55 793.89 297.70 795.47 298.52 796.71 C 299.40 798.04 302.51 799.65 301.93 801.52 C 301.63 802.50 300.21 803.46 299.52 804.16 C 298.61 805.10 297.68 806.04 296.74 806.99 Z" fill="#f7c3b0" fill-rule="nonzero" group-id="2,7,13,26,47,67,76,78,80" node-id="415" stroke="none" target-height="21.589966" target-width="10.589996" target-x="291.92" target-y="787.13"></path></g></g></g><path d="M 421.37 580.01 C 421.37 580.01 395.52 644.82 389.70 653.72 C 383.87 662.62 381.32 670.74 381.32 670.74 L 407.20 688.21 L 469.91 632.74 L 463.29 577.19 L 421.37 580.01 Z" fill="#007dc5" fill-rule="nonzero" group-id="2,7,13,26,47,67" node-id="420" stroke="none" target-height="111.02002" target-width="88.59" target-x="381.32" target-y="577.19"></path><path d="M 381.32 670.74 C 381.32 670.74 364.39 686.63 357.50 698.78 C 350.61 710.93 343.67 727.35 343.67 727.35 L 360.00 742.24 L 407.20 688.20 L 381.32 670.74 Z" fill="#007dc5" fill-rule="nonzero" group-id="2,7,13,26,47,67" node-id="422" stroke="none" target-height="71.5" target-width="63.53" target-x="343.67" target-y="670.74"></path><path d="M 341.94 719.37 C 341.94 719.37 351.70 721.33 360.19 727.56 C 368.67 733.79 370.44 739.32 370.44 739.32 L 358.71 747.73 C 358.71 747.73 348.49 734.14 342.39 732.83 C 336.29 731.53 332.90 731.32 332.90 731.32 L 341.94 719.37 Z" fill="#008fd4" fill-rule="nonzero" group-id="2,7,13,26,47,67" node-id="424" stroke="none" target-height="28.359985" target-width="37.54001" target-x="332.9" target-y="719.37"></path><path d="M 332.16 760.85 C 334.74 762.88 334.61 766.45 334.37 767.68 C 333.08 774.51 327.34 780.60 325.70 783.92 C 321.11 793.22 320.90 801.64 313.92 809.30 C 311.30 812.18 307.73 814.28 303.86 814.74 C 299.99 815.20 295.86 813.88 293.28 810.96 C 289.93 807.16 289.70 801.34 291.56 796.62 C 293.42 791.91 296.66 786.20 300.42 782.81 C 304.18 779.42 309.86 776.11 312.97 772.11 C 315.67 768.63 323.42 753.98 332.16 760.85 Z" fill="#053a60" fill-rule="nonzero" group-id="2,7,13,26,47,67" node-id="426" stroke="none" target-height="61.22003" target-width="45.039978" target-x="289.7" target-y="753.98"></path></g></g><g node-id="823"><path d="M 463.30 577.18 L 510.35 570.31 C 510.35 570.31 555.56 664.03 556.09 670.76 C 556.61 677.50 559.58 684.88 552.18 689.06 C 544.78 693.25 540.46 696.25 519.31 676.40 C 498.16 656.55 469.92 632.73 469.92 632.73 L 463.30 577.18 Z" fill="#007dc5" fill-rule="nonzero" group-id="2,7,13,26,48" node-id="432" stroke="none" target-height="125.94" target-width="96.28003" target-x="463.3" target-y="570.31"></path><g node-id="843"><path d="M 529.63 683.71 C 533.40 687.46 538.19 690.50 543.48 690.94 C 548.78 691.38 554.54 688.68 556.51 683.74 C 557.85 680.38 557.30 676.50 555.83 673.19 C 554.36 669.88 552.05 667.03 549.77 664.23 C 544.35 657.58 538.94 650.93 533.52 644.27 C 526.62 635.80 511.98 644.16 513.58 654.21 C 515.15 664.06 522.68 676.81 529.63 683.71 Z" fill="#009fde" fill-rule="nonzero" group-id="2,7,13,26,48,68" node-id="436" stroke="none" target-height="55.580017" target-width="45.869965" target-x="511.98" target-y="635.8"></path><g node-id="852"><g node-id="854"><path d="M 506.78 645.19 C 508.71 647.85 510.91 650.40 512.08 653.48 C 512.76 655.27 513.14 657.31 514.55 658.61 C 516.21 660.14 518.87 660.12 520.92 659.17 C 522.97 658.22 524.55 656.51 526.08 654.84 C 527.65 653.13 529.22 651.42 530.78 649.71 C 532.15 648.22 533.62 646.31 533.02 644.38 C 532.62 643.09 531.41 642.25 530.27 641.52 C 525.49 638.42 514.63 628.13 508.66 628.99 C 499.81 630.27 504.14 640.66 506.78 645.19 Z" fill="#f7c7b3" fill-rule="nonzero" group-id="2,7,13,26,48,68,77,79" node-id="442" stroke="none" target-height="32.01001" target-width="33.809998" target-x="499.81" target-y="628.13"></path><path d="M 524.42 657.78 C 524.28 657.55 524.10 657.33 523.90 657.15 C 520.90 654.43 515.58 657.50 518.11 661.29 C 520.66 665.12 526.94 661.86 524.42 657.78 Z" fill="#f7c7b3" fill-rule="nonzero" group-id="2,7,13,26,48,68,77,79" node-id="444" stroke="none" target-height="10.690002" target-width="11.359985" target-x="515.58" target-y="654.43"></path><path d="M 523.55 655.86 C 523.93 656.38 524.35 656.91 524.91 657.23 C 526.24 658.01 528.17 657.32 528.78 655.91 C 529.39 654.50 528.64 652.68 527.24 652.03 C 526.42 651.65 525.41 651.66 524.62 652.12 C 523.84 652.58 523.32 653.49 523.39 654.39" fill="#f7c7b3" fill-rule="nonzero" group-id="2,7,13,26,48,68,77,79" node-id="446" stroke="none" target-height="6.3599854" target-width="6.0700073" target-x="523.32" target-y="651.65"></path><path d="M 527.83 651.82 C 528.10 652.19 528.39 652.56 528.79 652.79 C 529.73 653.34 531.08 652.86 531.51 651.86 C 531.94 650.87 531.41 649.58 530.43 649.13 C 529.85 648.86 529.14 648.87 528.59 649.19 C 528.04 649.51 527.67 650.15 527.73 650.79" fill="#f7c7b3" fill-rule="nonzero" group-id="2,7,13,26,48,68,77,79" node-id="448" stroke="none" target-height="4.4800415" target-width="4.2700195" target-x="527.67" target-y="648.86"></path><path d="M 530.16 649.25 C 530.43 649.62 530.72 649.99 531.12 650.22 C 532.06 650.77 533.41 650.29 533.84 649.29 C 534.27 648.30 533.74 647.01 532.76 646.56 C 532.18 646.29 531.47 646.30 530.92 646.62 C 530.37 646.94 530.00 647.58 530.06 648.22" fill="#f7c7b3" fill-rule="nonzero" group-id="2,7,13,26,48,68,77,79" node-id="450" stroke="none" target-height="4.4800415" target-width="4.2700195" target-x="530" target-y="646.29"></path><path d="M 530.81 646.66 C 531.08 647.03 531.37 647.40 531.77 647.63 C 532.71 648.18 534.06 647.70 534.49 646.70 C 534.92 645.71 534.39 644.42 533.41 643.97 C 532.83 643.70 532.12 643.71 531.57 644.03 C 531.02 644.35 530.65 644.99 530.71 645.63" fill="#f7c7b3" fill-rule="nonzero" group-id="2,7,13,26,48,68,77,79" node-id="452" stroke="none" target-height="4.4799805" target-width="4.2699585" target-x="530.65" target-y="643.7"></path></g><path d="M 503.45 640.70 C 505.05 644.09 507.70 646.87 509.53 650.15 C 512.12 654.79 513.22 660.60 517.49 663.77 C 520.33 665.87 524.67 666.36 528.08 665.41 C 531.49 664.46 534.60 662.50 536.80 659.74 C 538.33 657.81 539.01 653.37 536.11 647.28 C 535.05 645.06 529.83 639.99 526.28 638.01 C 523.61 636.52 522.75 635.90 520.61 633.72 C 518.46 631.54 515.77 629.76 512.91 628.68 C 504.71 625.60 500.19 633.81 503.45 640.70 Z" fill="#053a60" fill-rule="nonzero" group-id="2,7,13,26,48,68,77" node-id="455" stroke="none" target-height="40.76001" target-width="38.820007" target-x="500.19" target-y="625.6"></path></g></g></g></g><g node-id="802"><g node-id="824"><path d="M 365.20 346.78 C 364.50 348.78 358.18 371.15 360.69 384.58 C 363.20 398.01 365.46 405.63 365.46 405.63 L 388.02 395.65 C 388.02 395.65 377.10 359.66 376.17 353.95 C 375.24 348.24 374.93 345.89 374.93 345.89 L 365.20 346.78 Z" fill="#f6bea9" fill-rule="nonzero" group-id="2,7,13,27,49" node-id="465" stroke="none" target-height="59.73999" target-width="29.839996" target-x="358.18" target-y="345.89"></path><g node-id="844"><path d="M 373.28 317.84 C 372.96 319.14 373.12 322.53 373.35 323.19 C 373.59 323.86 370.86 329.17 370.86 329.17 L 377.56 333.95 C 377.56 333.95 378.46 324.08 378.43 322.29 C 378.40 320.50 377.09 315.91 375.96 315.26 C 374.84 314.61 373.50 316.94 373.28 317.84 Z" fill="#f6bea9" fill-rule="nonzero" group-id="2,7,13,27,49,69" node-id="469" stroke="none" target-height="19.340027" target-width="7.600006" target-x="370.86" target-y="314.61"></path><path d="M 355.90 331.54 C 355.55 331.77 355.09 331.82 354.75 332.08 C 353.77 332.84 354.65 334.44 354.32 335.64 C 354.22 336.02 353.99 336.36 353.94 336.74 C 353.88 337.15 354.02 337.56 354.17 337.94 C 355.53 341.43 358.03 344.46 361.20 346.45 C 362.21 347.08 363.30 347.62 364.47 347.85 C 365.45 348.04 366.46 348.00 367.45 347.95 C 370.02 347.81 372.58 347.55 375.12 347.16 C 374.86 344.34 376.18 341.66 377.00 338.96 C 377.83 336.26 378.04 332.95 376.04 330.95 C 375.40 330.31 374.60 329.88 373.80 329.45 C 371.32 328.12 368.82 326.77 366.08 326.10 C 363.80 325.54 360.23 325.25 358.18 326.73 C 356.49 327.95 357.45 330.51 355.90 331.54 Z" fill="#f6bea9" fill-rule="nonzero" group-id="2,7,13,27,49,69" node-id="471" stroke="none" target-height="22.790009" target-width="24.27002" target-x="353.77" target-y="325.25"></path></g></g><g node-id="825"><path d="M 529.51 289.53 L 544.82 295.58 L 529.39 373.23 L 526.92 374.69 C 520.98 378.20 513.33 375.07 511.55 368.40 L 508.15 362.60 L 529.51 289.53 Z" fill="#f6bea9" fill-rule="nonzero" group-id="2,7,13,27,50" node-id="477" stroke="none" target-height="88.67001" target-width="36.670013" target-x="508.15" target-y="289.53"></path><g node-id="845"><path d="M 528.02 270.06 C 528.02 270.06 527.34 278.08 527.63 282.74 C 527.92 287.40 529.51 289.52 529.51 289.52 L 544.82 295.57 C 544.82 295.57 549.54 285.34 550.42 281.19 C 551.30 277.04 551.46 276.30 550.25 274.77 C 549.04 273.24 534.21 268.56 531.96 268.34 C 529.71 268.13 528.02 270.06 528.02 270.06 Z" fill="#f6bea9" fill-rule="nonzero" group-id="2,7,13,27,50,70" node-id="481" stroke="none" target-height="27.440002" target-width="24.119995" target-x="527.34" target-y="268.13"></path><path d="M 534.15 271.53 L 528.01 271.22 L 528.55 260.45 C 528.64 258.75 530.08 257.45 531.78 257.53 L 531.78 257.53 C 533.48 257.62 534.78 259.06 534.70 260.76 L 534.15 271.53 Z" fill="#f6bea9" fill-rule="nonzero" group-id="2,7,13,27,50,70" node-id="483" stroke="none" target-height="14.079987" target-width="6.7700195" target-x="528.01" target-y="257.45"></path><path d="M 550.60 280.98 L 545.22 280.25 L 546.63 269.94 C 546.83 268.46 548.20 267.42 549.68 267.62 L 549.68 267.62 C 551.16 267.82 552.20 269.19 552.00 270.67 L 550.60 280.98 Z" fill="#f6bea9" fill-rule="nonzero" group-id="2,7,13,27,50,70" node-id="485" stroke="none" target-height="13.559998" target-width="6.9800415" target-x="545.22" target-y="267.42"></path><path d="M 539.78 274.61 L 532.96 273.72 L 534.22 264.13 C 534.47 262.25 536.19 260.92 538.07 261.17 L 538.07 261.17 C 539.95 261.42 541.28 263.14 541.03 265.03 L 539.78 274.61 Z" fill="#f6bea9" fill-rule="nonzero" group-id="2,7,13,27,50,70" node-id="487" stroke="none" target-height="13.689972" target-width="8.320007" target-x="532.96" target-y="260.92"></path><path d="M 545.68 277.52 L 539.54 276.81 L 540.69 266.86 C 540.89 265.16 542.42 263.95 544.12 264.14 L 544.12 264.14 C 545.82 264.34 547.03 265.87 546.84 267.57 L 545.68 277.52 Z" fill="#f6bea9" fill-rule="nonzero" group-id="2,7,13,27,50,70" node-id="489" stroke="none" target-height="13.569977" target-width="7.4900513" target-x="539.54" target-y="263.95"></path></g></g><g node-id="826"><g node-id="846"><path d="M 376.81 353.60 L 391.20 398.99 L 433.35 438.80 L 402.77 471.24 C 402.77 471.24 364.53 420.00 361.85 410.62 C 355.21 387.37 359.64 353.60 359.64 353.60 L 376.81 353.60 Z" fill="#534e9e" fill-rule="nonzero" group-id="2,7,13,27,51,71" node-id="497" stroke="none" target-height="117.639984" target-width="78.140015" target-x="355.21" target-y="353.6"></path><path d="M 524.62 298.24 L 545.66 304.33 C 545.66 304.33 542.72 343.38 535.14 377.40 C 528.69 406.35 517.69 430.24 515.12 438.52 C 509.52 456.54 505.41 463.86 505.41 463.86 L 472.59 436.64 C 472.59 436.64 501.46 381.78 503.59 372.43 C 505.71 363.07 524.62 298.24 524.62 298.24 Z" fill="#534e9e" fill-rule="nonzero" group-id="2,7,13,27,51,71" node-id="499" stroke="none" target-height="165.62" target-width="73.06998" target-x="472.59" target-y="298.24"></path><path d="M 396.73 438.32 L 509.11 433.31 C 509.11 433.31 521.65 491.98 521.29 519.67 C 520.93 547.36 510.91 563.68 510.91 563.68 L 491.53 572.40 L 421.09 570.60 C 421.09 570.60 417.30 560.78 410.57 528.53 C 403.84 496.28 402.77 471.24 402.77 471.24 L 396.73 438.32 Z" fill="#534e9e" fill-rule="nonzero" group-id="2,7,13,27,51,71" node-id="501" stroke="none" target-height="139.09003" target-width="124.92001" target-x="396.73" target-y="433.31"></path></g></g></g><g node-id="803"><g node-id="827"><path d="M 443.06 418.55 L 466.68 418.55 L 466.68 445.12 L 443.06 445.12 Z" fill="#f6bea9" fill-rule="nonzero" group-id="2,7,13,28,52" node-id="510" stroke="none" target-height="26.570007" target-width="23.619995" target-x="443.06" target-y="418.55"></path><path d="M 466.56 445.22 C 466.56 446.90 461.31 448.26 454.83 448.26 C 448.35 448.26 443.10 446.90 443.10 445.22 C 443.10 443.54 448.35 442.18 454.83 442.18 C 461.31 442.18 466.56 443.54 466.56 445.22 Z" fill="#f6bea9" fill-rule="nonzero" group-id="2,7,13,28,52" node-id="512" stroke="none" target-height="6.080017" target-width="23.459991" target-x="443.1" target-y="442.18"></path></g><path d="M 476.83 411.82 C 476.11 416.60 473.89 422.14 467.44 423.86 C 459.97 425.86 452.37 421.32 448.17 416.65 C 439.71 407.26 427.88 370.56 453.43 366.61 C 478.29 362.77 478.27 402.27 476.83 411.82 Z" fill="#efb08a" fill-rule="nonzero" group-id="2,7,13,28" node-id="515" stroke="none" target-height="63.089996" target-width="50.410004" target-x="427.88" target-y="362.77"></path><path d="M 428.53 368.37 C 425.57 367.90 422.68 366.96 420.00 365.59 C 419.98 371.85 422.75 378.06 427.38 382.11 C 426.09 383.55 425.23 385.51 425.19 387.47 C 424.83 408.81 424.44 411.77 430.53 418.74 C 437.21 426.38 456.46 425.07 465.20 421.15 C 472.18 418.02 472.74 413.31 473.94 404.57 C 475.16 395.72 475.85 389.23 474.84 378.64 C 474.45 374.55 473.48 369.50 471.05 366.24 C 468.62 362.98 463.44 361.61 460.59 364.49 C 461.88 361.88 458.44 359.21 455.61 359.43 C 452.78 359.64 450.11 361.28 447.28 361.06 C 445.26 360.90 443.43 359.81 441.63 358.83 C 438.80 357.30 430.35 352.11 427.01 354.57 C 424.53 356.41 425.02 367.81 428.53 368.37 Z" fill="#053a60" fill-rule="nonzero" group-id="2,7,13,28" node-id="517" stroke="none" target-height="74.27002" target-width="55.869995" target-x="419.98" target-y="352.11"></path></g><g node-id="804"><path d="M 443.97 485.88 C 448.72 490.23 454.97 493.72 461.34 492.74 C 465.49 492.10 469.14 489.64 472.30 486.87 C 480.13 480.01 489.48 467.31 488.63 456.93 C 486.97 436.45 484.39 432.20 469.25 431.47 C 463.53 436.45 458.11 439.72 448.21 437.01 C 444.05 435.87 434.86 432.08 430.86 434.80 C 427.19 437.29 426.42 451.65 426.62 455.47 C 427.27 467.85 434.77 477.47 443.97 485.88 Z" fill="#605da6" fill-rule="nonzero" group-id="2,7,13,29" node-id="522" stroke="none" target-height="62.25" target-width="63.059998" target-x="426.42" target-y="431.47"></path></g><path d="M 419.99 567.14 C 419.99 567.14 436.97 572.35 462.06 570.88 C 487.16 569.40 510.77 562.99 510.77 562.99 L 512.00 573.84 C 512.00 573.84 483.27 582.41 461.50 583.15 C 439.73 583.89 421.37 580.01 421.37 580.01 L 419.99 567.14 Z" fill="#007dc5" fill-rule="nonzero" group-id="2,7,13,30" node-id="527" stroke="none" target-height="20.900024" target-width="92.01001" target-x="419.99" target-y="562.99"></path></g></g><g node-id="783"><g node-id="789"><g node-id="806"><g node-id="828"><path d="M 265.19 414.90 C 253.09 401.13 296.89 359.55 316.76 344.22 C 321.65 340.45 329.15 341.48 331.98 346.96 C 333.52 349.94 317.04 373.13 317.04 373.13 C 317.04 373.13 278.37 429.89 265.19 414.90 Z" fill="#efb08a" fill-rule="nonzero" group-id="2,8,14,31,53" node-id="540" stroke="none" target-height="89.44" target-width="80.42999" target-x="253.09" target-y="340.45"></path><path d="M 319.93 354.53 C 313.37 351.29 312.45 347.99 312.66 340.68 C 313.37 315.60 327.92 274.66 327.92 274.66 L 336.15 278.08 L 334.20 331.95 C 334.21 331.95 333.26 361.10 319.93 354.53 Z" fill="#efb08a" fill-rule="nonzero" group-id="2,8,14,31,53" node-id="542" stroke="none" target-height="86.44" target-width="23.699982" target-x="312.45" target-y="274.66"></path></g><g node-id="829"><path d="M 326.63 260.19 C 326.63 260.19 326.16 265.75 326.37 269.18 C 326.58 272.61 325.26 281.08 325.26 281.08 L 335.78 282.19 C 335.78 282.19 342.50 271.46 343.15 268.40 C 343.80 265.34 343.91 264.80 343.02 263.67 C 342.13 262.54 331.19 259.09 329.53 258.93 C 327.87 258.76 326.63 260.19 326.63 260.19 Z" fill="#efb08a" fill-rule="nonzero" group-id="2,8,14,31,54" node-id="547" stroke="none" target-height="23.429993" target-width="18.649994" target-x="325.26" target-y="258.76"></path><path d="M 331.15 261.27 L 326.62 261.04 L 327.02 253.09 C 327.08 251.84 328.15 250.88 329.40 250.94 L 329.40 250.94 C 330.65 251.00 331.61 252.07 331.55 253.32 L 331.15 261.27 Z" fill="#efb08a" fill-rule="nonzero" group-id="2,8,14,31,54" node-id="549" stroke="none" target-height="10.389984" target-width="4.98999" target-x="326.62" target-y="250.88"></path><path d="M 343.28 268.24 L 339.31 267.70 L 340.35 260.10 C 340.50 259.01 341.51 258.24 342.60 258.39 L 342.60 258.39 C 343.70 258.54 344.46 259.55 344.31 260.64 L 343.28 268.24 Z" fill="#efb08a" fill-rule="nonzero" group-id="2,8,14,31,54" node-id="551" stroke="none" target-height="10" target-width="5.149994" target-x="339.31" target-y="258.24"></path><path d="M 335.30 263.54 L 330.27 262.88 L 331.20 255.80 C 331.38 254.41 332.66 253.43 334.04 253.62 L 334.04 253.62 C 335.43 253.80 336.41 255.08 336.22 256.46 L 335.30 263.54 Z" fill="#efb08a" fill-rule="nonzero" group-id="2,8,14,31,54" node-id="553" stroke="none" target-height="10.110016" target-width="6.1400146" target-x="330.27" target-y="253.43"></path><path d="M 339.65 265.69 L 335.12 265.17 L 335.97 257.83 C 336.12 256.58 337.25 255.68 338.50 255.83 L 338.50 255.83 C 339.75 255.97 340.65 257.11 340.50 258.36 L 339.65 265.69 Z" fill="#efb08a" fill-rule="nonzero" group-id="2,8,14,31,54" node-id="555" stroke="none" target-height="10.01001" target-width="5.529999" target-x="335.12" target-y="255.68"></path></g></g><g node-id="807"><path d="M 226.31 392.16 C 212.07 398.39 211.71 452.11 212.39 488.93 C 212.52 495.83 220.16 500.79 226.70 498.62 C 230.26 497.44 235.18 466.04 235.18 466.04 C 235.18 466.04 246.74 383.22 226.31 392.16 Z" fill="#efb08a" fill-rule="nonzero" group-id="2,8,14,32" node-id="561" stroke="none" target-height="117.57001" target-width="35.03" target-x="211.71" target-y="383.22"></path><g node-id="830"><path d="M 220.00 478.90 C 213.42 482.07 212.47 485.37 212.61 492.67 C 213.09 517.73 227.25 558.78 227.25 558.78 L 235.50 555.44 L 234.05 501.59 C 234.05 501.60 233.37 472.46 220.00 478.90 Z" fill="#efb08a" fill-rule="nonzero" group-id="2,8,14,32,55" node-id="565" stroke="none" target-height="86.32004" target-width="23.029999" target-x="212.47" target-y="472.46"></path><g node-id="847"><path d="M 239.25 553.52 L 244.85 561.35 C 244.85 561.35 245.38 568.46 245.85 571.47 C 246.33 574.49 246.45 576.59 246.45 576.59 C 246.45 576.59 245.57 577.10 244.42 575.54 C 243.27 573.98 241.96 570.16 242.14 569.46 C 242.32 568.77 238.76 575.92 238.76 575.92 L 231.65 574.64 C 231.65 574.64 227.34 575.65 226.64 572.35 C 225.94 569.05 225.40 571.95 224.92 565.82 C 224.44 559.69 225.23 558.22 226.21 556.70 C 227.20 555.18 228.28 552.88 228.69 550.17 C 229.10 547.46 221.34 510.22 221.34 510.22 L 231.86 538.49 L 239.25 553.52 Z" fill="#efb08a" fill-rule="nonzero" group-id="2,8,14,32,55,72" node-id="569" stroke="none" target-height="66.879974" target-width="25.11" target-x="221.34" target-y="510.22"></path><path d="M 242.08 576.49 C 242.07 576.96 242.04 577.46 241.77 577.84 C 241.27 578.55 239.85 578.42 239.26 577.79 C 238.66 577.16 238.69 575.89 238.50 574.97 C 238.39 575.61 238.79 577.55 238.08 578.10 C 237.56 578.50 235.82 578.10 235.49 577.53 C 235.16 576.96 235.15 575.89 235.09 574.97 C 235.10 575.85 234.53 577.62 233.81 577.61 C 232.97 577.60 232.02 577.75 231.48 576.97 C 230.93 576.19 230.88 575.15 230.83 574.20 C 230.91 575.29 230.28 576.97 229.56 577.36 C 228.84 577.74 228.23 577.64 227.49 577.28 C 226.35 576.73 225.79 575.45 225.43 574.24 C 224.05 569.67 224.17 565.57 224.77 560.83 C 224.92 559.68 227.92 553.33 228.70 552.47 C 229.60 551.48 228.26 555.55 229.57 555.83 C 230.88 556.11 232.04 556.87 233.13 557.66 C 235.35 559.30 237.41 561.20 238.97 563.48 C 240.25 565.35 242.28 566.45 242.64 568.70 C 242.79 569.63 242.69 569.73 242.76 570.63 C 242.86 572.02 242.13 575.09 242.08 576.49 Z" fill="#efb08a" fill-rule="nonzero" group-id="2,8,14,32,55,72" node-id="571" stroke="none" target-height="27.070007" target-width="18.809998" target-x="224.05" target-y="551.48"></path></g></g></g><path d="M 225.62 385.43 C 225.62 385.43 257.69 376.74 264.26 381.66 C 279.34 392.97 274.59 388.90 287.82 418.41 C 301.05 447.92 289.71 514.53 289.71 514.53 L 227.51 501.34 C 227.51 501.34 248.54 449.62 240.40 439.44 C 232.26 429.26 219.03 401.78 219.03 401.78 L 225.62 385.43 Z" fill="#ccdce3" fill-rule="nonzero" group-id="2,8,14" node-id="576" stroke="none" target-height="137.79004" target-width="82.01999" target-x="219.03" target-y="376.74"></path><path d="M 250.38 402.58 L 283.49 370.39 L 307.60 395.19 L 274.49 427.38 Z" fill="#ccdce3" fill-rule="nonzero" group-id="2,8,14,33" node-id="580" stroke="none" target-height="56.993103" target-width="57.223785" target-x="250.37613" target-y="370.38647"></path><path d="M 297.17 423.42 C 298.47 425.60 299.71 428.01 299.53 430.55 C 299.19 435.31 294.28 438.20 289.97 440.25 C 288.85 440.78 287.47 441.30 286.44 440.60 C 285.77 440.14 285.50 439.30 285.28 438.52 C 283.14 430.99 277.37 412.52 283.38 406.57 C 289.07 410.72 293.58 417.40 297.17 423.42 Z" fill="#ccdce3" fill-rule="nonzero" group-id="2,8,14" node-id="583" stroke="none" target-height="34.72998" target-width="22.339996" target-x="277.37" target-y="406.57"></path><path d="M 238.04 363.59 L 232.58 377.56 C 231.72 383.56 240.88 388.35 247.93 388.96 C 252.63 389.37 255.13 388.42 255.13 388.42 C 258.89 386.72 259.72 384.65 259.93 381.89 L 262.73 345.39 L 245.41 344.36 L 238.04 363.59 Z" fill="#e99980" fill-rule="nonzero" group-id="2,8,14,34" node-id="587" stroke="none" target-height="45.01001" target-width="31.01001" target-x="231.72" target-y="344.36"></path><path d="M 252.62 318.49 C 266.53 327.90 273.61 346.55 269.46 362.89 C 268.61 366.23 266.67 370.00 263.27 370.25 C 262.30 370.32 261.34 370.08 260.40 369.81 C 244.79 365.36 231.76 352.50 227.00 336.84 C 225.84 333.02 225.15 328.85 226.42 325.07 C 227.74 321.15 231.08 318.14 234.91 316.66 C 240.60 314.47 247.52 315.04 252.62 318.49 Z" fill="#efb08a" fill-rule="nonzero" group-id="2,8,14,34" node-id="589" stroke="none" target-height="55.850006" target-width="48.45999" target-x="225.15" target-y="314.47"></path><path d="M 270.42 333.14 C 271.22 334.57 271.94 336.44 270.93 337.73 C 269.91 339.04 267.77 338.73 266.42 337.75 C 265.08 336.77 264.15 335.30 262.81 334.31 C 260.72 332.78 257.96 332.64 255.38 332.38 C 250.47 331.88 245.31 330.55 242.00 326.89 C 235.41 319.60 241.19 310.56 250.18 313.83 C 259.02 317.06 265.96 325.16 270.42 333.14 Z" fill="#534e9e" fill-rule="nonzero" group-id="2,8,14,34,56" node-id="593" stroke="none" target-height="28.480011" target-width="36.53" target-x="235.41" target-y="310.56"></path><path d="M 210.75 355.28 C 195.79 364.20 189.98 383.03 188.70 400.41 C 187.80 412.55 188.55 425.02 192.92 436.39 C 197.29 447.75 205.59 457.94 216.77 462.76 C 227.95 467.58 242.03 466.23 250.96 457.97 C 256.63 452.73 259.64 443.12 254.43 437.42 C 262.08 439.74 271.05 436.64 275.64 430.10 C 280.23 423.56 280.08 414.07 275.30 407.67 C 268.57 398.67 254.42 396.00 250.71 385.40 C 246.87 374.42 256.91 363.90 260.26 352.76 C 263.22 342.92 264.31 328.15 258.12 319.95 C 240.69 296.85 198.44 327.79 210.75 355.28 Z" fill="#534e9e" fill-rule="nonzero" group-id="2,8,14,34,56" node-id="595" stroke="none" target-height="170.72998" target-width="92.43001" target-x="187.8" target-y="296.85"></path></g><g node-id="790"><g node-id="810"><path d="M 154.62 598.33 L 119.24 581.78 L 106.13 602.65 L 102.27 612.93 L 118.34 596.89 L 148.24 609.79 Z" fill="#f6bea7" fill-rule="nonzero" group-id="2,8,15,35" node-id="604" stroke="none" target-height="31.149963" target-width="52.35" target-x="102.27" target-y="581.78"></path><path d="M 113.92 581.14 L 102.06 604.94 L 99.79 614.86 C 99.79 614.86 101.13 616.02 102.02 615.44 C 104.71 613.72 110.33 604.78 110.33 604.78 C 110.33 604.78 107.95 605.12 107.70 603.73 C 107.44 602.35 114.14 590.58 116.19 587.87 C 119.71 583.20 122.09 582.37 121.75 581.99 C 120.85 581.01 113.92 581.14 113.92 581.14 Z" fill="#534e9e" fill-rule="nonzero" group-id="2,8,15,35" node-id="606" stroke="none" target-height="35.01001" target-width="22.299995" target-x="99.79" target-y="581.01"></path></g><path d="M 259.07 508.41 L 263.31 648.28 C 263.31 648.28 230.11 679.87 238.29 633.33 C 239.78 624.83 225.70 590.89 218.55 549.88 C 215.04 529.75 218.04 522.96 227.50 500.88 C 230.33 494.28 259.07 508.41 259.07 508.41 Z" fill="url(#SVGID_3_)" fill-rule="nonzero" group-id="2,8,15" node-id="609" stroke="none" target-height="185.59" target-width="48.270004" target-x="215.04" target-y="494.28"></path><path d="M 229.83 658.89 L 138.56 608.43 L 146.03 593.06 C 146.03 593.06 225.87 616.16 266.38 640.50 C 269.88 642.60 265.35 648.72 259.61 654.60 C 251.80 662.58 239.59 664.29 229.83 658.89 Z" fill="url(#SVGID_4_)" fill-rule="nonzero" group-id="2,8,15" node-id="611" stroke="none" target-height="71.22998" target-width="131.32" target-x="138.56" target-y="593.06"></path></g><g node-id="791"><path d="M 288.28 507.47 C 288.28 507.47 316.90 655.22 316.90 657.42 C 316.90 659.62 290.01 660.81 290.01 660.81 L 238.81 542.80 C 238.81 542.80 235.04 530.08 239.28 514.06 C 240.62 509.00 246.35 495.21 246.35 495.21 L 288.28 507.47 Z" fill="url(#SVGID_5_)" fill-rule="nonzero" group-id="2,8,16" node-id="616" stroke="none" target-height="165.6" target-width="81.86" target-x="235.04" target-y="495.21"></path><g node-id="811"><path d="M 202.78 604.28 L 167.39 587.73 L 154.29 608.60 L 150.43 618.88 L 166.50 602.84 L 196.40 615.74 Z" fill="#f6bea7" fill-rule="nonzero" group-id="2,8,16,36" node-id="620" stroke="none" target-height="31.150024" target-width="52.350006" target-x="150.43" target-y="587.73"></path><path d="M 162.08 587.09 L 150.22 610.89 L 147.95 620.81 C 147.95 620.81 149.29 621.97 150.18 621.39 C 152.87 619.67 158.49 610.73 158.49 610.73 C 158.49 610.73 156.11 611.07 155.86 609.68 C 155.60 608.30 162.30 596.54 164.35 593.82 C 167.87 589.15 170.25 588.32 169.91 587.94 C 169.01 586.96 162.08 587.09 162.08 587.09 Z" fill="#534e9e" fill-rule="nonzero" group-id="2,8,16,36" node-id="622" stroke="none" target-height="35.00995" target-width="22.300003" target-x="147.95" target-y="586.96"></path></g><path d="M 300.14 681.49 C 282.09 679.77 184.08 610.14 184.08 610.14 L 188.46 597.57 C 188.46 597.57 263.95 617.02 281.14 629.14 C 295.82 639.49 317.26 655.74 317.26 655.74 C 317.26 655.74 324.66 683.82 300.14 681.49 Z" fill="url(#SVGID_6_)" fill-rule="nonzero" group-id="2,8,16" node-id="625" stroke="none" target-height="86.25" target-width="140.58" target-x="184.08" target-y="597.57"></path></g><path d="M 230.80 492.16 L 291.11 504.17 L 289.70 514.54 L 227.50 501.35 Z" fill="url(#SVGID_7_)" fill-rule="nonzero" group-id="2,8,17" node-id="630" stroke="none" target-height="22.379974" target-width="63.609985" target-x="227.5" target-y="492.16"></path></g><g node-id="784"><g node-id="793"><g node-id="812"><path d="M 886.71 556.99 C 886.71 556.99 877.01 595.93 878.31 622.39 C 879.61 648.85 880.25 659.62 885.09 663.54 C 889.93 667.46 898.60 669.88 911.52 662.13 C 916.42 659.19 937.19 573.36 935.93 556.75 C 934.68 540.14 886.71 556.99 886.71 556.99 Z" fill="#f2ae93" fill-rule="nonzero" group-id="2,9,18,37" node-id="640" stroke="none" target-height="129.73999" target-width="60.179993" target-x="877.01" target-y="540.14"></path><path d="M 905.83 626.77 C 915.31 620.97 925.96 617.43 936.27 613.27 C 946.58 609.11 956.86 604.12 964.58 596.12 C 967.78 592.79 971.12 588.68 975.74 588.60 C 980.24 588.52 983.79 592.44 985.84 596.44 C 987.89 600.44 989.21 604.96 992.36 608.18 C 994.85 610.72 998.23 612.16 1001.35 613.86 C 1008.62 617.82 1014.92 623.55 1019.54 630.42 C 1018.46 631.91 1016.15 631.91 1014.53 631.04 C 1012.91 630.18 1011.72 628.69 1010.33 627.49 C 1002.79 621.01 990.42 623.64 982.60 617.51 C 979.74 615.27 977.12 611.75 973.50 612.11 C 971.41 612.32 969.71 613.83 968.18 615.28 C 948.08 634.33 928.50 655.34 902.76 665.56 C 899.45 666.87 895.83 668.01 892.38 667.13 C 884.31 665.08 882.14 654.63 885.57 648.19 C 890.30 639.31 897.27 632.00 905.83 626.77 Z" fill="#f2ae93" fill-rule="nonzero" group-id="2,9,18,37" node-id="642" stroke="none" target-height="79.48999" target-width="137.39996" target-x="882.14" target-y="588.52"></path></g><g node-id="813"><g node-id="832"><path d="M 967.22 614.31 L 981.11 613.66 C 984.43 612.27 986.66 608.01 990.13 608.99 C 993.96 610.07 999.69 611.99 1006.61 616.29 C 1006.35 603.73 989.87 598.04 979.59 595.56 C 974.58 594.35 969.17 593.39 964.60 595.77 L 955.12 603.30 L 967.22 614.31 Z" fill="#f2ae93" fill-rule="nonzero" group-id="2,9,18,38,57" node-id="649" stroke="none" target-height="22.899963" target-width="51.48999" target-x="955.12" target-y="593.39"></path></g><path d="M 1001.28 606.92 C 993.07 599.09 984.43 591.71 975.42 584.82 C 973.52 583.37 971.60 581.93 969.76 580.42 C 969.45 580.97 969.11 581.54 968.71 582.14 C 965.37 587.21 964.60 595.76 964.60 595.76 C 964.60 595.76 971.26 595.59 975.74 600.52 C 980.21 605.45 977.00 611.45 978.76 614.60 C 980.39 617.51 995.10 623.55 1018.34 631.79 C 1018.12 630.15 1017.95 628.55 1017.56 627.24 C 1015.07 618.95 1007.33 612.69 1001.28 606.92 Z" fill="#e63b8a" fill-rule="nonzero" group-id="2,9,18,38" node-id="652" stroke="none" target-height="51.369995" target-width="53.74005" target-x="964.6" target-y="580.42"></path><path d="M 1019.49 619.73 C 1014.09 612.49 979.47 578.33 975.73 575.90 C 972.43 573.75 972.09 576.31 969.76 580.43 C 971.61 581.94 973.53 583.38 975.42 584.83 C 984.43 591.72 993.07 599.10 1001.28 606.93 C 1007.33 612.70 1015.07 618.96 1017.55 627.25 C 1017.94 628.55 1018.12 630.16 1018.33 631.80 C 1019.15 632.09 1019.98 632.39 1020.83 632.68 C 1022.54 633.28 1024.28 631.84 1023.98 630.04 C 1023.53 627.37 1022.37 623.60 1019.49 619.73 Z" fill="#f3ecc4" fill-rule="nonzero" group-id="2,9,18,38" node-id="654" stroke="none" target-height="59.53003" target-width="54.52002" target-x="969.76" target-y="573.75"></path><path d="M 994.62 622.84 C 994.50 622.64 994.15 622.94 994.32 623.09 C 993.90 622.63 993.89 621.94 993.95 621.32 C 994.13 619.47 994.70 617.65 995.61 616.03" fill="none" group-id="2,9,18,38" node-id="656" stroke="#fdf6ed" stroke-linecap="butt" stroke-width="0.7954" target-height="7.0599976" target-width="1.7199707" target-x="993.89" target-y="616.03"></path><path d="M 991.02 622.93 C 990.68 621.93 990.86 620.83 991.12 619.81 C 991.62 617.85 992.39 615.97 993.41 614.23" fill="none" group-id="2,9,18,38" node-id="658" stroke="#fdf6ed" stroke-linecap="butt" stroke-width="0.7954" target-height="8.700012" target-width="2.7299805" target-x="990.68" target-y="614.23"></path><path d="M 988.22 621.65 C 988.15 618.88 988.84 616.09 990.20 613.68" fill="none" group-id="2,9,18,38" node-id="660" stroke="#fdf6ed" stroke-linecap="butt" stroke-width="0.7954" target-height="7.9700317" target-width="2.0499878" target-x="988.15" target-y="613.68"></path><path d="M 986.05 620.48 C 985.38 617.88 985.70 615.04 986.92 612.65" fill="none" group-id="2,9,18,38" node-id="662" stroke="#fdf6ed" stroke-linecap="butt" stroke-width="0.7954" target-height="7.829956" target-width="1.539978" target-x="985.38" target-y="612.65"></path></g></g><g node-id="794"><g node-id="814"><g node-id="833"><path d="M 966.86 510.95 C 966.86 510.95 977.41 520.02 950.44 525.70 C 923.46 531.38 910.56 530.36 910.56 530.36 L 911.15 519.06 L 942.68 507.29 C 942.69 507.28 960.75 503.97 966.86 510.95 Z" fill="#f6bea9" fill-rule="nonzero" group-id="2,9,19,39,58" node-id="672" stroke="none" target-height="27.410004" target-width="66.849976" target-x="910.56" target-y="503.97"></path><path d="M 926.87 427.16 C 927.91 435.73 930.07 444.12 932.23 452.48 C 935.25 464.19 938.28 475.89 941.30 487.60 C 942.90 493.78 944.50 499.97 946.41 506.06 C 947.91 510.83 949.78 515.78 953.63 518.98 C 957.48 522.18 963.91 522.80 967.17 519.01 C 969.95 515.78 969.44 510.96 968.65 506.77 C 967.78 502.16 966.77 497.58 965.61 493.04 C 961.22 475.77 954.77 459.03 951.31 441.56 C 949.35 431.67 948.49 416.17 939.55 409.57 C 928.53 401.43 926.07 420.59 926.87 427.16 Z" fill="#f6bea9" fill-rule="nonzero" group-id="2,9,19,39,58" node-id="674" stroke="none" target-height="121.369995" target-width="43.880005" target-x="926.07" target-y="401.43"></path></g><g node-id="834"><path d="M 858.77 224.32 L 842.95 227.54 L 844.52 305.16 L 846.65 306.99 C 851.78 311.40 859.71 309.69 862.57 303.56 L 866.85 298.54 L 858.77 224.32 Z" fill="#f6bea9" fill-rule="nonzero" group-id="2,9,19,39,59" node-id="679" stroke="none" target-height="87.07999" target-width="23.899963" target-x="842.95" target-y="224.32"></path><g node-id="848"><path d="M 863.55 205.79 C 863.55 205.79 862.83 213.65 861.75 218.10 C 860.67 222.55 858.77 224.32 858.77 224.32 L 842.95 227.54 C 842.95 227.54 840.15 216.85 840.01 212.69 C 839.87 208.53 839.85 207.79 841.28 206.52 C 842.71 205.25 857.84 203.28 860.05 203.45 C 862.26 203.62 863.55 205.79 863.55 205.79 Z" fill="#f6bea9" fill-rule="nonzero" group-id="2,9,19,39,59,73" node-id="683" stroke="none" target-height="24.259995" target-width="23.700012" target-x="839.85" target-y="203.28"></path><path d="M 857.38 206.14 L 863.37 206.89 L 864.69 196.40 C 864.90 194.75 863.73 193.24 862.08 193.03 L 862.08 193.03 C 860.43 192.82 858.92 193.99 858.71 195.65 L 857.38 206.14 Z" fill="#f6bea9" fill-rule="nonzero" group-id="2,9,19,39,59,73" node-id="685" stroke="none" target-height="14.069992" target-width="7.5200195" target-x="857.38" target-y="192.82"></path><path d="M 839.88 212.45 L 845.20 212.66 L 845.61 202.47 C 845.67 201.00 844.53 199.76 843.06 199.70 L 843.06 199.70 C 841.59 199.64 840.35 200.78 840.29 202.25 L 839.88 212.45 Z" fill="#f6bea9" fill-rule="nonzero" group-id="2,9,19,39,59,73" node-id="687" stroke="none" target-height="13.020004" target-width="5.789978" target-x="839.88" target-y="199.64"></path><path d="M 851.42 208.16 L 858.15 208.47 L 858.58 198.99 C 858.66 197.13 857.23 195.55 855.37 195.47 L 855.37 195.47 C 853.51 195.39 851.93 196.82 851.85 198.68 L 851.42 208.16 Z" fill="#f6bea9" fill-rule="nonzero" group-id="2,9,19,39,59,73" node-id="689" stroke="none" target-height="13.080002" target-width="7.23999" target-x="851.42" target-y="195.39"></path><path d="M 845.22 209.95 L 851.27 210.32 L 851.87 200.51 C 851.97 198.84 850.70 197.40 849.03 197.30 L 849.03 197.30 C 847.36 197.20 845.92 198.47 845.82 200.14 L 845.22 209.95 Z" fill="#f6bea9" fill-rule="nonzero" group-id="2,9,19,39,59,73" node-id="691" stroke="none" target-height="13.12001" target-width="6.75" target-x="845.22" target-y="197.2"></path></g><path d="M 862.48 177.89 L 864.77 195.78 L 858.97 194.18 C 858.97 194.18 859.03 178.90 859.69 177.07 C 861.04 173.35 862.19 174.97 862.19 174.97 L 862.48 177.89 Z" fill="#f6bea9" fill-rule="nonzero" group-id="2,9,19,39,59" node-id="694" stroke="none" target-height="22.429993" target-width="5.800049" target-x="858.97" target-y="173.35"></path></g><g node-id="835"><g node-id="849"><path d="M 955.30 450.00 L 969.07 497.74 L 942.05 505.79 C 942.05 505.79 936.72 484.94 936.62 481.06 C 936.52 477.19 927.32 448.33 924.98 443.10 C 922.65 437.88 911.42 402.41 928.02 400.47 C 950.91 397.80 955.30 450.00 955.30 450.00 Z" fill="#e74893" fill-rule="nonzero" group-id="2,9,19,39,60,74" node-id="701" stroke="none" target-height="107.99002" target-width="57.650024" target-x="911.42" target-y="397.8"></path><path d="M 876.86 380.63 L 868.08 282.28 L 868.12 276.56 L 839.97 278.03 C 839.97 278.03 847.66 353.94 848.87 357.62 C 850.07 361.30 852.73 393.13 852.29 398.84 C 851.85 404.54 852.90 433.09 871.68 430.36 C 890.45 427.62 876.86 380.63 876.86 380.63 Z" fill="#e74893" fill-rule="nonzero" group-id="2,9,19,39,60,74" node-id="703" stroke="none" target-height="156.53" target-width="50.48004" target-x="839.97" target-y="276.56"></path><path d="M 901.44 394.33 C 901.44 394.33 870.27 393.54 863.64 396.01 C 857.01 398.47 845.27 391.11 864.37 453.90 C 871.11 476.07 863.33 502.90 856.78 516.99 C 850.23 531.08 849.75 543.84 849.75 543.84 L 938.29 542.23 C 938.29 542.23 928.04 507.53 928.77 485.65 C 929.50 463.76 945.44 419.96 944.44 415.12 C 940.54 396.01 907.51 394.54 901.44 394.33 Z" fill="#e74893" fill-rule="nonzero" group-id="2,9,19,39,60,74" node-id="705" stroke="none" target-height="152.73004" target-width="100.16998" target-x="845.27" target-y="391.11"></path></g></g></g><g node-id="815"><g node-id="836"><path d="M 847.97 577.73 C 847.97 577.73 834.26 615.44 832.79 641.89 C 831.32 668.34 830.83 679.11 835.24 683.52 C 839.65 687.93 849.44 691.85 854.34 688.91 C 859.24 685.97 896.46 599.28 896.95 582.63 C 897.44 565.97 847.97 577.73 847.97 577.73 Z" fill="#f6bea9" fill-rule="nonzero" group-id="2,9,19,40,61" node-id="714" stroke="none" target-height="125.880005" target-width="66.609985" target-x="830.83" target-y="565.97"></path><path d="M 867.89 646.61 C 878.21 640.34 889.79 636.52 901.00 632.04 C 912.21 627.56 923.40 622.17 931.81 613.50 C 935.30 609.90 938.94 605.44 943.96 605.37 C 948.85 605.30 945.39 630.53 941.46 630.90 C 939.18 631.12 937.34 632.76 935.67 634.33 C 913.78 654.96 892.43 677.73 864.44 688.75 C 860.84 690.17 856.90 691.39 853.16 690.42 C 844.40 688.16 842.07 676.81 845.82 669.82 C 850.98 660.19 858.58 652.27 867.89 646.61 Z" fill="#f6bea9" fill-rule="nonzero" group-id="2,9,19,40,61" node-id="716" stroke="none" target-height="86.09003" target-width="106.77997" target-x="842.07" target-y="605.3"></path></g><g node-id="837"><g node-id="850"><path d="M 936.42 630.70 L 950.31 630.05 C 953.63 628.66 955.86 624.40 959.33 625.38 C 963.16 626.46 968.89 628.38 975.81 632.68 C 975.55 620.12 959.07 614.43 948.79 611.95 C 943.78 610.74 938.37 609.78 933.80 612.16 L 924.32 619.69 L 936.42 630.70 Z" fill="#f6bea9" fill-rule="nonzero" group-id="2,9,19,40,62,75" node-id="723" stroke="none" target-height="22.899963" target-width="51.48999" target-x="924.32" target-y="609.78"></path></g><path d="M 970.48 623.31 C 962.27 615.48 953.63 608.10 944.62 601.21 C 942.72 599.76 940.80 598.32 938.96 596.81 C 938.65 597.36 938.31 597.93 937.91 598.53 C 934.57 603.60 933.80 612.15 933.80 612.15 C 933.80 612.15 940.46 611.98 944.94 616.91 C 949.41 621.84 946.20 627.84 947.96 630.99 C 949.58 633.90 964.30 639.94 987.54 648.18 C 987.32 646.54 987.15 644.94 986.76 643.63 C 984.27 635.34 976.53 629.08 970.48 623.31 Z" fill="#e74893" fill-rule="nonzero" group-id="2,9,19,40,62" node-id="726" stroke="none" target-height="51.369995" target-width="53.73999" target-x="933.8" target-y="596.81"></path><path d="M 988.69 636.11 C 983.29 628.87 948.67 594.71 944.93 592.28 C 941.63 590.13 941.29 592.69 938.96 596.81 C 940.81 598.32 942.73 599.76 944.62 601.21 C 953.63 608.10 962.27 615.48 970.48 623.31 C 976.53 629.08 984.27 635.34 986.75 643.63 C 987.14 644.93 987.31 646.54 987.53 648.18 C 988.35 648.47 989.18 648.77 990.03 649.06 C 991.74 649.66 993.48 648.22 993.18 646.42 C 992.73 643.75 991.58 639.98 988.69 636.11 Z" fill="#f3ecc4" fill-rule="nonzero" group-id="2,9,19,40,62" node-id="728" stroke="none" target-height="59.52997" target-width="54.51996" target-x="938.96" target-y="590.13"></path><path d="M 963.83 639.23 C 963.71 639.04 963.36 639.33 963.53 639.48 C 963.11 639.02 963.10 638.33 963.16 637.71 C 963.34 635.86 963.91 634.04 964.82 632.42" fill="none" group-id="2,9,19,40,62" node-id="730" stroke="#fdf6ed" stroke-linecap="butt" stroke-width="0.7954" target-height="7.0599976" target-width="1.7200317" target-x="963.1" target-y="632.42"></path><path d="M 960.22 639.32 C 959.88 638.32 960.06 637.22 960.32 636.20 C 960.82 634.24 961.59 632.36 962.61 630.62" fill="none" group-id="2,9,19,40,62" node-id="732" stroke="#fdf6ed" stroke-linecap="butt" stroke-width="0.7954" target-height="8.700012" target-width="2.7299805" target-x="959.88" target-y="630.62"></path><path d="M 957.43 638.04 C 957.36 635.27 958.05 632.48 959.41 630.07" fill="none" group-id="2,9,19,40,62" node-id="734" stroke="#fdf6ed" stroke-linecap="butt" stroke-width="0.7954" target-height="7.9699707" target-width="2.0499878" target-x="957.36" target-y="630.07"></path><path d="M 955.25 636.86 C 954.58 634.26 954.90 631.42 956.12 629.03" fill="none" group-id="2,9,19,40,62" node-id="736" stroke="#fdf6ed" stroke-linecap="butt" stroke-width="0.7954" target-height="7.829956" target-width="1.539978" target-x="954.58" target-y="629.03"></path></g></g><g node-id="816"><path d="M 854.13 523.09 C 854.13 523.09 843.56 558.14 840.62 572.34 C 837.68 586.54 837.19 594.87 837.19 594.87 L 888.13 612.99 C 888.13 612.99 905.27 600.26 912.62 590.46 C 919.97 580.66 927.31 563.03 925.84 552.26 C 924.37 541.48 920.45 533.16 920.45 533.16 L 854.13 523.09 Z" fill="#00293c" fill-rule="nonzero" group-id="2,9,19,41" node-id="742" stroke="none" target-height="89.89996" target-width="90.119995" target-x="837.19" target-y="523.09"></path><path d="M 899.40 532.18 L 935.78 533.61 C 935.78 533.61 947.40 568.42 938.58 588.51 C 931.30 605.10 924.87 617.41 924.87 617.41 L 899.40 612.02 L 899.40 532.18 Z" fill="#00293c" fill-rule="nonzero" group-id="2,9,19,41" node-id="744" stroke="none" target-height="85.22998" target-width="48" target-x="899.4" target-y="532.18"></path></g></g><g node-id="795"><g node-id="817"><path d="M 891.59 370.12 L 917.05 370.12 L 917.05 402.96 L 891.59 402.96 Z" fill="#f6bea9" fill-rule="nonzero" group-id="2,9,20,42" node-id="752" stroke="none" target-height="32.839996" target-width="25.45996" target-x="891.59" target-y="370.12"></path><path d="M 916.93 403.07 C 916.93 405.15 911.27 406.83 904.28 406.83 C 897.30 406.83 891.63 405.15 891.63 403.07 C 891.63 400.99 897.29 399.31 904.28 399.31 C 911.27 399.31 916.93 401.00 916.93 403.07 Z" fill="#f6bea9" fill-rule="nonzero" group-id="2,9,20,42" node-id="754" stroke="none" target-height="7.519989" target-width="25.299988" target-x="891.63" target-y="399.31"></path></g><path d="M 884.63 318.66 C 880.86 316.57 876.20 319.52 873.59 322.95 C 868.00 330.28 866.47 339.93 866.39 349.15 C 866.34 355.20 867.77 362.56 873.50 364.52 C 868.97 369.19 867.25 376.97 870.88 382.37 C 874.51 387.77 883.97 388.41 887.21 382.77 C 888.88 386.09 890.83 389.39 893.76 391.69 C 896.69 393.99 900.78 395.11 904.21 393.68 C 907.64 392.24 909.75 387.77 907.93 384.53 C 909.87 388.18 914.77 389.91 918.58 388.31 C 922.39 386.70 924.56 381.98 923.30 378.05 C 926.33 380.79 931.40 380.86 934.50 378.21 C 937.60 375.56 938.32 370.53 936.08 367.12 C 940.76 368.79 946.51 364.91 946.71 359.94 C 946.74 359.14 946.64 358.31 946.21 357.64 C 945.58 356.67 944.40 356.23 943.50 355.51 C 941.05 353.55 940.98 349.83 941.70 346.77 C 942.42 343.71 943.70 340.64 943.17 337.54 C 942.16 331.62 935.25 328.59 932.78 323.12 C 932.12 321.67 931.80 320.08 931.10 318.65 C 929.18 314.73 924.81 312.69 920.63 311.40 C 913.85 309.32 904.48 307.32 897.40 309.00 C 895.71 309.38 882.67 317.58 884.63 318.66 Z" fill="#00293c" fill-rule="nonzero" group-id="2,9,20" node-id="757" stroke="none" target-height="87.78998" target-width="80.39996" target-x="866.34" target-y="307.32"></path></g></g></g><g node-id="778"><path d="M 596.13 836.41 C 553.13 840.25 566.63 850.09 570.40 852.16 C 583.87 859.56 669.22 866.02 690.58 866.44 C 703.92 866.70 759.72 865.60 772.79 856.79 C 779.92 851.99 782.25 819.80 596.13 836.41 Z" fill="#3b5a80" fill-opacity="0.16" fill-rule="nonzero" group-id="3" node-id="764" stroke="none" target-height="46.900024" target-width="229.12" target-x="553.13" target-y="819.8"></path></g><g node-id="779"><path d="M 98.82 764.82 C 63.90 756.87 70.92 769.67 73.12 772.61 C 80.98 783.12 145.25 812.03 161.77 818.15 C 172.08 821.97 216.00 835.90 229.35 831.19 C 236.62 828.63 249.93 799.23 98.82 764.82 Z" fill="#3b5a80" fill-opacity="0.16" fill-rule="nonzero" group-id="4" node-id="769" stroke="none" target-height="79.03003" target-width="186.03" target-x="63.9" target-y="756.87"></path></g><path d="M 331.94 892.37 C 290.29 903.76 305.33 911.06 309.40 912.43 C 323.96 917.33 409.11 908.59 430.22 905.22 C 443.40 903.12 498.12 892.16 509.43 881.17 C 515.59 875.19 512.18 843.10 331.94 892.37 Z" fill="#3b5a80" fill-opacity="0.16" fill-rule="nonzero" group-id="5" node-id="774" stroke="none" target-height="74.23004" target-width="225.30002" target-x="290.29" target-y="843.1"></path></svg>