<?xml version="1.0" standalone="no"?><!DOCTYPE svg PUBLIC "-//W3C//DTD SVG 1.1//EN" "http://www.w3.org/Graphics/SVG/1.1/DTD/svg11.dtd"><svg height="1100" node-id="1" sillyvg="true" template-height="1100" template-width="1100" version="1.1" viewBox="0 0 1100 1100" width="1100" xmlns="http://www.w3.org/2000/svg" xmlns:xlink="http://www.w3.org/1999/xlink"><defs node-id="81"></defs><g node-id="259"><path d="M 258.55 809.67 C 320.47 809.53 385.21 800.93 446.94 802.62 C 619.30 807.33 788.85 802.67 961.21 807.38 C 987.99 808.11 1022.31 831.64 1023.48 843.21 C 1024.52 853.56 996.87 859.72 973.56 862.43 C 890.28 872.10 803.31 872.77 717.39 873.18 C 590.99 873.77 464.60 873.90 338.23 873.57 C 259.32 873.36 178.26 872.79 105.56 860.03 C 65.93 853.07 78.59 819.44 101.98 813.00 C 119.31 808.22 146.22 810.63 165.23 810.00 C 202.88 808.72 220.83 809.75 258.55 809.67 Z" fill="#3b5a80" fill-opacity="0.16" fill-rule="nonzero" group-id="1" node-id="87" stroke="none" target-height="72.97003" target-width="958.59" target-x="65.93" target-y="800.93"></path></g><g node-id="260"><path d="M 323.58 517.72 C 328.06 517.35 337.23 516.89 341.68 516.29 C 359.21 514.62 364.99 520.62 374.51 532.86 C 381.21 541.49 386.54 556.77 389.64 567.08 C 395.28 585.82 399.49 599.27 407.15 617.32 C 415.29 636.49 425.20 654.64 437.76 671.30 C 439.50 673.61 441.10 676.05 442.60 678.53 C 445.43 683.22 447.09 688.26 446.55 693.85 C 444.80 694.20 443.43 695.16 442.03 696.25 C 436.57 700.49 430.67 703.49 423.40 702.77 C 421.11 702.54 418.96 701.32 416.59 701.82 C 415.04 700.18 414.47 698.03 413.80 696.00 C 411.28 688.33 407.53 681.30 402.66 674.93 C 386.26 653.52 373.49 629.91 360.81 606.24 C 360.54 605.74 360.36 605.19 360.14 604.66 C 358.75 602.23 358.19 599.66 358.39 596.83 C 359.00 588.34 356.42 580.45 352.73 573.07 C 350.05 567.70 346.88 562.40 340.85 559.72 C 337.58 558.26 334.63 558.15 331.40 559.77 C 328.76 561.09 326.76 563.21 324.32 564.74 C 319.29 567.91 314.67 571.62 310.44 575.74 C 305.23 580.81 299.48 585.13 293.59 589.32 C 289.33 592.35 284.66 594.64 279.95 596.82 C 278.62 597.44 278.64 598.03 278.93 599.07 C 276.80 598.19 274.97 599.25 273.10 599.98 C 259.46 605.33 245.36 608.37 230.68 607.53 C 216.98 606.74 204.21 603.04 193.55 593.82 C 180.66 580.00 177.78 563.54 180.77 545.52 C 181.17 543.11 181.60 540.71 182.02 538.31 C 184.38 532.65 186.21 526.80 188.03 520.94 C 188.64 518.33 189.48 515.06 189.78 513.73 C 190.06 512.05 191.13 511.44 192.99 512.03 C 195.36 513.16 197.92 513.68 200.46 514.26 C 210.52 516.57 220.75 517.36 231.03 518.02 C 244.94 518.91 258.83 518.86 272.75 518.51 C 273.10 519.14 273.61 519.74 273.78 520.42 C 274.43 523.14 276.02 523.65 278.62 523.13 C 281.16 522.62 283.82 522.67 286.42 522.47 C 288.23 523.22 290.13 523.01 291.99 522.91 C 300.06 522.47 308.13 521.84 316.20 521.50 C 319.35 521.34 321.75 520.22 323.58 517.72 Z" fill="#333561" fill-rule="nonzero" group-id="2" node-id="92" stroke="none" target-height="192.04999" target-width="269.31" target-x="177.78" target-y="511.44"></path><path d="M 753.60 646.33 C 749.34 658.17 742.96 668.74 734.56 678.10 C 731.76 681.23 728.91 684.31 726.16 687.49 C 720.42 694.14 715.55 701.25 714.53 710.31 C 714.50 710.55 714.23 710.75 714.04 711.03 C 712.41 711.45 711.18 710.81 709.52 710.08 C 700.71 706.51 691.76 703.30 682.68 700.49 C 679.70 698.84 679.64 698.80 680.95 696.66 C 694.30 674.80 704.57 651.45 714.43 627.89 C 722.32 609.04 729.94 590.06 738.79 571.62 C 741.68 565.60 744.86 559.75 748.83 554.33 C 756.48 543.87 766.72 538.53 779.67 538.42 C 785.77 538.37 791.88 538.36 797.98 538.26 C 813.37 538.01 828.71 536.86 843.99 534.99 C 846.01 534.74 848.04 534.65 850.06 534.48 C 852.06 534.31 854.05 533.99 856.10 534.12 C 875.08 535.36 894.08 534.93 913.08 534.76 C 925.58 534.65 937.01 530.85 947.63 524.41 C 950.97 522.39 954.34 520.40 957.69 518.40 C 963.45 528.37 967.36 538.84 966.54 550.62 C 965.89 560.03 962.31 568.02 955.03 574.18 C 948.53 579.69 940.98 583.34 933.12 586.44 C 923.59 589.87 913.80 592.12 903.74 593.42 C 898.47 594.11 893.95 595.36 887.95 596.11 C 883.16 596.67 867.34 595.84 863.12 595.94 C 856.14 596.11 849.25 594.73 842.32 595.02 C 832.16 595.44 822.07 594.14 811.94 593.89 C 808.01 593.79 803.92 593.12 799.93 592.68 C 793.05 591.93 786.07 591.75 779.26 593.86 C 773.82 595.54 769.81 598.69 767.73 604.12 C 767.01 606.00 766.19 607.82 765.58 609.77 C 764.21 614.19 763.22 618.73 761.69 623.08 C 758.97 630.83 756.85 638.78 753.60 646.33 Z" fill="#333561" fill-rule="nonzero" group-id="2" node-id="94" stroke="none" target-height="193.04999" target-width="287.71997" target-x="679.64" target-y="518.4"></path><path d="M 154.93 373.42 C 155.93 368.74 159.50 366.26 163.18 363.97 C 169.30 360.17 175.88 357.27 182.52 354.51 C 183.84 353.96 185.25 353.59 186.36 352.62 C 187.07 352.57 187.85 352.70 188.48 352.45 C 198.99 348.15 210.34 348.02 221.27 345.84 C 219.61 349.35 218.00 352.88 216.26 356.36 C 214.87 359.15 214.87 361.81 216.23 364.65 C 218.24 368.84 220.69 372.76 223.28 376.59 C 225.82 380.34 228.83 383.63 232.99 385.71 C 235.73 387.08 238.65 388.16 241.65 388.13 C 247.36 388.07 252.71 386.15 257.94 384.00 C 261.26 382.63 261.65 381.66 260.80 378.05 C 260.47 376.63 260.00 375.27 259.58 373.89 C 258.13 369.19 256.84 364.48 257.02 359.43 C 257.13 356.49 257.99 353.72 258.14 350.82 C 263.41 351.82 268.37 353.87 273.39 355.65 C 277.68 357.17 281.95 358.17 286.50 357.83 C 297.32 359.00 305.67 364.74 312.80 372.44 C 318.64 378.74 322.92 386.13 326.72 393.80 C 328.33 397.05 329.57 398.02 325.54 401.15 C 325.21 401.40 322.71 403.03 321.78 403.77 C 315.70 408.62 309.30 413.05 302.48 416.76 C 298.90 418.71 299.16 420.25 298.45 425.00 C 295.94 439.57 296.41 454.18 297.79 468.82 C 298.83 479.79 299.80 490.77 300.80 501.74 C 296.30 501.86 291.74 501.57 287.33 502.23 C 283.89 502.75 280.75 502.35 277.48 501.64 C 274.52 501.00 271.50 500.64 268.51 500.15 C 259.65 498.70 250.66 498.61 241.76 497.62 C 231.76 496.50 221.95 494.45 212.99 490.01 C 204.09 485.60 195.83 479.98 187.92 473.82 C 177.40 465.62 175.04 454.85 176.44 442.47 C 176.93 438.17 177.23 433.84 177.62 429.53 C 179.98 429.87 181.28 428.80 182.27 426.64 C 184.74 421.25 186.46 415.68 187.44 409.83 C 188.20 405.28 188.83 400.73 189.12 396.13 C 189.29 393.46 188.19 390.99 188.25 388.41 C 188.34 384.69 186.84 381.35 185.47 378.16 C 183.84 374.36 181.35 370.90 178.45 367.81 C 175.48 364.65 173.27 364.11 169.18 365.71 C 164.96 367.37 161.20 369.70 157.95 372.89 C 157.17 373.67 156.32 375.33 154.93 373.42 Z" fill="#f4be31" fill-rule="nonzero" group-id="2" node-id="96" stroke="none" target-height="156.91" target-width="174.64001" target-x="154.93" target-y="345.84"></path><path d="M 794.63 284.04 C 792.61 278.08 795.88 267.46 799.06 261.52 C 803.96 252.34 814.84 245.99 833.39 245.21 C 848.01 244.60 852.84 239.97 869.23 246.63 C 893.02 256.30 904.74 296.20 906.46 306.53 C 907.48 312.68 908.60 318.81 910.58 324.76 C 913.93 334.84 918.33 339.14 934.21 347.40 C 950.10 355.65 968.13 369.36 972.03 384.68 C 975.41 397.95 976.96 402.12 975.56 416.50 C 974.16 430.88 968.82 442.85 967.56 451.68 C 965.11 468.90 1001.72 484.39 994.89 486.45 C 981.20 491.45 960.44 488.82 953.71 485.50 C 953.26 475.07 952.46 464.68 951.11 454.32 C 947.63 427.58 940.78 401.74 930.53 376.82 C 928.49 371.85 925.90 367.05 921.85 363.39 C 912.48 354.93 901.44 349.79 889.04 347.53 C 885.91 345.16 882.09 344.74 878.44 343.93 C 872.89 342.70 869.05 339.62 867.09 334.25 C 866.79 333.43 866.41 332.64 866.21 331.80 C 865.74 329.82 864.60 329.20 862.52 329.00 C 848.36 327.62 836.92 316.55 834.74 302.53 C 833.86 296.90 834.18 291.24 833.90 285.60 C 833.18 271.32 828.59 268.33 817.41 265.67 C 814.84 265.06 810.17 265.74 806.02 267.43 C 804.67 268.20 799.45 271.45 796.96 276.61 C 795.84 278.93 795.02 281.05 794.63 284.04 Z" fill="#333561" fill-rule="nonzero" group-id="2" node-id="98" stroke="none" target-height="251.48001" target-width="209.10999" target-x="792.61" target-y="239.97"></path><path d="M 889.05 347.51 C 901.45 349.77 912.49 354.92 921.86 363.37 C 925.91 367.03 928.50 371.83 930.54 376.80 C 940.79 401.72 947.64 427.56 951.12 454.30 C 952.47 464.66 953.27 475.05 953.72 485.48 C 953.89 490.56 954.07 495.63 954.24 500.71 C 954.39 505.13 955.30 509.36 957.73 513.12 C 958.95 515.01 959.33 516.82 957.83 518.71 C 954.48 520.71 951.11 522.70 947.77 524.72 C 937.15 531.16 925.72 534.95 913.22 535.07 C 894.22 535.24 875.22 535.67 856.24 534.43 C 854.20 534.30 847.87 535.28 844.45 535.26 C 850.37 529.08 856.15 521.01 857.51 512.41 C 862.74 511.45 869.54 509.34 872.91 508.58 C 889.06 501.75 899.34 497.78 910.11 483.64 C 917.21 474.32 922.14 463.88 924.78 452.36 C 926.43 445.12 927.46 437.76 927.14 430.45 C 926.86 424.02 926.34 417.48 924.76 411.15 C 925.67 410.70 926.57 410.22 927.50 409.81 C 930.91 408.31 931.07 408.31 930.82 404.77 C 930.61 401.91 930.16 399.03 929.49 396.24 C 927.80 389.24 926.10 382.30 922.54 375.85 C 917.02 365.85 909.87 358.24 898.60 354.68 C 895.06 353.56 892.89 354.72 891.01 356.71 C 889.16 358.67 887.23 360.67 885.91 363.15 C 884.51 365.76 884.30 368.68 883.36 371.34 C 881.34 377.09 882.20 382.68 882.61 388.45 C 882.96 393.39 884.23 398.13 884.76 403.01 C 885.27 407.72 885.94 412.45 887.17 417.07 C 887.60 418.68 888.12 419.77 889.88 419.90 C 889.93 422.80 889.72 425.74 890.08 428.60 C 891.18 437.27 891.35 445.94 889.70 454.52 C 888.71 459.69 886.39 464.36 882.32 468.02 C 877.11 472.71 871.18 476.30 865.16 479.77 C 861.93 481.63 858.77 482.25 855.02 484.43 C 851.68 478.43 847.36 473.14 843.15 467.77 C 835.40 457.87 832.08 446.19 829.66 434.16 C 829.32 432.45 829.03 430.73 828.81 429.01 C 828.35 425.94 827.47 425.29 823.55 423.35 C 821.78 422.43 808.96 416.28 803.43 410.69 C 802.70 409.96 799.39 406.57 798.81 406.00 C 793.49 401.25 808.72 380.78 812.25 374.31 C 814.06 371.00 816.07 367.82 818.96 365.31 C 823.80 361.10 828.82 360.63 834.46 363.82 C 835.07 364.16 835.71 364.44 836.54 364.85 C 837.24 363.62 838.00 362.26 838.62 361.16 C 840.29 364.67 840.39 368.47 839.59 372.33 C 838.61 377.04 837.05 381.51 835.31 385.96 C 833.18 391.39 831.82 396.96 832.22 402.90 C 832.62 408.76 836.31 412.50 842.11 412.91 C 849.77 413.46 855.42 409.40 860.71 404.84 C 867.85 398.68 871.86 390.55 874.15 381.52 C 875.50 376.21 876.58 370.81 878.27 365.60 C 880.46 358.82 883.81 352.57 889.05 347.51 Z" fill="#e15a56" fill-rule="nonzero" group-id="2" node-id="100" stroke="none" target-height="188.15997" target-width="165.84003" target-x="793.49" target-y="347.51"></path><path d="M 753.48 646.65 C 756.73 639.10 758.20 630.90 760.91 623.16 C 762.43 618.81 766.77 605.49 767.49 603.61 C 769.57 598.18 774.54 594.97 779.98 593.29 C 786.78 591.19 809.98 591.97 813.90 592.07 C 825.65 592.34 857.21 595.07 887.93 596.13 C 885.35 597.08 883.58 597.99 881.32 598.85 C 874.37 601.50 867.08 603.22 860.29 606.34 C 841.91 612.24 824.55 620.01 809.84 632.94 C 804.66 637.50 802.33 642.81 802.51 649.78 C 803.47 687.28 804.22 724.78 804.98 762.29 C 805.07 766.62 805.61 770.97 804.74 775.28 C 795.56 775.14 786.38 774.97 777.20 775.47 C 772.23 775.07 772.31 775.07 771.95 769.73 C 770.99 755.51 768.87 741.44 766.36 727.43 C 763.29 710.29 759.84 693.21 757.39 675.96 C 756.19 667.47 753.48 648.74 753.48 646.65 Z" fill="#41406f" fill-rule="nonzero" group-id="2" node-id="102" stroke="none" target-height="184.27997" target-width="134.45001" target-x="753.48" target-y="591.19"></path><path d="M 278.93 599.05 C 278.64 598.01 278.62 597.41 279.95 596.80 C 284.66 594.62 289.33 592.33 293.59 589.30 C 299.48 585.11 305.23 580.79 310.44 575.72 C 314.67 571.60 319.30 567.89 324.32 564.72 C 326.75 563.19 328.76 561.07 331.40 559.75 C 334.63 558.13 337.58 558.24 340.85 559.70 C 346.88 562.39 350.05 567.69 352.73 573.05 C 356.41 580.43 359.00 588.32 358.39 596.81 C 358.19 599.64 358.91 605.25 358.87 606.04 C 358.78 607.78 358.69 609.53 358.67 611.27 C 358.51 630.17 357.93 649.06 356.60 667.92 C 355.32 686.20 352.71 704.31 349.41 722.33 C 346.61 737.61 343.72 752.87 340.86 768.14 C 340.70 768.99 340.35 769.80 340.09 770.63 C 331.89 770.57 323.70 770.52 315.50 770.46 C 314.69 738.98 313.96 707.50 313.64 676.01 C 313.52 664.51 314.71 653.14 316.14 641.76 C 316.97 635.14 317.05 629.93 317.24 623.25 C 317.08 619.64 295.12 607.39 289.32 604.72 C 285.85 602.83 282.39 600.94 278.93 599.05 Z" fill="#41406f" fill-rule="nonzero" group-id="2" node-id="104" stroke="none" target-height="212.5" target-width="80.380005" target-x="278.62" target-y="558.13"></path><path d="M 471.76 530.81 C 442.11 530.79 412.47 530.80 382.82 530.80 C 382.09 530.80 381.37 530.81 380.64 530.80 C 377.82 530.80 376.78 529.36 376.78 526.88 C 376.78 522.52 376.86 518.16 376.75 513.80 C 376.70 511.61 377.33 510.68 379.71 510.71 C 380.58 510.72 381.45 510.73 382.32 510.73 C 500.18 510.73 618.04 510.73 735.90 510.68 C 737.80 510.68 762.79 510.79 766.25 510.68 C 768.70 510.60 770.67 512.20 773.12 511.75 C 776.50 511.12 780.12 510.80 783.42 511.05 C 792.75 511.74 802.09 512.58 811.42 513.39 C 811.40 518.17 811.31 522.96 811.38 527.74 C 811.42 529.94 810.66 530.98 808.37 530.81 C 807.07 530.71 805.76 530.80 804.46 530.80 C 775.18 530.80 745.90 530.79 716.63 530.83 C 714.97 530.83 708.96 530.83 707.52 530.83 C 631.98 530.83 556.44 530.82 480.90 530.84 C 479.51 530.84 473.47 530.81 471.76 530.81 Z" fill="#e3b1a5" fill-rule="nonzero" group-id="2" node-id="106" stroke="none" target-height="20.379974" target-width="434.71997" target-x="376.7" target-y="510.6"></path><path d="M 286.50 357.82 C 281.95 358.16 277.68 357.16 273.39 355.64 C 268.37 353.86 263.42 351.81 258.14 350.81 C 258.39 348.12 259.54 346.36 262.46 345.78 C 267.23 344.83 270.27 341.51 272.58 337.49 C 280.32 324.03 285.33 309.61 287.55 294.23 C 287.73 292.96 287.54 291.98 286.27 291.33 C 281.80 289.04 279.77 284.85 278.10 280.47 C 275.27 273.02 272.80 265.46 271.80 257.50 C 271.73 256.93 271.39 256.44 270.72 256.28 C 269.78 256.42 269.28 257.21 268.76 257.86 C 264.43 263.36 259.43 268.18 253.97 272.54 C 246.12 278.80 237.82 284.32 228.46 288.12 C 226.58 288.88 225.38 289.36 224.56 286.80 C 223.60 283.80 221.41 281.81 218.04 282.07 C 214.59 282.34 212.57 284.56 211.77 287.81 C 210.13 294.46 211.97 300.35 215.86 305.75 C 216.11 306.10 216.43 306.47 216.81 306.63 C 219.83 307.94 220.11 310.65 220.53 313.43 C 221.51 319.90 223.03 326.26 226.48 331.90 C 227.50 333.57 227.32 334.80 226.50 336.29 C 224.74 339.46 223.01 342.65 221.27 345.83 C 210.34 348.01 198.99 348.14 188.48 352.44 C 187.86 352.70 187.07 352.56 186.36 352.61 C 184.76 342.13 171.17 297.90 197.66 253.56 C 206.31 242.44 209.18 240.15 217.46 235.08 C 226.70 229.42 240.79 223.35 248.62 231.53 C 259.64 224.83 285.52 227.97 294.85 246.39 C 302.11 260.73 300.22 275.07 298.45 282.16 C 296.87 288.51 285.68 324.58 285.49 336.50 C 285.39 343.63 285.81 350.73 286.50 357.82 Z" fill="#ca4f33" fill-rule="nonzero" group-id="2" node-id="108" stroke="none" target-height="134.81" target-width="130.93999" target-x="171.17" target-y="223.35"></path><path d="M 476.79 530.83 C 477.31 530.83 479.51 530.84 480.91 530.84 C 556.45 530.82 631.99 530.83 707.53 530.83 C 708.97 530.83 710.43 530.84 711.69 530.84 C 711.69 536.25 709.66 538.38 704.99 538.38 C 671.40 538.38 637.81 538.38 604.22 538.37 C 598.56 538.37 599.37 538.24 599.37 543.35 C 599.36 638.45 599.37 733.56 599.38 828.66 C 599.38 834.08 598.84 833.42 604.37 833.44 C 611.20 833.46 618.04 833.57 624.87 833.43 C 636.81 833.19 648.64 833.77 660.43 835.93 C 671.25 837.92 682.18 839.23 693.04 841.25 C 625.49 841.25 557.93 841.25 490.38 841.25 C 490.37 841.12 490.35 840.98 490.34 840.85 C 496.75 839.86 503.17 838.86 509.58 837.89 C 518.19 836.60 526.82 835.40 535.42 834.02 C 537.73 833.65 540.03 833.45 542.35 833.45 C 554.86 833.45 567.36 833.45 579.87 833.44 C 583.96 833.44 583.64 833.69 583.64 829.69 C 583.63 807.44 583.64 785.19 583.64 762.94 C 583.64 690.23 583.64 617.52 583.64 544.81 C 583.64 544.08 583.63 543.36 583.64 542.63 C 583.66 538.32 584.11 538.37 579.40 538.37 C 546.97 538.38 514.54 538.38 482.12 538.37 C 478.84 538.37 476.83 537.15 476.83 532.95 C 476.81 532.52 476.80 531.26 476.79 530.83 Z" fill="#a85441" fill-rule="nonzero" group-id="2" node-id="110" stroke="none" target-height="310.43" target-width="234.9" target-x="476.79" target-y="530.82"></path><path d="M 889.05 347.51 C 883.81 352.56 880.46 358.82 878.25 365.62 C 876.56 370.82 875.47 376.22 874.13 381.54 C 871.84 390.58 867.83 398.70 860.69 404.86 C 855.40 409.43 849.75 413.48 842.09 412.93 C 836.29 412.52 832.60 408.78 832.20 402.92 C 831.80 396.98 833.16 391.41 835.29 385.98 C 837.04 381.53 838.59 377.06 839.57 372.35 C 840.37 368.49 837.55 349.31 832.27 349.30 C 828.65 349.29 806.28 362.27 802.55 351.87 L 802.53 351.84 C 799.21 344.48 799.38 334.44 798.13 325.60 C 797.63 322.02 789.41 322.88 789.77 319.41 C 790.03 316.95 795.86 305.49 796.27 300.78 C 794.75 292.59 794.59 284.23 794.62 284.04 C 795.07 279.55 795.95 277.82 797.07 275.49 C 799.69 271.37 801.64 265.89 816.20 264.45 C 830.22 263.07 838.02 275.94 838.40 283.71 C 838.68 289.35 838.37 295.01 839.24 300.64 C 841.42 314.66 847.79 318.07 863.96 325.93 C 872.43 330.05 872.88 342.69 878.43 343.92 C 882.10 344.73 885.92 345.14 889.05 347.51 Z" fill="#ecad9a" fill-rule="nonzero" group-id="2" node-id="112" stroke="none" target-height="150.41" target-width="99.640015" target-x="789.41" target-y="263.07"></path><path d="M 298.46 424.98 C 298.80 421.25 298.87 418.43 302.49 416.74 C 309.31 413.03 315.71 408.60 321.79 403.75 C 322.72 403.01 323.88 402.24 324.68 401.72 C 327.40 409.99 330.20 418.75 332.98 427.00 C 334.32 431.00 336.12 434.80 338.17 438.49 C 339.12 440.21 340.10 440.36 341.55 439.02 C 355.49 426.09 367.92 412.06 375.76 394.40 C 378.69 387.80 381.16 380.91 385.79 375.15 C 386.47 374.31 388.14 368.01 389.00 366.18 C 390.28 363.48 392.70 360.28 395.34 358.92 C 397.13 357.99 399.35 356.83 401.25 358.38 C 403.12 359.91 402.23 363.46 401.69 365.44 C 401.24 367.10 400.47 368.68 399.88 370.20 C 400.18 371.07 400.85 370.93 401.34 370.88 C 413.45 369.56 425.02 371.73 436.24 376.22 C 438.83 377.25 441.19 378.67 443.22 380.58 C 444.94 382.20 446.23 384.10 446.51 386.55 C 447.12 391.84 444.34 395.06 438.81 395.38 C 434.86 395.61 430.97 394.85 427.13 394.16 C 417.68 392.47 408.67 393.92 399.75 397.06 C 397.86 397.72 397.42 399.11 396.97 400.60 C 394.56 408.66 392.15 416.73 389.83 424.81 C 387.06 434.45 383.95 443.95 378.98 452.74 C 374.25 461.09 368.34 468.32 360.04 473.37 C 355.01 476.43 347.19 479.79 340.91 479.73 C 332.58 479.65 324.50 478.34 318.77 471.86 C 313.98 466.44 311.01 459.95 308.60 453.22 C 305.71 445.16 303.00 437.03 300.23 428.93 C 299.75 427.56 299.15 426.61 298.46 424.98 Z" fill="#f6bea5" fill-rule="nonzero" group-id="2" node-id="114" stroke="none" target-height="122.96002" target-width="148.66" target-x="298.46" target-y="356.83"></path><path d="M 811.43 513.39 C 802.10 512.58 792.77 511.74 783.43 511.05 C 780.13 510.80 776.51 511.12 773.13 511.75 C 770.67 512.21 768.26 512.29 765.80 512.37 C 762.34 512.48 758.96 513.04 755.44 513.09 C 749.42 513.19 745.71 512.92 741.62 509.68 C 737.84 505.88 736.31 501.47 737.86 496.18 C 738.39 494.57 739.61 492.68 742.81 492.50 C 745.13 492.37 746.99 492.41 749.31 492.33 C 756.27 492.08 763.23 491.82 770.20 491.54 C 773.51 491.40 776.58 491.96 779.01 494.44 C 779.91 495.37 780.82 495.53 782.12 495.24 C 791.39 493.20 800.83 493.30 810.26 492.95 C 819.52 492.61 828.85 492.73 837.96 490.57 C 843.86 489.17 877.09 472.71 882.29 468.02 C 886.36 464.36 888.67 459.69 889.67 454.52 C 891.32 445.94 891.15 437.27 890.05 428.60 C 889.69 425.74 889.90 422.80 889.85 419.90 C 897.84 418.49 905.68 416.51 913.45 414.20 C 917.19 413.09 920.85 411.68 924.74 411.15 C 926.32 417.49 926.84 424.02 927.12 430.45 C 927.44 437.76 926.42 445.12 924.76 452.36 C 922.13 463.88 917.19 474.32 910.09 483.64 C 899.33 497.78 883.53 507.48 857.49 512.41 C 845.84 514.61 830.26 513.40 816.64 513.31 C 814.91 513.31 813.17 513.37 811.43 513.39 Z" fill="#ecad9a" fill-rule="nonzero" group-id="2" node-id="116" stroke="none" target-height="103.45999" target-width="191.13" target-x="736.31" target-y="411.15"></path><path d="M 177.65 429.51 C 177.26 433.83 176.96 438.15 176.47 442.45 C 175.06 454.83 177.42 465.60 187.95 473.80 C 195.86 479.96 204.12 485.58 213.02 489.99 C 221.98 494.43 231.78 496.48 241.79 497.60 C 250.70 498.59 259.68 498.68 268.54 500.13 C 271.53 500.62 274.55 500.98 277.51 501.62 C 280.78 502.32 283.92 502.73 287.36 502.21 C 291.77 501.54 296.33 501.84 300.83 501.72 C 303.27 501.58 305.72 501.38 308.16 501.31 C 316.56 501.07 323.37 507.62 323.49 516.01 C 323.50 516.58 323.55 517.15 323.59 517.72 C 321.76 520.22 319.36 521.34 316.20 521.47 C 308.12 521.81 300.06 522.44 291.99 522.88 C 290.13 522.98 288.23 523.19 286.42 522.44 C 284.87 522.10 283.53 521.94 282.23 520.41 C 279.79 517.53 276.07 518.40 272.74 518.48 C 258.83 518.83 244.93 518.88 231.02 517.99 C 220.74 517.33 210.51 516.54 200.45 514.23 C 197.92 513.65 195.36 513.13 192.99 512.00 C 189.78 510.75 186.57 509.51 183.36 508.26 C 166.93 500.63 155.62 487.98 148.05 471.84 C 140.88 456.55 139.35 440.37 141.34 423.76 C 141.42 423.05 141.71 422.36 141.90 421.66 C 153.72 424.72 165.60 427.51 177.65 429.51 Z" fill="#f6bea5" fill-rule="nonzero" group-id="2" node-id="118" stroke="none" target-height="101.53" target-width="184.23999" target-x="139.35" target-y="421.66"></path><path d="M 801.40 408.64 C 802.11 409.35 802.69 409.96 803.42 410.69 C 808.95 416.27 823.33 423.15 823.54 423.35 C 817.69 432.00 812.36 441.00 806.06 449.35 C 798.59 459.25 789.53 467.19 778.23 472.47 C 776.37 473.34 774.49 474.14 772.47 474.36 C 763.55 475.31 759.95 472.30 757.35 466.53 C 753.80 458.61 754.17 450.71 755.72 442.66 C 759.32 424.00 762.19 405.24 763.48 386.26 C 763.69 383.22 764.91 367.64 764.09 363.21 C 760.48 357.30 758.96 353.87 759.16 353.43 C 761.70 346.65 790.47 342.01 791.69 342.24 C 793.93 342.50 791.44 356.10 791.44 356.10 C 790.87 359.68 790.19 362.81 789.25 365.93 C 789.13 366.32 788.16 377.96 787.95 382.28 C 787.50 391.82 789.16 418.23 790.16 419.97 C 791.73 418.41 800.86 408.95 801.40 408.64 Z" fill="#ecad9a" fill-rule="nonzero" group-id="2" node-id="120" stroke="none" target-height="133.29999" target-width="69.73999" target-x="753.8" target-y="342.01"></path><path d="M 209.91 831.74 C 209.93 829.70 209.98 827.67 209.98 825.63 C 209.99 754.95 209.99 684.28 210.00 613.60 C 214.34 613.60 218.68 613.60 223.02 613.61 C 223.01 685.28 223.01 756.96 223.00 828.63 C 223.00 829.21 223.05 829.80 223.00 830.37 C 222.85 832.09 223.68 832.64 225.31 832.62 C 230.40 832.56 235.49 832.60 240.57 832.60 C 244.35 832.60 248.13 832.52 251.91 832.62 C 255.31 832.70 256.27 833.73 256.48 837.06 C 256.97 844.82 256.25 845.59 248.48 845.58 C 227.40 845.57 206.32 845.57 185.24 845.56 C 184.22 845.56 183.20 845.63 182.19 845.54 C 178.63 845.19 177.74 843.59 177.91 838.00 C 178.03 834.01 179.06 832.72 182.53 832.63 C 186.31 832.53 190.09 832.62 193.87 832.60 C 198.96 832.58 204.04 832.55 209.13 832.53 C 209.72 832.60 210.03 832.39 209.91 831.74 Z" fill="#a85441" fill-rule="nonzero" group-id="2" node-id="122" stroke="none" target-height="232.03003" target-width="79.229996" target-x="177.74" target-y="613.6"></path><path d="M 910.10 606.64 C 910.11 663.36 910.12 720.07 910.14 776.79 C 910.15 794.82 910.27 831.04 910.27 832.50 C 919.27 832.54 931.21 832.56 940.21 832.62 C 941.75 832.62 943.91 833.19 943.86 835.98 C 943.86 836.85 943.91 841.53 943.87 843.03 C 943.91 845.29 941.30 845.59 940.28 845.59 C 918.78 845.59 870.78 845.56 869.55 845.56 C 865.29 845.56 865.35 844.23 865.34 841.17 C 865.33 839.52 865.29 836.52 865.29 835.37 C 865.29 834.11 865.62 832.86 867.51 832.72 C 876.06 832.52 889.41 832.50 897.25 832.44 C 897.25 832.19 897.26 827.70 897.26 826.54 C 897.26 753.24 897.25 679.95 897.25 606.65 C 901.54 606.64 905.82 606.64 910.10 606.64 Z" fill="#a85441" fill-rule="nonzero" group-id="2" node-id="124" stroke="none" target-height="238.95001" target-width="78.619995" target-x="865.29" target-y="606.64"></path><path d="M 416.58 701.82 C 418.96 701.32 421.10 702.54 423.39 702.77 C 430.66 703.48 436.56 700.49 442.02 696.25 C 443.42 695.16 444.80 694.20 446.54 693.85 C 449.93 693.94 452.05 696.01 454.00 698.48 C 458.97 704.74 464.24 710.71 470.43 715.84 C 478.23 722.30 487.00 726.31 497.17 727.15 C 499.03 727.30 500.90 727.72 502.68 728.30 C 509.07 730.37 511.64 735.69 509.47 742.04 C 507.35 748.26 502.43 751.17 496.48 752.27 C 485.42 754.32 474.84 753.12 465.37 746.40 C 465.25 746.32 465.12 746.25 465.00 746.17 C 459.74 742.31 454.09 741.42 447.77 743.27 C 440.85 745.29 434.02 744.37 427.40 741.62 C 422.90 739.75 420.26 736.65 419.43 731.67 C 418.01 723.21 416.76 714.76 416.87 706.16 C 416.90 704.70 416.69 703.26 416.58 701.82 Z" fill="#4f301b" fill-rule="nonzero" group-id="2" node-id="126" stroke="none" target-height="60.47003" target-width="95.06003" target-x="416.58" target-y="693.85"></path><path d="M 315.50 770.47 C 323.70 770.53 331.89 770.58 340.09 770.64 C 341.09 772.00 341.30 773.54 341.25 775.18 C 341.19 777.07 341.23 778.96 341.20 780.85 C 341.09 789.02 343.42 796.24 349.08 802.35 C 353.24 806.83 356.96 811.64 358.59 817.75 C 359.69 821.90 359.83 826.06 359.32 830.27 C 358.98 833.10 357.57 835.14 354.83 836.13 C 345.31 839.59 335.80 839.47 326.37 835.84 C 323.71 834.82 321.61 832.97 320.73 830.14 C 317.56 819.90 313.89 809.79 312.08 799.18 C 310.62 790.64 312.45 782.08 312.43 773.52 C 312.42 771.21 314.62 770.47 315.50 770.47 Z" fill="#4f301b" fill-rule="nonzero" group-id="2" node-id="128" stroke="none" target-height="69.120056" target-width="49.20999" target-x="310.62" target-y="770.47"></path><path d="M 177.65 429.51 C 165.60 427.51 153.73 424.72 141.91 421.67 C 141.12 421.31 140.35 420.91 139.55 420.58 C 137.73 419.83 137.28 418.57 137.97 416.76 C 142.11 406.00 145.10 394.79 150.07 384.37 C 151.79 380.75 153.12 376.98 154.93 373.42 C 156.44 371.18 163.41 366.62 169.37 365.10 C 173.63 364.01 175.51 364.63 178.48 367.79 C 181.38 370.88 184.85 373.85 186.48 377.65 C 187.85 380.84 189.80 388.12 189.79 394.93 C 189.78 399.55 188.23 405.27 187.46 409.82 C 186.48 415.67 184.76 421.24 182.29 426.63 C 181.31 428.79 180.01 429.85 177.65 429.51 Z" fill="#f0c255" fill-rule="nonzero" group-id="2" node-id="130" stroke="none" target-height="65.84" target-width="52.520004" target-x="137.28" target-y="364.01"></path><path d="M 706.59 719.22 C 708.32 719.94 709.29 721.05 709.43 723.10 C 710.13 733.67 710.98 744.24 711.76 754.80 C 711.82 755.63 712.11 756.68 711.24 757.18 C 710.19 757.78 709.27 757.02 708.54 756.34 C 707.32 755.22 706.73 753.75 706.58 752.10 C 706.43 750.51 706.39 748.90 706.09 747.34 C 705.02 741.75 700.13 738.95 694.65 740.67 C 690.94 741.84 688.08 744.31 685.20 746.74 C 679.49 751.54 673.25 755.46 666.26 758.07 C 656.07 761.88 645.72 762.81 635.21 759.37 C 632.44 758.46 629.80 757.24 627.41 755.59 C 624.48 753.56 624.45 751.05 627.21 748.85 C 628.11 748.14 629.17 747.62 630.19 747.08 C 643.92 739.75 655.77 730.08 665.96 718.35 C 668.92 714.95 668.92 714.95 673.11 716.46 C 675.23 718.20 677.28 720.02 679.47 721.67 C 683.22 724.50 687.39 725.47 692.11 724.68 C 697.32 723.81 702.02 721.74 706.59 719.22 Z" fill="#353661" fill-rule="nonzero" group-id="2" node-id="132" stroke="none" target-height="47.859985" target-width="87.65997" target-x="624.45" target-y="714.95"></path><path d="M 808.36 788.82 C 809.90 789.87 809.89 791.56 810.01 793.12 C 810.75 803.25 811.43 813.39 812.13 823.53 C 812.16 823.96 812.18 824.40 812.16 824.84 C 812.13 825.39 812.26 826.04 811.61 826.33 C 810.87 826.67 810.20 826.43 809.58 825.98 C 807.92 824.77 807.40 822.93 807.08 821.07 C 806.86 819.79 806.99 818.46 806.84 817.16 C 806.10 811.02 800.96 807.89 795.14 810.03 C 791.94 811.21 789.42 813.42 786.91 815.63 C 779.39 822.24 770.96 827.11 761.14 829.50 C 751.60 831.82 742.46 831.00 733.70 826.53 C 732.67 826.00 731.64 825.44 730.72 824.74 C 727.91 822.59 727.90 820.15 730.71 817.95 C 731.61 817.24 732.66 816.70 733.68 816.14 C 746.69 809.00 757.80 799.56 767.38 788.27 C 771.10 783.89 771.71 782.26 776.20 786.46 C 777.34 787.56 778.45 788.70 779.63 789.77 C 784.46 794.16 790.01 795.28 796.21 793.30 C 798.70 792.50 801.15 791.63 803.48 790.41 C 804.99 789.60 806.52 788.72 808.36 788.82 Z" fill="#353661" fill-rule="nonzero" group-id="2" node-id="134" stroke="none" target-height="49.559998" target-width="84.359985" target-x="727.9" target-y="782.26"></path><path d="M 223.01 613.62 C 218.67 613.62 214.33 613.62 209.99 613.61 C 188.07 613.58 166.16 613.56 144.24 613.52 C 142.51 613.52 140.79 613.58 139.07 613.06 C 134.54 611.70 131.18 607.22 131.74 603.08 C 132.46 597.80 136.10 594.40 141.40 594.38 C 157.22 594.32 173.04 594.36 188.86 594.32 C 190.42 594.32 192.06 594.72 193.54 593.79 C 204.20 603.01 216.97 606.72 230.67 607.50 C 245.36 608.34 259.45 605.31 273.09 599.95 C 274.96 599.22 276.79 598.16 278.92 599.04 C 282.38 600.93 285.84 602.82 289.30 604.71 C 289.00 605.36 288.68 606.00 288.41 606.66 C 286.57 611.18 283.27 613.53 278.34 613.52 C 272.67 613.51 267.01 613.51 261.34 613.52 C 248.58 613.56 235.79 613.59 223.01 613.62 Z" fill="#e3b1a5" fill-rule="nonzero" group-id="2" node-id="136" stroke="none" target-height="19.830017" target-width="158.12" target-x="131.18" target-y="593.79"></path><path d="M 910.10 606.64 C 905.82 606.64 901.54 606.64 897.25 606.64 C 886.66 606.64 876.07 606.64 865.48 606.62 C 863.75 606.62 862.00 606.83 860.29 606.33 C 867.09 603.21 874.37 601.49 881.33 598.84 C 883.59 597.98 884.67 597.20 887.62 596.24 C 899.37 594.37 898.59 594.42 903.86 593.74 C 913.92 592.43 923.71 590.19 933.24 586.76 C 934.65 587.85 936.31 587.42 937.87 587.43 C 948.92 587.47 959.97 587.46 971.02 587.45 C 972.92 587.45 974.76 587.55 976.53 588.42 C 980.33 590.28 982.79 594.48 982.19 598.32 C 981.51 602.64 978.10 606.02 973.77 606.57 C 972.62 606.71 971.45 606.63 970.28 606.63 C 950.23 606.62 930.17 606.63 910.10 606.64 Z" fill="#e3b1a5" fill-rule="nonzero" group-id="2" node-id="138" stroke="none" target-height="20.070007" target-width="122.5" target-x="860.29" target-y="586.76"></path><path d="M 706.59 719.22 C 702.02 721.74 697.32 723.81 692.10 724.69 C 687.39 725.48 683.21 724.51 679.46 721.68 C 677.28 720.03 675.22 718.21 673.10 716.47 C 676.38 711.27 680.19 706.02 682.80 700.42 C 691.89 703.23 700.83 706.44 709.65 710.01 C 708.35 712.85 707.17 716.12 706.59 719.22 Z" fill="#e68267" fill-rule="nonzero" group-id="2" node-id="140" stroke="none" target-height="25.059998" target-width="36.55005" target-x="673.1" target-y="700.42"></path><path d="M 807.40 788.86 C 805.87 789.25 805.00 789.60 803.46 790.41 C 801.14 791.63 798.68 792.50 796.19 793.30 C 790.00 795.28 784.45 794.16 779.61 789.77 C 778.44 788.70 777.32 787.57 776.18 786.46 C 776.72 782.82 777.52 779.20 777.20 775.47 C 786.38 774.97 795.57 775.14 804.74 775.28 C 805.40 778.89 806.20 782.49 806.67 786.13 C 806.85 787.45 807.17 788.06 807.40 788.86 Z" fill="#e68267" fill-rule="nonzero" group-id="2" node-id="142" stroke="none" target-height="20.310059" target-width="31.220032" target-x="776.18" target-y="774.97"></path><path d="M 188.02 520.92 C 186.20 526.77 184.37 532.62 182.01 538.29 C 172.75 540.75 163.39 542.61 153.77 542.90 C 151.79 542.96 149.84 542.88 148.65 542.50 C 163.48 540.23 175.41 532.59 183.59 519.17 C 184.34 517.94 185.00 516.65 185.71 515.38 C 186.48 517.23 187.25 519.07 188.02 520.92 Z" fill="#ca4f33" fill-rule="nonzero" group-id="2" node-id="144" stroke="none" target-height="27.580017" target-width="39.37001" target-x="148.65" target-y="515.38"></path><path d="M 188.02 520.92 C 187.25 519.07 186.47 517.22 185.70 515.38 C 184.92 513.01 184.14 510.64 183.36 508.27 C 186.57 509.52 189.78 510.77 192.99 512.01 C 191.13 511.41 190.57 512.34 190.13 514.04 C 189.70 515.58 188.77 518.42 188.02 520.92 Z" fill="#f4be31" fill-rule="nonzero" group-id="2" node-id="146" stroke="none" target-height="12.649994" target-width="9.630005" target-x="183.36" target-y="508.27"></path><path d="M 209.91 831.74 C 210.03 832.39 209.72 832.60 209.12 832.53 C 209.38 832.27 209.65 832.01 209.91 831.74 Z" fill="#e3b1a5" fill-rule="nonzero" group-id="2" node-id="148" stroke="none" target-height="0.85998535" target-width="0.91000366" target-x="209.12" target-y="831.74"></path><path d="M 270.41 518.55 C 273.74 518.47 280.13 516.74 282.30 520.04 C 283.59 521.57 286.59 522.56 288.14 522.90 C 285.53 523.10 282.05 522.62 278.67 523.84 C 276.07 524.36 272.56 524.86 271.91 522.14 C 271.75 521.46 270.77 519.18 270.41 518.55 Z" fill="#f4be31" fill-rule="nonzero" group-id="2" node-id="150" stroke="none" target-height="8.119995" target-width="17.730011" target-x="270.41" target-y="516.74"></path><path d="M 221.27 345.84 C 223.01 342.66 224.74 339.47 226.50 336.30 C 227.32 334.82 227.50 333.59 226.48 331.91 C 223.03 326.26 221.51 319.91 220.53 313.44 C 220.11 310.66 219.83 307.95 216.81 306.64 C 216.43 306.48 216.11 306.10 215.86 305.76 C 211.97 300.36 210.13 294.47 211.77 287.82 C 212.58 284.57 214.59 282.35 218.04 282.08 C 221.40 281.82 223.59 283.81 224.56 286.81 C 225.38 289.37 226.58 288.89 228.46 288.13 C 237.83 284.33 246.13 278.82 253.97 272.55 C 259.43 268.19 264.43 263.37 268.76 257.87 C 269.27 257.22 269.78 256.42 270.72 256.29 C 271.40 256.45 271.73 256.94 271.80 257.51 C 272.80 265.47 275.27 273.03 278.10 280.48 C 279.77 284.86 281.80 289.05 286.27 291.34 C 287.54 291.99 287.73 292.97 287.55 294.24 C 285.33 309.62 280.32 324.04 272.58 337.50 C 270.27 341.52 268.26 345.46 263.49 346.41 C 260.56 346.99 258.40 348.13 258.14 350.83 C 257.99 353.72 257.12 356.50 257.02 359.44 C 256.84 364.49 258.13 369.20 259.58 373.90 C 260.01 375.28 260.47 376.64 260.80 378.06 C 261.65 381.66 261.26 382.64 257.94 384.01 C 252.71 386.16 247.36 388.08 241.65 388.14 C 238.65 388.17 235.73 387.09 232.99 385.72 C 228.84 383.65 225.82 380.35 223.28 376.60 C 220.69 372.77 218.24 368.85 216.23 364.66 C 214.87 361.82 214.87 359.17 216.26 356.37 C 218.00 352.88 219.61 349.35 221.27 345.84 Z" fill="#f6bea5" fill-rule="nonzero" group-id="2" node-id="152" stroke="none" target-height="131.88" target-width="77.600006" target-x="210.13" target-y="256.29"></path><path d="M 924.74 411.16 C 920.84 411.69 917.19 413.10 913.45 414.21 C 905.68 416.52 897.83 418.50 889.85 419.91 C 888.09 419.79 887.56 418.69 887.14 417.08 C 885.91 412.46 885.24 407.72 884.73 403.02 C 884.20 398.13 882.93 393.39 882.58 388.46 C 882.17 382.68 881.31 377.09 883.33 371.35 C 884.26 368.69 884.48 365.77 885.88 363.16 C 887.21 360.69 889.14 358.68 890.98 356.72 C 892.86 354.72 895.04 353.57 898.57 354.69 C 909.84 358.25 916.99 365.86 922.51 375.86 C 926.08 382.32 927.78 389.25 929.46 396.25 C 930.13 399.04 930.59 401.92 930.79 404.78 C 931.05 408.32 930.89 408.32 927.47 409.82 C 926.55 410.23 925.65 410.71 924.74 411.16 Z" fill="#d75253" fill-rule="nonzero" group-id="2" node-id="154" stroke="none" target-height="66.34" target-width="49.73999" target-x="881.31" target-y="353.57"></path><g node-id="262"><path d="M 792.70 327.24 L 787.26 312.66 L 733.75 336.35 L 737.97 347.66 L 742.19 358.97 L 798.13 341.82 Z" fill="#ffffff" fill-rule="nonzero" group-id="2,4" node-id="158" stroke="none" target-height="46.309998" target-width="64.380005" target-x="733.75" target-y="312.66"></path><g node-id="266"><path d="M 776.26 322.63 C 776.26 322.63 779.69 331.16 779.21 331.73 C 778.73 332.29 772.52 320.11 772.52 320.11 L 767.33 322.53 C 767.33 322.53 771.37 333.74 770.57 334.18 C 769.77 334.62 764.61 323.91 764.61 323.91 L 759.86 326.34 C 759.86 326.34 762.73 332.74 761.07 333.74 C 758.59 335.24 757.55 331.16 757.55 331.16 L 756.79 328.19 L 752.16 330.29 C 752.16 330.29 758.15 352.88 759.25 354.11 C 760.35 355.34 791.98 347.15 792.46 343.55 C 792.94 339.95 780.36 315.33 780.36 315.33 L 774.97 319.74 L 776.26 322.63 Z" fill="#ee8367" fill-opacity="0.46" fill-rule="nonzero" group-id="2,4,8" node-id="162" stroke="none" target-height="40.01001" target-width="40.78003" target-x="752.16" target-y="315.33"></path></g><path d="M 752.95 329.95 L 736.25 337.34 L 739.84 346.96 L 743.43 356.57 L 794.76 340.84 Z" fill="#e95513" fill-rule="nonzero" group-id="2,4" node-id="165" stroke="none" target-height="26.619995" target-width="58.51001" target-x="736.25" target-y="329.95"></path></g><path d="M 773.05 344.35 C 774.11 341.86 773.82 340.37 771.20 340.68 C 771.06 340.70 770.93 340.80 770.79 340.82 C 769.15 341.09 766.89 342.13 766.28 340.00 C 765.79 338.30 767.93 337.17 769.40 336.30 C 770.51 335.64 771.76 335.18 772.98 334.76 C 778.79 332.75 781.50 333.59 785.07 338.15 C 785.69 339.12 787.70 342.60 788.76 346.92 C 789.76 350.61 788.49 354.62 785.32 356.19 C 781.98 357.84 778.06 357.65 774.53 355.77 C 772.21 354.53 772.26 346.21 773.05 344.35 Z" fill="#efab93" fill-rule="nonzero" group-id="2" node-id="168" stroke="none" target-height="25.089996" target-width="23.970032" target-x="765.79" target-y="332.75"></path><path d="M 767.09 320.05 C 767.29 319.21 769.07 317.60 770.83 318.06 C 772.15 318.40 774.21 322.62 771.92 323.84 C 768.93 325.43 766.39 322.81 767.09 320.05 Z" fill="#efab93" fill-rule="nonzero" group-id="2" node-id="170" stroke="none" target-height="7.8299866" target-width="7.8200073" target-x="766.39" target-y="317.6"></path><path d="M 778.30 320.49 C 774.00 322.85 774.72 318.12 774.72 318.12 C 775.13 316.04 778.45 314.56 780.39 315.34 C 780.88 315.56 780.88 319.07 778.30 320.49 Z" fill="#efab93" fill-rule="nonzero" group-id="2" node-id="172" stroke="none" target-height="8.290009" target-width="6.880005" target-x="774" target-y="314.56"></path><path d="M 763.75 322.06 C 764.47 322.31 764.87 324.93 765.04 326.73 C 765.13 327.65 765.16 328.81 764.17 329.14 C 763.22 329.45 760.54 329.05 759.87 326.34 C 758.99 322.76 761.63 321.62 763.75 322.06 Z" fill="#efab93" fill-rule="nonzero" group-id="2" node-id="174" stroke="none" target-height="7.830017" target-width="6.169983" target-x="758.99" target-y="321.62"></path><path d="M 756.20 326.47 C 754.54 324.57 752.54 326.16 752.06 327.46 C 751.43 329.47 752.57 331.30 753.49 332.95 C 753.93 333.73 754.59 334.32 755.61 334.14 C 756.65 333.96 756.98 333.09 757.19 332.25 C 757.56 330.73 756.92 328.06 756.20 326.47 Z" fill="#efab93" fill-rule="nonzero" group-id="2" node-id="176" stroke="none" target-height="9.75" target-width="6.130005" target-x="751.43" target-y="324.57"></path></g><g node-id="261"><g node-id="263"><g node-id="267"><path d="M 476.92 420.42 L 479.80 419.88 L 492.41 488.05 L 489.53 488.58 Z" fill="#ee7b1c" fill-rule="nonzero" group-id="3,5,9" node-id="185" stroke="none" target-height="68.69531" target-width="15.4904175" target-x="476.91763" target-y="419.88477"></path></g><path d="M 479.82 419.91 L 479.81 419.87 L 476.93 420.40 L 477.43 423.12 C 478.21 422.04 479.01 420.97 479.82 419.91 Z" fill="#e7551b" fill-rule="nonzero" group-id="3,5" node-id="188" stroke="none" target-height="3.25" target-width="2.8900146" target-x="476.93" target-y="419.87"></path><path d="M 481.69 430.01 L 480.66 424.42 C 479.84 425.55 479.06 426.70 478.32 427.88 L 479.39 433.67 C 480.15 432.45 480.92 431.23 481.69 430.01 Z" fill="#e7551b" fill-rule="nonzero" group-id="3,5" node-id="190" stroke="none" target-height="9.25" target-width="3.369995" target-x="478.32" target-y="424.42"></path><path d="M 486.09 453.76 L 484.75 446.54 C 483.96 447.81 483.20 449.09 482.48 450.39 L 483.78 457.40 C 484.55 456.19 485.32 454.98 486.09 453.76 Z" fill="#e7551b" fill-rule="nonzero" group-id="3,5" node-id="192" stroke="none" target-height="10.859985" target-width="3.6099854" target-x="482.48" target-y="446.54"></path><path d="M 490.53 477.76 L 489.01 469.53 C 488.24 470.76 487.47 472.00 486.72 473.24 L 488.18 481.12 C 489.04 480.09 489.82 478.94 490.53 477.76 Z" fill="#e7d968" fill-opacity="0.5" fill-rule="nonzero" group-id="3,5,10" node-id="196" stroke="none" target-height="11.589996" target-width="3.8099976" target-x="486.72" target-y="469.53"></path><path d="M 488.91 485.14 L 489.55 488.57 L 492.43 488.04 L 491.39 482.43 C 490.64 483.41 489.82 484.32 488.91 485.14 Z" fill="#e7d968" fill-opacity="0.5" fill-rule="nonzero" group-id="3,5,11" node-id="201" stroke="none" target-height="6.1400146" target-width="3.519989" target-x="488.91" target-y="482.43"></path><path d="M 488.09 464.57 L 487.01 458.72 C 486.25 459.92 485.47 461.11 484.69 462.30 L 485.78 468.21 C 486.54 466.99 487.31 465.78 488.09 464.57 Z" fill="#e7d968" fill-opacity="0.5" fill-rule="nonzero" group-id="3,5,12" node-id="206" stroke="none" target-height="9.48999" target-width="3.399994" target-x="484.69" target-y="458.72"></path><path d="M 483.85 441.67 L 482.61 434.99 C 481.84 436.21 481.08 437.44 480.31 438.67 L 481.53 445.27 C 482.28 444.05 483.06 442.85 483.85 441.67 Z" fill="#e7551b" fill-rule="nonzero" group-id="3,5" node-id="209" stroke="none" target-height="10.279999" target-width="3.5400085" target-x="480.31" target-y="434.99"></path></g><g node-id="264"><path d="M 492.35 452.84 L 476.79 452.84 L 480.28 511.25 L 492.35 511.25 L 504.42 511.25 L 507.91 452.84 Z" fill="#ffffff" fill-rule="nonzero" group-id="3,6" node-id="214" stroke="none" target-height="58.410004" target-width="31.119995" target-x="476.79" target-y="452.84"></path><path d="M 492.35 467.68 L 479.61 467.68 L 482.09 509.25 L 492.35 509.25 L 502.61 509.25 L 505.10 467.68 Z" fill="#e14035" fill-rule="nonzero" group-id="3,6" node-id="216" stroke="none" target-height="41.570007" target-width="25.49002" target-x="479.61" target-y="467.68"></path></g><g node-id="265"><path d="M 488.57 467.55 L 485.80 452.63 L 482.82 452.63 L 485.58 467.55 Z" fill="#ee7b1c" fill-rule="nonzero" group-id="3,7" node-id="221" stroke="none" target-height="14.919983" target-width="5.75" target-x="482.82" target-y="452.63"></path><path d="M 482.82 452.63 L 483.78 457.80 C 484.55 456.59 485.32 455.38 486.09 454.16 L 485.81 452.63 L 482.82 452.63 Z" fill="#e7551b" fill-rule="nonzero" group-id="3,7" node-id="223" stroke="none" target-height="5.169983" target-width="3.269989" target-x="482.82" target-y="452.63"></path><path d="M 486.45 467.55 C 486.99 466.69 487.54 465.83 488.09 464.97 L 487.01 459.12 C 486.25 460.32 485.47 461.51 484.69 462.70 L 485.59 467.55 L 486.45 467.55 Z" fill="#e7551b" fill-rule="nonzero" group-id="3,7" node-id="225" stroke="none" target-height="8.429993" target-width="3.399994" target-x="484.69" target-y="459.12"></path></g></g><path d="M 236.30 286.40 C 238.06 285.68 240.64 285.96 243.23 285.95 C 245.60 285.91 249.06 286.80 251.26 287.55 C 255.61 289.10 259.25 291.60 262.50 294.96 C 260.29 294.06 258.37 293.03 256.25 292.26 C 254.15 291.47 250.01 289.96 247.75 289.37 C 245.50 288.79 240.88 287.71 236.30 286.40 Z" fill="#ca4f33" fill-rule="nonzero" node-id="229" stroke="none" target-height="9.279999" target-width="26.199997" target-x="236.3" target-y="285.68"></path><path d="M 272.34 296.94 C 273.76 296.09 275.33 295.62 276.91 295.32 C 278.49 295.01 280.10 294.92 281.71 294.96 C 284.91 295.11 288.13 295.81 290.92 297.56 C 289.52 297.37 287.86 297.15 286.32 297.14 L 281.85 296.97 C 278.80 296.84 275.56 296.82 272.34 296.94 Z" fill="#ca4f33" fill-rule="nonzero" node-id="231" stroke="none" target-height="2.6399841" target-width="18.580017" target-x="272.34" target-y="294.92"></path><path d="M 799.98 294.22 C 801.88 293.64 803.17 292.99 805.14 292.85 C 812.69 292.02 823.91 294.90 823.89 295.74 C 823.87 296.59 814.40 295.08 810.91 294.97 C 807.42 294.85 802.87 295.85 802.87 295.85 C 799.12 296.06 798.08 294.79 799.98 294.22 Z" fill="#333561" fill-rule="nonzero" node-id="233" stroke="none" target-height="4.5700073" target-width="25.829956" target-x="798.08" target-y="292.02"></path><path d="M 266.09 310.39 C 265.12 310.83 266.62 314.13 267.43 318.19 C 268.30 322.58 263.38 321.60 260.89 323.55 C 260.89 323.55 263.62 323.45 266.98 323.55 C 270.34 323.66 271.15 321.33 270.25 319.33 C 269.18 316.96 267.06 309.95 266.09 310.39 Z" fill="#efab93" fill-rule="nonzero" node-id="235" stroke="none" target-height="13.709991" target-width="10.259979" target-x="260.89" target-y="309.95"></path><path d="M 259.47 328.80 C 258.27 329.40 257.34 330.00 258.30 333.28 C 258.82 335.05 259.81 336.03 260.61 336.32 C 262.60 337.06 265.94 330.52 263.06 329.20 C 260.20 327.88 259.47 328.80 259.47 328.80 Z" fill="#f09176" fill-rule="nonzero" node-id="237" stroke="none" target-height="9.179993" target-width="8.600006" target-x="257.34" target-y="327.88"></path><path d="M 285.16 304.88 C 285.19 304.41 283.67 305.19 281.98 304.55 C 280.60 304.03 278.29 302.65 276.86 302.37 C 274.06 301.81 272.58 301.95 271.64 304.27 C 271.48 304.66 272.58 303.87 273.67 303.63 C 274.55 303.43 275.53 303.77 276.67 304.07 C 277.92 304.40 279.94 305.00 281.62 305.38 C 283.08 305.70 285.16 304.88 285.16 304.88 Z" fill="#ca4f33" fill-rule="nonzero" node-id="239" stroke="none" target-height="3.8900146" target-width="13.709991" target-x="271.48" target-y="301.81"></path><path d="M 255.74 301.40 C 255.90 299.94 255.90 298.80 254.99 297.91 C 252.69 295.67 247.29 295.42 243.82 295.50 C 240.64 295.57 238.24 294.07 237.75 294.32 C 237.45 294.47 240.99 296.58 243.03 296.85 C 246.42 297.30 247.13 297.42 248.63 297.56 C 250.13 297.70 251.97 298.30 253.19 299.18 C 254.91 300.44 255.68 301.99 255.74 301.40 Z" fill="#ca4f33" fill-rule="nonzero" node-id="241" stroke="none" target-height="7.919983" target-width="18.449997" target-x="237.45" target-y="294.07"></path><path d="M 276.16 303.71 C 275.41 303.40 273.81 306.28 275.69 307.29 C 277.32 308.17 279.40 307.12 279.75 305.11 C 279.93 304.04 279.61 303.96 277.72 305.00 C 276.87 305.48 276.91 304.01 276.16 303.71 Z" fill="#ca4f33" fill-rule="nonzero" node-id="243" stroke="none" target-height="4.7700195" target-width="6.119995" target-x="273.81" target-y="303.4"></path><path d="M 251.49 297.70 C 251.49 297.70 252.36 299.25 250.17 300.74 C 249.15 301.44 247.65 301.46 246.69 300.78 C 245.60 300.01 245.15 298.42 246.12 297.53 C 248.07 295.73 246.92 300.23 249.93 297.54 C 250.72 296.84 251.49 297.70 251.49 297.70 Z" fill="#ca4f33" fill-rule="nonzero" node-id="245" stroke="none" target-height="5.7299805" target-width="7.2100067" target-x="245.15" target-y="295.73"></path><path d="M 274.24 306.52 C 274.24 306.52 279.54 307.68 281.13 307.70 C 281.13 307.70 278.40 308.76 273.97 307.06 C 270.29 305.65 274.24 306.52 274.24 306.52 Z" fill="#ca4f33" fill-rule="nonzero" node-id="247" stroke="none" target-height="3.1100159" target-width="10.839996" target-x="270.29" target-y="305.65"></path><path d="M 244.25 300.02 C 244.25 300.02 249.55 301.18 251.14 301.20 C 251.14 301.20 248.41 302.26 243.98 300.56 C 240.31 299.16 244.25 300.02 244.25 300.02 Z" fill="#ca4f33" fill-rule="nonzero" node-id="249" stroke="none" target-height="3.100006" target-width="10.830002" target-x="240.31" target-y="299.16"></path><path d="M 798.94 334.39 C 798.94 335.81 799.90 342.70 800.14 342.93 C 801.31 344.10 803.98 335.05 801.83 333.73 C 799.68 332.42 798.94 334.39 798.94 334.39 Z" fill="#da725a" fill-rule="nonzero" node-id="251" stroke="none" target-height="11.679993" target-width="5.039978" target-x="798.94" target-y="332.42"></path><path d="M 820.43 301.10 C 820.36 300.48 818.56 301.86 816.20 301.44 C 814.28 301.10 810.93 299.86 809.00 299.83 C 805.20 299.77 803.31 300.31 802.65 303.58 C 802.54 304.13 803.78 302.84 805.15 302.25 C 806.25 301.78 807.62 301.99 809.18 302.10 C 810.89 302.22 813.67 302.53 815.96 302.61 C 817.92 302.67 820.43 301.10 820.43 301.10 Z" fill="#333561" fill-rule="nonzero" node-id="253" stroke="none" target-height="4.360016" target-width="17.890015" target-x="802.54" target-y="299.77"></path><path d="M 806.35 302.07 C 805.28 301.96 804.31 306.21 807.09 306.81 C 809.49 307.33 811.75 305.21 811.45 302.53 C 811.29 301.10 810.85 301.11 808.83 303.15 C 807.91 304.06 807.41 302.18 806.35 302.07 Z" fill="#333561" fill-rule="nonzero" node-id="255" stroke="none" target-height="6.2299805" target-width="7.4400024" target-x="804.31" target-y="301.1"></path><path d="M 806.42 306.10 C 806.42 306.10 811.92 306.36 814.00 306.00 C 814.00 306.00 810.99 307.55 806.19 306.88 C 801.02 306.16 806.42 306.10 806.42 306.10 Z" fill="#333561" fill-rule="nonzero" node-id="257" stroke="none" target-height="1.5499878" target-width="12.97998" target-x="801.02" target-y="306"></path></svg>