<?xml version="1.0" standalone="no"?><!DOCTYPE svg PUBLIC "-//W3C//DTD SVG 1.1//EN" "http://www.w3.org/Graphics/SVG/1.1/DTD/svg11.dtd"><svg height="288" node-id="1" sillyvg="true" template-height="288" template-width="147" version="1.1" viewBox="0 0 147 288" width="147" xmlns="http://www.w3.org/2000/svg" xmlns:xlink="http://www.w3.org/1999/xlink"><defs node-id="45"></defs><g node-id="140"><path d="M 115.16 274.89 C 132.21 267.73 142.65 253.87 138.48 243.94 C 134.31 234.00 117.10 231.75 100.06 238.91 C 83.01 246.07 72.57 259.93 76.74 269.86 C 80.91 279.80 98.12 282.05 115.16 274.89 Z" fill="#d6d8e5" fill-opacity="0.4" fill-rule="nonzero" group-id="1" node-id="49" stroke="none" target-height="50.294983" target-width="70.08139" target-x="72.5686" target-y="231.751"></path></g><g node-id="141"><path d="M 69.96 266.38 C 73.78 256.31 62.88 242.82 45.59 236.25 C 28.31 229.68 11.19 232.52 7.36 242.59 C 3.54 252.66 14.44 266.15 31.73 272.72 C 49.01 279.29 66.13 276.45 69.96 266.38 Z" fill="#d6d8e5" fill-opacity="0.4" fill-rule="nonzero" group-id="2" node-id="54" stroke="none" target-height="49.613007" target-width="70.24792" target-x="3.53588" target-y="229.68"></path></g><g node-id="142"><path d="M 120.47 222.51 C 124.30 212.44 113.39 198.95 96.11 192.38 C 78.82 185.81 61.71 188.65 57.88 198.72 C 54.05 208.79 64.96 222.28 82.25 228.85 C 99.53 235.42 116.64 232.58 120.47 222.51 Z" fill="#d6d8e5" fill-opacity="0.4" fill-rule="nonzero" group-id="3" node-id="59" stroke="none" target-height="49.612" target-width="70.2475" target-x="54.0525" target-y="185.81"></path></g><path d="M 110.49 205.91 C 107.80 208.11 103.83 206.10 103.63 206.30 C 100.47 209.23 97.15 212.00 93.69 214.58 C 92.01 215.90 89.40 217.66 89.87 220.20 C 90.72 224.74 97.98 223.34 100.72 221.95 C 103.46 220.56 105.72 218.27 108.29 216.66 C 110.14 215.51 111.96 214.91 112.29 212.58 C 112.42 211.17 110.97 205.86 110.49 205.91 Z" fill="#2b303f" fill-rule="nonzero" node-id="62" stroke="none" target-height="18.880005" target-width="23.019905" target-x="89.4041" target-y="205.858"></path><path d="M 112.22 211.63 C 111.86 213.87 110.06 214.49 108.22 215.63 C 105.58 217.26 103.22 219.63 100.52 221.01 C 97.98 222.29 91.67 223.57 89.89 220.33 C 90.89 224.70 97.99 223.33 100.70 221.95 C 103.42 220.57 105.70 218.27 108.28 216.66 C 110.12 215.51 111.94 214.91 112.28 212.58 C 112.29 212.26 112.27 211.94 112.22 211.63 L 112.22 211.63 Z" fill="#3a4151" fill-rule="nonzero" node-id="64" stroke="none" target-height="13.069992" target-width="22.3975" target-x="89.8945" target-y="211.628"></path><path d="M 87.13 197.23 C 84.44 199.42 79.72 197.03 79.52 197.23 C 76.72 200.06 73.76 202.74 70.65 205.23 C 68.97 206.55 66.35 208.32 66.83 210.85 C 67.67 215.39 74.94 214.00 77.68 212.61 C 80.42 211.22 82.68 208.92 85.25 207.31 C 87.10 206.16 88.92 205.57 89.20 203.23 C 89.38 201.83 87.60 197.17 87.13 197.23 Z" fill="#2b303f" fill-rule="nonzero" node-id="66" stroke="none" target-height="18.36" target-width="23.030098" target-x="66.3541" target-y="197.028"></path><path d="M 89.12 202.62 C 88.77 204.86 86.97 205.47 85.12 206.62 C 82.48 208.26 80.12 210.62 77.42 212.01 C 74.89 213.29 68.58 214.56 66.80 211.32 C 67.80 215.70 74.90 214.32 77.61 212.95 C 80.32 211.58 82.61 209.26 85.18 207.65 C 87.03 206.50 88.85 205.91 89.18 203.57 C 89.20 203.25 89.18 202.93 89.12 202.62 L 89.12 202.62 Z" fill="#3a4151" fill-rule="nonzero" node-id="68" stroke="none" target-height="13.080002" target-width="22.397903" target-x="66.8042" target-y="202.618"></path><path d="M 69.14 48.51 C 69.14 48.51 69.22 52.90 68.69 63.76 C 68.51 71.88 68.87 80.01 69.78 88.08 C 70.59 94.47 72.33 100.70 74.94 106.58 C 76.87 97.29 74.63 95.66 74.63 95.66 L 75.73 75.92 C 75.73 75.92 74.63 56.86 75.07 50.09 C 75.34 45.79 69.14 48.51 69.14 48.51 Z" fill="#ffcea9" fill-rule="nonzero" node-id="70" stroke="none" target-height="60.789604" target-width="8.367996" target-x="68.5065" target-y="45.7884"></path><path d="M 110.58 106.49 C 110.45 110.56 109.18 128.24 108.58 137.61 C 107.98 146.98 107.88 158.44 107.88 158.44 C 107.88 158.44 109.50 165.25 110.54 173.27 C 111.58 181.29 110.54 206.58 110.54 206.58 C 109.52 207.24 108.32 207.59 107.10 207.59 C 105.88 207.59 104.68 207.24 103.65 206.58 C 103.65 206.58 99.34 186.33 97.34 177.21 C 95.34 168.09 95.00 162.84 93.96 157.21 C 92.71 150.37 89.96 118.46 89.96 118.46 L 88.88 118.52 L 86.00 154.52 C 86.89 157.17 87.50 159.92 87.82 162.70 C 88.60 168.57 86.99 198.10 86.99 198.10 C 85.84 198.74 84.54 199.05 83.23 198.99 C 81.91 198.94 80.64 198.52 79.54 197.79 C 79.54 197.79 72.34 158.69 72.34 152.73 C 72.34 148.80 73.01 96.90 73.01 96.90 L 110.58 106.49 Z" fill="#8c50ff" fill-rule="nonzero" node-id="72" stroke="none" target-height="110.6916" target-width="39.2398" target-x="72.3442" target-y="96.8984"></path><path d="M 96.10 51.51 C 94.61 52.19 91.75 51.83 88.93 50.75 C 86.87 50.01 84.96 48.88 83.33 47.41 C 82.11 46.39 81.34 44.93 81.17 43.35 C 81.01 38.97 82.33 35.15 83.74 33.66 C 84.00 33.32 84.37 33.08 84.78 32.99 L 85.50 32.83 L 85.94 32.70 C 86.08 32.70 86.23 32.61 86.39 32.58 C 90.58 31.33 100.80 27.78 100.80 27.78 C 100.80 27.78 100.35 36.67 100.54 37.45 C 100.58 37.57 100.65 37.68 100.73 37.77 C 101.34 38.40 102.01 38.97 102.73 39.47 C 102.94 39.64 103.17 39.80 103.39 39.97 C 104.39 40.69 105.31 41.38 105.78 41.77 C 106.90 42.72 99.63 49.89 96.10 51.51 Z" fill="#ffcea9" fill-rule="nonzero" node-id="74" stroke="none" target-height="24.41" target-width="25.889702" target-x="81.0143" target-y="27.7784"></path><path d="M 112.50 50.58 C 112.50 51.03 112.50 51.53 112.42 52.07 C 112.09 57.07 111.05 61.68 110.08 67.07 C 109.91 68.07 109.73 69.07 109.56 70.07 C 109.39 71.07 109.25 72.13 109.11 73.19 C 108.91 74.87 108.83 76.57 108.89 78.26 C 108.89 82.26 109.34 86.92 109.83 91.39 C 110.00 92.79 110.16 94.16 110.31 95.48 C 110.38 96.08 110.44 96.66 110.53 97.23 C 110.92 100.51 111.25 103.38 111.36 105.32 C 111.16 105.77 110.89 106.20 110.58 106.60 C 109.28 108.20 107.54 109.40 105.58 110.06 C 105.09 110.25 104.58 110.43 104.06 110.59 C 103.23 110.85 102.38 111.08 101.48 111.28 C 99.46 111.76 97.38 111.96 95.29 111.88 C 94.42 111.85 93.54 111.76 92.67 111.62 C 92.18 111.54 91.67 111.45 91.17 111.34 C 90.67 111.23 89.86 111.02 89.17 110.82 C 86.61 110.01 84.13 108.93 81.79 107.60 C 79.43 106.31 77.32 104.62 75.55 102.60 C 74.55 101.45 73.71 100.17 73.05 98.80 C 72.78 98.21 72.55 97.61 72.39 96.98 C 72.39 96.98 72.55 68.21 72.39 58.79 C 72.39 56.51 72.39 54.43 72.47 52.53 C 72.47 52.39 72.47 52.25 72.47 52.11 C 72.55 50.49 72.67 48.99 72.84 47.59 C 73.18 44.49 73.84 41.44 74.79 38.48 C 75.91 35.35 78.16 32.75 81.08 31.18 L 81.08 31.18 C 81.37 31.13 81.66 31.11 81.94 31.13 C 83.33 31.29 84.65 31.80 85.78 32.60 C 85.85 32.63 85.92 32.67 85.97 32.72 C 86.66 33.14 87.12 33.51 87.21 33.57 C 86.75 33.96 86.34 34.42 86.01 34.94 C 83.39 38.94 83.87 47.02 86.38 49.49 C 95.37 48.60 101.78 38.99 101.78 38.99 C 101.78 38.99 102.06 39.13 102.69 39.48 L 103.39 39.91 C 104.39 40.53 105.97 41.53 108.14 43.08 C 108.31 43.20 108.47 43.31 108.62 43.41 C 110.92 45.00 112.17 45.49 112.42 48.52 C 112.42 48.57 112.42 48.61 112.42 48.66 C 112.50 49.22 112.52 49.84 112.50 50.58 Z" fill="#dd7a7a" fill-rule="nonzero" node-id="76" stroke="none" target-height="80.85249" target-width="40.1205" target-x="72.3945" target-y="31.1095"></path><path d="M 105.42 110.35 C 106.75 108.86 109.06 100.56 110.42 95.35 C 111.70 89.44 111.96 83.35 111.18 77.35 C 109.99 70.19 106.72 60.29 105.78 56.19 C 104.84 52.09 106.07 50.35 107.90 48.69 C 110.04 46.75 113.22 47.33 115.28 53.03 C 117.97 60.92 119.78 69.09 120.65 77.38 C 121.14 83.55 120.60 89.75 119.06 95.75 C 117.68 101.31 115.67 105.38 113.06 110.50 C 112.36 111.89 110.76 115.78 109.73 118.60 C 108.70 121.42 104.19 111.72 105.42 110.35 Z" fill="#ffcea9" fill-rule="nonzero" node-id="78" stroke="none" target-height="74.669495" target-width="16.943" target-x="104.194" target-y="46.7485"></path><path d="M 103.41 39.92 C 103.41 39.92 103.41 39.92 103.41 39.99 C 101.80 42.10 96.24 48.86 88.97 50.75 C 88.19 50.96 87.40 51.11 86.59 51.19 L 85.80 51.27 L 85.23 50.71 C 84.36 49.78 83.72 48.64 83.37 47.41 C 82.77 45.37 82.51 43.24 82.62 41.12 C 82.67 38.71 83.31 36.34 84.49 34.24 C 84.79 33.73 85.15 33.27 85.56 32.85 C 85.64 32.76 85.73 32.68 85.81 32.60 C 85.93 32.48 86.06 32.37 86.19 32.27 L 86.45 32.60 L 87.24 33.60 L 88.31 34.93 C 88.18 35.04 88.05 35.17 87.94 35.31 C 86.86 36.48 86.14 38.72 86.02 41.31 C 85.84 43.50 86.23 45.70 87.15 47.69 C 93.96 46.46 99.55 39.45 100.78 37.81 C 101.39 38.44 102.06 39.01 102.78 39.51 L 103.41 39.92 Z" fill="#d5d7e2" fill-rule="nonzero" node-id="80" stroke="none" target-height="19" target-width="20.901505" target-x="82.5125" target-y="32.2684"></path><path d="M 80.78 14.57 C 81.78 7.68 86.78 2.46 93.86 2.85 C 96.74 2.97 99.50 4.01 101.76 5.79 C 104.01 7.58 105.65 10.04 106.42 12.81 C 107.20 15.58 107.08 18.53 106.08 21.23 C 105.08 23.93 103.26 26.25 100.86 27.85 C 100.62 28.89 100.25 29.89 99.76 30.85 C 97.25 33.79 89.65 35.61 87.46 35.30 C 84.66 34.90 83.14 33.73 81.81 30.66 C 79.41 25.21 80.15 17.99 80.78 14.57 Z" fill="#ffcea9" fill-rule="nonzero" node-id="82" stroke="none" target-height="33.150017" target-width="27.7845" target-x="79.4145" target-y="2.45838"></path><path d="M 100.78 27.80 L 100.14 21.80 C 100.14 21.80 105.05 9.08 93.44 11.52 C 85.77 13.14 83.85 13.84 81.52 8.70 C 79.19 3.56 87.41 -1.07 97.17 0.22 C 100.54 0.57 103.65 2.17 105.89 4.71 C 108.12 7.24 109.33 10.53 109.25 13.91 C 109.03 17.68 108.03 25.33 100.78 27.80 Z" fill="#3a4151" fill-rule="nonzero" node-id="84" stroke="none" target-height="28.87" target-width="30.130493" target-x="79.1945" target-y="-1.0716"></path><path d="M 120.69 62.31 C 120.69 62.31 114.35 68.61 106.86 66.80 C 105.79 66.07 103.22 51.34 103.22 51.34 C 103.22 51.34 103.22 43.18 109.47 43.40 C 115.72 43.62 120.69 62.31 120.69 62.31 Z" fill="#dd7a7a" fill-rule="nonzero" node-id="86" stroke="none" target-height="25.43" target-width="17.470001" target-x="103.224" target-y="43.1784"></path><path d="M 81.15 31.24 C 79.09 33.11 77.30 35.27 75.84 37.65 C 73.84 41.08 73.01 47.48 72.71 51.18 C 72.57 52.91 72.54 54.04 72.54 54.04 C 72.54 54.04 68.31 54.55 66.94 52.62 C 67.07 51.60 67.28 50.60 67.58 49.62 C 69.28 43.65 74.18 31.99 81.15 31.24 Z" fill="#dd7a7a" fill-rule="nonzero" node-id="88" stroke="none" target-height="23.310001" target-width="14.209999" target-x="66.9443" target-y="31.2384"></path><path d="M 10.44 99.83 C 10.03 103.38 5.79 118.71 6.70 123.96 C 7.61 129.21 22.09 137.96 22.09 137.96 L 24.09 128.96 L 16.09 121.10 L 18.26 106.21 L 10.44 99.83 Z" fill="#ffcea9" fill-rule="nonzero" node-id="90" stroke="none" target-height="38.129593" target-width="18.3" target-x="5.7943" target-y="99.8284"></path><path d="M 21.64 84.72 C 20.23 84.07 18.64 83.96 17.15 84.41 C 15.66 84.86 14.40 85.84 13.58 87.16 C 11.45 90.69 9.23 102.79 9.03 104.86 C 9.03 104.86 12.03 108.99 16.51 108.30 L 21.64 84.72 Z" fill="#ededed" fill-rule="nonzero" node-id="92" stroke="none" target-height="25.0307" target-width="12.61002" target-x="9.03418" target-y="83.9573"></path><path d="M 38.18 255.62 C 41.33 256.49 44.70 256.08 47.55 254.49 C 49.81 254.56 62.06 249.31 63.73 253.71 C 65.19 257.57 59.88 261.15 57.04 261.83 C 50.85 263.33 46.27 266.42 43.79 266.94 C 41.94 267.33 39.54 267.59 38.06 266.13 C 36.29 264.39 36.45 257.92 38.18 255.62 Z" fill="#2b303f" fill-rule="nonzero" node-id="94" stroke="none" target-height="18.280014" target-width="28.899998" target-x="36.2942" target-y="249.308"></path><path d="M 43.78 265.87 C 46.26 265.35 50.84 262.26 57.03 260.76 C 59.41 260.19 63.50 257.59 63.92 254.49 C 64.47 258.04 59.68 261.19 57.03 261.83 C 50.84 263.33 46.26 266.42 43.78 266.94 C 41.93 267.33 39.53 267.59 38.05 266.13 C 37.67 265.70 37.39 265.20 37.24 264.65 C 38.16 265.35 39.23 265.82 40.37 266.03 C 41.51 266.24 42.67 266.19 43.78 265.87 L 43.78 265.87 Z" fill="#3a4151" fill-rule="nonzero" node-id="96" stroke="none" target-height="13.100006" target-width="27.230099" target-x="37.2441" target-y="254.488"></path><path d="M 18.30 246.70 C 21.46 247.56 24.83 247.16 27.68 245.57 C 29.93 245.63 42.19 240.39 43.85 244.79 C 45.31 248.65 40.01 252.22 37.17 252.91 C 30.98 254.41 26.40 257.49 23.91 258.02 C 22.06 258.41 19.66 258.66 18.19 257.21 C 16.42 255.46 16.57 248.99 18.30 246.70 Z" fill="#2b303f" fill-rule="nonzero" node-id="98" stroke="none" target-height="18.269989" target-width="28.89" target-x="16.4244" target-y="240.388"></path><path d="M 23.91 256.99 C 26.40 256.46 30.98 253.38 37.17 251.88 C 39.54 251.30 43.64 248.70 44.05 245.61 C 44.60 249.16 39.81 252.31 37.17 252.95 C 30.98 254.45 26.40 257.53 23.91 258.06 C 22.06 258.45 19.66 258.70 18.19 257.25 C 17.81 256.82 17.54 256.32 17.38 255.77 C 18.30 256.47 19.37 256.94 20.50 257.15 C 21.64 257.36 22.81 257.31 23.91 256.99 Z" fill="#3a4151" fill-rule="nonzero" node-id="100" stroke="none" target-height="13.089996" target-width="27.220001" target-x="17.3843" target-y="245.608"></path><path d="M 23.68 84.99 C 26.60 85.13 28.78 85.88 29.15 84.99 C 29.45 83.47 29.66 81.93 29.78 80.39 C 29.44 79.54 29.15 78.63 29.15 78.63 C 25.47 76.37 24.31 72.39 23.83 67.76 C 23.00 59.85 27.28 52.93 35.19 52.10 C 42.62 51.33 48.09 56.55 49.55 63.73 C 50.34 67.27 51.91 73.97 49.79 79.80 C 48.61 83.05 47.08 85.64 45.56 86.14 C 44.09 86.11 42.62 85.98 41.16 85.76 L 41.16 85.76 C 41.16 85.76 40.77 87.96 40.50 89.37 C 40.23 90.78 40.33 91.52 43.14 93.25 C 45.95 94.98 38.89 98.54 34.28 98.19 C 29.67 97.84 24.49 95.06 23.07 92.08 C 21.53 88.75 21.67 84.84 23.68 84.99 Z" fill="#ffcea9" fill-rule="nonzero" node-id="102" stroke="none" target-height="47.21" target-width="30.38" target-x="21.5343" target-y="51.3284"></path><path d="M 27.91 85.37 C 27.10 87.37 29.16 89.87 34.66 91.59 C 40.16 93.31 40.66 91.10 40.66 91.10 C 40.66 91.10 48.72 94.77 51.34 96.61 C 54.65 98.91 56.11 105.61 56.55 116.86 C 57.07 129.86 57.11 149.26 56.68 152.60 C 56.68 152.60 50.51 158.75 42.62 158.10 C 34.73 157.45 21.44 150.46 18.22 145.10 C 18.31 133.66 19.64 131.80 17.79 125.21 C 13.56 110.13 11.32 103.95 13.38 93.93 C 15.08 85.67 17.46 84.64 20.73 84.72 C 23.14 84.81 25.53 85.02 27.91 85.37 L 27.91 85.37 Z" fill="#f4f4f4" fill-rule="nonzero" node-id="104" stroke="none" target-height="74.109604" target-width="45.79" target-x="11.3243" target-y="84.6384"></path><path d="M 68.96 127.65 C 62.49 129.28 60.96 125.20 60.11 121.81 C 58.05 113.62 56.94 106.23 55.40 101.58 C 53.60 96.10 51.70 95.23 49.03 94.16 C 45.91 92.90 43.22 95.55 44.26 102.52 C 45.49 110.78 47.11 116.52 50.19 126.34 C 51.00 128.89 52.81 133.42 55.51 135.61 C 58.85 138.31 63.89 138.20 71.51 136.30 C 74.75 135.49 78.32 133.55 84.46 130.69 C 86.11 129.92 87.39 129.40 90.56 127.93 C 93.74 126.50 96.53 124.33 98.68 121.59 C 100.34 119.19 100.56 118.06 100.22 117.51 C 99.88 116.96 99.04 116.98 98.16 117.99 C 96.88 119.69 95.30 121.15 93.50 122.30 C 93.50 122.30 95.50 120.19 96.65 118.81 C 97.65 117.59 98.47 116.25 99.10 114.81 C 99.69 113.41 98.48 111.51 97.57 112.50 C 96.66 113.49 96.21 114.50 94.57 116.50 C 93.69 117.57 92.69 118.53 91.57 119.36 C 92.62 117.95 93.54 116.47 94.34 114.91 C 95.05 113.70 95.40 112.31 95.34 110.91 C 95.34 110.18 94.26 109.31 93.34 110.70 C 92.38 111.99 91.78 113.90 89.78 115.99 C 88.30 117.53 87.04 118.41 87.00 117.99 C 86.96 117.57 87.90 116.72 88.43 114.93 C 88.96 113.14 88.43 111.25 87.43 111.04 C 86.43 110.83 86.63 110.89 85.84 112.57 C 85.05 114.25 83.84 115.48 82.89 117.92 C 82.40 119.64 81.48 121.21 80.23 122.50 C 78.65 124.22 75.12 126.10 68.96 127.65 Z" fill="#ffcea9" fill-rule="nonzero" node-id="106" stroke="none" target-height="45.4096" target-width="57.339504" target-x="43.2245" target-y="92.8984"></path><path d="M 46.64 93.04 C 50.96 92.40 54.02 94.35 55.93 100.90 C 57.84 107.45 59.18 112.84 59.18 112.84 C 57.47 115.31 54.88 117.03 51.93 117.65 C 46.75 118.90 44.93 116.43 44.93 116.43 C 44.93 116.43 43.50 109.56 42.60 104.88 C 41.70 100.20 41.28 93.83 46.64 93.04 Z" fill="#ededed" fill-rule="nonzero" node-id="108" stroke="none" target-height="26.499603" target-width="17.899998" target-x="41.2843" target-y="92.3984"></path><path d="M 49.34 62.68 C 49.34 62.68 56.18 52.29 41.34 50.18 C 30.69 48.65 23.78 55.51 23.03 62.99 C 22.27 70.10 26.65 77.49 29.82 80.42 C 31.36 80.97 34.68 81.29 39.05 79.31 C 39.23 77.37 39.29 75.42 39.25 73.48 C 39.25 73.48 34.05 62.50 49.34 62.68 Z" fill="#3a4151" fill-rule="nonzero" node-id="110" stroke="none" target-height="32.64" target-width="33.91" target-x="22.2743" target-y="48.6484"></path><path d="M 137.78 102.99 C 137.78 102.99 136.63 120.25 134.37 122.73 C 132.11 125.21 124.45 126.91 124.45 126.91 L 118.56 136.61 C 118.56 136.61 123.94 105.76 125.11 105.02 C 126.28 104.28 137.78 102.99 137.78 102.99 Z" fill="#ffcea9" fill-rule="nonzero" node-id="112" stroke="none" target-height="33.620003" target-width="19.219994" target-x="118.564" target-y="102.988"></path><path d="M 126.44 83.82 C 127.87 83.15 129.50 83.04 131.01 83.50 C 132.53 83.95 133.82 84.95 134.65 86.30 C 136.81 89.89 139.06 102.22 139.28 104.30 C 139.28 104.30 136.22 108.50 131.66 107.80 L 126.44 83.82 Z" fill="#434b5b" fill-rule="nonzero" node-id="114" stroke="none" target-height="25.4589" target-width="12.839996" target-x="126.435" target-y="83.0391"></path><path d="M 108.96 256.04 C 105.75 256.93 102.32 256.51 99.41 254.89 C 97.11 254.96 84.63 249.62 82.93 254.10 C 81.45 258.03 86.85 261.67 89.74 262.37 C 96.05 263.90 100.74 267.04 103.24 267.57 C 105.13 267.97 107.57 268.23 109.07 266.75 C 110.88 264.99 110.72 258.39 108.96 256.04 Z" fill="#38226d" fill-rule="nonzero" node-id="116" stroke="none" target-height="18.61" target-width="29.429901" target-x="81.4541" target-y="249.618"></path><path d="M 103.25 266.48 C 100.72 265.95 96.05 262.81 89.74 261.28 C 87.32 260.69 83.15 258.05 82.74 254.89 C 82.18 258.51 87.06 261.72 89.74 262.37 C 96.05 263.90 100.75 267.04 103.25 267.57 C 105.14 267.97 107.58 268.23 109.08 266.75 C 109.47 266.32 109.75 265.80 109.91 265.24 C 108.97 265.95 107.88 266.44 106.72 266.65 C 105.56 266.87 104.37 266.81 103.25 266.48 L 103.25 266.48 Z" fill="#9c73ff" fill-rule="nonzero" node-id="118" stroke="none" target-height="13.339996" target-width="27.720497" target-x="82.1845" target-y="254.888"></path><path d="M 128.39 249.99 C 125.19 250.88 121.76 250.46 118.85 248.84 C 116.55 248.91 104.07 243.57 102.37 248.05 C 100.88 251.98 106.29 255.62 109.18 256.32 C 115.48 257.85 120.18 260.99 122.68 261.52 C 124.56 261.92 127.01 262.18 128.51 260.70 C 130.31 258.91 130.16 252.33 128.39 249.99 Z" fill="#38226d" fill-rule="nonzero" node-id="120" stroke="none" target-height="18.610016" target-width="29.429993" target-x="100.884" target-y="243.568"></path><path d="M 122.68 260.43 C 120.14 259.89 115.48 256.75 109.18 255.22 C 106.76 254.64 102.59 251.99 102.18 248.83 C 101.62 252.45 106.50 255.66 109.18 256.31 C 115.48 257.84 120.18 260.98 122.68 261.51 C 124.56 261.91 127.01 262.17 128.51 260.69 C 128.91 260.26 129.19 259.74 129.34 259.18 C 128.41 259.89 127.32 260.37 126.16 260.59 C 125.01 260.81 123.81 260.75 122.68 260.43 Z" fill="#9c73ff" fill-rule="nonzero" node-id="122" stroke="none" target-height="13.339996" target-width="27.719994" target-x="101.624" target-y="248.828"></path><path d="M 129.78 214.88 C 129.25 210.24 128.28 205.67 126.90 201.21 C 126.90 201.21 127.76 189.42 128.19 178.21 C 128.68 165.52 133.08 154.35 129.61 144.21 L 90.95 152.81 C 90.95 152.81 92.82 203.52 93.34 209.65 C 93.63 214.42 94.22 219.16 95.10 223.86 C 96.88 233.68 98.83 255.67 98.83 255.67 C 102.97 258.07 109.04 256.09 109.04 256.09 C 109.04 256.09 109.04 228.57 108.80 221.49 C 108.47 212.85 108.21 213.49 108.21 213.49 L 109.51 191.96 L 110.35 181.25 C 110.35 181.25 111.44 189.11 112.14 196.13 C 112.76 202.25 114.24 207.79 115.89 219.18 C 117.32 229.07 118.79 249.18 118.79 249.18 C 122.94 251.58 128.51 249.93 128.51 249.93 C 128.51 249.93 130.89 223.46 129.78 214.88 Z" fill="#c1c4d3" fill-rule="nonzero" node-id="124" stroke="none" target-height="113.86" target-width="42.129898" target-x="90.9541" target-y="144.208"></path><path d="M 124.35 83.99 C 121.35 84.14 119.15 84.90 118.78 83.99 C 118.46 82.45 118.23 80.89 118.10 79.33 C 118.44 78.47 118.74 77.54 118.74 77.54 C 122.48 75.23 123.67 71.18 124.16 66.47 C 125.00 58.41 120.65 51.36 112.59 50.52 C 105.01 49.73 99.44 55.05 97.95 62.36 C 97.15 65.97 95.56 72.79 97.71 78.73 C 98.92 82.04 100.47 84.73 102.02 85.19 C 103.53 85.15 105.03 85.02 106.51 84.80 C 106.51 84.80 106.91 87.04 107.19 88.48 C 107.47 89.92 107.36 90.67 104.50 92.48 C 101.64 94.29 108.82 97.87 113.50 97.48 C 118.18 97.09 123.50 94.29 124.92 91.26 C 126.54 87.92 126.40 83.93 124.35 83.99 Z" fill="#ffcea9" fill-rule="nonzero" node-id="126" stroke="none" target-height="48.14" target-width="30.979797" target-x="95.5642" target-y="49.7284"></path><path d="M 120.04 84.47 C 120.86 86.53 118.77 89.05 113.16 90.81 C 107.55 92.57 107.06 90.31 107.06 90.31 C 107.06 90.31 98.85 94.05 96.17 95.92 C 92.81 98.27 91.32 105.07 90.87 116.55 C 90.34 129.84 90.30 149.55 90.74 152.95 C 90.74 152.95 97.02 159.21 105.06 158.55 C 113.10 157.89 126.63 150.78 129.91 145.28 C 129.82 133.63 128.46 131.74 130.35 125.02 C 134.66 109.66 136.94 103.37 134.84 93.16 C 133.11 84.74 130.68 83.70 127.36 83.78 C 124.91 83.88 122.47 84.11 120.04 84.47 L 120.04 84.47 Z" fill="#434b5b" fill-rule="nonzero" node-id="128" stroke="none" target-height="75.50949" target-width="46.639603" target-x="90.3044" target-y="83.6985"></path><path d="M 97.78 163.18 L 101.87 116.91 L 93.25 112.34 L 89.88 115.16 L 90.88 156.72 L 90.88 157.86 L 90.94 159.32 C 90.94 159.32 90.74 162.82 97.34 167.00 C 97.34 167.00 97.45 165.91 97.54 164.88 L 97.69 163.16 L 97.78 163.18 Z" fill="#ffcea9" fill-rule="nonzero" node-id="130" stroke="none" target-height="54.660004" target-width="11.9897" target-x="89.8843" target-y="112.338"></path><path d="M 98.83 93.06 C 94.38 92.97 91.54 95.33 90.46 102.20 C 89.38 109.07 88.71 114.68 88.71 114.68 C 90.77 116.95 93.61 118.36 96.66 118.61 C 102.05 119.21 103.61 116.47 103.61 116.47 C 103.61 116.47 104.18 109.34 104.48 104.47 C 104.78 99.60 104.34 93.17 98.83 93.06 Z" fill="#434b5b" fill-rule="nonzero" node-id="132" stroke="none" target-height="26.239601" target-width="16.069595" target-x="88.7144" target-y="92.9684"></path><path d="M 98.21 61.37 C 98.21 61.37 91.21 50.78 106.33 48.63 C 117.21 47.07 124.20 54.06 125.01 61.63 C 125.78 68.87 121.32 76.40 118.10 79.38 C 116.53 79.94 113.10 80.27 108.70 78.25 C 108.53 76.27 108.45 74.29 108.49 72.31 C 108.49 72.31 113.78 61.18 98.21 61.37 Z" fill="#3a2c6d" fill-rule="nonzero" node-id="134" stroke="none" target-height="33.2" target-width="34.569794" target-x="91.2142" target-y="47.0684"></path><path d="M 18.06 213.40 C 18.59 208.85 19.54 204.36 20.89 199.99 C 20.89 199.99 20.05 188.41 19.62 177.43 C 19.14 164.97 14.82 154.00 18.23 144.06 L 56.68 152.61 C 56.68 152.61 54.35 202.29 53.84 208.30 C 53.56 212.98 52.98 217.64 52.11 222.25 C 50.36 231.90 47.51 254.84 47.51 254.84 C 43.44 257.20 38.10 255.84 38.10 255.84 C 38.10 255.84 38.40 226.84 38.66 219.84 C 38.98 211.35 39.24 212.00 39.24 212.00 L 37.97 190.99 L 37.13 180.47 C 37.13 180.47 36.07 188.19 35.38 195.08 C 34.78 201.08 33.32 206.53 31.70 217.71 C 30.30 227.42 28.02 246.92 28.02 246.92 C 23.95 249.28 18.43 247.32 18.43 247.32 C 18.43 247.32 16.96 221.82 18.06 213.40 Z" fill="#916f5d" fill-rule="nonzero" node-id="136" stroke="none" target-height="113.14" target-width="41.86" target-x="14.8244" target-y="144.058"></path><path d="M 72.71 51.18 C 72.57 52.91 72.54 54.04 72.54 54.04 C 72.54 54.04 68.31 54.55 66.94 52.62 C 67.07 51.60 67.28 50.60 67.58 49.62 C 68.29 50.20 69.11 50.64 69.99 50.91 C 70.87 51.18 71.80 51.27 72.71 51.18 L 72.71 51.18 Z" fill="#d5d7e2" fill-rule="nonzero" node-id="138" stroke="none" target-height="4.9300003" target-width="5.7700043" target-x="66.9443" target-y="49.6184"></path></svg>