<?xml version="1.0" standalone="no"?><!DOCTYPE svg PUBLIC "-//W3C//DTD SVG 1.1//EN" "http://www.w3.org/Graphics/SVG/1.1/DTD/svg11.dtd"><svg height="158" node-id="1" sillyvg="true" template-height="158" template-width="102" version="1.1" viewBox="0 0 102 158" width="102" xmlns="http://www.w3.org/2000/svg" xmlns:xlink="http://www.w3.org/1999/xlink"><defs node-id="98"></defs><g node-id="293"><path d="M 37.50 158.00 L 0.00 136.55 L 56.13 104.42 L 93.63 125.87 L 37.50 158.00 Z" fill="#d6d8e5" fill-opacity="0.4" fill-rule="nonzero" group-id="1" node-id="102" stroke="none" target-height="53.58" target-width="93.63" target-x="0" target-y="104.42"></path></g><path d="M 38.28 114.75 L 7.22 96.81 L 38.28 78.88 L 69.34 96.81 L 38.28 114.75 Z" fill="#d6d8e5" fill-rule="nonzero" node-id="105" stroke="none" target-height="35.870003" target-width="62.11999" target-x="7.22021" target-y="78.88"></path><path d="M 38.28 150.61 L 7.22 132.68 L 7.22 96.81 L 38.28 114.75 L 38.28 150.61 Z" fill="#b1b6c4" fill-rule="nonzero" node-id="107" stroke="none" target-height="53.800003" target-width="31.05999" target-x="7.22021" target-y="96.81"></path><path d="M 69.34 132.68 L 38.28 150.61 L 38.28 114.75 L 69.34 96.81 L 69.34 132.68 Z" fill="#c4c7d6" fill-rule="nonzero" node-id="109" stroke="none" target-height="53.800003" target-width="31.059998" target-x="38.2798" target-y="96.81"></path><path d="M 79.37 121.17 C 82.06 121.90 84.94 121.54 87.37 120.17 C 89.30 120.22 99.76 115.75 101.18 119.50 C 102.43 122.81 97.90 125.86 95.48 126.44 C 90.19 127.72 86.28 130.35 84.16 130.79 C 82.58 131.13 80.53 131.35 79.27 130.10 C 77.78 128.65 77.91 123.14 79.37 121.17 Z" fill="#38226d" fill-rule="nonzero" node-id="111" stroke="none" target-height="15.609993" target-width="24.6502" target-x="77.7798" target-y="115.745"></path><path d="M 84.18 129.91 C 86.30 129.47 90.18 126.83 95.50 125.56 C 97.50 125.06 101.02 122.84 101.37 120.19 C 101.84 123.19 97.75 125.92 95.50 126.47 C 90.21 127.75 86.30 130.38 84.18 130.82 C 82.60 131.16 80.55 131.38 79.29 130.13 C 78.96 129.78 78.72 129.34 78.60 128.88 C 79.39 129.47 80.30 129.88 81.27 130.06 C 82.24 130.24 83.23 130.19 84.18 129.91 L 84.18 129.91 Z" fill="#9c73ff" fill-rule="nonzero" node-id="113" stroke="none" target-height="11.189995" target-width="23.239899" target-x="78.6001" target-y="120.195"></path><path d="M 60.53 111.12 C 63.22 111.86 66.10 111.50 68.53 110.12 C 70.46 110.19 80.91 105.70 82.34 109.47 C 83.58 112.77 79.05 115.81 76.63 116.39 C 71.37 117.70 67.44 120.34 65.37 120.78 C 63.79 121.11 61.74 121.33 60.48 120.08 C 58.92 118.61 59.05 113.08 60.53 111.12 Z" fill="#38226d" fill-rule="nonzero" node-id="115" stroke="none" target-height="15.619995" target-width="24.660004" target-x="58.9198" target-y="105.705"></path><path d="M 65.37 119.88 C 67.49 119.42 71.37 116.80 76.68 115.52 C 78.68 115.03 82.21 112.81 82.56 110.16 C 83.03 113.16 78.94 115.88 76.68 116.42 C 71.37 117.70 67.44 120.34 65.37 120.78 C 63.79 121.11 61.74 121.33 60.48 120.08 C 60.16 119.72 59.92 119.29 59.79 118.83 C 60.57 119.42 61.49 119.83 62.46 120.01 C 63.42 120.19 64.42 120.15 65.37 119.88 L 65.37 119.88 Z" fill="#9c73ff" fill-rule="nonzero" node-id="117" stroke="none" target-height="11.169998" target-width="23.239998" target-x="59.79" target-y="110.155"></path><path d="M 31.16 98.10 C 39.32 101.69 47.01 102.25 53.30 98.88 L 59.80 95.12 C 60.19 103.52 60.56 111.58 60.56 111.58 C 60.56 111.58 65.56 115.34 69.42 111.98 C 69.42 111.98 70.23 100.20 71.05 88.62 L 77.87 84.69 C 77.71 85.31 77.62 85.95 77.61 86.58 C 77.66 88.78 79.19 121.50 79.19 121.50 C 79.19 121.50 84.19 124.50 88.09 121.11 C 88.09 121.11 90.70 83.22 91.30 77.17 C 91.98 70.36 84.42 66.99 79.63 68.74 C 78.52 69.14 75.78 70.16 72.32 71.45 C 72.47 69.56 72.59 68.08 72.68 67.24 C 73.35 60.43 65.79 57.08 61.01 58.82 C 56.65 60.41 27.22 71.45 27.22 71.45 C 27.39 74.28 27.73 77.10 28.22 79.88 L 16.59 78.88 C 15.93 89.83 23.01 94.51 31.16 98.10 Z M 51.46 79.26 L 59.24 74.77 C 59.11 75.32 59.03 75.88 58.99 76.44 L 51.46 79.26 Z" fill="#8c50ff" fill-rule="nonzero" node-id="119" stroke="none" target-height="67.4101" target-width="76.05" target-x="15.9301" target-y="57.0849"></path><path d="M 10.25 45.77 C 10.25 45.77 11.25 60.23 13.11 62.31 C 14.97 64.39 21.42 65.77 21.42 65.77 L 26.37 73.91 C 26.37 73.91 21.86 48.05 20.88 47.43 C 19.90 46.81 10.25 45.77 10.25 45.77 Z" fill="#ffcea9" fill-rule="nonzero" node-id="121" stroke="none" target-height="28.140003" target-width="16.12" target-x="10.25" target-y="45.7749"></path><path d="M 19.76 29.67 C 18.56 29.12 17.19 29.02 15.92 29.41 C 14.65 29.80 13.57 30.64 12.88 31.77 C 11.06 34.77 9.17 45.11 9.00 46.88 C 9.00 46.88 11.55 50.40 15.38 49.81 L 19.76 29.67 Z" fill="#ededed" fill-rule="nonzero" node-id="123" stroke="none" target-height="21.3831" target-width="10.76" target-x="9" target-y="29.0218"></path><path d="M 21.50 29.85 C 24.00 29.97 25.86 30.61 26.17 29.85 C 26.44 28.56 26.63 27.26 26.74 25.95 C 26.45 25.21 26.20 24.43 26.20 24.43 C 23.06 22.50 22.07 19.11 21.66 15.16 C 20.96 8.41 24.60 2.50 31.36 1.79 C 37.70 1.13 42.36 5.59 43.62 11.72 C 44.29 14.72 45.62 20.46 43.82 25.43 C 42.82 28.21 41.51 30.43 40.21 30.85 C 38.95 30.82 37.70 30.71 36.45 30.52 L 36.45 30.52 C 36.45 30.52 36.11 32.40 35.88 33.60 C 35.65 34.80 35.74 35.44 38.13 36.92 C 40.52 38.40 34.51 41.43 30.58 41.13 C 26.65 40.83 22.22 38.46 21.01 35.92 C 19.66 33.11 19.78 29.77 21.50 29.85 Z" fill="#ffcea9" fill-rule="nonzero" node-id="125" stroke="none" target-height="40.29997" target-width="25.96" target-x="19.6599" target-y="1.13493"></path><path d="M 84.82 74.09 C 84.82 74.45 84.73 74.80 84.56 75.11 C 84.38 75.42 84.13 75.68 83.82 75.85 L 64.76 86.85 C 64.46 87.03 64.11 87.12 63.76 87.12 C 63.41 87.12 63.06 87.03 62.76 86.85 L 36.01 71.43 C 35.70 71.26 35.45 71.00 35.27 70.69 C 35.10 70.38 35.01 70.03 35.01 69.67 L 35.01 69.52 L 84.82 74.09 Z" fill="#e5e5e5" fill-rule="nonzero" node-id="127" stroke="none" target-height="17.598" target-width="49.819897" target-x="35.005" target-y="69.5249"></path><path d="M 83.81 75.85 L 64.75 86.85 C 64.45 87.03 64.10 87.12 63.75 87.12 L 63.75 74.12 L 84.82 74.12 C 84.82 74.48 84.72 74.82 84.55 75.13 C 84.37 75.43 84.12 75.68 83.81 75.85 L 83.81 75.85 Z" fill="#e5e5e5" fill-rule="nonzero" node-id="129" stroke="none" target-height="13" target-width="21.07" target-x="63.75" target-y="74.1249"></path><path d="M 64.45 85.85 C 64.23 85.98 63.99 86.04 63.74 86.04 C 63.48 86.04 63.24 85.98 63.02 85.85 L 35.26 69.85 C 34.91 69.64 34.91 69.31 35.26 69.11 L 55.71 57.27 L 84.82 74.09 L 64.45 85.85 Z" fill="#f4f4f4" fill-rule="nonzero" node-id="131" stroke="none" target-height="28.767101" target-width="49.91" target-x="34.9101" target-y="57.2749"></path><path d="M 46.67 74.09 L 46.81 74.17 L 55.70 79.30 L 60.59 76.48 L 60.72 76.40 L 51.69 71.19 L 46.67 74.09 Z" fill="#bfbfbf" fill-rule="nonzero" node-id="133" stroke="none" target-height="8.110001" target-width="14.049999" target-x="46.6699" target-y="71.1949"></path><path d="M 46.81 74.17 L 55.70 79.30 L 60.59 76.48 L 51.69 71.35 L 46.81 74.17 Z" fill="#e5e5e5" fill-rule="nonzero" node-id="135" stroke="none" target-height="7.9500046" target-width="13.779999" target-x="46.8101" target-y="71.3549"></path><path d="M 77.27 74.92 L 78.56 75.66 C 78.62 75.70 78.69 75.71 78.77 75.71 C 78.84 75.71 78.91 75.70 78.97 75.66 L 80.19 74.95 C 80.31 74.88 80.32 74.78 80.19 74.72 L 78.91 73.98 C 78.85 73.95 78.78 73.94 78.70 73.94 C 78.63 73.94 78.56 73.95 78.50 73.98 L 77.27 74.69 C 77.18 74.77 77.17 74.86 77.27 74.92 Z" fill="#3a2c6d" fill-rule="nonzero" node-id="137" stroke="none" target-height="1.7763977" target-width="3.1500015" target-x="77.17" target-y="73.9367"></path><path d="M 75.46 73.87 L 76.74 74.61 C 76.80 74.65 76.87 74.66 76.95 74.66 C 77.02 74.66 77.09 74.65 77.15 74.61 L 78.37 73.90 C 78.50 73.83 78.51 73.73 78.37 73.67 L 77.09 72.93 C 77.03 72.90 76.96 72.89 76.89 72.89 C 76.81 72.89 76.74 72.90 76.68 72.93 L 75.46 73.63 C 75.37 73.70 75.37 73.77 75.46 73.87 Z" fill="#3a2c6d" fill-rule="nonzero" node-id="139" stroke="none" target-height="1.7763977" target-width="3.1399994" target-x="75.3701" target-y="72.8867"></path><path d="M 73.64 72.82 L 74.93 73.56 C 74.99 73.60 75.06 73.61 75.13 73.61 C 75.20 73.61 75.27 73.60 75.33 73.56 L 76.56 72.86 C 76.68 72.79 76.69 72.68 76.56 72.62 L 75.27 71.88 C 75.21 71.85 75.14 71.84 75.07 71.84 C 75.00 71.84 74.93 71.85 74.87 71.88 L 73.64 72.58 C 73.55 72.65 73.54 72.77 73.64 72.82 Z" fill="#3a2c6d" fill-rule="nonzero" node-id="141" stroke="none" target-height="1.7761002" target-width="3.1501007" target-x="73.5401" target-y="71.8369"></path><path d="M 71.83 71.77 L 73.11 72.51 C 73.17 72.55 73.24 72.56 73.31 72.56 C 73.39 72.56 73.46 72.55 73.52 72.51 L 74.74 71.81 C 74.86 71.74 74.88 71.63 74.74 71.57 L 73.49 70.77 C 73.43 70.74 73.36 70.73 73.28 70.73 C 73.21 70.73 73.14 70.74 73.08 70.77 L 71.86 71.47 C 71.73 71.60 71.72 71.71 71.83 71.77 Z" fill="#3a2c6d" fill-rule="nonzero" node-id="143" stroke="none" target-height="1.8364029" target-width="3.159996" target-x="71.72" target-y="70.7267"></path><path d="M 70.01 70.77 L 71.29 71.51 C 71.35 71.55 71.42 71.56 71.50 71.56 C 71.57 71.56 71.64 71.55 71.70 71.51 L 72.93 70.80 C 73.05 70.73 73.06 70.62 72.93 70.56 L 71.67 69.77 C 71.61 69.74 71.54 69.73 71.47 69.73 C 71.39 69.73 71.32 69.74 71.26 69.77 L 70.04 70.48 C 69.92 70.56 69.90 70.66 70.01 70.77 Z" fill="#3a2c6d" fill-rule="nonzero" node-id="145" stroke="none" target-height="1.8364029" target-width="3.1600037" target-x="69.9003" target-y="69.7267"></path><path d="M 68.19 69.67 L 69.48 70.41 C 69.54 70.45 69.61 70.46 69.68 70.46 C 69.75 70.46 69.82 70.45 69.88 70.41 L 71.11 69.70 C 71.23 69.63 71.24 69.52 71.11 69.46 L 69.83 68.72 C 69.77 68.69 69.70 68.68 69.62 68.68 C 69.55 68.68 69.48 68.69 69.42 68.72 L 68.19 69.43 C 68.10 69.51 68.09 69.61 68.19 69.67 Z" fill="#3a2c6d" fill-rule="nonzero" node-id="147" stroke="none" target-height="1.7863007" target-width="3.1499023" target-x="68.09" target-y="68.6767"></path><path d="M 66.37 68.62 L 67.65 69.37 C 67.71 69.41 67.78 69.42 67.86 69.42 C 67.93 69.42 68.00 69.41 68.06 69.37 L 69.28 68.66 C 69.40 68.59 69.42 68.49 69.28 68.43 L 68.00 67.68 C 67.94 67.65 67.87 67.64 67.80 67.64 C 67.72 67.64 67.65 67.65 67.59 67.68 L 66.37 68.39 C 66.29 68.46 66.27 68.56 66.37 68.62 Z" fill="#3a2c6d" fill-rule="nonzero" node-id="149" stroke="none" target-height="1.7863998" target-width="3.1500015" target-x="66.27" target-y="67.6367"></path><path d="M 64.56 67.58 L 65.84 68.32 C 65.90 68.36 65.97 68.37 66.05 68.37 C 66.12 68.37 66.19 68.36 66.25 68.32 L 67.48 67.61 C 67.60 67.54 67.61 67.44 67.48 67.38 L 66.19 66.64 C 66.13 66.61 66.06 66.60 65.99 66.60 C 65.91 66.60 65.84 66.61 65.78 66.64 L 64.56 67.35 C 64.47 67.41 64.46 67.52 64.56 67.58 Z" fill="#3a2c6d" fill-rule="nonzero" node-id="151" stroke="none" target-height="1.7763977" target-width="3.1500015" target-x="64.4601" target-y="66.5967"></path><path d="M 62.74 66.53 L 64.03 67.27 C 64.09 67.31 64.16 67.32 64.23 67.32 C 64.31 67.32 64.38 67.31 64.44 67.27 L 65.66 66.56 C 65.78 66.49 65.79 66.39 65.66 66.33 L 64.37 65.57 C 64.31 65.54 64.24 65.53 64.17 65.53 C 64.09 65.53 64.02 65.54 63.96 65.57 L 62.73 66.28 C 62.65 66.36 62.64 66.47 62.74 66.53 Z" fill="#3a2c6d" fill-rule="nonzero" node-id="153" stroke="none" target-height="1.7964935" target-width="3.1500015" target-x="62.64" target-y="65.5267"></path><path d="M 60.93 65.48 L 62.21 66.22 C 62.27 66.26 62.34 66.27 62.42 66.27 C 62.49 66.27 62.56 66.26 62.62 66.22 L 63.84 65.52 C 63.96 65.45 63.98 65.34 63.84 65.28 L 62.56 64.54 C 62.50 64.51 62.43 64.50 62.36 64.50 C 62.28 64.50 62.21 64.51 62.15 64.54 L 60.93 65.24 C 60.84 65.31 60.82 65.42 60.93 65.48 Z" fill="#3a2c6d" fill-rule="nonzero" node-id="155" stroke="none" target-height="1.7764053" target-width="3.1599998" target-x="60.8202" target-y="64.4967"></path><path d="M 59.11 64.43 L 60.39 65.17 C 60.45 65.21 60.52 65.22 60.59 65.22 C 60.67 65.22 60.74 65.21 60.80 65.17 L 62.03 64.47 C 62.15 64.40 62.16 64.29 62.03 64.23 L 60.74 63.49 C 60.68 63.46 60.61 63.45 60.54 63.45 C 60.47 63.45 60.40 63.46 60.34 63.49 L 59.11 64.19 C 59.02 64.26 59.01 64.37 59.11 64.43 Z" fill="#3a2c6d" fill-rule="nonzero" node-id="157" stroke="none" target-height="1.7762985" target-width="3.1500015" target-x="59.0099" target-y="63.4468"></path><path d="M 57.30 63.38 L 58.58 64.12 C 58.64 64.15 58.71 64.17 58.79 64.17 C 58.86 64.17 58.93 64.15 58.99 64.12 L 60.21 63.41 C 60.33 63.34 60.35 63.23 60.21 63.17 L 58.93 62.43 C 58.87 62.40 58.80 62.39 58.73 62.39 C 58.65 62.39 58.58 62.40 58.52 62.43 L 57.29 63.14 C 57.20 63.22 57.19 63.32 57.30 63.38 Z" fill="#3a2c6d" fill-rule="nonzero" node-id="159" stroke="none" target-height="1.7831993" target-width="3.1599998" target-x="57.1902" target-y="62.3867"></path><path d="M 55.48 62.33 L 56.76 63.07 C 56.82 63.11 56.89 63.12 56.97 63.12 C 57.04 63.12 57.11 63.11 57.17 63.07 L 58.40 62.36 C 58.52 62.29 58.53 62.18 58.40 62.12 L 57.12 61.38 C 57.06 61.35 56.99 61.34 56.92 61.34 C 56.84 61.34 56.77 61.35 56.71 61.38 L 55.49 62.09 C 55.37 62.17 55.37 62.27 55.48 62.33 Z" fill="#3a2c6d" fill-rule="nonzero" node-id="161" stroke="none" target-height="1.7863998" target-width="3.1599998" target-x="55.3702" target-y="61.3367"></path><path d="M 52.79 60.77 L 54.95 62.01 C 55.01 62.05 55.08 62.07 55.15 62.07 C 55.22 62.07 55.29 62.05 55.35 62.01 L 56.58 61.30 C 56.70 61.23 56.71 61.13 56.58 61.07 L 54.42 59.82 C 54.36 59.79 54.29 59.78 54.22 59.78 C 54.14 59.78 54.07 59.79 54.01 59.82 L 52.79 60.52 C 52.70 60.61 52.68 60.77 52.79 60.77 Z" fill="#3a2c6d" fill-rule="nonzero" node-id="163" stroke="none" target-height="2.2903023" target-width="4.029999" target-x="52.68" target-y="59.7767"></path><path d="M 72.82 74.38 L 74.10 75.12 C 74.16 75.16 74.23 75.17 74.30 75.17 C 74.38 75.17 74.45 75.16 74.51 75.12 L 75.74 74.41 C 75.86 74.34 75.87 74.24 75.74 74.18 L 74.45 73.44 C 74.39 73.41 74.32 73.40 74.24 73.40 C 74.17 73.40 74.10 73.41 74.04 73.44 L 72.82 74.15 C 72.73 74.21 72.72 74.32 72.82 74.38 Z" fill="#3a2c6d" fill-rule="nonzero" node-id="165" stroke="none" target-height="1.7764053" target-width="3.149994" target-x="72.7198" target-y="73.3967"></path><path d="M 71.00 73.33 L 72.28 74.07 C 72.34 74.11 72.41 74.12 72.48 74.12 C 72.56 74.12 72.63 74.11 72.69 74.07 L 73.92 73.36 C 74.04 73.29 74.05 73.19 73.92 73.13 L 72.63 72.39 C 72.57 72.36 72.50 72.35 72.42 72.35 C 72.35 72.35 72.28 72.36 72.22 72.39 L 71.00 73.10 C 70.91 73.16 70.90 73.27 71.00 73.33 Z" fill="#3a2c6d" fill-rule="nonzero" node-id="167" stroke="none" target-height="1.7763977" target-width="3.1500015" target-x="70.9" target-y="72.3467"></path><path d="M 69.18 72.28 L 70.46 73.02 C 70.52 73.06 70.59 73.07 70.67 73.07 C 70.74 73.07 70.81 73.06 70.87 73.02 L 72.10 72.31 C 72.22 72.24 72.23 72.14 72.10 72.08 L 70.81 71.34 C 70.75 71.31 70.68 71.30 70.61 71.30 C 70.53 71.30 70.46 71.31 70.40 71.34 L 69.18 72.05 C 69.09 72.11 69.08 72.22 69.18 72.28 Z" fill="#3a2c6d" fill-rule="nonzero" node-id="169" stroke="none" target-height="1.7764969" target-width="3.1500015" target-x="69.0802" target-y="71.2967"></path><path d="M 67.37 71.23 L 68.65 71.97 C 68.71 72.01 68.78 72.02 68.86 72.02 C 68.93 72.02 69.00 72.01 69.06 71.97 L 70.29 71.26 C 70.41 71.19 70.42 71.09 70.29 71.03 L 69.00 70.29 C 68.94 70.26 68.87 70.25 68.80 70.25 C 68.73 70.25 68.66 70.26 68.60 70.29 L 67.37 71.00 C 67.27 71.06 67.26 71.17 67.37 71.23 Z" fill="#3a2c6d" fill-rule="nonzero" node-id="171" stroke="none" target-height="1.7761993" target-width="3.1600037" target-x="67.2603" target-y="70.2469"></path><path d="M 65.56 70.18 L 66.84 70.92 C 66.90 70.96 66.97 70.98 67.05 70.98 C 67.12 70.98 67.19 70.96 67.25 70.92 L 68.47 70.21 C 68.59 70.14 68.61 70.04 68.47 69.98 L 67.19 69.23 C 67.13 69.20 67.06 69.19 66.98 69.19 C 66.91 69.19 66.84 69.20 66.78 69.23 L 65.56 69.94 C 65.47 70.02 65.45 70.12 65.56 70.18 Z" fill="#3a2c6d" fill-rule="nonzero" node-id="173" stroke="none" target-height="1.7902985" target-width="3.1600037" target-x="65.45" target-y="69.1867"></path><path d="M 63.74 69.13 L 65.02 69.87 C 65.08 69.91 65.15 69.92 65.23 69.92 C 65.30 69.92 65.37 69.91 65.43 69.87 L 66.65 69.16 C 66.77 69.09 66.79 68.99 66.65 68.92 L 65.37 68.17 C 65.31 68.14 65.24 68.13 65.17 68.13 C 65.09 68.13 65.02 68.14 64.96 68.17 L 63.74 68.88 C 63.65 68.97 63.63 69.07 63.74 69.13 Z" fill="#3a2c6d" fill-rule="nonzero" node-id="175" stroke="none" target-height="1.796402" target-width="3.1599998" target-x="63.6302" target-y="68.1267"></path><path d="M 61.92 68.08 L 63.20 68.82 C 63.26 68.86 63.33 68.87 63.40 68.87 C 63.48 68.87 63.55 68.86 63.61 68.82 L 64.83 68.11 C 64.95 68.04 64.97 67.93 64.83 67.87 L 63.55 67.13 C 63.49 67.10 63.42 67.09 63.34 67.09 C 63.27 67.09 63.20 67.10 63.14 67.13 L 61.92 67.84 C 61.83 67.92 61.81 68.02 61.92 68.08 Z" fill="#3a2c6d" fill-rule="nonzero" node-id="177" stroke="none" target-height="1.7863998" target-width="3.1600037" target-x="61.8099" target-y="67.0867"></path><path d="M 60.10 67.03 L 61.37 67.77 C 61.43 67.81 61.50 67.82 61.58 67.82 C 61.65 67.82 61.72 67.81 61.78 67.77 L 63.00 67.06 C 63.13 66.99 63.14 66.88 63.00 66.82 L 61.72 66.08 C 61.66 66.05 61.59 66.04 61.52 66.04 C 61.44 66.04 61.37 66.05 61.31 66.08 L 60.09 66.79 C 60.01 66.87 59.99 66.97 60.10 67.03 Z" fill="#3a2c6d" fill-rule="nonzero" node-id="179" stroke="none" target-height="1.786499" target-width="3.1500015" target-x="59.9902" target-y="66.0367"></path><path d="M 58.28 65.98 L 59.56 66.72 C 59.62 66.76 59.69 66.77 59.77 66.77 C 59.84 66.77 59.91 66.76 59.97 66.72 L 61.20 66.01 C 61.32 65.94 61.33 65.83 61.20 65.77 L 59.92 65.03 C 59.86 65.00 59.79 64.99 59.72 64.99 C 59.64 64.99 59.57 65.00 59.51 65.03 L 58.29 65.74 C 58.19 65.82 58.17 65.92 58.28 65.98 Z" fill="#3a2c6d" fill-rule="nonzero" node-id="181" stroke="none" target-height="1.7863998" target-width="3.1599998" target-x="58.1702" target-y="64.9867"></path><path d="M 56.46 64.93 L 57.74 65.67 C 57.80 65.71 57.87 65.72 57.95 65.72 C 58.02 65.72 58.09 65.71 58.15 65.67 L 59.38 64.96 C 59.50 64.89 59.51 64.78 59.38 64.72 L 58.09 63.98 C 58.03 63.95 57.96 63.94 57.89 63.94 C 57.81 63.94 57.74 63.95 57.68 63.98 L 56.46 64.69 C 56.37 64.77 56.37 64.87 56.46 64.93 Z" fill="#3a2c6d" fill-rule="nonzero" node-id="183" stroke="none" target-height="1.7863998" target-width="3.1400032" target-x="56.3701" target-y="63.9367"></path><path d="M 54.64 63.88 L 55.92 64.62 C 55.98 64.66 56.05 64.67 56.13 64.67 C 56.20 64.67 56.27 64.66 56.33 64.62 L 57.56 63.92 C 57.68 63.85 57.69 63.74 57.56 63.68 L 56.27 62.94 C 56.21 62.91 56.14 62.90 56.07 62.90 C 55.99 62.90 55.92 62.91 55.86 62.94 L 54.64 63.65 C 54.55 63.77 54.54 63.82 54.64 63.88 Z" fill="#3a2c6d" fill-rule="nonzero" node-id="185" stroke="none" target-height="1.7764015" target-width="3.1500015" target-x="54.5401" target-y="62.8967"></path><path d="M 52.82 62.83 L 54.10 63.57 C 54.16 63.61 54.23 63.62 54.30 63.62 C 54.38 63.62 54.45 63.61 54.51 63.57 L 55.74 62.87 C 55.86 62.80 55.87 62.69 55.74 62.63 L 54.45 61.89 C 54.39 61.86 54.32 61.85 54.24 61.85 C 54.17 61.85 54.10 61.86 54.04 61.89 L 52.82 62.59 C 52.73 62.66 52.72 62.77 52.82 62.83 Z" fill="#3a2c6d" fill-rule="nonzero" node-id="187" stroke="none" target-height="1.7764015" target-width="3.1500015" target-x="52.7198" target-y="61.8467"></path><path d="M 74.64 75.43 L 76.80 76.67 C 76.86 76.71 76.93 76.72 77.01 76.72 C 77.08 76.72 77.15 76.71 77.21 76.67 L 78.43 75.96 C 78.55 75.89 78.56 75.78 78.43 75.72 L 76.27 74.48 C 76.21 74.46 76.14 74.44 76.07 74.44 C 75.99 74.44 75.92 74.46 75.86 74.48 L 74.64 75.19 C 74.55 75.26 74.53 75.37 74.64 75.43 Z" fill="#3a2c6d" fill-rule="nonzero" node-id="189" stroke="none" target-height="2.2830963" target-width="4.029999" target-x="74.5301" target-y="74.44"></path><path d="M 52.67 60.83 L 53.95 61.57 C 54.06 61.63 54.06 61.73 53.95 61.79 L 52.66 62.54 C 52.60 62.57 52.54 62.59 52.47 62.59 C 52.40 62.59 52.34 62.57 52.28 62.54 L 52.18 62.48 C 52.12 62.46 52.06 62.44 52.00 62.44 C 51.94 62.44 51.88 62.46 51.82 62.48 L 50.46 63.27 C 50.40 63.30 50.34 63.32 50.27 63.32 C 50.20 63.32 50.14 63.30 50.08 63.27 L 49.26 62.80 C 49.24 62.80 49.22 62.78 49.21 62.76 C 49.19 62.74 49.19 62.72 49.19 62.69 C 49.19 62.67 49.19 62.65 49.21 62.63 C 49.22 62.61 49.24 62.59 49.26 62.58 L 50.54 61.84 L 50.81 61.69 L 51.00 61.58 L 51.19 61.47 L 52.29 60.83 C 52.35 60.81 52.41 60.79 52.48 60.79 C 52.55 60.79 52.61 60.81 52.67 60.83 L 52.67 60.83 Z" fill="#3a2c6d" fill-rule="nonzero" node-id="191" stroke="none" target-height="2.530899" target-width="4.8720016" target-x="49.188" target-y="60.7895"></path><path d="M 70.23 78.98 L 71.51 79.72 C 71.57 79.76 71.64 79.77 71.72 79.77 C 71.79 79.77 71.86 79.76 71.92 79.72 L 73.14 79.01 C 73.26 78.94 73.28 78.84 73.14 78.78 L 71.86 78.04 C 71.80 78.01 71.73 78.00 71.66 78.00 C 71.58 78.00 71.51 78.01 71.45 78.04 L 70.23 78.74 C 70.13 78.77 70.12 78.92 70.23 78.98 Z" fill="#3a2c6d" fill-rule="nonzero" node-id="193" stroke="none" target-height="1.7764053" target-width="3.159996" target-x="70.1202" target-y="77.9967"></path><path d="M 68.37 77.93 L 69.66 78.67 C 69.72 78.71 69.79 78.72 69.86 78.72 C 69.94 78.72 70.01 78.71 70.07 78.67 L 71.29 77.96 C 71.41 77.89 71.42 77.78 71.29 77.72 L 70.01 76.98 C 69.95 76.95 69.88 76.94 69.80 76.94 C 69.73 76.94 69.66 76.95 69.60 76.98 L 68.37 77.69 C 68.37 77.77 68.31 77.87 68.37 77.93 Z" fill="#3a2c6d" fill-rule="nonzero" node-id="195" stroke="none" target-height="1.7863998" target-width="3.1100006" target-x="68.3099" target-y="76.9367"></path><path d="M 66.60 76.89 L 67.89 77.63 C 67.95 77.67 68.02 77.68 68.09 77.68 C 68.16 77.68 68.23 77.67 68.29 77.63 L 69.52 76.92 C 69.64 76.85 69.65 76.75 69.52 76.69 L 68.24 75.95 C 68.18 75.92 68.11 75.91 68.04 75.91 C 67.96 75.91 67.89 75.92 67.83 75.95 L 66.60 76.66 C 66.51 76.77 66.50 76.83 66.60 76.89 Z" fill="#3a2c6d" fill-rule="nonzero" node-id="197" stroke="none" target-height="1.7762985" target-width="3.1500015" target-x="66.5001" target-y="75.9067"></path><path d="M 51.18 67.98 L 52.46 68.72 C 52.52 68.76 52.59 68.77 52.66 68.77 C 52.74 68.77 52.81 68.76 52.87 68.72 L 54.10 68.01 C 54.22 67.94 54.23 67.83 54.10 67.77 L 52.82 67.03 C 52.76 67.00 52.69 66.99 52.62 66.99 C 52.54 66.99 52.47 67.00 52.41 67.03 L 51.19 67.74 C 51.09 67.82 51.08 67.92 51.18 67.98 Z" fill="#3a2c6d" fill-rule="nonzero" node-id="199" stroke="none" target-height="1.7863998" target-width="3.1498985" target-x="51.0801" target-y="66.9867"></path><path d="M 49.37 66.94 L 50.65 67.68 C 50.71 67.72 50.78 67.73 50.86 67.73 C 50.93 67.73 51.00 67.72 51.06 67.68 L 52.28 66.97 C 52.41 66.90 52.42 66.80 52.28 66.74 L 51.00 66.00 C 50.94 65.97 50.87 65.96 50.80 65.96 C 50.72 65.96 50.65 65.97 50.59 66.00 L 49.37 66.71 C 49.28 66.77 49.26 66.88 49.37 66.94 Z" fill="#3a2c6d" fill-rule="nonzero" node-id="201" stroke="none" target-height="1.7763977" target-width="3.1599998" target-x="49.2601" target-y="65.9567"></path><path d="M 47.56 65.89 L 48.84 66.63 C 48.90 66.67 48.97 66.68 49.05 66.68 C 49.12 66.68 49.19 66.67 49.25 66.63 L 50.47 65.93 C 50.59 65.86 50.61 65.75 50.47 65.69 L 49.19 64.95 C 49.13 64.92 49.06 64.91 48.99 64.91 C 48.91 64.91 48.84 64.92 48.78 64.95 L 47.56 65.65 C 47.47 65.77 47.45 65.83 47.56 65.89 Z" fill="#3a2c6d" fill-rule="nonzero" node-id="203" stroke="none" target-height="1.7763977" target-width="3.1599998" target-x="47.45" target-y="64.9067"></path><path d="M 45.75 64.84 L 47.03 65.59 C 47.09 65.63 47.16 65.64 47.23 65.64 C 47.31 65.64 47.38 65.63 47.44 65.59 L 48.66 64.88 C 48.78 64.81 48.80 64.71 48.66 64.65 L 47.37 63.88 C 47.31 63.85 47.24 63.84 47.16 63.84 C 47.09 63.84 47.02 63.85 46.96 63.88 L 45.74 64.59 C 45.65 64.68 45.64 64.77 45.75 64.84 Z" fill="#3a2c6d" fill-rule="nonzero" node-id="205" stroke="none" target-height="1.8063965" target-width="3.1599998" target-x="45.6399" target-y="63.8367"></path><path d="M 64.37 75.57 L 66.12 76.57 C 66.18 76.61 66.25 76.62 66.32 76.62 C 66.39 76.62 66.46 76.61 66.52 76.57 L 67.75 75.87 C 67.87 75.80 67.88 75.69 67.75 75.63 L 66.00 74.63 C 65.94 74.60 65.87 74.59 65.80 74.59 C 65.72 74.59 65.65 74.60 65.59 74.63 L 64.37 75.34 C 64.23 75.41 64.22 75.51 64.37 75.57 Z" fill="#3a2c6d" fill-rule="nonzero" node-id="207" stroke="none" target-height="2.0363007" target-width="3.659996" target-x="64.22" target-y="74.5867"></path><path d="M 52.99 69.03 L 54.74 70.03 C 54.80 70.07 54.87 70.08 54.95 70.08 C 55.02 70.08 55.09 70.07 55.15 70.03 L 56.37 69.32 C 56.49 69.25 56.51 69.15 56.37 69.09 L 54.62 68.09 C 54.56 68.06 54.49 68.05 54.42 68.05 C 54.34 68.05 54.27 68.06 54.21 68.09 L 52.99 68.80 C 52.90 68.86 52.89 68.97 52.99 69.03 Z" fill="#3a2c6d" fill-rule="nonzero" node-id="209" stroke="none" target-height="2.0363998" target-width="3.619999" target-x="52.8902" target-y="68.0467"></path><path d="M 55.27 70.34 L 63.80 75.27 C 63.86 75.31 63.93 75.32 64.00 75.32 C 64.08 75.32 64.15 75.31 64.21 75.27 L 65.43 74.56 C 65.55 74.49 65.56 74.39 65.43 74.33 L 56.90 69.40 C 56.84 69.37 56.77 69.36 56.70 69.36 C 56.62 69.36 56.55 69.37 56.49 69.40 L 55.27 70.11 C 55.18 70.18 55.16 70.28 55.27 70.34 Z" fill="#3a2c6d" fill-rule="nonzero" node-id="211" stroke="none" target-height="5.9664993" target-width="10.399998" target-x="55.16" target-y="69.3567"></path><path d="M 70.57 75.11 L 71.85 75.85 C 71.91 75.89 71.98 75.90 72.06 75.90 C 72.13 75.90 72.20 75.89 72.26 75.85 L 73.48 75.15 C 73.60 75.08 73.62 74.97 73.48 74.91 L 72.20 74.17 C 72.14 74.14 72.07 74.13 72.00 74.13 C 71.92 74.13 71.85 74.14 71.79 74.17 L 70.56 74.87 C 70.47 74.94 70.46 75.05 70.57 75.11 Z" fill="#3a2c6d" fill-rule="nonzero" node-id="213" stroke="none" target-height="1.7763977" target-width="3.1600037" target-x="70.4602" target-y="74.1267"></path><path d="M 68.75 74.06 L 70.03 74.80 C 70.09 74.84 70.16 74.85 70.24 74.85 C 70.31 74.85 70.38 74.84 70.44 74.80 L 71.67 74.10 C 71.79 74.03 71.80 73.92 71.67 73.86 L 70.37 73.10 C 70.31 73.07 70.24 73.06 70.17 73.06 C 70.09 73.06 70.02 73.07 69.96 73.10 L 68.74 73.81 C 68.66 73.89 68.65 74.00 68.75 74.06 Z" fill="#3a2c6d" fill-rule="nonzero" node-id="215" stroke="none" target-height="1.796402" target-width="3.1500015" target-x="68.6502" target-y="73.0567"></path><path d="M 66.94 73.01 L 68.22 73.75 C 68.28 73.79 68.35 73.80 68.42 73.80 C 68.50 73.80 68.57 73.79 68.63 73.75 L 69.85 73.04 C 69.97 72.97 69.99 72.86 69.85 72.80 L 68.57 72.06 C 68.51 72.03 68.44 72.02 68.36 72.02 C 68.29 72.02 68.22 72.03 68.16 72.06 L 66.97 72.77 C 66.85 72.85 66.83 72.95 66.94 73.01 Z" fill="#3a2c6d" fill-rule="nonzero" node-id="217" stroke="none" target-height="1.7863998" target-width="3.159996" target-x="66.8299" target-y="72.0167"></path><path d="M 65.12 71.97 L 66.41 72.71 C 66.47 72.75 66.54 72.76 66.61 72.76 C 66.68 72.76 66.75 72.75 66.81 72.71 L 68.04 72.00 C 68.16 71.93 68.17 71.83 68.04 71.77 L 66.75 71.03 C 66.69 71.00 66.62 70.99 66.55 70.99 C 66.48 70.99 66.41 71.00 66.35 71.03 L 65.12 71.74 C 65.03 71.77 65.02 71.91 65.12 71.97 Z" fill="#3a2c6d" fill-rule="nonzero" node-id="219" stroke="none" target-height="1.7761993" target-width="3.149994" target-x="65.0201" target-y="70.9868"></path><path d="M 63.31 70.92 L 64.59 71.66 C 64.65 71.70 64.72 71.71 64.80 71.71 C 64.87 71.71 64.94 71.70 65.00 71.66 L 66.22 70.96 C 66.35 70.89 66.36 70.78 66.22 70.72 L 64.94 69.98 C 64.88 69.95 64.81 69.94 64.73 69.94 C 64.66 69.94 64.59 69.95 64.53 69.98 L 63.31 70.68 C 63.22 70.77 63.20 70.86 63.31 70.92 Z" fill="#3a2c6d" fill-rule="nonzero" node-id="221" stroke="none" target-height="1.7763977" target-width="3.1599998" target-x="63.2" target-y="69.9367"></path><path d="M 61.49 69.87 L 62.78 70.61 C 62.84 70.65 62.91 70.66 62.98 70.66 C 63.06 70.66 63.13 70.65 63.19 70.61 L 64.41 69.91 C 64.53 69.84 64.54 69.73 64.41 69.67 L 63.13 68.93 C 63.07 68.90 63.00 68.89 62.92 68.89 C 62.85 68.89 62.78 68.90 62.72 68.93 L 61.49 69.64 C 61.37 69.70 61.37 69.77 61.49 69.87 Z" fill="#3a2c6d" fill-rule="nonzero" node-id="223" stroke="none" target-height="1.7763977" target-width="3.170002" target-x="61.3699" target-y="68.8867"></path><path d="M 59.68 68.82 L 60.96 69.56 C 61.02 69.60 61.09 69.61 61.16 69.61 C 61.24 69.61 61.31 69.60 61.37 69.56 L 62.60 68.85 C 62.72 68.78 62.73 68.68 62.60 68.61 L 61.37 67.86 C 61.31 67.83 61.24 67.82 61.16 67.82 C 61.09 67.82 61.02 67.83 60.96 67.86 L 59.74 68.57 C 59.59 68.66 59.58 68.77 59.68 68.82 Z" fill="#3a2c6d" fill-rule="nonzero" node-id="225" stroke="none" target-height="1.7963943" target-width="3.1500015" target-x="59.5799" target-y="67.8167"></path><path d="M 57.87 67.77 L 59.15 68.51 C 59.21 68.55 59.28 68.56 59.36 68.56 C 59.43 68.56 59.50 68.55 59.56 68.51 L 60.78 67.80 C 60.90 67.73 60.92 67.63 60.78 67.57 L 59.50 66.83 C 59.44 66.80 59.37 66.79 59.30 66.79 C 59.22 66.79 59.15 66.80 59.09 66.83 L 57.87 67.54 C 57.77 67.61 57.76 67.77 57.87 67.77 Z" fill="#3a2c6d" fill-rule="nonzero" node-id="227" stroke="none" target-height="1.7764053" target-width="3.1599998" target-x="57.7603" target-y="66.7867"></path><path d="M 56.05 66.77 L 57.33 67.51 C 57.39 67.55 57.46 67.56 57.54 67.56 C 57.61 67.56 57.68 67.55 57.74 67.51 L 58.97 66.81 C 59.09 66.74 59.10 66.63 58.97 66.57 L 57.71 65.77 C 57.65 65.74 57.58 65.73 57.51 65.73 C 57.44 65.73 57.37 65.74 57.31 65.77 L 56.08 66.47 C 55.96 66.56 55.95 66.67 56.05 66.77 Z" fill="#3a2c6d" fill-rule="nonzero" node-id="229" stroke="none" target-height="1.8363037" target-width="3.1500015" target-x="55.9501" target-y="65.7268"></path><path d="M 54.24 65.68 L 55.52 66.42 C 55.58 66.46 55.65 66.47 55.73 66.47 C 55.80 66.47 55.87 66.46 55.93 66.42 L 57.15 65.72 C 57.27 65.65 57.29 65.54 57.15 65.48 L 55.90 64.77 C 55.84 64.74 55.77 64.73 55.70 64.73 C 55.62 64.73 55.55 64.74 55.49 64.77 L 54.27 65.48 C 54.15 65.52 54.13 65.62 54.24 65.68 Z" fill="#3a2c6d" fill-rule="nonzero" node-id="231" stroke="none" target-height="1.7463989" target-width="3.1599998" target-x="54.1302" target-y="64.7267"></path><path d="M 52.42 64.63 L 53.71 65.37 C 53.77 65.41 53.84 65.42 53.91 65.42 C 53.98 65.42 54.05 65.41 54.11 65.37 L 55.34 64.66 C 55.46 64.59 55.47 64.49 55.34 64.42 L 54.06 63.68 C 54.00 63.65 53.93 63.64 53.85 63.64 C 53.78 63.64 53.71 63.65 53.65 63.68 L 52.42 64.39 C 52.37 64.47 52.37 64.57 52.42 64.63 Z" fill="#3a2c6d" fill-rule="nonzero" node-id="233" stroke="none" target-height="1.7862968" target-width="3.0999985" target-x="52.3698" target-y="63.6367"></path><path d="M 50.61 63.59 L 51.89 64.33 C 51.95 64.37 52.02 64.38 52.09 64.38 C 52.17 64.38 52.24 64.37 52.30 64.33 L 53.52 63.62 C 53.65 63.55 53.66 63.45 53.52 63.39 L 52.24 62.65 C 52.18 62.62 52.11 62.61 52.03 62.61 C 51.96 62.61 51.89 62.62 51.83 62.65 L 50.61 63.36 C 50.52 63.42 50.50 63.53 50.61 63.59 Z" fill="#3a2c6d" fill-rule="nonzero" node-id="235" stroke="none" target-height="1.7764015" target-width="3.1599998" target-x="50.4999" target-y="62.6067"></path><path d="M 72.37 76.16 L 75.02 77.69 C 75.08 77.73 75.15 77.74 75.22 77.74 C 75.30 77.74 75.37 77.73 75.43 77.69 L 76.66 76.98 C 76.78 76.91 76.79 76.81 76.66 76.75 L 74.00 75.22 C 73.94 75.19 73.87 75.18 73.80 75.18 C 73.72 75.18 73.65 75.19 73.59 75.22 L 72.37 75.93 C 72.29 75.99 72.28 76.10 72.37 76.16 Z" fill="#3a2c6d" fill-rule="nonzero" node-id="237" stroke="none" target-height="2.5664063" target-width="4.510002" target-x="72.28" target-y="75.1767"></path><path d="M 69.71 76.64 L 70.99 77.39 C 71.05 77.43 71.12 77.44 71.19 77.44 C 71.27 77.44 71.34 77.43 71.40 77.39 L 72.62 76.68 C 72.74 76.61 72.76 76.51 72.62 76.45 L 71.37 75.69 C 71.31 75.66 71.24 75.64 71.16 75.64 C 71.09 75.64 71.02 75.66 70.96 75.69 L 69.74 76.40 C 69.61 76.48 69.60 76.58 69.71 76.64 Z" fill="#3a2c6d" fill-rule="nonzero" node-id="239" stroke="none" target-height="1.8002014" target-width="3.1600037" target-x="69.5999" target-y="75.6429"></path><path d="M 67.89 75.60 L 69.17 76.34 C 69.23 76.38 69.30 76.39 69.38 76.39 C 69.45 76.39 69.52 76.38 69.58 76.34 L 70.81 75.63 C 70.93 75.56 70.94 75.46 70.81 75.40 L 69.52 74.66 C 69.46 74.63 69.39 74.62 69.32 74.62 C 69.25 74.62 69.18 74.63 69.12 74.66 L 67.89 75.37 C 67.80 75.43 67.79 75.54 67.89 75.60 Z" fill="#3a2c6d" fill-rule="nonzero" node-id="241" stroke="none" target-height="1.7761993" target-width="3.1501007" target-x="67.7901" target-y="74.6169"></path><path d="M 66.08 74.55 L 67.36 75.29 C 67.42 75.33 67.49 75.34 67.57 75.34 C 67.64 75.34 67.71 75.33 67.77 75.29 L 68.99 74.59 C 69.11 74.52 69.13 74.41 68.99 74.35 L 67.71 73.61 C 67.65 73.58 67.58 73.57 67.51 73.57 C 67.43 73.57 67.36 73.58 67.30 73.61 L 66.08 74.31 C 65.99 74.38 65.97 74.49 66.08 74.55 Z" fill="#3a2c6d" fill-rule="nonzero" node-id="243" stroke="none" target-height="1.7763977" target-width="3.159996" target-x="65.9701" target-y="73.5667"></path><path d="M 64.26 73.50 L 65.55 74.24 C 65.61 74.28 65.68 74.29 65.76 74.29 C 65.83 74.29 65.90 74.28 65.96 74.24 L 67.18 73.53 C 67.30 73.46 67.31 73.35 67.18 73.29 L 65.90 72.55 C 65.84 72.52 65.77 72.51 65.70 72.51 C 65.62 72.51 65.55 72.52 65.49 72.55 L 64.26 73.26 C 64.17 73.34 64.16 73.44 64.26 73.50 Z" fill="#3a2c6d" fill-rule="nonzero" node-id="245" stroke="none" target-height="1.786499" target-width="3.1500015" target-x="64.1603" target-y="72.5067"></path><path d="M 62.45 72.46 L 63.73 73.20 C 63.79 73.24 63.86 73.25 63.93 73.25 C 64.01 73.25 64.08 73.24 64.14 73.20 L 65.37 72.47 C 65.49 72.40 65.50 72.30 65.37 72.24 L 64.09 71.50 C 64.03 71.47 63.96 71.46 63.88 71.46 C 63.81 71.46 63.74 71.47 63.68 71.50 L 62.46 72.21 C 62.37 72.29 62.37 72.40 62.45 72.46 Z" fill="#3a2c6d" fill-rule="nonzero" node-id="247" stroke="none" target-height="1.7963943" target-width="3.130001" target-x="62.3699" target-y="71.4567"></path><path d="M 60.64 71.41 L 61.92 72.15 C 61.98 72.19 62.05 72.20 62.12 72.20 C 62.20 72.20 62.27 72.19 62.33 72.15 L 63.55 71.45 C 63.67 71.38 63.69 71.27 63.55 71.21 L 62.27 70.47 C 62.21 70.44 62.14 70.43 62.06 70.43 C 61.99 70.43 61.92 70.44 61.86 70.47 L 60.64 71.17 C 60.54 71.24 60.53 71.35 60.64 71.41 Z" fill="#3a2c6d" fill-rule="nonzero" node-id="249" stroke="none" target-height="1.7764053" target-width="3.1599998" target-x="60.5298" target-y="70.4267"></path><path d="M 58.82 70.36 L 60.10 71.10 C 60.16 71.14 60.23 71.15 60.30 71.15 C 60.38 71.15 60.45 71.14 60.51 71.10 L 61.74 70.40 C 61.86 70.33 61.87 70.22 61.74 70.16 L 60.45 69.42 C 60.39 69.39 60.32 69.38 60.25 69.38 C 60.18 69.38 60.11 69.39 60.05 69.42 L 58.82 70.13 C 58.73 70.19 58.72 70.30 58.82 70.36 Z" fill="#3a2c6d" fill-rule="nonzero" node-id="251" stroke="none" target-height="1.7761993" target-width="3.1500015" target-x="58.7198" target-y="69.3769"></path><path d="M 57.01 69.31 L 58.29 70.05 C 58.35 70.09 58.42 70.10 58.50 70.10 C 58.57 70.10 58.64 70.09 58.70 70.05 L 59.92 69.34 C 60.04 69.27 60.06 69.17 59.92 69.10 L 58.64 68.36 C 58.58 68.33 58.51 68.32 58.44 68.32 C 58.36 68.32 58.29 68.33 58.23 68.36 L 57.01 69.07 C 56.92 69.15 56.90 69.25 57.01 69.31 Z" fill="#3a2c6d" fill-rule="nonzero" node-id="253" stroke="none" target-height="1.7863998" target-width="3.1599998" target-x="56.9002" target-y="68.3167"></path><path d="M 55.19 68.27 L 56.48 69.01 C 56.54 69.05 56.61 69.06 56.69 69.06 C 56.76 69.06 56.83 69.05 56.89 69.01 L 58.11 68.30 C 58.23 68.23 58.24 68.13 58.11 68.07 L 56.83 67.33 C 56.77 67.30 56.70 67.29 56.62 67.29 C 56.55 67.29 56.48 67.30 56.42 67.33 L 55.19 68.04 C 55.10 68.10 55.09 68.21 55.19 68.27 Z" fill="#3a2c6d" fill-rule="nonzero" node-id="255" stroke="none" target-height="1.7764053" target-width="3.1500015" target-x="55.09" target-y="67.2867"></path><path d="M 53.37 67.22 L 54.65 67.96 C 54.71 68.00 54.78 68.01 54.85 68.01 C 54.93 68.01 55.00 68.00 55.06 67.96 L 56.29 67.26 C 56.41 67.19 56.42 67.08 56.29 67.02 L 55.00 66.28 C 54.94 66.25 54.87 66.24 54.80 66.24 C 54.72 66.24 54.65 66.25 54.59 66.28 L 53.37 66.98 C 53.29 67.05 53.28 67.16 53.37 67.22 Z" fill="#3a2c6d" fill-rule="nonzero" node-id="257" stroke="none" target-height="1.7764969" target-width="3.1399994" target-x="53.28" target-y="66.2367"></path><path d="M 51.57 66.17 L 52.85 66.91 C 52.91 66.95 52.98 66.96 53.05 66.96 C 53.13 66.96 53.20 66.95 53.26 66.91 L 54.48 66.20 C 54.60 66.13 54.62 66.02 54.48 65.96 L 53.20 65.22 C 53.14 65.19 53.07 65.18 52.99 65.18 C 52.92 65.18 52.85 65.19 52.79 65.22 L 51.57 65.93 C 51.47 66.01 51.46 66.11 51.57 66.17 Z" fill="#3a2c6d" fill-rule="nonzero" node-id="259" stroke="none" target-height="1.7863998" target-width="3.1599998" target-x="51.46" target-y="65.1767"></path><path d="M 47.51 63.83 L 51.04 65.83 C 51.10 65.87 51.17 65.88 51.24 65.88 C 51.31 65.88 51.38 65.87 51.44 65.83 L 52.67 65.12 C 52.79 65.05 52.80 64.95 52.67 64.89 L 49.14 62.89 C 49.08 62.86 49.01 62.85 48.94 62.85 C 48.86 62.85 48.79 62.86 48.73 62.89 L 47.51 63.59 C 47.42 63.66 47.37 63.77 47.51 63.83 Z" fill="#3a2c6d" fill-rule="nonzero" node-id="261" stroke="none" target-height="3.0363045" target-width="5.4300003" target-x="47.3701" target-y="62.8467"></path><path d="M 71.52 77.69 L 73.27 78.69 C 73.33 78.72 73.40 78.74 73.48 78.74 C 73.55 78.74 73.62 78.72 73.68 78.69 L 74.90 77.98 C 75.02 77.91 75.04 77.80 74.90 77.74 L 73.15 76.74 C 73.09 76.71 73.02 76.70 72.95 76.70 C 72.87 76.70 72.80 76.71 72.74 76.74 L 71.52 77.45 C 71.43 77.53 71.37 77.63 71.52 77.69 Z" fill="#3a2c6d" fill-rule="nonzero" node-id="263" stroke="none" target-height="2.0431976" target-width="3.6699982" target-x="71.3701" target-y="76.6967"></path><path d="M 84.82 74.09 L 55.71 57.27 L 55.71 34.38 L 55.93 33.86 L 56.17 33.74 C 56.47 33.57 56.82 33.48 57.17 33.48 C 57.52 33.48 57.87 33.57 58.17 33.74 L 84.81 49.13 C 85.12 49.31 85.37 49.56 85.54 49.87 C 85.72 50.18 85.81 50.52 85.81 50.87 L 85.81 72.35 C 85.64 73.46 85.44 73.77 84.82 74.09 Z" fill="#e5e5e5" fill-rule="nonzero" node-id="265" stroke="none" target-height="40.6179" target-width="30.101402" target-x="55.71" target-y="33.477"></path><path d="M 82.15 51.90 L 55.71 35.14 L 55.71 34.38 L 55.93 33.86 L 56.17 33.74 C 56.47 33.57 56.82 33.48 57.17 33.48 C 57.52 33.48 57.87 33.57 58.17 33.74 L 84.81 49.13 C 85.13 49.32 85.40 49.60 85.58 49.92 L 82.15 51.90 Z" fill="#e5e5e5" fill-rule="nonzero" node-id="267" stroke="none" target-height="18.427898" target-width="29.870003" target-x="55.71" target-y="33.477"></path><path d="M 56.37 33.86 L 84.37 50.00 C 84.52 50.09 84.64 50.22 84.73 50.37 C 84.81 50.51 84.86 50.68 84.86 50.85 L 84.86 74.09 L 55.71 57.27 L 55.71 34.27 C 55.71 34.20 55.73 34.12 55.76 34.05 C 55.80 33.98 55.86 33.92 55.92 33.88 C 55.99 33.84 56.07 33.82 56.14 33.81 C 56.22 33.81 56.30 33.83 56.37 33.86 L 56.37 33.86 Z" fill="#dceeff" fill-rule="nonzero" node-id="269" stroke="none" target-height="40.284504" target-width="29.1521" target-x="55.708" target-y="33.8104"></path><path d="M 56.37 33.86 L 84.37 50.00 C 84.52 50.09 84.64 50.22 84.73 50.37 C 84.81 50.51 84.86 50.68 84.86 50.85 L 84.86 74.09 L 55.71 57.27 L 55.71 34.27 C 55.71 34.20 55.73 34.12 55.76 34.05 C 55.80 33.98 55.86 33.92 55.92 33.88 C 55.99 33.84 56.07 33.82 56.14 33.81 C 56.22 33.81 56.30 33.83 56.37 33.86 L 56.37 33.86 Z" fill="#f4f4f4" fill-rule="nonzero" node-id="271" stroke="none" target-height="40.284504" target-width="29.1521" target-x="55.708" target-y="33.8104"></path><path d="M 84.82 74.08 L 84.82 73.26 L 55.71 56.44 L 55.71 57.27 L 84.82 74.08 Z" fill="#dbdbdb" fill-rule="nonzero" node-id="273" stroke="none" target-height="17.64" target-width="29.11" target-x="55.71" target-y="56.4449"></path><path d="M 56.46 56.05 L 56.46 35.06 L 56.82 35.27 L 56.82 55.88 L 56.46 56.05 Z" fill="#1e3779" fill-rule="nonzero" node-id="275" stroke="none" target-height="20.990002" target-width="0.3600006" target-x="56.46" target-y="35.0649"></path><path d="M 56.82 35.27 L 56.82 55.88 L 83.89 71.47 L 83.89 50.90 L 56.82 35.27 Z" fill="#3a2c6d" fill-rule="nonzero" node-id="277" stroke="none" target-height="36.2" target-width="27.069996" target-x="56.8203" target-y="35.2749"></path><path d="M 56.46 56.05 L 83.89 71.88 L 83.89 71.47 L 56.82 55.88 L 56.46 56.05 Z" fill="#031f60" fill-rule="nonzero" node-id="279" stroke="none" target-height="16.000004" target-width="27.43" target-x="56.46" target-y="55.8849"></path><path d="M 25.11 30.23 C 24.42 31.95 26.18 34.06 30.87 35.53 C 35.56 37.01 35.99 35.11 35.99 35.11 C 39.12 36.52 42.16 38.08 45.12 39.81 C 47.93 41.81 49.18 47.48 49.56 57.10 C 50.00 68.24 50.04 84.76 49.67 87.61 C 49.67 87.61 44.40 92.85 37.67 92.30 C 30.94 91.75 19.59 85.77 16.84 81.18 C 16.91 71.42 18.06 69.83 16.48 64.18 C 12.86 51.31 10.95 46.03 12.71 37.48 C 14.16 30.43 16.19 29.55 18.98 29.62 C 21.03 29.72 23.08 29.92 25.11 30.23 L 25.11 30.23 Z" fill="#f4f4f4" fill-rule="nonzero" node-id="281" stroke="none" target-height="63.299995" target-width="39.090004" target-x="10.9499" target-y="29.5549"></path><path d="M 60.64 69.04 C 55.12 70.43 53.82 66.95 53.09 64.04 C 51.37 57.07 50.37 50.77 49.07 46.77 C 47.53 42.09 45.91 41.34 43.63 40.43 C 40.96 39.36 38.63 41.62 39.56 47.57 C 40.61 54.62 41.99 59.57 44.62 67.90 C 45.31 70.08 46.85 73.95 49.16 75.82 C 52.02 78.12 56.31 78.03 62.82 76.42 C 65.59 75.72 68.63 74.06 73.82 71.61 C 75.23 70.96 76.33 70.52 79.03 69.26 C 81.74 68.04 84.12 66.19 85.96 63.85 C 87.38 61.80 87.57 60.85 87.28 60.37 C 86.99 59.89 86.28 59.91 85.52 60.77 C 84.42 62.24 83.06 63.49 81.52 64.46 C 81.52 64.46 83.26 62.65 84.21 61.46 C 85.08 60.44 85.81 59.31 86.37 58.08 C 86.87 56.89 85.84 55.26 85.06 56.08 C 84.28 56.90 83.90 57.81 82.47 59.52 C 81.72 60.44 80.86 61.26 79.91 61.96 C 80.80 60.77 81.59 59.50 82.27 58.17 C 82.88 57.14 83.18 55.94 83.13 54.73 C 83.13 54.11 82.21 53.37 81.38 54.55 C 80.55 55.73 80.15 57.28 78.38 59.09 C 77.12 60.40 76.05 61.15 76.01 60.79 C 75.97 60.43 76.78 59.70 77.23 58.18 C 77.68 56.66 77.23 55.04 76.38 54.86 C 75.53 54.68 75.70 54.73 75.03 56.16 C 74.36 57.59 73.37 58.67 72.54 60.77 C 72.12 62.25 71.34 63.59 70.27 64.68 C 68.91 66.12 65.90 67.77 60.64 69.04 Z" fill="#ffcea9" fill-rule="nonzero" node-id="283" stroke="none" target-height="38.760002" target-width="48.94" target-x="38.63" target-y="39.3649"></path><path d="M 41.59 39.50 C 45.28 38.95 47.89 40.61 49.52 46.21 C 51.15 51.81 52.29 56.40 52.29 56.40 C 50.83 58.51 48.61 59.98 46.10 60.51 C 41.69 61.57 40.10 59.46 40.10 59.46 C 40.10 59.46 38.87 53.60 38.10 49.61 C 37.33 45.62 37.02 40.17 41.59 39.50 Z" fill="#ededed" fill-rule="nonzero" node-id="285" stroke="none" target-height="22.620003" target-width="15.27" target-x="37.0202" target-y="38.9549"></path><path d="M 43.37 10.85 C 43.37 10.85 49.20 1.98 36.56 0.18 C 27.44 -1.13 21.56 4.73 20.91 11.10 C 20.26 17.16 24.00 23.48 26.70 25.98 C 28.02 26.45 30.85 26.71 34.58 25.02 C 34.73 23.36 34.79 21.69 34.75 20.02 C 34.75 20.02 30.37 10.69 43.37 10.85 Z" fill="#3a2c6d" fill-rule="nonzero" node-id="287" stroke="none" target-height="27.839949" target-width="28.94" target-x="20.26" target-y="-1.12505"></path><path d="M 69.34 123.31 L 69.34 96.67 L 48.19 109.02 L 56.34 125.87 L 69.34 123.31 Z" fill="#c4c7d6" fill-rule="nonzero" node-id="289" stroke="none" target-height="29.200005" target-width="21.149998" target-x="48.1899" target-y="96.67"></path><path d="M 55.48 98.21 L 63.60 93.50 L 69.34 96.81 L 60.92 101.59 L 55.48 98.21 Z" fill="#d6d8e5" fill-rule="nonzero" node-id="291" stroke="none" target-height="8.089996" target-width="13.859997" target-x="55.48" target-y="93.5"></path></svg>