<?xml version="1.0" standalone="no"?><!DOCTYPE svg PUBLIC "-//W3C//DTD SVG 1.1//EN" "http://www.w3.org/Graphics/SVG/1.1/DTD/svg11.dtd"><svg height="1100" node-id="1" sillyvg="true" template-height="1100" template-width="1100" version="1.1" viewBox="0 0 1100 1100" width="1100" xmlns="http://www.w3.org/2000/svg" xmlns:xlink="http://www.w3.org/1999/xlink"><defs node-id="76"><clipPath id="SVGID_1_" node-id="21"><path d="M 492.69 591.50 C 492.69 595.83 489.14 599.38 484.81 599.38 L 322.48 599.38 C 318.15 599.38 314.60 595.83 314.60 591.50 L 314.60 481.98 C 314.60 477.65 318.15 474.10 322.48 474.10 L 484.81 474.10 C 489.14 474.10 492.69 477.65 492.69 481.98 L 492.69 591.50 Z" fill="#000000" fill-rule="nonzero" node-id="79" stroke="none" target-height="125.28" target-width="178.09" target-x="314.6" target-y="474.1"></path></clipPath></defs><g node-id="242"><path d="M 424.76 931.47 C 459.96 931.76 503.76 935.01 538.86 937.27 C 636.87 943.60 633.12 948.93 731.14 951.12 C 785.87 952.34 823.27 970.25 824.01 982.82 C 824.68 994.07 806.52 1003.66 793.29 1006.44 C 746.02 1016.35 709.45 1006.30 660.61 1006.13 C 588.76 1005.88 533.33 1012.74 443.83 1011.72 C 398.97 1011.21 370.22 1014.96 328.80 1000.58 C 306.22 992.74 271.25 997.54 276.50 973.38 C 283.09 943.04 334.03 946.02 344.83 945.47 C 366.22 944.36 403.32 931.29 424.76 931.47 Z" fill="#3b5a80" fill-opacity="0.16" fill-rule="nonzero" group-id="1" node-id="87" stroke="none" target-height="85.06" target-width="553.43" target-x="271.25" target-y="931.29"></path></g><g node-id="243"><path d="M 509.86 381.07 L 544.86 385.33 C 544.86 385.33 558.65 379.95 565.58 376.90 C 572.52 373.85 578.23 372.64 578.23 372.64 C 578.23 372.64 580.19 377.14 575.13 381.15 C 570.07 385.16 566.15 388.46 566.15 388.46 L 582.22 412.79 C 582.22 412.79 583.61 416.16 580.91 418.09 C 578.52 419.80 576.59 419.05 576.59 419.05 C 576.59 419.05 576.47 421.62 574.63 422.59 C 572.18 423.88 570.06 423.47 570.06 423.47 C 570.06 423.47 567.97 425.79 566.55 426.04 C 563.86 426.52 560.92 424.99 560.92 424.99 C 560.92 424.99 557.20 425.36 555.29 424.59 C 553.09 423.71 538.89 402.35 538.89 402.35 L 508.38 408.21" fill="#f7c4a2" fill-rule="nonzero" group-id="2" node-id="92" stroke="none" target-height="53.879974" target-width="75.22998" target-x="508.38" target-y="372.64"></path><path d="M 443.47 941.76 C 443.47 941.76 451.72 945.60 458.12 946.31 C 464.52 947.02 478.89 949.15 477.90 956.84 C 476.90 964.52 460.40 965.52 455.28 965.52 C 450.16 965.52 422.28 965.66 420.71 965.52 C 419.14 965.38 403.07 946.88 398.37 941.76 C 393.67 936.64 388.70 929.10 386.14 929.10 C 383.58 929.10 385.00 963.39 385.00 963.39 L 378.02 963.39 C 378.02 963.39 379.02 947.31 373.89 935.36 C 368.77 923.41 362.22 919.71 360.80 914.16 C 359.42 908.76 360.23 900.50 363.79 893.53 C 367.35 886.56 373.75 884.28 373.75 884.28 L 443.47 941.76 Z" fill="#3c3b3b" fill-rule="nonzero" group-id="2" node-id="94" stroke="none" target-height="81.379944" target-width="119.47" target-x="359.42" target-y="884.28"></path><path d="M 382.24 848.01 C 380.91 875.33 376.17 885.57 376.17 885.57 C 376.17 885.57 377.59 887.47 383.10 893.53 C 388.06 898.99 396.94 910.60 405.10 920.28 C 413.26 929.96 423.88 942.85 433.17 944.94 C 442.47 947.03 444.17 942.09 444.17 942.09 C 444.17 942.09 437.34 923.88 432.98 914.58 C 428.62 905.29 421.78 890.50 420.66 875.50 C 419.85 864.78 416.86 831.63 416.86 831.63 L 382.24 848.01 Z" fill="#e9b897" fill-rule="nonzero" group-id="2" node-id="96" stroke="none" target-height="115.400024" target-width="68" target-x="376.17" target-y="831.63"></path><path d="M 378.02 963.39 L 385.00 963.39 L 384.81 959.36 L 378.06 959.37 Z" fill="#1c1b1a" fill-rule="nonzero" group-id="2" node-id="98" stroke="none" target-height="4.0300293" target-width="6.980011" target-x="378.02" target-y="959.36"></path><path d="M 438.25 944.99 C 438.25 944.99 446.50 948.83 452.90 949.54 C 459.30 950.25 473.67 952.39 472.67 960.07 C 471.68 967.75 455.17 968.75 450.05 968.75 C 444.93 968.75 417.04 968.89 415.48 968.75 C 413.92 968.61 397.84 950.11 393.14 944.99 C 388.45 939.87 383.47 932.33 380.90 932.33 C 378.34 932.33 379.76 966.62 379.76 966.62 L 372.79 966.62 C 372.79 966.62 373.79 950.54 368.66 938.59 C 363.54 926.64 356.99 922.94 355.57 917.39 C 354.19 911.99 355.00 903.73 358.56 896.76 C 362.12 889.79 368.52 887.51 368.52 887.51 L 438.25 944.99 Z" fill="#4c4b4b" fill-rule="nonzero" group-id="2" node-id="100" stroke="none" target-height="81.380005" target-width="119.48001" target-x="354.19" target-y="887.51"></path><path d="M 402.54 630.71 C 402.54 630.71 393.15 626.72 389.45 624.45 C 385.75 622.17 383.19 619.61 383.19 619.61 C 383.19 619.61 384.62 631.56 384.05 646.64 C 383.48 661.72 380.63 691.31 376.65 704.69 C 372.66 718.06 364.70 745.95 366.12 766.44 C 367.54 786.93 371.81 795.46 372.66 804.28 C 373.52 813.10 374.94 822.49 375.79 834.16 C 376.65 845.82 378.07 879.97 378.07 879.97 C 378.07 879.97 382.91 866.88 384.05 856.35 C 385.19 845.82 383.19 818.51 382.91 803.99 C 382.62 789.48 381.20 772.40 391.45 745.37 C 401.69 718.34 411.37 698.99 411.08 687.61 C 410.79 676.24 402.54 630.71 402.54 630.71 Z" fill="#e9b897" fill-rule="nonzero" group-id="2" node-id="102" stroke="none" target-height="260.36" target-width="46.669983" target-x="364.7" target-y="619.61"></path><path d="M 372.80 966.61 L 379.78 966.61 L 379.58 962.58 L 372.84 962.59 Z" fill="#3c3b3b" fill-rule="nonzero" group-id="2" node-id="104" stroke="none" target-height="4.0299683" target-width="6.980011" target-x="372.8" target-y="962.58"></path><path d="M 462.29 620.94 C 462.29 620.94 462.10 645.60 462.29 656.98 C 462.48 668.36 465.72 687.96 463.81 693.78 C 461.72 700.13 445.22 727.74 442.37 737.41 C 439.52 747.08 435.54 773.45 430.80 789.58 C 426.05 805.70 418.82 836.83 418.09 844.40 C 417.14 854.27 414.11 863.75 415.43 878.74 C 416.76 893.73 423.39 908.52 427.76 917.82 C 432.12 927.11 438.95 945.33 438.95 945.33 C 438.95 945.33 437.24 950.26 427.95 948.18 C 418.66 946.09 408.03 933.19 399.87 923.52 C 391.72 913.85 383.18 901.90 377.87 896.78 C 372.56 891.66 369.52 888.81 369.52 888.81 C 369.52 888.81 380.71 879.33 382.04 852.01 C 383.37 824.69 376.91 780.68 385.07 756.21 C 393.23 731.74 409.54 699.87 409.16 686.78 C 408.78 673.69 400.05 630.25 400.05 630.25 C 400.05 630.25 407.64 631.58 418.83 625.89 C 430.02 620.20 437.80 618.87 448.04 620.01 C 458.31 621.13 462.29 620.94 462.29 620.94 Z" fill="#f7c4a2" fill-rule="nonzero" group-id="2" node-id="106" stroke="none" target-height="331.39" target-width="96.20001" target-x="369.52" target-y="618.87"></path><g node-id="245"><g node-id="249"><path d="M 492.69 591.50 C 492.69 595.83 489.14 599.38 484.81 599.38 L 322.48 599.38 C 318.15 599.38 314.60 595.83 314.60 591.50 L 314.60 481.98 C 314.60 477.65 318.15 474.10 322.48 474.10 L 484.81 474.10 C 489.14 474.10 492.69 477.65 492.69 481.98 L 492.69 591.50 Z" fill="#804f21" fill-rule="nonzero" group-id="2,4,8" node-id="112" stroke="none" target-height="125.28" target-width="178.09" target-x="314.6" target-y="474.1"></path><g node-id="256"><g clip-path="url(#SVGID_1_)" group-id="2,4,8,15" node-id="116"><path d="M 321.18 470.94 C 318.43 470.94 316.95 473.05 317.89 475.64 L 336.53 526.90 C 337.47 529.48 340.49 531.61 343.24 531.61 L 463.26 531.97 C 466.01 531.98 469.05 529.88 470.01 527.30 L 489.36 475.60 C 490.32 473.02 488.86 470.92 486.11 470.92 L 321.18 470.94 Z" fill="none" group-id="2,4,8,15,17" node-id="118" stroke="#946134" stroke-linecap="butt" stroke-width="2" target-height="61.059967" target-width="173.37" target-x="316.95" target-y="470.92"></path></g></g><path d="M 414.48 531.61 C 414.48 534.44 412.19 536.73 409.36 536.73 L 397.93 536.73 C 395.10 536.73 392.81 534.44 392.81 531.61 L 392.81 531.61 C 392.81 528.78 395.10 526.49 397.93 526.49 L 409.36 526.49 C 412.19 526.49 414.48 528.78 414.48 531.61 L 414.48 531.61 Z" fill="#e88e05" fill-rule="nonzero" group-id="2,4,8" node-id="122" stroke="none" target-height="10.23999" target-width="21.670013" target-x="392.81" target-y="526.49"></path></g><g node-id="250"><path d="M 369.50 427.65 C 369.50 427.65 366.74 438.69 366.43 449.42 C 366.12 460.15 361.52 470.58 356.00 487.45 C 350.48 504.32 343.12 523.03 355.69 554.31 C 368.26 585.59 374.70 599.70 375.32 606.14 C 375.94 612.58 374.80 642.73 376.55 652.45 C 377.09 655.47 389.43 665.64 400.47 664.41 C 411.51 663.18 426.85 652.45 442.49 653.37 C 458.13 654.29 468.56 656.44 469.78 653.98 C 471.01 651.53 452.60 531.61 455.67 507.08 C 458.73 482.54 456.59 431.03 456.59 431.03 C 456.59 431.03 454.19 411.40 418.26 411.40 C 376.24 411.40 369.50 427.65 369.50 427.65 Z" fill="#ffffff" fill-rule="nonzero" group-id="2,4,9" node-id="127" stroke="none" target-height="254.24002" target-width="127.890015" target-x="343.12" target-y="411.4"></path><path d="M 365.85 438.28 C 365.85 438.28 401.38 440.27 416.78 438.78 C 432.18 437.29 452.94 438.24 458.51 429.09 C 464.95 418.53 452.63 395.64 450.64 380.24 C 448.65 364.84 452.27 290.08 431.90 265.23 C 411.53 240.39 380.39 197.66 357.54 201.64 C 337.66 205.10 332.53 259.77 338.99 279.15 C 345.45 298.53 366.67 373.29 367.67 392.67 C 368.67 412.03 365.85 438.28 365.85 438.28 Z" fill="#c30d23" fill-rule="nonzero" group-id="2,4,9" node-id="129" stroke="none" target-height="242.60999" target-width="132.42001" target-x="332.53" target-y="197.66"></path><g node-id="257"><path d="M 430.20 374.53 C 430.20 374.53 418.59 317.69 400.88 283.78 C 385.04 253.45 375.40 249.92 359.21 259.88 C 336.43 273.89 388.86 377.56 396.66 393.72 C 402.80 406.44 402.42 415.66 419.40 417.12 C 436.38 418.57 521.90 411.40 521.90 411.40 C 521.90 411.40 517.67 401.39 518.50 394.35 C 519.33 387.32 522.38 377.41 522.38 377.41 L 430.20 374.53 Z" fill="#e73820" fill-rule="nonzero" group-id="2,4,9,16" node-id="133" stroke="none" target-height="168.65001" target-width="185.95001" target-x="336.43" target-y="249.92"></path><g node-id="259"><path d="M 517.84 394.22 L 473.36 396.03" fill="none" group-id="2,4,9,16,18" node-id="137" stroke="#ffffff" stroke-linecap="round" stroke-width="0.9159" target-height="1.8099976" target-width="44.48004" target-x="473.36" target-y="394.22"></path><g node-id="260"><path d="M 505.05 394.55 C 505.05 396.37 503.57 397.85 501.75 397.85 C 499.93 397.85 498.45 396.37 498.45 394.55 C 498.45 392.73 499.93 391.25 501.75 391.25 C 503.58 391.26 505.05 392.73 505.05 394.55 Z" fill="#c79f62" fill-rule="nonzero" group-id="2,4,9,16,18,19" node-id="141" stroke="none" target-height="6.600006" target-width="6.5999756" target-x="498.45" target-y="391.25"></path><path d="M 493.11 395.38 C 493.11 397.20 491.63 398.68 489.81 398.68 C 487.99 398.68 486.51 397.20 486.51 395.38 C 486.51 393.56 487.98 392.09 489.81 392.09 C 491.63 392.08 493.11 393.56 493.11 395.38 Z" fill="#c79f62" fill-rule="nonzero" group-id="2,4,9,16,18,19" node-id="143" stroke="none" target-height="6.600006" target-width="6.5999756" target-x="486.51" target-y="392.08"></path></g></g></g></g></g><g node-id="246"><path d="M 457.99 114.85 C 457.99 114.85 462.36 120.42 462.59 131.84 C 462.77 140.83 460.37 152.14 456.95 160.81 C 456.31 162.43 458.82 171.19 459.69 176.56 C 460.04 178.74 456.84 179.96 451.12 180.59 C 450.38 183.80 449.93 185.69 448.50 189.30 C 446.56 194.17 445.46 201.34 439.01 202.66 C 433.08 203.88 421.97 198.83 421.97 198.83 L 412.76 215.46 C 412.76 215.46 408.99 191.97 412.76 170.23 C 416.53 148.48 416.53 148.48 416.53 148.48 L 457.99 114.85 Z" fill="#f7c4a2" fill-rule="nonzero" group-id="2,5" node-id="152" stroke="none" target-height="100.61001" target-width="53.78" target-x="408.99" target-y="114.85"></path></g><path d="M 433.13 93.18 C 415.74 88.91 400.35 82.43 380.85 98.39 C 355.62 119.03 350.02 166.89 346.28 185.29 C 342.73 202.72 338.11 221.39 344.11 217.53 C 356.52 209.55 382.21 221.54 395.21 232.77 C 408.03 243.84 433.60 268.05 433.60 268.05 C 433.60 268.05 417.37 237.20 415.60 227.75 C 413.83 218.29 412.65 205.29 412.05 196.43 C 411.48 187.85 415.89 156.56 416.17 154.57 C 424.78 145.26 433.30 142.91 447.07 141.28 C 466.79 138.92 462.60 124.00 462.60 124.00 C 462.60 124.00 458.93 99.51 433.13 93.18 Z" fill="#3e3a39" fill-rule="nonzero" group-id="2" node-id="155" stroke="none" target-height="185.62" target-width="128.68002" target-x="338.11" target-y="82.43"></path></g><g node-id="244"><g node-id="247"><path d="M 679.00 367.01 L 601.56 388.22 C 601.56 388.22 586.14 380.43 583.61 379.87 C 581.48 379.40 577.33 378.83 573.98 380.99 C 570.64 383.16 554.97 394.16 555.79 395.76 C 556.61 397.37 560.60 399.21 565.34 397.53 C 570.07 395.84 570.64 395.44 570.64 395.44 L 581.80 414.00 L 602.88 404.94 L 683.25 395.88" fill="#e9b699" fill-rule="nonzero" group-id="3,6" node-id="162" stroke="none" target-height="46.98999" target-width="128.28003" target-x="554.97" target-y="367.01"></path><g node-id="251"><path d="M 539.95 403.89 L 544.06 409.83 C 544.06 409.83 539.92 411.49 538.71 408.84 C 537.50 406.18 539.95 403.89 539.95 403.89 Z" fill="#e9b699" fill-rule="nonzero" group-id="3,6,10" node-id="166" stroke="none" target-height="7.5999756" target-width="6.5599976" target-x="537.5" target-y="403.89"></path><path d="M 539.90 412.30 C 539.90 412.30 543.98 407.82 547.03 410.63 C 550.08 413.45 548.12 415.11 546.80 416.55 C 545.48 417.99 543.98 419.19 542.49 418.79 C 541.00 418.39 539.09 416.94 538.93 415.46 C 538.69 413.39 539.90 412.30 539.90 412.30 Z" fill="#e9b699" fill-rule="nonzero" group-id="3,6,10" node-id="168" stroke="none" target-height="11.369995" target-width="11.390015" target-x="538.69" target-y="407.82"></path><path d="M 544.84 415.99 C 544.84 415.99 548.29 412.60 550.26 413.58 C 552.23 414.56 553.43 416.92 551.41 419.54 C 549.39 422.17 547.39 423.91 545.34 423.04 C 542.08 421.67 542.08 418.58 542.08 418.58 L 544.84 415.99 Z" fill="#e9b699" fill-rule="nonzero" group-id="3,6,10" node-id="170" stroke="none" target-height="11.309998" target-width="11.349976" target-x="542.08" target-y="412.6"></path><path d="M 550.86 417.57 C 550.86 417.57 553.22 416.89 554.22 418.25 C 555.21 419.62 555.09 423.28 555.09 423.28 L 555.93 424.63 C 555.93 424.63 554.28 427.01 551.36 426.64 C 548.44 426.27 547.14 423.16 547.14 423.16 L 550.86 417.57 Z" fill="#e9b699" fill-rule="nonzero" group-id="3,6,10" node-id="172" stroke="none" target-height="10.119995" target-width="8.789978" target-x="547.14" target-y="416.89"></path></g></g><g node-id="248"><path d="M 690.83 107.14 C 690.83 107.14 680.74 103.69 670.34 109.98 C 659.53 116.52 663.22 128.76 663.22 128.76 C 663.22 128.76 669.07 120.18 673.75 116.24 C 679.16 111.70 690.83 107.14 690.83 107.14 Z" fill="#855e34" fill-rule="nonzero" group-id="3,7" node-id="178" stroke="none" target-height="25.069992" target-width="31.299988" target-x="659.53" target-y="103.69"></path><g node-id="252"><path d="M 685.80 945.22 C 685.80 945.22 677.55 949.06 671.15 949.77 C 664.75 950.48 650.38 952.61 651.37 960.30 C 652.37 967.98 668.87 968.98 673.99 968.98 C 679.11 968.98 707.00 969.12 708.56 968.98 C 710.12 968.84 726.20 950.34 730.90 945.22 C 735.59 940.10 740.57 932.56 743.13 932.56 C 745.69 932.56 744.27 966.85 744.27 966.85 L 751.24 966.85 C 751.24 966.85 750.24 950.77 755.36 938.82 C 760.48 926.87 767.03 923.17 768.45 917.62 C 769.83 912.22 769.02 903.96 765.46 896.99 C 761.90 890.02 755.50 887.74 755.50 887.74 L 685.80 945.22 Z" fill="#3c3b3b" fill-rule="nonzero" group-id="3,7,11" node-id="182" stroke="none" target-height="81.380005" target-width="119.45001" target-x="650.38" target-y="887.74"></path><path d="M 747.03 851.46 C 748.36 878.78 753.10 889.02 753.10 889.02 C 753.10 889.02 751.68 890.92 746.18 896.98 C 741.22 902.44 732.33 914.05 724.18 923.73 C 716.02 933.41 705.40 946.30 696.10 948.39 C 686.80 950.48 685.10 945.54 685.10 945.54 C 685.10 945.54 691.93 927.33 696.29 918.03 C 700.65 908.74 707.49 893.95 708.62 878.95 C 709.43 868.23 712.42 835.08 712.42 835.08 L 747.03 851.46 Z" fill="#e9b699" fill-rule="nonzero" group-id="3,7,11" node-id="184" stroke="none" target-height="115.39996" target-width="68" target-x="685.1" target-y="835.08"></path><path d="M 751.24 966.84 L 744.27 966.84 L 744.46 962.81 L 751.20 962.82 Z" fill="#1c1b1a" fill-rule="nonzero" group-id="3,7,11" node-id="186" stroke="none" target-height="4.0300293" target-width="6.9699707" target-x="744.27" target-y="962.81"></path><path d="M 691.02 948.44 C 691.02 948.44 682.77 952.28 676.37 952.99 C 669.97 953.70 655.60 955.84 656.59 963.52 C 657.59 971.20 674.09 972.20 679.21 972.20 C 684.33 972.20 712.22 972.34 713.78 972.20 C 715.35 972.06 731.42 953.56 736.12 948.44 C 740.82 943.32 745.80 935.78 748.36 935.78 C 750.92 935.78 749.50 970.07 749.50 970.07 L 756.47 970.07 C 756.47 970.07 755.47 953.99 760.60 942.04 C 765.72 930.09 772.27 926.39 773.69 920.84 C 775.07 915.43 774.26 907.18 770.70 900.21 C 767.14 893.24 760.74 890.96 760.74 890.96 L 691.02 948.44 Z" fill="#4c4b4b" fill-rule="nonzero" group-id="3,7,11" node-id="188" stroke="none" target-height="81.380005" target-width="119.47003" target-x="655.6" target-y="890.96"></path><path d="M 726.73 634.16 C 726.73 634.16 736.12 630.17 739.82 627.90 C 743.52 625.62 746.08 623.06 746.08 623.06 C 746.08 623.06 744.66 635.01 745.23 650.09 C 745.80 665.17 748.64 694.76 752.63 708.14 C 756.61 721.51 764.58 749.40 763.16 769.89 C 761.74 790.38 757.47 798.91 756.62 807.73 C 755.77 816.55 754.34 825.94 753.49 837.61 C 752.64 849.28 751.21 883.42 751.21 883.42 C 751.21 883.42 746.37 870.33 745.24 859.80 C 744.10 849.27 746.09 821.96 746.38 807.44 C 746.66 792.93 748.09 775.85 737.84 748.82 C 727.60 721.79 717.92 702.44 718.21 691.06 C 718.48 679.69 726.73 634.16 726.73 634.16 Z" fill="#e9b699" fill-rule="nonzero" group-id="3,7,11" node-id="190" stroke="none" target-height="260.36" target-width="46.660034" target-x="717.92" target-y="623.06"></path><path d="M 756.46 970.07 L 749.49 970.07 L 749.69 966.04 L 756.43 966.05 Z" fill="#3c3b3b" fill-rule="nonzero" group-id="3,7,11" node-id="192" stroke="none" target-height="4.0300293" target-width="6.9700317" target-x="749.49" target-y="966.04"></path><path d="M 666.98 624.39 C 666.98 624.39 667.17 649.05 666.98 660.43 C 666.79 671.81 663.55 691.41 665.46 697.23 C 667.54 703.58 684.05 731.19 686.90 740.86 C 689.75 750.53 693.73 776.90 698.47 793.03 C 703.22 809.16 710.45 840.28 711.18 847.85 C 712.13 857.72 715.16 867.20 713.84 882.19 C 712.51 897.18 705.88 911.97 701.51 921.27 C 697.15 930.56 690.32 948.77 690.32 948.77 C 690.32 948.77 692.03 953.70 701.32 951.62 C 710.61 949.53 721.24 936.63 729.39 926.96 C 737.55 917.29 746.08 905.33 751.39 900.21 C 756.70 895.09 759.74 892.24 759.74 892.24 C 759.74 892.24 748.55 882.75 747.22 855.44 C 745.89 828.12 752.34 784.11 744.18 759.64 C 736.02 735.17 719.71 703.30 720.09 690.21 C 720.47 677.12 729.20 633.68 729.20 633.68 C 729.20 633.68 721.61 635.01 710.42 629.32 C 699.23 623.63 691.45 622.30 681.21 623.44 C 670.96 624.59 666.98 624.39 666.98 624.39 Z" fill="#f8c8aa" fill-rule="nonzero" group-id="3,7,11" node-id="194" stroke="none" target-height="331.40002" target-width="96.19" target-x="663.55" target-y="622.3"></path></g><path d="M 753.61 166.04 C 753.61 166.04 756.85 164.24 759.11 164.62 C 761.96 165.10 763.66 168.04 763.66 168.04 L 775.33 166.05 C 775.33 166.05 777.04 155.81 770.49 151.82 C 764.17 147.97 758.25 148.40 758.25 148.40 C 758.25 148.40 750.00 152.38 750.00 155.80 C 750.01 159.21 753.61 166.04 753.61 166.04 Z" fill="#624d42" fill-rule="nonzero" group-id="3,7" node-id="197" stroke="none" target-height="20.069992" target-width="27.039978" target-x="750" target-y="147.97"></path><path d="M 763.67 168.04 C 763.67 168.04 765.77 166.98 769.36 166.05 C 773.20 165.05 775.33 166.05 775.33 166.05 C 775.33 166.05 787.49 180.63 789.84 205.32 C 792.12 229.22 792.12 239.75 787.28 255.69 C 782.44 271.62 779.95 283.39 779.03 290.50 C 777.89 299.32 775.99 312.31 773.34 320.85 C 771.02 328.33 769.07 329.10 768.50 325.69 C 767.93 322.28 767.65 290.12 763.38 272.20 C 759.11 254.27 754.28 238.91 754.28 238.91 C 754.28 238.91 753.43 228.38 757.98 210.17 C 762.53 191.96 761.96 195.66 763.95 185.70 C 765.96 175.63 763.67 168.04 763.67 168.04 Z" fill="#855e34" fill-rule="nonzero" group-id="3,7" node-id="199" stroke="none" target-height="164.05" target-width="38.690002" target-x="753.43" target-y="165.05"></path><path d="M 671.76 116.82 C 671.76 116.82 663.61 121.31 661.68 129.97 C 660.87 133.62 660.93 143.39 660.89 148.39 C 660.82 155.87 652.64 162.04 652.70 166.39 C 652.73 168.56 658.96 173.44 658.96 173.44 C 658.96 173.44 659.39 191.94 662.38 196.63 C 665.37 201.32 677.60 198.19 683.01 202.89 C 688.42 207.58 698.94 229.21 698.94 229.21 C 698.94 229.21 708.19 222.81 717.87 220.67 C 727.54 218.54 736.36 219.25 736.36 219.25 C 736.36 219.25 729.53 203.31 729.25 199.19 C 728.97 195.06 731.81 191.65 731.81 191.65 C 731.81 191.65 722.99 186.81 720.86 182.97 C 718.73 179.13 717.43 175.80 713.00 167.75 C 709.50 161.40 702.76 161.79 699.06 154.85 C 697.80 152.48 698.20 143.83 697.38 144.99 C 697.38 144.99 685.57 136.88 681.16 131.47 C 676.74 126.07 671.76 116.82 671.76 116.82 Z" fill="#f8c8aa" fill-rule="nonzero" group-id="3,7" node-id="201" stroke="none" target-height="112.39001" target-width="83.71997" target-x="652.64" target-y="116.82"></path><path d="M 740.67 405.54 C 740.67 405.54 744.65 404.40 747.50 406.96 C 750.34 409.52 751.06 415.07 755.61 416.35 C 760.16 417.63 765.43 418.20 766.57 413.65 C 767.71 409.10 766.57 395.72 767.28 390.60 C 767.99 385.48 769.98 378.51 770.13 357.17 C 770.27 335.83 769.18 300.03 767.95 290.11 C 766.15 275.66 755.76 240.79 752.77 234.10 C 749.78 227.41 738.12 212.05 718.48 219.30 C 698.85 226.56 697.28 226.98 690.88 244.06 C 684.48 261.13 677.08 267.25 673.24 272.37 C 669.40 277.49 657.28 291.87 655.32 298.97 C 653.47 305.66 650.44 314.00 654.61 336.39 C 658.79 358.78 663.34 386.09 663.71 397.85 C 664.09 409.61 667.51 416.82 670.54 417.20 C 673.57 417.58 673.57 417.58 673.57 417.58 L 673.57 417.58 C 673.57 417.58 677.37 406.58 682.30 403.54 C 687.23 400.50 693.60 399.66 696.72 399.37 C 704.69 398.61 713.04 398.23 722.14 400.13 C 731.23 402.03 740.67 405.54 740.67 405.54 Z" fill="#e88e05" fill-rule="nonzero" group-id="3,7" node-id="203" stroke="none" target-height="206.15001" target-width="119.83002" target-x="650.44" target-y="212.05"></path><path d="M 753.71 412.46 C 753.71 412.46 756.27 422.70 756.56 432.66 C 756.84 442.62 761.11 452.29 766.24 467.94 C 771.36 483.59 778.19 500.95 766.52 529.98 C 754.86 559.00 748.88 572.09 748.31 578.07 C 747.74 584.04 749.45 619.33 747.17 621.04 C 744.90 622.74 735.22 633.28 724.98 632.14 C 714.73 631.00 700.51 621.04 686.00 621.90 C 671.49 622.75 661.81 624.74 660.68 622.47 C 659.54 620.19 676.61 508.93 673.77 486.17 C 670.93 463.41 672.92 415.61 672.92 415.61 C 672.92 415.61 675.15 397.40 708.49 397.40 C 747.45 397.38 753.71 412.46 753.71 412.46 Z" fill="#575757" fill-rule="nonzero" group-id="3,7" node-id="205" stroke="none" target-height="235.90002" target-width="118.650024" target-x="659.54" target-y="397.38"></path><path d="M 714.71 636.11 C 714.17 638.43 711.82 639.95 709.48 639.49 L 605.65 618.86 C 603.31 618.40 601.75 616.10 602.19 613.75 L 614.81 545.56 C 615.24 543.22 617.51 541.69 619.84 542.18 L 726.90 564.37 C 729.23 564.85 730.70 567.15 730.16 569.47 L 714.71 636.11 Z" fill="#e84952" fill-rule="nonzero" group-id="3,7,12" node-id="209" stroke="none" target-height="98.26001" target-width="128.95001" target-x="601.75" target-y="541.69"></path><path d="M 691.64 398.67 C 691.64 398.67 683.70 399.03 680.45 394.34 C 677.20 389.65 675.76 384.24 673.59 375.57 C 671.43 366.91 668.18 354.64 668.18 354.64 C 668.18 354.64 680.81 388.20 684.06 391.09 C 687.31 393.98 694.52 398.31 694.52 398.31 L 691.64 398.67 Z" fill="#575757" fill-opacity="0.3" fill-rule="nonzero" group-id="3,7,13" node-id="214" stroke="none" target-height="44.389984" target-width="26.340027" target-x="668.18" target-y="354.64"></path><path d="M 705.96 283.28 C 705.96 283.28 701.70 274.03 702.32 265.87 C 702.94 257.71 701.81 241.30 711.24 234.60 C 720.67 227.90 732.43 228.17 734.33 229.31 C 739.14 232.20 747.34 240.09 748.28 251.92 C 749.22 263.75 744.43 279.83 744.43 279.83 C 744.43 279.83 747.05 249.05 737.20 238.59 C 727.35 228.13 715.24 237.06 710.75 242.30 C 706.28 247.55 705.96 283.28 705.96 283.28 Z" fill="#575757" fill-opacity="0.3" fill-rule="nonzero" group-id="3,7,14" node-id="219" stroke="none" target-height="55.380005" target-width="47.51996" target-x="701.7" target-y="227.9"></path><path d="M 670.91 115.96 C 670.91 115.96 675.75 111.41 680.87 109.13 C 685.99 106.85 689.12 106.85 689.12 106.85 C 689.12 106.85 697.66 96.04 709.04 96.61 C 720.42 97.18 734.08 102.87 744.32 115.96 C 754.56 129.05 760.83 148.54 760.83 148.54 C 760.83 148.54 754.85 151.67 754.00 156.93 C 753.18 161.99 754.57 165.47 754.57 165.47 C 754.57 165.47 747.17 169.95 742.05 177.56 C 737.64 184.12 731.81 191.64 731.81 191.64 C 731.81 191.64 721.55 187.19 716.74 177.99 C 712.26 169.43 715.60 166.94 705.64 162.95 C 696.13 159.14 697.66 145.55 697.66 145.55 C 697.66 145.55 683.43 135.31 678.88 129.62 C 674.32 123.93 670.91 115.96 670.91 115.96 Z" fill="#855e34" fill-rule="nonzero" group-id="3,7" node-id="222" stroke="none" target-height="95.6" target-width="89.920044" target-x="670.91" target-y="96.04"></path><path d="M 745.45 252.91 C 744.27 246.51 740.23 232.08 727.92 232.18 C 715.61 232.28 707.63 240.31 707.09 248.58 C 706.55 256.85 705.66 267.29 705.51 273.60 C 705.36 279.90 704.62 305.71 704.62 305.71 L 704.03 338.46 L 703.54 379.63 L 703.31 411.23 C 703.31 411.23 698.13 432.53 697.53 434.99 C 696.94 437.45 691.47 459.61 690.44 463.90 C 689.41 468.18 684.73 487.34 683.89 490.69 C 683.05 494.04 675.17 520.32 675.17 520.32 C 675.17 520.32 664.53 530.68 661.97 532.85 C 659.41 535.02 655.06 538.83 653.63 540.16 C 652.20 541.49 648.61 544.90 647.72 546.86 C 643.32 556.58 638.86 587.64 642.86 590.43 C 646.91 593.25 647.72 585.14 647.98 581.99 C 648.25 578.79 648.45 577.46 648.45 577.46 C 648.45 577.46 651.00 563.63 651.72 560.19 C 652.41 556.94 652.69 556.53 653.49 556.64 C 654.61 556.80 654.15 557.69 653.95 560.06 C 653.75 562.42 650.86 581.14 650.60 585.60 C 650.51 587.18 649.22 597.29 652.26 597.66 C 655.33 598.04 656.08 595.71 657.56 584.74 C 658.94 574.53 659.20 572.53 659.20 572.53 C 659.20 572.53 660.58 561.83 661.18 558.78 C 661.36 558.38 661.60 558.24 662.02 558.28 C 662.58 558.33 662.72 558.86 662.72 559.30 C 662.15 564.78 658.93 593.81 662.10 595.65 C 663.99 596.75 666.71 597.03 667.60 586.39 C 668.31 577.90 669.53 563.52 670.07 560.10 C 670.15 559.74 670.37 559.05 670.84 559.08 C 671.48 559.13 671.58 559.81 671.73 560.78 C 671.85 561.52 671.91 562.11 672.03 563.29 C 672.03 563.29 673.29 586.24 675.65 588.60 C 677.36 590.31 679.85 589.95 680.25 586.06 C 680.64 582.17 679.07 557.09 679.27 555.76 C 679.47 554.43 680.73 551.98 681.42 550.78 C 684.97 544.62 689.50 535.37 691.76 529.26 C 694.03 523.15 708.80 481.93 708.80 481.93 L 721.41 445.44 C 721.41 445.44 730.32 419.19 731.36 413.28 C 732.39 407.37 735.30 379.59 735.84 374.82 C 736.38 370.04 738.65 348.77 739.04 344.58 C 739.43 340.39 740.91 324.19 741.50 318.48 C 742.09 312.77 744.21 288.00 744.65 282.58 C 745.11 277.14 746.63 259.31 745.45 252.91 Z" fill="#f8c8aa" fill-rule="nonzero" group-id="3,7" node-id="224" stroke="none" target-height="365.95996" target-width="107.77002" target-x="638.86" target-y="232.08"></path></g></g><path d="M 441.89 147.88 C 449.13 148.00 456.06 150.45 456.34 153.24 C 456.53 155.14 454.44 152.55 452.48 151.49 C 451.21 150.81 447.63 149.37 438.93 149.14 C 430.23 148.90 439.05 147.83 441.89 147.88 Z" fill="#3e3a39" fill-rule="nonzero" node-id="228" stroke="none" target-height="7.3099976" target-width="26.299988" target-x="430.23" target-y="147.83"></path><path d="M 452.06 159.78 C 452.21 160.33 451.84 161.12 449.10 159.80 C 446.43 158.51 443.97 158.49 439.05 158.72 C 435.85 158.87 440.85 156.44 443.43 156.48 C 445.93 156.52 446.31 156.57 449.71 157.77 C 451.45 158.39 451.91 159.23 452.06 159.78 Z" fill="#3e3a39" fill-rule="nonzero" node-id="230" stroke="none" target-height="4.6799927" target-width="16.359985" target-x="435.85" target-y="156.44"></path><path d="M 678.72 141.98 C 671.81 139.82 665.09 140.97 663.94 143.54 C 663.16 145.29 665.92 144.11 668.11 143.72 C 669.53 143.47 672.65 141.36 680.67 144.74 C 687.20 147.48 681.43 142.82 678.72 141.98 Z" fill="#855e34" fill-rule="nonzero" node-id="232" stroke="none" target-height="7.6599884" target-width="24.04004" target-x="663.16" target-y="139.82"></path><path d="M 665.43 152.27 C 665.28 152.82 665.63 153.62 668.39 152.34 C 671.08 151.09 672.49 151.24 677.40 151.55 C 680.60 151.75 676.69 149.12 674.11 149.12 C 671.61 149.12 671.26 148.80 667.81 150.31 C 666.12 151.04 665.58 151.72 665.43 152.27 Z" fill="#855e34" fill-rule="nonzero" node-id="234" stroke="none" target-height="4.819992" target-width="15.319946" target-x="665.28" target-y="148.8"></path><path d="M 439.24 184.56 C 438.64 184.68 441.34 186.58 446.06 187.66 C 448.42 188.20 448.74 188.31 449.06 187.77 C 449.83 186.47 448.52 186.86 445.90 186.35 C 444.67 186.10 439.63 184.48 439.24 184.56 Z" fill="#e8ab94" fill-rule="nonzero" node-id="236" stroke="none" target-height="3.8300018" target-width="11.189972" target-x="438.64" target-y="184.48"></path><path d="M 655.80 168.39 C 654.52 169.10 655.62 170.46 658.21 172.83 C 660.13 174.59 662.76 171.77 662.62 171.53 C 661.78 170.17 657.08 167.68 655.80 168.39 Z" fill="#e9b699" fill-rule="nonzero" node-id="238" stroke="none" target-height="6.9100037" target-width="8.23999" target-x="654.52" target-y="167.68"></path><path d="M 659.47 182.01 C 659.46 181.41 659.18 181.05 659.73 181.10 C 661.95 181.29 665.13 180.39 665.89 180.26 C 669.12 179.73 670.33 178.36 670.92 178.71 C 671.51 179.06 669.85 180.42 668.45 181.06 C 665.83 182.25 659.49 184.23 659.47 182.01 Z" fill="#e8ab94" fill-rule="nonzero" node-id="240" stroke="none" target-height="5.869995" target-width="12.330017" target-x="659.18" target-y="178.36"></path></svg>